<svg width="381" height="307" viewBox="0 0 381 307" fill="none" xmlns="http://www.w3.org/2000/svg">
<path d="M84.7158 53.5804L67.4592 0H16.9393L0 53.5804H84.7158Z" fill="#F2F6FB"/>
<path d="M42.3579 57.4295C18.9678 57.4295 0 55.707 0 53.5804C0 51.4537 18.9678 49.7312 42.3579 49.7312C65.748 49.7312 84.7158 51.4633 84.7158 53.5804C84.7158 55.6974 65.7576 57.4295 42.3579 57.4295Z" fill="#E1E5F0"/>
<path d="M43.8963 49.7217H40.0508V91.3504H43.8963V49.7217Z" fill="#D8DEED"/>
<path d="M44.6649 91.3503H39.2812V301.428C39.2813 302.143 39.5649 302.828 40.0697 303.334C40.5745 303.839 41.2592 304.123 41.9731 304.123C42.687 304.123 43.3717 303.839 43.8765 303.334C44.3813 302.828 44.6649 302.143 44.6649 301.428V91.3503Z" fill="#E1E5F0"/>
<path d="M39.2812 89.3391H33.8879L11.4688 288.688C11.4327 289.002 11.4591 289.321 11.5464 289.626C11.6338 289.93 11.7804 290.214 11.9778 290.462C12.1752 290.71 12.4196 290.916 12.6968 291.069C12.9741 291.222 13.2788 291.318 13.5934 291.353H13.8626C14.6019 291.354 15.3157 291.082 15.8686 290.591C16.4214 290.1 16.775 289.422 16.8621 288.688L39.2812 89.3391Z" fill="#E1E5F0"/>
<path d="M44.6641 89.3391H50.0573L72.4764 288.688C72.5125 289.002 72.4861 289.321 72.3988 289.626C72.3114 289.93 72.1649 290.214 71.9674 290.462C71.77 290.71 71.5257 290.916 71.2484 291.069C70.9712 291.222 70.6665 291.318 70.3518 291.353H70.0826C69.3438 291.355 68.6301 291.085 68.0784 290.593C67.5266 290.101 67.1757 289.422 67.0928 288.688L44.6641 89.3391Z" fill="#E1E5F0"/>
<path d="M54.2988 84.4124H29.6493C29.1394 84.4124 28.6504 84.6151 28.2898 84.976C27.9292 85.337 27.7266 85.8265 27.7266 86.3369V89.6376C27.7232 90.1104 27.8938 90.568 28.2059 90.9229C28.5179 91.2779 28.9496 91.5055 29.4186 91.5622C33.5812 92.1486 37.7725 92.5084 41.9741 92.6399C46.1757 92.5088 50.367 92.149 54.5296 91.5622C54.9985 91.5055 55.4302 91.2779 55.7423 90.9229C56.0544 90.568 56.225 90.1104 56.2216 89.6376V86.3466C56.2228 86.093 56.174 85.8417 56.078 85.6071C55.9819 85.3725 55.8405 85.1592 55.6618 84.9794C55.4832 84.7997 55.2708 84.6571 55.0369 84.5598C54.8029 84.4624 54.5521 84.4124 54.2988 84.4124Z" fill="#D8DEED"/>
<path d="M183.671 35.0947C252.11 35.0947 287.681 61.9715 287.681 111.645C287.681 138.339 272.011 159.221 250.361 168.901C274.337 177.408 293.286 200.609 293.286 228.265C293.286 277.977 259.071 305.826 190.419 305.826H67.2969V35.0947H183.671ZM131.862 89.4931V142.91H182.123C205.321 142.91 220.414 136.174 220.414 116.023C220.414 96.2291 205.359 89.4931 182.123 89.4931H131.862ZM131.862 196.827V251.764H187.16C212.098 251.764 226.576 244.403 226.576 224.156C226.576 204.42 212.079 196.885 187.16 196.885L131.862 196.827Z" fill="#4D75F4"/>
<path d="M318.906 225.176C318.906 225.176 319.195 225.638 319.195 225.667C319.616 226.24 319.911 226.896 320.06 227.592H335.028L376.713 304.238C376.868 304.525 377.126 304.742 377.434 304.845H378.54C378.623 304.817 378.704 304.782 378.78 304.739L378.924 304.671C379.282 304.481 379.552 304.158 379.678 303.773C379.803 303.387 379.774 302.967 379.597 302.602L368.455 282.144C361.726 269.743 354.996 257.352 348.266 244.971L338.797 227.582H365.667C366.086 227.58 366.487 227.415 366.786 227.122C367.086 226.83 367.26 226.432 367.273 226.014V225.946C367.278 225.885 367.278 225.824 367.273 225.763L379.982 123.289C380.05 122.855 379.946 122.411 379.693 122.052C379.44 121.693 379.058 121.446 378.626 121.364H378.444C377.996 121.333 377.555 121.48 377.216 121.774C376.877 122.068 376.668 122.485 376.636 122.933L373.252 150.3C371.169 166.858 369.119 183.416 367.1 199.974L364.1 224.272H329.674C326.491 224.58 324.011 224.628 322.886 224.638C318.829 224.676 319.473 225.176 318.906 225.176Z" fill="#D8DEED"/>
<path d="M290.7 251.158L278.203 274.186L278.039 280.537V281.413L294.075 251.928L292.835 250.533C292.075 250.754 291.383 250.966 290.7 251.158Z" fill="#D8DEED"/>
<path d="M277.134 302.91H220.153C219.973 302.908 219.793 302.94 219.625 303.006C219.619 302.939 219.619 302.872 219.625 302.804C219.273 302.933 218.977 303.181 218.789 303.505C218.601 303.83 218.534 304.21 218.598 304.579C218.662 304.949 218.854 305.284 219.14 305.526C219.426 305.768 219.788 305.901 220.163 305.903H277.124C277.504 305.901 277.87 305.764 278.157 305.515C278.445 305.267 278.635 304.925 278.693 304.549C278.75 304.174 278.673 303.79 278.473 303.467C278.274 303.143 277.966 302.902 277.605 302.785V302.978C277.453 302.929 277.293 302.906 277.134 302.91Z" fill="#F2C377"/>
<path d="M349.458 279.007C349.615 278.893 349.748 278.748 349.848 278.582C349.948 278.416 350.013 278.231 350.04 278.039C350.067 277.846 350.055 277.651 350.004 277.463C349.954 277.276 349.866 277.1 349.747 276.948L349.641 276.765C349.486 276.569 349.286 276.414 349.059 276.312C348.831 276.21 348.582 276.164 348.333 276.178H348.18L348.314 276.37C348.046 276.381 347.787 276.475 347.574 276.64L312.446 302.91H293.218C293.107 302.896 292.993 302.896 292.882 302.91C292.882 302.843 292.882 302.776 292.834 302.708C292.45 302.794 292.111 303.019 291.882 303.34C291.654 303.661 291.552 304.055 291.596 304.446C291.64 304.838 291.827 305.199 292.121 305.461C292.415 305.723 292.796 305.866 293.189 305.864H313.128C313.474 305.865 313.812 305.754 314.09 305.547L349.458 279.007Z" fill="#F2C377"/>
<path d="M293.149 302.91H312.377L347.553 276.659C347.766 276.494 348.025 276.4 348.293 276.389L348.159 276.197L335.517 258.135L334.834 258.635L313.809 274.032L313.136 276.159C310.483 284.845 309.047 289.428 308.829 289.91C308.57 290.458 308.291 290.968 308.002 291.469C306.08 292.219 303.84 292.95 300.456 294.577C298.736 295.369 297.067 296.265 295.457 297.262C294.768 297.676 294.177 298.235 293.725 298.899C293.272 299.564 292.967 300.318 292.832 301.111C292.774 301.381 292.733 301.654 292.707 301.929C292.709 302.204 292.741 302.478 292.803 302.747C292.803 302.814 292.803 302.881 292.851 302.949C292.949 302.924 293.049 302.911 293.149 302.91Z" fill="#474961"/>
<path d="M251.235 280.518C248.98 281.905 246.836 283.465 244.823 285.185C243.342 286.63 241.733 287.938 240.016 289.092C235.834 291.834 233.661 291.796 227.316 294.779C225.594 295.57 223.924 296.47 222.317 297.473C221.627 297.888 221.035 298.446 220.58 299.11C220.126 299.774 219.82 300.529 219.683 301.322C219.628 301.593 219.59 301.866 219.567 302.14C219.545 302.364 219.545 302.59 219.567 302.814C219.562 302.881 219.562 302.949 219.567 303.016C219.736 302.95 219.915 302.917 220.096 302.92H277.057C277.21 302.918 277.363 302.941 277.509 302.987V302.795L277.913 281.403V280.527L251.235 280.518Z" fill="#474961"/>
<path d="M239.802 235.559L238.754 210.607C239.072 211.396 239.408 212.205 239.773 213.023C241.171 216.179 252.803 227.993 274.671 248.464C275.784 249.296 276.994 249.988 278.276 250.523H278.343L278.776 250.687V250.898C282.626 252.243 286.803 252.331 290.707 251.149C291.389 250.975 292.081 250.764 292.793 250.523L292.687 250.408C296.771 248.978 300.65 247.017 304.223 244.576C306.146 243.306 307.848 242.132 309.357 241.025C318.913 233.924 320.461 229.988 320.038 227.553C319.89 226.857 319.595 226.201 319.173 225.629C319.173 225.629 318.884 225.167 318.884 225.138C319.452 225.138 318.807 224.676 322.864 224.637C323.989 224.637 326.47 224.58 329.652 224.272C337.977 223.454 351.09 220.798 357.147 212.06C360.483 207.249 360.742 201.899 360.992 199.551C361.915 190.313 358.406 181.575 350.465 173.338C340.467 174.621 327.716 174.743 312.212 173.703V173.578V173.751C309.168 173.97 294.475 173.825 268.134 173.318L267.893 173.241C264.711 173.241 263.087 173.241 263.087 173.241C263.087 173.241 251.839 172.876 244.657 177.918C237.774 182.73 231.64 193.017 238.735 210.906L239.773 235.675C239.905 238.731 240.871 241.692 242.566 244.236C244.261 246.781 246.62 248.812 249.387 250.109V250.032C246.62 248.728 244.263 246.69 242.572 244.138C240.882 241.586 239.924 238.619 239.802 235.559ZM301.772 201.167C301.927 201.071 302.114 201.038 302.293 201.075C302.472 201.113 302.63 201.218 302.733 201.369C304.483 204.025 306.338 206.614 310.828 212.763C315.318 218.912 317.192 221.52 318.961 224.204C319.058 224.36 319.09 224.547 319.053 224.726C319.015 224.905 318.91 225.063 318.759 225.167C318.605 225.266 318.417 225.3 318.237 225.262C318.058 225.224 317.9 225.118 317.798 224.965C316.039 222.309 314.193 219.72 309.694 213.571C305.194 207.422 303.339 204.814 301.56 202.12C301.468 201.964 301.438 201.779 301.478 201.602C301.517 201.425 301.622 201.269 301.772 201.167Z" fill="#162359"/>
<path d="M312.195 173.203L312.205 173.396L312.195 173.203Z" fill="#162359"/>
<path d="M239.773 213.023C239.408 212.205 239.071 211.396 238.754 210.607L239.802 235.559C239.927 238.608 240.883 241.564 242.565 244.108C244.248 246.652 246.594 248.688 249.348 249.994V249.849C251.14 250.705 253.071 251.233 255.049 251.408C258.779 251.742 262.868 251.909 267.316 251.909C270.688 251.804 274.045 251.418 277.353 250.754C277.67 250.696 277.978 250.619 278.314 250.542C277.033 250.007 275.822 249.315 274.709 248.483C252.822 227.993 241.177 216.172 239.773 213.023Z" fill="#101A3A"/>
<path d="M309.706 213.629C314.205 219.778 316.051 222.366 317.81 225.022C317.912 225.175 318.07 225.282 318.25 225.32C318.429 225.358 318.617 225.323 318.772 225.224C318.922 225.121 319.027 224.963 319.065 224.784C319.103 224.605 319.07 224.418 318.973 224.262C317.204 221.577 315.349 218.989 310.84 212.82C306.331 206.652 304.495 204.083 302.746 201.427C302.642 201.269 302.48 201.158 302.296 201.119C302.111 201.08 301.918 201.117 301.76 201.22C301.602 201.323 301.491 201.485 301.453 201.67C301.414 201.855 301.45 202.048 301.553 202.206C303.351 204.843 305.207 207.432 309.706 213.629Z" fill="#101A3A"/>
<path d="M324.865 122.731C326.071 125.374 327.612 127.852 329.45 130.102C333.161 134.721 336.834 137.444 340.477 138.32C340.49 138.234 340.527 138.154 340.583 138.089C342.749 135.471 344.544 133.184 345.967 131.228C346.056 131.133 346.177 131.074 346.307 131.062C346.437 131.049 346.567 131.085 346.673 131.161C346.779 131.238 346.853 131.35 346.882 131.477C346.911 131.605 346.894 131.738 346.832 131.853C345.39 133.836 343.579 136.142 341.4 138.772C341.316 138.873 341.196 138.937 341.066 138.953C340.936 138.97 340.805 138.936 340.698 138.859C339.429 140.726 337.91 142.871 336.141 145.316C330.229 153.457 326.749 159.885 319.202 159.394C317.443 159.278 315.414 158.432 311.242 155.68L310.761 155.362L312.175 172.953V173.203V173.395C312.167 173.44 312.167 173.485 312.175 173.53V173.655C327.685 174.707 340.436 174.585 350.427 173.289C351.177 173.193 351.917 173.097 352.648 172.982C362.941 171.41 367.011 168.398 364.857 163.946L354.744 134.509C353.052 130.554 351.543 127.215 350.177 124.395C349.671 123.129 349.049 121.912 348.322 120.758C344.476 113.512 341.535 110.769 337.901 109.566C336.098 108.977 334.249 108.543 332.373 108.267V108.402C330.115 108.078 327.837 107.921 325.557 107.931C324.35 107.967 323.15 108.115 321.971 108.373V108.229C313.665 110.23 308.156 118.814 308.444 128.254L308.541 129.409C312.463 131.641 315.655 133.374 317.443 134.22C317.712 133.912 320.186 130.083 324.865 122.731Z" fill="#FBDA5E"/>
<path d="M312.232 173.713V173.54V173.213V172.962L310.819 155.372L311.3 155.689C315.472 158.47 317.501 159.288 319.26 159.404C326.807 159.894 330.287 153.466 336.199 145.325C337.968 142.881 339.487 140.735 340.756 138.868H340.708C340.636 138.805 340.581 138.724 340.551 138.632C340.52 138.541 340.515 138.443 340.535 138.349C336.892 137.473 333.219 134.75 329.508 130.131C327.67 127.881 326.129 125.403 324.923 122.76C320.237 130.099 317.757 133.948 317.481 134.307C315.693 133.441 312.502 131.709 308.579 129.496C297.86 123.385 281.574 113.483 272.691 107.055C272.05 106.343 266.721 101.663 256.704 93.0151C253.906 96.2003 259.203 101.772 261.636 104.062C262.222 105.025 258.559 109.971 259.146 110.923C258.771 114.195 271.038 123.52 274.922 127.003C276.123 128.071 276.844 128.716 278.527 130.121C287.718 137.868 295.591 144.69 305.263 151.609H305.32L302.83 157.816L278.104 160.376C271.374 159.076 266.567 158.557 263.837 158.788C259.751 159.144 250.33 162.396 250.32 165.062C250.338 165.311 250.416 165.552 250.549 165.763C250.681 165.975 250.864 166.15 251.08 166.274C253.643 168.103 259.242 170.415 267.875 173.213L268.115 173.29C294.463 173.796 309.169 173.937 312.232 173.713Z" fill="#BF865F"/>
<path d="M278.007 280.518L278.171 274.167L278.767 250.889V250.677L278.334 250.513H278.267C277.959 250.59 277.652 250.667 277.305 250.725C273.998 251.389 270.641 251.775 267.269 251.88C262.821 251.88 258.732 251.713 255.002 251.379C253.024 251.204 251.093 250.676 249.301 249.821V250.042L251.224 280.508L278.007 280.518Z" fill="#BF865F"/>
<path d="M335.517 258.135L317.318 234.126C314.915 236.69 312.254 238.999 309.377 241.016C307.868 242.122 306.166 243.296 304.243 244.566C300.67 247.008 296.791 248.968 292.707 250.398L292.813 250.513L294.053 251.909L313.761 274.041L334.825 258.645L335.507 258.144L335.517 258.135Z" fill="#BF865F"/>
<path d="M325.549 107.931C327.829 107.921 330.107 108.078 332.365 108.402V108.267V106.516H332.23L332.124 100.357C330.637 98.7792 329.381 97.416 328.356 96.2677C329.198 96.0962 329.982 95.7119 330.634 95.1514C331.313 94.5712 331.822 93.8166 332.105 92.9689C332.388 92.1212 332.434 91.2123 332.24 90.3399C332.065 89.4457 331.617 88.628 330.957 88.0004C330.297 87.3727 329.459 86.9662 328.558 86.8372C327.891 86.8089 327.228 86.9549 326.635 87.2606C325.866 87.6939 325.208 88.3 324.712 89.0312L324.241 89.9069C323.337 87.02 322.588 83.1709 322.588 83.1709C312.974 81.9295 311.455 76.8967 311.253 76.0403L310.743 76.608C309.808 77.6819 309.189 78.9944 308.955 80.3995L308.465 83.0362C308.685 83.0025 308.909 83.0025 309.128 83.0362C310.57 83.2671 311.964 84.4411 310.33 84.6047C309.62 84.6739 308.903 84.5953 308.225 84.3737L307.802 86.6736C307.7 87.3108 307.635 87.9534 307.609 88.5982C307.359 96.6237 309.532 102.725 312.416 103.6C313.888 103.998 315.412 104.167 316.935 104.101C317.165 104.101 316.935 104.101 320.155 103.639L321.703 103.398V103.225L325.866 102.33L321.905 106.266L321.982 108.19V108.335C323.156 108.09 324.35 107.955 325.549 107.931ZM308.888 89.4161C308.263 89.9069 307.657 88.0208 308.205 87.0008C308.446 86.5485 308.725 86.4812 309.003 86.5581C309.204 86.6182 309.377 86.7484 309.489 86.925C309.602 87.1016 309.648 87.3129 309.619 87.5204C309.561 88.117 309.34 89.0986 308.888 89.4161ZM309.657 93.5829C309.476 93.5061 309.329 93.3665 309.242 93.1897C309.156 93.0129 309.136 92.8109 309.186 92.6206L310.388 89.0024L310.753 86.9623C310.77 86.8692 310.823 86.7864 310.9 86.7323C310.978 86.6781 311.073 86.657 311.167 86.6736C311.26 86.6902 311.342 86.7431 311.396 86.8207C311.45 86.8983 311.471 86.9942 311.455 87.0874L311.09 89.1563L309.888 92.7745V92.8708H309.994C310.34 92.967 310.59 93.0247 311.522 93.2268C311.614 93.2476 311.695 93.3034 311.747 93.3823C311.799 93.4612 311.818 93.5573 311.801 93.6502C311.792 93.6963 311.774 93.74 311.747 93.7788C311.721 93.8175 311.687 93.8505 311.647 93.8757C311.608 93.9009 311.563 93.9178 311.517 93.9254C311.471 93.9329 311.424 93.931 311.378 93.9197C310.417 93.7176 310.167 93.6599 309.801 93.554L309.657 93.5829ZM313.06 95.6903C312.878 96.0463 312.243 96.1329 311.984 96.1522C311.724 96.1714 310.378 96.3158 310.147 95.6903C310.022 95.3805 309.932 95.0578 309.878 94.728C310.539 94.9353 311.219 95.0802 311.907 95.161C312.541 95.2284 313.022 95.2188 313.118 95.4497C313.118 95.5333 313.098 95.6158 313.06 95.6903ZM314.637 90.7922C314.022 91.283 313.406 89.3969 313.964 88.3672C314.204 87.9246 314.483 87.8572 314.752 87.9342C314.955 87.9907 315.13 88.1201 315.244 88.2977C315.357 88.4752 315.401 88.6884 315.368 88.8965C315.354 89.5947 315.095 90.2658 314.637 90.7922ZM316.704 86.1732C315.72 86.2487 314.731 86.0905 313.82 85.7113C313.744 85.6816 313.678 85.631 313.629 85.5653C313.58 85.4995 313.551 85.4213 313.545 85.3398C313.539 85.2583 313.557 85.1767 313.595 85.1045C313.633 85.0323 313.691 84.9724 313.762 84.9319C314.277 84.6265 314.882 84.5107 315.473 84.6047C316.954 84.8356 318.338 86.0481 316.704 86.1732Z" fill="#BF865F"/>
<path d="M310.321 84.6817C311.955 84.5181 310.561 83.3441 309.119 83.1132C308.899 83.0795 308.676 83.0795 308.456 83.1132C308.101 83.1576 307.757 83.272 307.447 83.45C307.382 83.497 307.332 83.5601 307.3 83.6329C307.268 83.7057 307.256 83.7857 307.264 83.8647C307.273 83.9438 307.303 84.0191 307.35 84.0832C307.397 84.1472 307.46 84.1976 307.533 84.2294C307.756 84.3173 307.984 84.3912 308.216 84.4507C308.894 84.6723 309.611 84.7509 310.321 84.6817Z" fill="#482D1F"/>
<path d="M322.577 83.2287C322.577 83.2287 323.327 87.0779 324.23 89.9648L324.701 89.0891C325.197 88.3578 325.855 87.7517 326.624 87.3185C327.218 87.0127 327.88 86.8668 328.547 86.8951C329.448 87.024 330.287 87.4305 330.946 88.0582C331.606 88.6859 332.054 89.5036 332.229 90.3978C332.423 91.2701 332.377 92.179 332.094 93.0267C331.811 93.8745 331.303 94.629 330.624 95.2093C329.972 95.7698 329.187 96.1541 328.345 96.3255C329.364 97.4674 330.62 98.8307 332.114 100.415L332.219 106.574H332.354C335.901 107.171 338.757 106.507 340.891 104.563C344.4 101.387 342.948 97.6535 341.074 95.8155C340.651 95.4017 339.91 94.7281 338.987 93.9679C339.75 92.9396 340.371 91.8132 340.833 90.6191C341.275 89.3296 342.891 84.9897 340.833 80.9962C340.303 79.9711 339.566 79.0668 338.67 78.3403C336.305 76.4157 334.094 76.6274 328.845 75.2994C327.739 75.0107 326.124 74.597 324.23 73.9426C324.086 73.9254 323.945 73.8931 323.807 73.8464C322.663 73.4326 316.386 71.6523 311.954 75.4919C311.954 75.5592 311.271 75.9538 311.281 76.0693C311.276 76.1108 311.276 76.1528 311.281 76.1944C311.483 76.9834 313.011 81.9874 322.577 83.2287Z" fill="#482D1F"/>
<path d="M315.511 84.6048C314.92 84.5108 314.315 84.6266 313.8 84.932C313.729 84.9726 313.671 85.0324 313.633 85.1046C313.594 85.1768 313.577 85.2584 313.583 85.3399C313.589 85.4215 313.618 85.4996 313.667 85.5654C313.715 85.6311 313.782 85.6818 313.858 85.7114C314.769 86.0906 315.757 86.2488 316.742 86.1733C318.338 86.0482 316.953 84.8358 315.511 84.6048Z" fill="#482D1F"/>
<path d="M321.672 103.292L321.681 103.466L321.816 106.381L321.874 106.333L325.835 102.397L321.672 103.292Z" fill="#482D1F"/>
<path d="M309.004 86.6063C308.725 86.5293 308.446 86.6063 308.206 87.0489C307.658 88.069 308.264 89.9358 308.889 89.4643C309.341 89.1467 309.514 88.1652 309.619 87.5397C309.642 87.3367 309.592 87.1323 309.48 86.9619C309.368 86.7914 309.199 86.6656 309.004 86.6063Z" fill="#482D1F"/>
<path d="M314.753 87.9343C314.484 87.8573 314.205 87.9343 313.964 88.3673C313.407 89.397 314.022 91.2542 314.637 90.7923C315.102 90.2583 315.361 89.5758 315.368 88.8677C315.394 88.6641 315.347 88.4579 315.234 88.2866C315.121 88.1153 314.95 87.9902 314.753 87.9343Z" fill="#482D1F"/>
<path d="M309.879 94.7185C309.933 95.0483 310.023 95.371 310.148 95.6808C310.379 96.3063 311.581 96.1619 311.984 96.1427C312.388 96.1235 312.878 96.0368 313.061 95.6808C313.101 95.6034 313.12 95.5175 313.119 95.4306C313.023 95.1996 312.542 95.2093 311.907 95.1419C311.22 95.0643 310.54 94.9225 309.879 94.7185Z" fill="#482D1F"/>
<path d="M311.802 93.7177C311.805 93.6269 311.774 93.5381 311.715 93.4687C311.657 93.3994 311.574 93.3543 311.484 93.3424C310.523 93.1403 310.302 93.0826 309.956 92.9864H309.85C309.85 92.9864 309.85 92.9864 309.85 92.8901L311.052 89.2719L311.417 87.203C311.434 87.1099 311.413 87.0139 311.359 86.9363C311.304 86.8587 311.222 86.8058 311.129 86.7892C311.036 86.7726 310.94 86.7937 310.862 86.8479C310.785 86.902 310.732 86.9847 310.715 87.0779L310.35 89.118L309.148 92.7362C309.098 92.9265 309.118 93.1285 309.204 93.3053C309.291 93.4821 309.438 93.6217 309.619 93.6985H309.764C310.129 93.8043 310.388 93.8621 311.34 94.0641C311.394 94.0833 311.452 94.0888 311.508 94.0802C311.565 94.0716 311.618 94.0492 311.664 94.0149C311.709 93.9806 311.746 93.9355 311.77 93.8836C311.794 93.8318 311.805 93.7748 311.802 93.7177Z" fill="#482D1F"/>
<path opacity="0.2" d="M263.875 158.778C266.634 158.547 271.392 159.067 278.141 160.366L302.829 157.816L305.223 151.58H305.165L302.829 157.662L278.112 160.212C271.364 158.929 266.608 158.403 263.846 158.634C259.683 158.99 249.992 162.377 250.329 165.052C250.367 162.387 259.789 159.134 263.875 158.778Z" fill="#8C2A00"/>
<path d="M312.203 173.395L312.213 173.54H312.222L312.203 173.395Z" fill="#162359"/>
<path opacity="0.2" d="M312.203 173.395L312.213 173.54H312.222L312.203 173.395Z" fill="#8C2A00"/>
<path d="M312.225 173.395V173.54C312.217 173.492 312.217 173.443 312.225 173.395Z" fill="#FBDA5E"/>
<path opacity="0.2" d="M312.225 173.395V173.54C312.217 173.492 312.217 173.443 312.225 173.395Z" fill="#8C2A00"/>
<path d="M341.4 138.772C343.579 136.135 345.389 133.829 346.831 131.853C346.893 131.738 346.911 131.605 346.882 131.477C346.853 131.35 346.778 131.238 346.672 131.161C346.567 131.085 346.437 131.049 346.307 131.062C346.177 131.074 346.056 131.133 345.966 131.228C344.543 133.191 342.749 135.478 340.583 138.089C340.526 138.154 340.49 138.234 340.477 138.32C340.457 138.414 340.462 138.512 340.492 138.603C340.523 138.695 340.577 138.776 340.65 138.839H340.698C340.802 138.919 340.932 138.956 341.062 138.943C341.192 138.931 341.313 138.87 341.4 138.772Z" fill="#DBB446"/>
<path d="M78.8336 247.578L86.3995 245.654L94.2154 243.729L104.598 241.112C106.149 240.696 107.474 239.687 108.288 238.302C109.103 236.918 109.342 235.268 108.954 233.709C108.566 232.15 107.582 230.806 106.213 229.966C104.845 229.126 103.201 228.857 101.637 229.218L90.9083 231.912C87.4955 228.275 81.6792 223.637 72.9884 226.139C64.2977 228.641 61.1252 236.291 63.3748 249.137C62.5631 249.655 61.7947 250.237 61.0771 250.879L32.1399 276.957C28.7679 280.005 26.737 284.264 26.4903 288.806C26.2435 293.347 27.801 297.801 30.8228 301.197C33.551 304.254 37.2814 306.234 41.3402 306.779H41.3979H41.6478C42.9888 306.942 44.3446 306.942 45.6856 306.779H70.0466C71.2323 302.172 68.7937 299.427 62.7306 298.541C62.0673 298.445 61.0771 298.339 59.8465 298.233L72.5943 286.763C74.0181 293.601 75.8447 300.349 78.0645 306.971H92.485C91.5044 303.943 89.8605 302.426 87.5532 302.419C87.1023 302.401 86.6528 302.356 86.2072 302.285C86.2649 294.901 86.6431 287.587 87.3417 280.344C87.6023 277.686 87.6184 275.009 87.3897 272.348C89.243 269.199 90.0472 265.542 89.686 261.906C89.3248 258.269 87.8168 254.842 85.3805 252.12C83.584 250.114 81.3414 248.558 78.8336 247.578Z" fill="#F2C377"/>
<path d="M84.3297 246.164L68.6786 248.271C69.1016 252.833 70.4572 255.123 72.7452 255.123C75.0333 255.123 79.3594 254.064 85.6949 251.947L84.3297 246.164ZM72.2357 286.676C72.247 286.752 72.2742 286.824 72.3156 286.889C72.3569 286.953 72.4115 287.008 72.4756 287.049C72.5397 287.091 72.6119 287.118 72.6874 287.13C72.7629 287.141 72.84 287.136 72.9135 287.116C72.987 287.095 73.0553 287.059 73.1139 287.01C73.1724 286.961 73.2198 286.9 73.253 286.831C73.2862 286.762 73.3044 286.687 73.3063 286.611C73.3083 286.534 73.294 286.458 73.2644 286.388C71.8913 281.914 71.5269 277.191 72.1972 272.56C72.2278 272.419 72.2015 272.272 72.1239 272.152C72.0464 272.031 71.9241 271.946 71.7839 271.915C71.6436 271.884 71.497 271.911 71.3762 271.988C71.2554 272.066 71.1703 272.188 71.1397 272.329C70.4436 277.134 70.8178 282.033 72.2357 286.676ZM59.5072 297.521H50.5665C53.7197 292.431 53.5371 287.263 50.0185 282.125C49.9394 282.007 49.817 281.926 49.6782 281.899C49.5394 281.872 49.3955 281.901 49.2782 281.98C49.1609 282.06 49.0799 282.182 49.0528 282.321C49.0258 282.46 49.055 282.604 49.134 282.721C52.6046 287.783 52.6046 292.749 49.134 297.752C49.0804 297.833 49.0495 297.927 49.0447 298.024C49.0398 298.121 49.0611 298.217 49.1064 298.303C49.1517 298.388 49.2192 298.46 49.3019 298.511C49.3846 298.561 49.4794 298.589 49.5762 298.59H59.5072C59.5833 298.6 59.6606 298.594 59.7341 298.572C59.8077 298.549 59.8756 298.512 59.9334 298.461C59.9911 298.411 60.0375 298.348 60.0692 298.278C60.1009 298.208 60.1173 298.132 60.1173 298.056C60.1173 297.979 60.1009 297.903 60.0692 297.833C60.0375 297.763 59.9911 297.7 59.9334 297.65C59.8756 297.599 59.8077 297.562 59.7341 297.54C59.6606 297.517 59.5833 297.511 59.5072 297.521Z" fill="#162359"/>
<path d="M26.6493 286.763C18.3719 285.926 21.9866 279.219 24.5535 274.398C27.4376 268.922 24.8131 259.848 23.0153 254.064C21.2175 248.281 15.4205 250.504 12.8729 253.497C10.3252 256.489 15.6224 263.957 16.1319 270.895C16.6414 277.833 15.2763 274.898 14.4014 284.04C13.5266 293.182 21.9963 293.865 24.4574 294.24C25.2982 294.336 26.1497 294.254 26.9569 293.999C26.346 291.636 26.2412 289.17 26.6493 286.763ZM72.0066 226.139C64.6105 227.223 60.1818 229.754 58.7205 233.731C55.7211 241.814 56.3267 246.751 58.7782 254.902C61.2297 263.052 68.3919 263.832 72.6411 258.751C75.4868 255.325 75.2753 244.454 72.0066 226.139ZM80.9185 234.424C81.1795 234.35 81.4127 234.2 81.5889 233.994C81.765 233.787 81.8762 233.533 81.9084 233.263C81.9406 232.994 81.8924 232.721 81.7698 232.478C81.6472 232.236 81.4558 232.036 81.2196 231.902C80.9834 231.768 80.713 231.708 80.4424 231.728C80.1719 231.748 79.9133 231.847 79.6992 232.014C79.485 232.181 79.325 232.407 79.2392 232.665C79.1534 232.922 79.1456 233.2 79.2169 233.462C79.2645 233.637 79.3466 233.801 79.4584 233.944C79.5702 234.088 79.7094 234.207 79.8678 234.296C80.0263 234.384 80.2008 234.441 80.3812 234.461C80.5616 234.481 80.7443 234.466 80.9185 234.414V234.424ZM108.635 232.875C110.154 232.605 109.25 230.719 108.01 229.439C106.77 228.159 104.434 227.649 103.549 228.977C102.665 230.305 107.087 233.135 108.635 232.875ZM82.6778 231.604C82.7696 231.643 82.8728 231.643 82.9648 231.605C83.0567 231.567 83.1299 231.494 83.1681 231.402C83.2064 231.311 83.2066 231.207 83.1687 231.115C83.1309 231.023 83.058 230.95 82.9662 230.912C80.7647 229.997 78.9381 230.344 77.6114 231.961C77.5415 232.031 77.5023 232.126 77.5023 232.225C77.5023 232.324 77.5415 232.419 77.6114 232.49C77.6487 232.523 77.6923 232.548 77.7395 232.563C77.7867 232.579 77.8366 232.584 77.8861 232.58C77.9356 232.575 77.9837 232.561 78.0274 232.537C78.071 232.513 78.1094 232.481 78.1402 232.442C79.2457 231.085 80.7551 230.796 82.6201 231.595L82.6778 231.604Z" fill="#6D5C44"/>
</svg>
