<svg width="390" height="328" viewBox="0 0 390 328" fill="none" xmlns="http://www.w3.org/2000/svg">
<path d="M122.137 250.009L129.411 242.642C129.879 242.166 130.437 241.789 131.053 241.531C131.669 241.274 132.329 241.142 132.996 241.143H378.161C378.832 241.143 379.497 241.277 380.116 241.538C380.734 241.798 381.295 242.18 381.765 242.661L389.001 250.084L122.137 250.009Z" fill="#D8DEED"/>
<path d="M130.888 170.178V165.047C130.891 163.708 131.423 162.425 132.369 161.478C133.315 160.532 134.596 160.001 135.932 160.001H375.272C376.608 160.001 377.89 160.532 378.835 161.478C379.781 162.425 380.313 163.708 380.316 165.047V170.244C380.316 171.585 379.785 172.871 378.839 173.819C377.893 174.767 376.61 175.299 375.272 175.299L135.979 175.233C135.313 175.24 134.652 175.114 134.035 174.862C133.417 174.611 132.856 174.24 132.382 173.77C131.909 173.299 131.533 172.74 131.277 172.124C131.02 171.507 130.888 170.846 130.888 170.178ZM130.888 190.456V185.325C130.891 183.986 131.423 182.703 132.369 181.757C133.315 180.811 134.596 180.279 135.932 180.279H375.272C376.608 180.279 377.89 180.811 378.835 181.757C379.781 182.703 380.313 183.986 380.316 185.325V190.522C380.316 191.863 379.785 193.149 378.839 194.097C377.893 195.045 376.61 195.578 375.272 195.578L135.979 195.512C135.312 195.518 134.651 195.392 134.033 195.14C133.415 194.888 132.853 194.516 132.379 194.045C131.906 193.573 131.53 193.013 131.274 192.395C131.018 191.778 130.887 191.116 130.888 190.447V190.456ZM130.888 210.669V205.538C130.891 204.199 131.423 202.915 132.369 201.969C133.315 201.023 134.596 200.492 135.932 200.492H375.272C376.608 200.492 377.89 201.023 378.835 201.969C379.781 202.915 380.313 204.199 380.316 205.538V210.735C380.316 212.075 379.785 213.361 378.839 214.309C377.893 215.257 376.61 215.79 375.272 215.79L135.979 215.724C135.313 215.73 134.652 215.604 134.035 215.353C133.417 215.102 132.856 214.73 132.382 214.26C131.909 213.79 131.533 213.231 131.277 212.614C131.02 211.998 130.888 211.337 130.888 210.669ZM130.888 230.881V225.75C130.888 225.087 131.019 224.43 131.273 223.817C131.526 223.204 131.898 222.647 132.366 222.179C132.835 221.71 133.391 221.339 134.003 221.085C134.615 220.832 135.27 220.703 135.932 220.704H375.272C375.934 220.703 376.59 220.832 377.202 221.085C377.813 221.339 378.37 221.71 378.838 222.179C379.307 222.647 379.678 223.204 379.932 223.817C380.185 224.43 380.316 225.087 380.316 225.75V230.947C380.316 232.288 379.785 233.574 378.839 234.522C377.893 235.47 376.61 236.002 375.272 236.002L135.979 235.936C135.313 235.941 134.653 235.814 134.036 235.563C133.419 235.311 132.858 234.939 132.385 234.47C131.912 234 131.536 233.441 131.279 232.825C131.023 232.209 130.89 231.549 130.888 230.881ZM123.652 249.264H387.505C387.907 249.264 388.293 249.424 388.577 249.708C388.861 249.993 389.02 250.379 389.02 250.782V258.865C389.02 259.268 388.861 259.654 388.577 259.939C388.293 260.224 387.907 260.384 387.505 260.384H123.652C123.453 260.384 123.256 260.344 123.072 260.268C122.888 260.192 122.721 260.08 122.581 259.939C122.44 259.798 122.328 259.63 122.252 259.446C122.176 259.262 122.137 259.065 122.137 258.865V250.81C122.133 250.609 122.17 250.408 122.244 250.221C122.319 250.033 122.43 249.862 122.571 249.718C122.712 249.574 122.88 249.46 123.066 249.382C123.251 249.304 123.451 249.263 123.652 249.264Z" fill="#F2F6FB"/>
<path d="M147.175 260.384H164.311L156.303 323.001C156.149 324.221 155.557 325.342 154.637 326.155C153.717 326.968 152.532 327.416 151.306 327.415H144.333C142.995 327.415 141.712 326.883 140.766 325.935C139.82 324.986 139.289 323.701 139.289 322.36C139.289 322.152 139.289 321.935 139.289 321.718L147.175 260.384ZM363.949 260.384L371.788 321.69C371.88 322.4 371.82 323.122 371.611 323.807C371.402 324.492 371.049 325.124 370.575 325.66C370.101 326.197 369.519 326.625 368.866 326.916C368.213 327.208 367.505 327.355 366.791 327.349H359.818C358.59 327.35 357.405 326.902 356.483 326.09C355.562 325.277 354.967 324.155 354.812 322.935L346.803 260.318L363.949 260.384Z" fill="#E1E5F0"/>
<path d="M78.6519 212.14V33.5114C78.5231 26.7616 75.7574 20.3317 70.9492 15.6038C66.141 10.876 59.6742 8.22741 52.9385 8.22741C46.2028 8.22741 39.7359 10.876 34.9278 15.6038C30.1196 20.3317 27.3539 26.7616 27.225 33.5114H20.5061C20.5056 26.1435 23.0021 18.9939 27.5865 13.2342C32.1708 7.47457 38.5711 3.44645 45.7386 1.80997C52.9061 0.173477 60.4156 1.02568 67.0366 4.22693C73.6575 7.42817 78.9973 12.7886 82.1808 19.4298C85.3608 12.7854 90.6994 7.42141 97.3207 4.21765C103.942 1.01389 111.453 0.160548 118.622 1.79759C125.791 3.43463 132.192 7.46486 136.775 13.2273C141.358 18.9896 143.851 26.1421 143.846 33.5114H137.127C137.127 26.6774 134.419 20.1233 129.597 15.291C124.776 10.4586 118.237 7.74379 111.418 7.74379C104.6 7.74379 98.0608 10.4586 93.2395 15.291C88.4182 20.1233 85.7096 26.6774 85.7096 33.5114V212.263C87.4991 212.999 89.0298 214.253 90.1071 215.863C91.1845 217.474 91.7599 219.369 91.7604 221.308V303.836H72.2624V221.308C72.2648 219.308 72.8785 217.357 74.021 215.718C75.1634 214.079 76.7796 212.83 78.6519 212.14ZM138.981 88.5836C129.044 88.5836 120.998 79.2367 120.998 67.7016C120.998 56.1666 129.044 46.8197 138.981 46.8197C148.918 46.8197 156.954 56.1666 156.954 67.7016C156.954 79.2367 148.909 88.5836 138.981 88.5836ZM23.6962 88.5836C13.7684 88.5836 5.72266 79.2367 5.72266 67.7016C5.72266 56.1666 13.7684 46.8197 23.6962 46.8197C33.624 46.8197 41.6791 56.1666 41.6791 67.7016C41.6791 79.2367 33.6804 88.5836 23.6962 88.5836Z" fill="#F2F6FB"/>
<path d="M56.5168 303.836H107.501C109.565 303.836 111.545 304.658 113.004 306.12C114.464 307.583 115.284 309.567 115.284 311.636V318.719C115.284 318.808 115.266 318.896 115.232 318.978C115.198 319.06 115.148 319.134 115.085 319.196C115.022 319.258 114.947 319.308 114.865 319.341C114.783 319.374 114.695 319.39 114.606 319.389H49.412C49.3235 319.39 49.2356 319.374 49.1535 319.341C49.0713 319.308 48.9965 319.258 48.9335 319.196C48.8705 319.134 48.8204 319.06 48.7862 318.978C48.7521 318.896 48.7345 318.808 48.7345 318.719V311.598C48.7445 309.536 49.5688 307.562 51.0271 306.107C52.4855 304.652 54.4593 303.836 56.5168 303.836ZM139.139 30.9838C142.348 30.9838 145.426 32.2617 147.696 34.5363C149.965 36.811 151.24 39.8962 151.24 43.113V62.3067H127.046V43.113C127.045 41.5206 127.357 39.9436 127.964 38.4721C128.571 37.0005 129.462 35.6633 130.585 34.5369C131.708 33.4105 133.041 32.5169 134.509 31.9072C135.977 31.2976 137.55 30.9838 139.139 30.9838ZM23.8633 30.9838C25.4525 30.9838 27.0261 31.2975 28.4943 31.9071C29.9626 32.5166 31.2966 33.41 32.4204 34.5363C33.5441 35.6627 34.4355 36.9998 35.0436 38.4714C35.6518 39.943 35.9648 41.5202 35.9648 43.113V62.3067H11.7617V43.113C11.7617 39.8962 13.0367 36.811 15.3062 34.5363C17.5757 32.2617 20.6537 30.9838 23.8633 30.9838Z" fill="#D8DEED"/>
<path d="M32.6535 311.579H131.367C133.429 311.582 135.406 312.405 136.864 313.867C138.321 315.33 139.14 317.312 139.14 319.379V326.5C139.141 326.589 139.124 326.677 139.091 326.76C139.058 326.842 139.009 326.917 138.947 326.98C138.885 327.043 138.811 327.093 138.729 327.128C138.648 327.162 138.56 327.18 138.471 327.18H25.5488C25.3691 327.18 25.1967 327.108 25.0697 326.981C24.9426 326.853 24.8712 326.681 24.8712 326.5V319.379C24.8712 317.311 25.6911 315.327 27.1506 313.864C28.6101 312.401 30.5895 311.579 32.6535 311.579ZM133.098 49.8473H145.19C147.53 49.8461 149.847 50.307 152.009 51.2038C154.171 52.1007 156.135 53.4158 157.789 55.074C159.444 56.7321 160.756 58.7009 161.65 60.8676C162.545 63.0344 163.005 65.3566 163.004 67.7017H115.285C115.283 65.3566 115.743 63.0344 116.638 60.8676C117.533 58.7009 118.845 56.7321 120.499 55.074C122.154 53.4158 124.118 52.1007 126.28 51.2038C128.442 50.307 130.759 49.8461 133.098 49.8473ZM17.8136 49.8473H29.9151C34.6396 49.8473 39.1705 51.7284 42.5112 55.0767C45.8519 58.4251 47.7287 62.9664 47.7287 67.7017H0C0 62.9664 1.87678 58.4251 5.21747 55.0767C8.55816 51.7284 13.0891 49.8473 17.8136 49.8473Z" fill="#E1E5F0"/>
<path d="M151.309 327.208H215.053V59.5903H151.309V327.208Z" fill="#4D75F4"/>
<path d="M174.079 325.076H187.573C187.753 325.07 187.932 325.099 188.1 325.161H188.147C188.403 325.258 188.624 325.431 188.78 325.657C188.937 325.882 189.021 326.15 189.022 326.425V326.623C189.005 326.956 188.87 327.272 188.643 327.515C188.416 327.758 188.11 327.913 187.78 327.953H173.825L133.163 327.887C132.796 327.887 132.443 327.745 132.178 327.49C131.913 327.235 131.757 326.887 131.742 326.519V326.321C131.762 325.953 131.922 325.607 132.191 325.356C132.459 325.105 132.815 324.967 133.182 324.972V325.029L174.079 325.076Z" fill="#2AE0ED"/>
<path d="M3.79287 138.27C3.61547 138.211 3.45177 138.117 3.31153 137.993C3.17129 137.869 3.05738 137.718 2.97659 137.549C2.8958 137.38 2.84978 137.196 2.84128 137.009C2.83279 136.822 2.86198 136.635 2.92712 136.459L2.993 136.28C3.06771 136.107 3.17566 135.951 3.3107 135.82C3.44573 135.689 3.60519 135.586 3.77998 135.517C3.95476 135.448 4.14143 135.414 4.32933 135.417C4.51722 135.42 4.70266 135.46 4.87504 135.535L50.6182 153.248L47.6351 155.229L3.79287 138.27Z" fill="#2AE0ED"/>
<path d="M164.483 308.344C165.002 308.704 165.502 309.091 165.979 309.504C167.143 310.564 168.372 311.55 169.659 312.456C173.423 314.956 175.436 314.918 181.214 317.634C182.775 318.358 184.29 319.177 185.75 320.087C186.378 320.462 186.916 320.969 187.329 321.573C187.742 322.177 188.018 322.864 188.14 323.586C188.194 323.832 188.232 324.08 188.253 324.331C188.27 324.627 188.235 324.924 188.15 325.208H188.103C187.828 325.114 187.536 325.075 187.246 325.095H133.203V325.038L129.59 301.459L154.602 301.61L164.483 308.344Z" fill="#474961"/>
<path d="M2.70932 138.676C2.80272 138.388 2.94259 138.117 3.12337 137.874C3.28542 138.044 3.48535 138.174 3.70681 138.251L47.6526 155.229L26.3102 169.376L26.2161 169.433C25.9808 169.603 25.755 169.772 25.5291 169.961L24.8892 169.706L19.3748 162.331C18.8954 161.677 18.4675 160.986 18.095 160.265C17.4156 158.931 16.655 157.639 15.8178 156.398C13.1641 152.71 11.3103 152.031 6.89688 147.419C5.70347 146.198 4.5907 144.9 3.56565 143.533C3.12291 142.954 2.80971 142.286 2.64733 141.575C2.48496 140.864 2.47722 140.126 2.62463 139.412C2.64015 139.165 2.66841 138.919 2.70932 138.676Z" fill="#474961"/>
<path d="M26.3117 169.376L47.6541 155.229L50.6371 153.248L53.5167 151.362C55.2636 150.203 57.3771 149.734 59.4488 150.046C61.5205 150.357 63.4034 151.428 64.7337 153.05L71.7725 161.699C71.6959 161.726 71.6273 161.773 71.5731 161.834C71.5188 161.895 71.4807 161.968 71.462 162.048C69.122 173.894 67.9614 183.279 67.9802 190.202C67.985 190.329 68.0383 190.45 68.1293 190.54C68.2203 190.629 68.3421 190.68 68.4695 190.683C68.5993 190.683 68.7238 190.631 68.8155 190.539C68.9073 190.447 68.9588 190.322 68.9588 190.192C68.9588 183.345 70.11 174.026 72.4124 162.236C72.4265 162.169 72.4253 162.099 72.409 162.032C72.3927 161.965 72.3617 161.903 72.3183 161.85C75.9695 142.03 82.1677 130.083 90.9129 126.009C98.0709 127.549 107.387 129.008 118.861 130.385C120.894 133.564 120.301 141.128 118.494 162.218C115.671 195.766 116.697 216.252 104.689 232.069C109.225 250.801 114.871 272.321 121.628 296.63C122.008 297.984 122.819 299.176 123.936 300.027C125.053 300.878 126.417 301.341 127.82 301.346L156.86 301.525C157.042 301.534 157.224 301.534 157.406 301.525C157.174 301.539 156.941 301.539 156.709 301.525H154.611L129.598 301.374H127.716C126.313 301.367 124.949 300.903 123.831 300.053C122.713 299.202 121.9 298.011 121.515 296.658C114.771 272.412 109.125 250.933 104.577 232.22C102.089 235.437 99.223 238.34 96.0415 240.869C82.5096 251.785 58.5072 231.868 24.0344 181.119C22.8744 179.389 22.3897 177.293 22.6725 175.228C22.9554 173.163 23.9861 171.275 25.5683 169.923C25.7941 169.735 26.02 169.565 26.2552 169.395L26.3117 169.376Z" fill="#A1A8C1"/>
<path opacity="0.18" d="M163.099 293.97C150.521 224.326 142.093 181.788 137.814 166.358C133.485 150.758 128.26 138.912 122.137 130.819H122.306C128.423 138.918 133.642 150.755 137.965 166.33C142.237 181.741 150.665 224.276 163.25 293.932C163.554 295.627 163.175 297.373 162.196 298.788C161.217 300.203 159.718 301.17 158.027 301.478C157.82 301.478 157.604 301.534 157.387 301.553L157.886 301.487C159.57 301.179 161.064 300.216 162.041 298.807C163.018 297.398 163.398 295.659 163.099 293.97Z" fill="#8C2A00"/>
<path d="M127.783 301.421C126.379 301.417 125.016 300.954 123.899 300.103C122.781 299.252 121.971 298.059 121.591 296.705C114.828 272.403 109.182 250.883 104.652 232.145C116.66 216.328 115.596 195.842 118.457 162.293C120.264 141.203 120.857 133.639 118.824 130.461L122.137 130.847C128.259 138.952 133.485 150.799 137.814 166.386C142.099 181.81 150.527 224.348 163.099 293.998C163.251 294.837 163.237 295.697 163.058 296.53C162.878 297.363 162.536 298.153 162.052 298.854C161.568 299.554 160.951 300.152 160.236 300.614C159.521 301.076 158.723 301.392 157.886 301.544L157.387 301.61C157.205 301.619 157.023 301.619 156.841 301.61L127.783 301.421Z" fill="#FFCB3D"/>
<path d="M127.783 301.421C126.379 301.417 125.016 300.954 123.899 300.103C122.781 299.252 121.971 298.059 121.591 296.705C114.828 272.403 109.182 250.883 104.652 232.145C116.66 216.328 115.596 195.842 118.457 162.293C120.264 141.203 120.857 133.639 118.824 130.461L122.137 130.847C128.259 138.952 133.485 150.799 137.814 166.386C142.099 181.81 150.527 224.348 163.099 293.998C163.251 294.837 163.237 295.697 163.058 296.53C162.878 297.363 162.536 298.153 162.052 298.854C161.568 299.554 160.951 300.152 160.236 300.614C159.521 301.076 158.723 301.392 157.886 301.544L157.387 301.61C157.205 301.619 157.023 301.619 156.841 301.61L127.783 301.421Z" fill="#767E9F"/>
<path d="M68.9201 190.192C68.9201 190.322 68.8685 190.447 68.7767 190.539C68.685 190.631 68.5605 190.683 68.4307 190.683C68.3033 190.68 68.1816 190.629 68.0906 190.54C67.9996 190.45 67.9462 190.329 67.9414 190.202C67.9414 183.285 69.102 173.9 71.4232 162.048C71.4419 161.968 71.4801 161.895 71.5343 161.834C71.5885 161.773 71.6571 161.726 71.7337 161.699C71.8192 161.67 71.9117 161.67 71.9972 161.699C72.1104 161.721 72.2111 161.785 72.2795 161.878C72.323 161.931 72.354 161.994 72.3702 162.061C72.3865 162.128 72.3877 162.197 72.3736 162.265C70.0399 174.036 68.8887 183.345 68.9201 190.192Z" fill="#474961"/>
<path d="M141.265 116.605C141.164 116.762 141.054 116.914 140.935 117.058C137.322 117.115 132.466 117.36 126.453 117.775C132.485 115.634 140.719 113.38 141.265 116.605Z" fill="#482D1F"/>
<path d="M92.4078 98.072L95.9272 99.8923C96.2101 100.039 96.5191 100.129 96.8365 100.156C97.1539 100.182 97.4735 100.146 97.777 100.049C98.0804 99.9517 98.3616 99.7953 98.6046 99.5887C98.8475 99.3822 99.0473 99.1296 99.1926 98.8454C99.2674 98.7043 99.3274 98.5557 99.3714 98.4021C101.837 89.8286 102.561 83.4904 101.423 79.5385C101.405 79.4766 101.375 79.4188 101.335 79.3685C101.295 79.3181 101.245 79.2762 101.189 79.2451C101.132 79.214 101.07 79.1944 101.006 79.1873C100.942 79.1802 100.878 79.1857 100.816 79.2037C100.754 79.2217 100.696 79.2516 100.646 79.2919C100.596 79.3322 100.554 79.382 100.523 79.4385C100.492 79.495 100.472 79.5571 100.465 79.6212C100.458 79.6853 100.464 79.7501 100.482 79.812C101.536 83.5187 100.886 89.6117 98.4303 98.1852C98.4025 98.2771 98.3646 98.3656 98.3174 98.4492C98.2308 98.62 98.1113 98.7719 97.9659 98.8962C97.8204 99.0205 97.6519 99.1147 97.47 99.1735C97.288 99.2322 97.0963 99.2543 96.9058 99.2384C96.7154 99.2226 96.5299 99.1692 96.3601 99.0812L92.756 97.1948C92.6998 97.1654 92.6384 97.1475 92.5753 97.1421C92.5121 97.1366 92.4486 97.1437 92.3882 97.163C92.3278 97.1823 92.2719 97.2134 92.2236 97.2544C92.1752 97.2955 92.1355 97.3458 92.1067 97.4023L73.7003 87.8479V87.9139L72.0253 87.0462C71.9131 86.986 71.8061 86.9166 71.7053 86.8387C71.305 86.515 71.0486 86.0458 70.9922 85.5333C70.9358 85.0209 71.0839 84.5069 71.4042 84.1035C77.9537 75.9293 83.0195 71.2134 86.6017 69.9558C88.6785 69.2654 90.9413 69.4074 92.916 70.352C92.9724 70.5878 93.49 70.833 94.1769 71.1159C95.325 71.5875 102.367 73.4299 115.303 76.643C115.797 76.7712 116.318 76.7501 116.8 76.5822C117.283 76.4144 117.704 76.1074 118.013 75.6998C119.359 73.87 119.895 72.4647 119.707 71.4744C121.758 72.5936 123.567 74.1081 125.032 75.9306C126.497 77.7532 127.588 79.848 128.242 82.0945C128.656 83.7377 128.732 85.4479 128.468 87.1217L127.292 96.129H127.339L125.72 108.692C125.671 109.005 125.64 109.319 125.626 109.635C124.516 116.379 122.219 116.766 120.798 118.124C105.874 113.943 96.2033 110.082 91.7867 106.542L92.4078 98.072Z" fill="#42E56D"/>
<path d="M132.184 64.9193C127.93 66.0605 124.439 66.8056 121.898 68.277C124.439 66.7396 127.959 66.0322 132.25 64.8816C135.364 64.0421 137.454 64.4005 138.837 65.4758H138.752C137.369 64.4383 135.308 64.061 132.184 64.9193Z" fill="#A339FF"/>
<path d="M135.613 91.4132H135.678C134.746 93.0459 133.419 94.4178 131.82 95.4029C133.396 94.4095 134.699 93.0383 135.613 91.4132Z" fill="#A339FF"/>
<path d="M93.6118 39.2271C93.0848 39.4723 92.5861 39.7269 92.125 39.991C92.5913 39.6827 93.0898 39.4265 93.6118 39.2271Z" fill="#F2A98A"/>
<path d="M177.193 48.0269V47.9609C178.354 43.7166 178.981 41.5159 179.075 41.3587C179.96 39.1139 183.507 35.36 183.056 33.9358C183.002 33.7057 182.863 33.5043 182.668 33.3715C182.473 33.2388 182.235 33.1844 182.002 33.219C182.247 33.1724 182.5 33.2204 182.711 33.3534C182.923 33.4863 183.076 33.6944 183.14 33.9358C183.592 35.36 180.054 39.1139 179.169 41.3587C179.094 41.5473 178.467 43.748 177.287 47.9609V48.0269C170.957 64.4508 165.405 74.961 160.631 79.5574C156.124 83.8677 143.777 88.0177 135.656 91.4131V91.366C143.787 87.9422 156.02 83.8206 160.499 79.4819C165.298 74.9044 170.863 64.4194 177.193 48.0269Z" fill="#F2A98A"/>
<path d="M107.511 34.8884C106.486 35.057 105.474 35.2933 104.48 35.5958C105.462 35.2512 106.478 35.014 107.511 34.8884Z" fill="#F2A98A"/>
<path d="M128.13 96.6573L128.008 96.2894C128.02 96.4198 128.062 96.5456 128.13 96.6573Z" fill="#F2A98A"/>
<path d="M187.895 11.79C188.752 10.2432 188.695 9.15857 187.735 8.51721H187.811C188.752 9.15857 188.855 10.2527 187.99 11.8089C187.124 13.3652 183.651 16.5248 177.478 21.4576C177.262 21.618 177.045 21.7594 176.801 21.9292C183.344 16.6914 187.042 13.3117 187.895 11.79Z" fill="#F2A98A"/>
<path d="M90.0474 52.0638C89.488 50.8352 89.0926 49.5382 88.8711 48.2062C89.4049 50.6795 90.4818 53.0026 92.0235 55.0065C91.22 54.1315 90.5537 53.1392 90.0474 52.0638Z" fill="#F2A98A"/>
<path d="M117.966 40.9059C117.873 40.586 117.763 40.2712 117.637 39.9628C117.769 40.2687 117.879 40.5839 117.966 40.9059Z" fill="#F2A98A"/>
<path d="M118.824 130.432C107.356 129.055 98.0397 127.597 90.8754 126.056C83.0398 124.339 77.7763 122.557 75.085 120.708C70.0662 117.162 69.5894 106.23 73.6546 87.9139V87.8479L92.0705 97.374C92.0109 97.4891 91.9992 97.6232 92.038 97.747C92.0768 97.8707 92.1629 97.974 92.2775 98.0342H92.3622L91.7411 106.523C96.1325 110.069 105.803 113.93 120.753 118.105L120.979 118.171L126.408 117.766C132.431 117.351 137.277 117.105 140.891 117.049C145.539 116.973 148.209 117.196 148.899 117.718C149.699 118.331 149.774 120.067 149.398 122.114C149.302 122.035 149.182 121.991 149.059 121.991C147.374 122.057 146.076 122.142 143.168 122.368C140.26 122.595 138.971 122.689 137.315 122.745C137.242 122.725 137.165 122.721 137.091 122.735C137.016 122.749 136.946 122.78 136.886 122.826C136.825 122.871 136.776 122.93 136.742 122.998C136.709 123.066 136.691 123.141 136.691 123.217C136.691 123.293 136.709 123.368 136.742 123.436C136.776 123.504 136.825 123.563 136.886 123.609C136.946 123.654 137.016 123.685 137.091 123.699C137.165 123.713 137.242 123.71 137.315 123.689C138.999 123.632 140.307 123.538 143.215 123.311C146.123 123.085 147.403 123 149.068 122.934C149.112 122.943 149.156 122.943 149.2 122.934C148.913 124.1 148.536 125.242 148.071 126.348C148.023 126.288 147.961 126.239 147.891 126.208C147.82 126.177 147.743 126.164 147.666 126.169C145.784 126.348 144.42 126.462 141.248 126.669C138.077 126.877 136.647 126.99 134.812 127.169C134.748 127.175 134.685 127.194 134.629 127.224C134.572 127.254 134.522 127.296 134.482 127.346C134.441 127.396 134.411 127.454 134.394 127.516C134.376 127.578 134.371 127.643 134.379 127.707C134.383 127.77 134.401 127.833 134.43 127.889C134.46 127.946 134.5 127.996 134.549 128.037C134.599 128.077 134.656 128.108 134.717 128.125C134.778 128.143 134.843 128.148 134.906 128.14C136.731 127.961 138.152 127.858 141.314 127.641C144.476 127.424 145.897 127.32 147.723 127.141C147.117 128.543 146.259 129.822 145.191 130.913C130.762 130.989 123.479 130.989 123.341 130.913L122.23 130.791H122.061L118.824 130.432Z" fill="#B8916D"/>
<path d="M119.313 70.6633C118.372 69.6352 115.709 68.3714 110.674 68.0695L110.58 67.2584L104.934 62.0615L110.477 62.9104C111.101 62.9842 111.73 63.0157 112.359 63.0047C113.744 62.9878 115.116 62.7326 116.415 62.2501C117.516 61.8351 118.428 60.5524 119.031 58.666C119.956 55.2898 120.196 51.7619 119.736 48.2911C119.684 47.7053 119.583 47.1249 119.435 46.5556L119.21 45.6879C118.607 45.9052 117.966 45.9951 117.327 45.952C115.831 45.8577 117.055 44.7447 118.363 44.4901C118.534 44.467 118.708 44.467 118.88 44.4901L117.939 40.9814C113.002 42.0378 110.013 43.0942 108.971 44.1505C108.281 44.8359 106.675 47.3825 104.153 51.7903L101.697 49.4512C101.055 48.9732 100.311 48.6504 99.5233 48.508C98.932 48.4097 98.3253 48.4683 97.7636 48.6778C97.0233 49.0446 96.4149 49.6327 96.0222 50.3608C95.6295 51.0889 95.4718 51.9212 95.571 52.7429C95.6497 53.5478 95.9451 54.3161 96.4258 54.9657C96.9065 55.6153 97.5543 56.1217 98.3 56.4307C99.3068 56.8034 100.408 56.8332 101.434 56.5156H101.528C100.897 57.6474 100.22 58.8547 99.5139 60.1468L98.9869 59.9393L99.4574 60.1563L101.01 68.5506C99.8997 68.6826 98.7329 68.8524 97.5095 69.041C93.943 69.6164 92.8044 69.9842 92.9267 70.3898C92.9832 70.6256 93.5008 70.8708 94.1877 71.1537C95.3358 71.6253 102.378 73.4677 115.314 76.6808C115.808 76.809 116.329 76.7879 116.811 76.62C117.293 76.4522 117.715 76.1452 118.024 75.7376C119.369 73.9078 119.906 72.5025 119.718 71.5121C119.482 71.3801 119.266 71.2386 119.031 71.116L119.313 70.6633ZM118.09 48.4326C118.072 48.2436 118.122 48.0547 118.231 47.8992C118.339 47.7438 118.499 47.632 118.683 47.5837C118.937 47.5177 119.181 47.5837 119.388 48.0081C119.859 48.9513 119.247 50.649 118.701 50.1869C118.287 49.9134 118.165 48.9702 118.09 48.4326ZM117.337 53.2239C116.923 53.3654 116.537 53.4597 115.822 53.6389C115.781 53.6494 115.739 53.6518 115.697 53.6459C115.655 53.64 115.615 53.6259 115.579 53.6044C115.543 53.583 115.511 53.5546 115.486 53.5208C115.46 53.4871 115.442 53.4487 115.431 53.4078C115.421 53.367 115.418 53.3244 115.424 53.2826C115.43 53.2408 115.444 53.2006 115.466 53.1643C115.487 53.1279 115.515 53.0961 115.549 53.0708C115.583 53.0454 115.621 53.0269 115.662 53.0164C116.377 52.8372 116.735 52.7429 117.111 52.6203C117.116 52.5985 117.116 52.576 117.111 52.5542L115.907 49.3003L115.502 47.4139C115.492 47.3718 115.491 47.3281 115.499 47.2855C115.507 47.2429 115.523 47.2024 115.547 47.1662C115.57 47.1301 115.601 47.0992 115.637 47.0753C115.673 47.0514 115.714 47.035 115.756 47.0272C115.838 47.0104 115.924 47.0267 115.994 47.0726C116.065 47.1184 116.114 47.1902 116.132 47.2724L116.528 49.1588L117.732 52.4128C117.766 52.5728 117.745 52.7394 117.673 52.8862C117.602 53.0331 117.483 53.1519 117.337 53.2239ZM114.514 54.9971C114.589 54.7802 115.022 54.7707 115.605 54.6953C116.224 54.5986 116.832 54.4438 117.422 54.2331C117.389 54.5545 117.32 54.871 117.215 55.1763C117.017 55.7516 115.935 55.6573 115.558 55.6479C115.182 55.6384 114.749 55.5913 114.561 55.2612C114.608 55.1574 114.542 55.0725 114.608 54.9971H114.514ZM112.406 49.6398C112.389 49.4509 112.439 49.2619 112.547 49.1065C112.656 48.9511 112.816 48.8393 112.999 48.791C113.253 48.7249 113.498 48.791 113.705 49.2154C114.175 50.1586 113.563 51.8563 113.018 51.3941C112.633 50.8921 112.434 50.2724 112.453 49.6398H112.406ZM112.171 45.9897C112.704 45.8899 113.255 45.9765 113.733 46.235C113.801 46.2652 113.859 46.3148 113.9 46.3776C113.941 46.4404 113.963 46.5137 113.963 46.5886C113.963 46.6636 113.941 46.7369 113.9 46.7997C113.859 46.8625 113.801 46.912 113.733 46.9423C112.928 47.3116 112.048 47.486 111.164 47.4517C109.696 47.3856 110.91 46.2444 112.218 45.9897H112.171Z" fill="#B8916D"/>
<path d="M104.895 62.0143L110.437 62.8537L110.465 62.8631L110.541 67.2018L104.895 62.0143Z" fill="#482D1F"/>
<path d="M104.179 51.7148L101.723 49.3757C101.081 48.8977 100.337 48.5749 99.5496 48.4325C98.9583 48.3342 98.3516 48.3928 97.7899 48.6023C97.0496 48.9691 96.4412 49.5572 96.0485 50.2853C95.6558 51.0134 95.4981 51.8457 95.5973 52.6674C95.676 53.4723 95.9714 54.2406 96.4521 54.8902C96.9328 55.5398 97.5806 56.0462 98.3263 56.3552C99.3163 56.7463 100.407 56.8026 101.432 56.5156H101.526C100.895 57.6474 100.218 58.8546 99.512 60.1468L98.985 59.9393C96.2318 59.0142 93.8104 57.299 92.0214 55.0065C90.4864 53.0008 89.416 50.6779 88.8878 48.2062L88.2385 48.5457C85.6225 49.8033 82.4449 50.0862 78.7059 49.3946C77.3966 49.1454 76.1732 48.5626 75.1537 47.7022C74.1342 46.8418 73.3529 45.7328 72.8849 44.4821C72.417 43.2313 72.2781 41.8809 72.4818 40.5607C72.6855 39.2406 73.2248 37.9953 74.0479 36.9446C77.5673 32.4676 83.5679 33.5146 92.0496 40.0854L92.1532 40.0288C92.6143 39.7647 93.0942 39.51 93.64 39.2648C96.311 38.1377 99.0675 37.2263 101.883 36.539C102.824 36.1806 103.662 35.8882 104.509 35.5959C105.502 35.2933 106.514 35.057 107.539 34.8885C112.708 34.0585 116.083 35.7436 117.664 39.9439C117.79 40.2524 117.9 40.5672 117.994 40.8871C113.056 41.9434 110.067 42.9998 109.026 44.0562C108.323 44.7604 106.708 47.3133 104.179 51.7148Z" fill="#DE6903"/>
<path d="M118.37 44.4522C118.542 44.4292 118.716 44.4292 118.888 44.4522C119.24 44.4774 119.583 44.577 119.895 44.7446C119.958 44.7818 120.01 44.836 120.044 44.901C120.079 44.9661 120.094 45.0394 120.089 45.1129C120.084 45.1864 120.059 45.257 120.016 45.3169C119.974 45.3768 119.915 45.4236 119.847 45.452C119.638 45.5413 119.425 45.62 119.208 45.6878C118.605 45.9051 117.964 45.995 117.326 45.9519C115.839 45.8199 117.062 44.7069 118.37 44.4522Z" fill="#DE6903"/>
<path d="M112.218 45.9897C112.751 45.8899 113.302 45.9765 113.78 46.2349C113.848 46.2652 113.906 46.3148 113.947 46.3776C113.988 46.4404 114.01 46.5137 114.01 46.5886C114.01 46.6635 113.988 46.7369 113.947 46.7997C113.906 46.8625 113.848 46.912 113.78 46.9423C112.975 47.3115 112.095 47.486 111.211 47.4516C109.696 47.3856 110.91 46.2444 112.218 45.9897Z" fill="#DE6903"/>
<path opacity="0.2" d="M177.478 21.4387C179.36 20.1465 180.772 19.4769 181.666 19.458C180.659 19.524 179.078 20.3352 176.895 21.9103L177.478 21.4387Z" fill="#8C2A00"/>
<path opacity="0.2" d="M127.96 96.2894C127.96 96.4168 127.989 96.5424 128.044 96.6573L127.922 96.2894H127.96Z" fill="#8C2A00"/>
<path opacity="0.2" d="M170.37 31.0497C168.953 34.4829 166.989 38.4599 164.48 42.9809C155.069 53.3559 148.219 60.3794 143.928 64.0515L138.809 65.4946L143.881 64.0609C148.191 60.3888 155.038 53.3653 164.423 42.9903C166.882 38.4756 168.837 34.508 170.286 31.0874C171.81 27.4845 177.638 24.6738 187.77 22.6554C177.695 24.6738 171.895 27.4719 170.37 31.0497Z" fill="#8C2A00"/>
<path opacity="0.2" d="M135.688 91.4132C135.719 91.3545 135.753 91.2978 135.791 91.2434C135.76 91.3022 135.726 91.3589 135.688 91.4132Z" fill="#8C2A00"/>
<path d="M139.891 80.1799C140.032 79.6046 140.173 78.9727 140.314 78.2936C140.173 79.001 140.013 79.6706 139.863 80.2837C139.013 84.0993 137.638 87.7782 135.779 91.2151C135.741 91.2696 135.706 91.3263 135.675 91.3849H135.609C137.717 88.0366 139.072 83.5188 139.891 80.1799Z" fill="#A339FF"/>
<path opacity="0.2" d="M139.891 80.1799C140.032 79.6046 140.173 78.9727 140.314 78.2936C140.173 79.001 140.013 79.6706 139.863 80.2837C139.013 84.0993 137.638 87.7782 135.779 91.2151C135.741 91.2696 135.706 91.3263 135.675 91.3849H135.609C137.717 88.0366 139.072 83.5188 139.891 80.1799Z" fill="#8C2A00"/>
<path d="M139.866 80.3026C140.016 79.6895 140.176 79.0198 140.317 78.3125C140.374 78.0484 140.421 77.7748 140.477 77.5108C141.287 73.1816 141.597 67.7866 138.755 65.5418H138.849L143.969 64.061C148.285 60.3889 155.135 53.3654 164.52 42.9904C167.005 38.4695 168.956 34.4892 170.374 31.0498C171.898 27.4531 177.704 24.6456 187.792 22.6272C188.733 23.2403 188.733 24.2778 187.952 25.7491C187.171 27.2205 183.595 30.465 177.347 35.4261L177.996 34.9828L177.431 35.4261C179.508 33.9233 181.026 33.1436 181.986 33.087C182.219 33.0524 182.457 33.1068 182.652 33.2396C182.847 33.3723 182.986 33.5737 183.04 33.8039C183.491 35.2281 179.944 38.9819 179.059 41.2267C178.99 41.4153 178.363 43.6161 177.177 47.8289V47.895C170.86 64.3817 165.311 74.9233 160.531 79.5197C156.014 83.8678 143.78 87.98 135.688 91.4132C135.722 91.3587 135.754 91.302 135.782 91.2434C137.642 87.8036 139.016 84.1215 139.866 80.3026Z" fill="#B9926D"/>
<path opacity="0.18" d="M128.391 96.129C129.582 96.2208 130.774 95.9584 131.817 95.3745C130.758 95.9901 129.536 96.2666 128.316 96.1668C127.987 96.1668 127.657 96.1102 127.375 96.063C127.686 96.129 128.034 96.129 128.391 96.129Z" fill="#444444"/>
<path opacity="0.18" d="M119.312 70.6632C120.013 69.7101 120.904 68.9135 121.929 68.3241C120.906 68.9162 120.016 69.7123 119.312 70.6632Z" fill="#444444"/>
<path d="M128.45 87.0556C128.714 85.3818 128.638 83.6717 128.224 82.0285C127.57 79.7819 126.479 77.6872 125.014 75.8646C123.549 74.042 121.74 72.5276 119.689 71.4083C119.624 71.1334 119.495 70.878 119.312 70.6632C120.008 69.7074 120.892 68.9049 121.91 68.3052C124.45 66.7961 127.942 66.0888 132.195 64.9475C135.291 64.1175 137.38 64.4665 138.782 65.5323L138.585 65.5889C142.189 68.2675 140.937 75.8318 139.827 80.3308C138.941 84.2085 137.509 87.9401 135.573 91.4131C134.664 93.0245 133.371 94.3854 131.809 95.3745C130.766 95.9583 129.575 96.2208 128.384 96.129C128.026 96.129 127.678 96.063 127.33 96.0158H127.283L128.45 87.0556Z" fill="#A339FF"/>
<path d="M128.45 87.0556C128.714 85.3818 128.638 83.6717 128.224 82.0285C127.57 79.7819 126.479 77.6872 125.014 75.8646C123.549 74.042 121.74 72.5276 119.689 71.4083C119.624 71.1334 119.495 70.878 119.312 70.6632C120.008 69.7074 120.892 68.9049 121.91 68.3052C124.45 66.7961 127.942 66.0888 132.195 64.9475C135.291 64.1175 137.38 64.4665 138.782 65.5323L138.585 65.5889C142.189 68.2675 140.937 75.8318 139.827 80.3308C138.941 84.2085 137.509 87.9401 135.573 91.4131C134.664 93.0245 133.371 94.3854 131.809 95.3745C130.766 95.9583 129.575 96.2208 128.384 96.129C128.026 96.129 127.678 96.063 127.33 96.0158H127.283L128.45 87.0556Z" fill="#36C150"/>
<path d="M119.314 70.6632C119.49 70.8799 119.612 71.1352 119.671 71.4083C119.436 71.2763 119.22 71.1348 118.984 71.0122L119.314 70.6632Z" fill="#F2A98A"/>
<path opacity="0.18" d="M119.314 70.6632C119.49 70.8799 119.612 71.1352 119.671 71.4083C119.436 71.2763 119.22 71.1348 118.984 71.0122L119.314 70.6632Z" fill="#444444"/>
<path d="M138.624 65.5607C141.55 67.73 141.277 73.1061 140.506 77.4919C140.449 77.7654 140.402 78.0295 140.346 78.2936C140.205 78.9538 140.063 79.5857 139.922 80.1799C139.094 83.5188 137.749 88.0366 135.641 91.4321C137.566 87.9358 138.982 84.1817 139.847 80.2837C140.957 75.7847 142.209 68.2204 138.605 65.5418L138.802 65.4852L138.624 65.5607Z" fill="#A339FF"/>
<path opacity="0.2" d="M138.624 65.5607C141.55 67.73 141.277 73.1061 140.506 77.4919C140.449 77.7654 140.402 78.0295 140.346 78.2936C140.205 78.9538 140.063 79.5857 139.922 80.1799C139.094 83.5188 137.749 88.0366 135.641 91.4321C137.566 87.9358 138.982 84.1817 139.847 80.2837C140.957 75.7847 142.209 68.2204 138.605 65.5418L138.802 65.4852L138.624 65.5607Z" fill="#8C2A00"/>
<path opacity="0.18" d="M138.624 65.5607C141.55 67.73 141.277 73.1061 140.506 77.4919C140.449 77.7654 140.402 78.0295 140.346 78.2936C140.205 78.9538 140.063 79.5857 139.922 80.1799C139.094 83.5188 137.749 88.0366 135.641 91.4321C137.566 87.9358 138.982 84.1817 139.847 80.2837C140.957 75.7847 142.209 68.2204 138.605 65.5418L138.802 65.4852L138.624 65.5607Z" fill="#386B41"/>
<path d="M138.621 65.5607H138.753C141.576 67.8054 141.284 73.2004 140.475 77.5296C141.275 73.125 141.548 67.73 138.621 65.5607Z" fill="#F2A98A"/>
<path opacity="0.2" d="M138.621 65.5607H138.753C141.576 67.8054 141.284 73.2004 140.475 77.5296C141.275 73.125 141.548 67.73 138.621 65.5607Z" fill="#8C2A00"/>
<path opacity="0.18" d="M138.621 65.5607H138.753C141.576 67.8054 141.284 73.2004 140.475 77.5296C141.275 73.125 141.548 67.73 138.621 65.5607Z" fill="#444444"/>
<path d="M140.316 78.3124C140.373 78.0484 140.42 77.7843 140.476 77.5107C140.42 77.7748 140.373 78.0484 140.316 78.3124Z" fill="#F2A98A"/>
<path opacity="0.2" d="M140.316 78.3124C140.373 78.0484 140.42 77.7843 140.476 77.5107C140.42 77.7748 140.373 78.0484 140.316 78.3124Z" fill="#8C2A00"/>
<path opacity="0.18" d="M140.316 78.3124C140.373 78.0484 140.42 77.7843 140.476 77.5107C140.42 77.7748 140.373 78.0484 140.316 78.3124Z" fill="#444444"/>
<path d="M118.682 47.5837C118.936 47.5177 119.181 47.5837 119.388 48.0081C119.858 48.9513 119.247 50.649 118.701 50.1869C118.287 49.885 118.165 48.9796 118.089 48.4325C118.072 48.2436 118.122 48.0546 118.231 47.8992C118.339 47.7438 118.499 47.632 118.682 47.5837Z" fill="#482D1F"/>
<path d="M113.045 48.791C113.3 48.7249 113.544 48.7909 113.751 49.2154C114.222 50.1586 113.61 51.8563 113.064 51.3941C112.663 50.8984 112.447 50.2781 112.453 49.6398C112.435 49.4509 112.485 49.2619 112.594 49.1065C112.702 48.9511 112.862 48.8393 113.045 48.791Z" fill="#482D1F"/>
<path d="M115.652 54.6952C116.27 54.5985 116.878 54.4438 117.468 54.233C117.436 54.5544 117.366 54.8709 117.261 55.1762C117.063 55.7516 115.981 55.6572 115.605 55.6478C115.228 55.6384 114.796 55.5912 114.607 55.2611C114.607 55.2045 114.542 55.1196 114.607 55.0442C114.607 54.7801 115.069 54.7706 115.652 54.6952Z" fill="#482D1F"/>
<path d="M117.318 53.2333C116.904 53.3748 116.518 53.4691 115.803 53.6483C115.762 53.6588 115.72 53.6612 115.678 53.6553C115.636 53.6494 115.596 53.6353 115.56 53.6138C115.524 53.5924 115.492 53.564 115.467 53.5302C115.441 53.4965 115.423 53.4581 115.412 53.4172C115.402 53.3764 115.4 53.3338 115.406 53.292C115.411 53.2502 115.425 53.21 115.447 53.1737C115.468 53.1373 115.497 53.1055 115.53 53.0802C115.564 53.0548 115.602 53.0363 115.643 53.0258C116.358 52.8466 116.716 52.7523 117.092 52.6297C117.097 52.6079 117.097 52.5854 117.092 52.5637L115.888 49.3097L115.483 47.4233C115.473 47.3812 115.472 47.3375 115.48 47.2949C115.488 47.2523 115.504 47.2118 115.528 47.1756C115.552 47.1395 115.582 47.1086 115.618 47.0847C115.654 47.0608 115.695 47.0444 115.737 47.0366C115.819 47.0198 115.905 47.0361 115.975 47.082C116.046 47.1278 116.095 47.1996 116.114 47.2818L116.509 49.1682L117.713 52.4222C117.758 52.5901 117.742 52.7684 117.668 52.9255C117.594 53.0826 117.466 53.2083 117.309 53.2805L117.318 53.2333Z" fill="#482D1F"/>
<path d="M92.7652 97.1666L96.3693 99.0529C96.5391 99.1409 96.7246 99.1943 96.9151 99.2102C97.1055 99.226 97.2973 99.2039 97.4792 99.1452C97.6611 99.0865 97.8297 98.9922 97.9751 98.8679C98.1205 98.7437 98.24 98.5918 98.3266 98.421C98.3738 98.3374 98.4117 98.2488 98.4396 98.1569C100.896 89.5834 101.545 83.4905 100.491 79.7838C100.473 79.7219 100.468 79.657 100.475 79.5929C100.482 79.5288 100.501 79.4668 100.532 79.4103C100.563 79.3538 100.605 79.304 100.655 79.2637C100.706 79.2234 100.763 79.1934 100.825 79.1754C100.887 79.1575 100.952 79.1519 101.016 79.159C101.079 79.1661 101.141 79.1858 101.198 79.2169C101.254 79.248 101.304 79.2899 101.344 79.3402C101.384 79.3906 101.414 79.4483 101.432 79.5103C102.571 83.5093 101.846 89.8852 99.3806 98.3738C99.3366 98.5274 99.2767 98.676 99.2018 98.8171C99.0566 99.1013 98.8567 99.3539 98.6138 99.5605C98.3709 99.767 98.0896 99.9234 97.7862 100.021C97.4828 100.118 97.1632 100.154 96.8457 100.127C96.5283 100.1 96.2193 100.011 95.9365 99.864L92.417 98.0437H92.3323C92.2177 97.9835 92.1316 97.8802 92.0928 97.7564C92.054 97.6327 92.0657 97.4986 92.1253 97.3835C92.1819 97.2701 92.2809 97.1837 92.4007 97.1431C92.5206 97.1025 92.6516 97.1109 92.7652 97.1666Z" fill="#36C150"/>
<path d="M134.98 128.197C134.916 128.205 134.852 128.2 134.791 128.182C134.73 128.164 134.673 128.134 134.623 128.093C134.574 128.053 134.534 128.003 134.504 127.946C134.475 127.889 134.457 127.827 134.453 127.763C134.445 127.699 134.45 127.634 134.468 127.572C134.485 127.51 134.515 127.453 134.556 127.403C134.596 127.352 134.646 127.311 134.703 127.281C134.759 127.25 134.822 127.231 134.886 127.226C136.721 127.046 138.151 126.943 141.322 126.726C144.494 126.509 145.905 126.405 147.74 126.226C147.817 126.22 147.894 126.234 147.965 126.265C148.035 126.296 148.097 126.344 148.145 126.405C148.213 126.478 148.256 126.57 148.267 126.669C148.274 126.732 148.267 126.796 148.249 126.857C148.231 126.918 148.201 126.975 148.16 127.024C148.12 127.073 148.071 127.113 148.015 127.143C147.959 127.173 147.897 127.191 147.834 127.197C146.009 127.377 144.578 127.49 141.426 127.697C138.273 127.905 136.805 127.971 134.98 128.197Z" fill="#482D1F"/>
<path d="M143.29 123.349C140.382 123.576 139.074 123.67 137.389 123.726C137.317 123.747 137.24 123.751 137.165 123.737C137.091 123.723 137.021 123.692 136.96 123.646C136.9 123.601 136.851 123.542 136.817 123.474C136.783 123.406 136.766 123.331 136.766 123.255C136.766 123.179 136.783 123.104 136.817 123.036C136.851 122.968 136.9 122.909 136.96 122.863C137.021 122.818 137.091 122.787 137.165 122.773C137.24 122.759 137.317 122.762 137.389 122.783C139.046 122.727 140.344 122.632 143.243 122.406C146.141 122.18 147.449 122.095 149.133 122.029C149.257 122.029 149.377 122.073 149.472 122.151C149.571 122.241 149.632 122.366 149.641 122.5C149.643 122.605 149.61 122.707 149.549 122.792C149.488 122.877 149.402 122.94 149.303 122.972C149.259 122.981 149.214 122.981 149.171 122.972C147.477 123.038 146.179 123.123 143.29 123.349Z" fill="#482D1F"/>
</svg>
