<svg width="314" height="291" viewBox="0 0 314 291" fill="none" xmlns="http://www.w3.org/2000/svg">
<path d="M156.442 71.9767H190.595C190.528 71.1937 190.47 70.401 190.392 69.618C190.334 69.0477 190.296 68.4774 190.266 67.9168H159.962V3.70227H239.974V61.5562L244.907 66.0028V1.41131C244.908 1.22643 244.873 1.04313 244.803 0.871954C244.733 0.700781 244.63 0.545123 244.499 0.413943C244.369 0.282763 244.214 0.178653 244.043 0.107611C243.872 0.0365679 243.689 -4.39638e-06 243.504 3.96393e-10H156.451C156.266 3.96387e-10 156.082 0.0365046 155.911 0.107429C155.74 0.178354 155.584 0.28231 155.453 0.413362C155.322 0.544414 155.218 0.699996 155.147 0.871223C155.076 1.04245 155.039 1.22597 155.039 1.41131V70.5654C155.039 70.938 155.187 71.2955 155.449 71.5599C155.712 71.8243 156.069 71.9741 156.442 71.9767Z" fill="#D8DEED"/>
<path d="M218.954 23.7409C218.372 22.204 217.366 20.8634 216.052 19.8743C213.77 18.0441 210.31 16.7875 205.674 16.1044V16.2494C204.248 23.5152 203.388 30.8806 203.101 38.2793L202.056 38.0183L192.384 35.592C192.384 36.636 192.281 38.6563 192.074 41.6529H192.181C195.592 42.8589 199.082 43.8278 202.627 44.5528C202.946 44.6108 203.246 44.6495 203.527 44.6882C203.713 46.0285 204.232 47.3011 205.035 48.3904C205.536 48.9974 206.108 49.5426 206.738 50.0144C208.133 51.1374 209.89 51.7146 211.68 51.6384C214.66 51.4451 217.484 49.2121 218.867 44.6882C218.867 44.6012 218.916 44.5238 218.935 44.4465C219.07 44.0019 219.206 43.5572 219.322 43.1222C221.382 35.9787 221.721 31.2228 218.954 23.7409Z" fill="#D8DEED"/>
<path d="M206.97 66.6988C206.97 66.3701 206.97 66.0511 206.97 65.7321C206.97 65.4131 206.97 65.3068 206.97 65.0942C206.97 64.8815 206.97 64.4175 206.893 64.1275C206.893 63.9438 206.893 63.7602 206.844 63.5862C206.844 63.1029 206.728 62.6195 206.651 62.1555C206.651 62.1555 206.651 62.1555 206.651 62.0782C206.638 62.0037 206.609 61.9331 206.565 61.8712C206.522 61.8094 206.465 61.7579 206.399 61.7205C206.341 61.6603 206.27 61.6148 206.191 61.5879C206.112 61.561 206.027 61.5534 205.945 61.5659C205.807 61.5896 205.683 61.6668 205.602 61.7809C205.52 61.8949 205.487 62.0365 205.509 62.1749C206.167 66.7659 205.807 71.4453 204.455 75.882C204.426 75.9907 204.433 76.106 204.475 76.2105C204.517 76.315 204.591 76.4032 204.687 76.4619L204.823 76.5296C204.889 76.5486 204.959 76.5542 205.028 76.546C205.097 76.5378 205.164 76.5159 205.224 76.4817C205.284 76.4475 205.337 76.4017 205.379 76.3468C205.422 76.292 205.453 76.2293 205.471 76.1623C205.858 74.7413 206.158 73.3783 206.39 72.0444H206.506C206.776 70.5207 206.937 68.9799 206.989 67.4334C206.97 67.1338 206.97 66.9018 206.97 66.6988Z" fill="#D8DEED"/>
<path d="M198.655 23.4992C198.73 23.2337 198.722 22.9516 198.632 22.6907C198.542 22.4298 198.374 22.2026 198.152 22.0396C198.001 21.8965 197.819 21.7905 197.62 21.7303C197.446 21.6821 197.264 21.6689 197.085 21.6915C196.905 21.7142 196.733 21.7721 196.576 21.862C196.419 21.952 196.282 22.0721 196.173 22.2154C196.063 22.3587 195.983 22.5224 195.937 22.6969C195.868 23.0668 195.934 23.4492 196.124 23.774C196.314 24.0989 196.615 24.3445 196.972 24.4659H197.242C197.553 24.4901 197.862 24.4074 198.119 24.2315C198.376 24.0557 198.565 23.7973 198.655 23.4992Z" fill="#D8DEED"/>
<path d="M169.879 22.9096C171.6 22.8226 175.469 20.3383 174.599 19.043C174.481 18.8755 174.334 18.7313 174.164 18.6177C173.138 17.7767 171.175 18.289 170.082 19.42C168.989 20.551 168.147 22.117 169.027 22.6583L169.153 22.7549C169.281 22.8311 169.422 22.8835 169.569 22.9096C169.672 22.9244 169.776 22.9244 169.879 22.9096Z" fill="#D8DEED"/>
<path d="M200.297 22.001C200.333 22.0344 200.361 22.0748 200.381 22.1197C200.4 22.1646 200.41 22.213 200.41 22.262C200.41 22.3109 200.4 22.3593 200.381 22.4042C200.361 22.4491 200.333 22.4895 200.297 22.5229C200.22 22.5818 200.123 22.6094 200.026 22.6003C200.123 22.6094 200.22 22.5818 200.297 22.5229C200.333 22.4895 200.361 22.4491 200.381 22.4042C200.4 22.3593 200.41 22.3109 200.41 22.262C200.41 22.213 200.4 22.1646 200.381 22.1197C200.361 22.0748 200.333 22.0344 200.297 22.001C200.118 21.7818 199.92 21.5781 199.707 21.392C199.92 21.5781 200.118 21.7818 200.297 22.001Z" fill="#E1E5F0"/>
<path d="M206.855 63.5186C206.855 63.6926 206.855 63.8762 206.904 64.0599C206.884 63.8762 206.875 63.6926 206.855 63.5186Z" fill="#E1E5F0"/>
<path d="M211.703 51.6384C214.682 51.4451 217.507 49.2121 218.89 44.6882C218.89 44.6012 218.938 44.5239 218.958 44.4465C218.958 44.5239 218.958 44.6012 218.89 44.6882C217.516 49.2121 214.711 51.4451 211.703 51.6384Z" fill="#E1E5F0"/>
<path d="M190.337 61.7012C188.519 58.5963 187.728 54.9977 188.075 51.4174C188.423 47.8371 189.891 44.4575 192.271 41.7592H192.165C192.339 38.7626 192.442 36.7423 192.474 35.6984L191.372 35.418L183.634 33.4847L173.352 30.8844C171.792 30.4919 170.451 29.4969 169.624 28.1179C168.797 26.7388 168.552 25.0882 168.941 23.5282C169.009 23.2866 169.076 23.0546 169.163 22.8323L169.038 22.7356C168.196 22.1943 169.038 20.6186 170.092 19.4973C171.146 18.376 173.149 17.854 174.174 18.695C174.344 18.8086 174.492 18.9529 174.609 19.1203C175.48 20.4253 171.611 22.9096 169.889 22.9869C171.611 22.8999 175.48 20.4156 174.609 19.1203C174.569 19.0583 174.524 19 174.474 18.9463C175.076 18.9086 175.68 18.9674 176.263 19.1203L186.903 21.7689C190.288 18.173 196.043 13.5718 204.652 16.0464C205.01 16.143 205.348 16.259 205.677 16.375V16.23C210.314 16.9196 213.773 18.1762 216.056 20C217.369 20.9891 218.375 22.3297 218.958 23.8666C221.724 31.3484 221.386 36.1043 219.345 43.2479C219.345 43.2479 219.345 43.1705 219.345 43.1222L239.938 61.6819V3.70227H159.965V67.9168H190.269C190.141 65.846 190.164 63.7687 190.337 61.7012Z" fill="#E1E5F0"/>
<path d="M198.151 22.0396C198.392 22.2129 198.568 22.4602 198.655 22.7435C198.741 23.0269 198.731 23.3306 198.628 23.6082C198.525 23.8858 198.334 24.1219 198.083 24.2803C197.833 24.4387 197.537 24.5107 197.242 24.4852C197.553 24.5094 197.862 24.4267 198.119 24.2508C198.376 24.075 198.565 23.8166 198.654 23.5185C198.737 23.2505 198.732 22.9633 198.642 22.6978C198.552 22.4323 198.38 22.202 198.151 22.0396Z" fill="#E1E5F0"/>
<path d="M206.644 62.0105C206.644 62.0105 206.644 62.0105 206.644 62.0878C206.639 62.0623 206.639 62.0361 206.644 62.0105C206.628 61.9361 206.596 61.8659 206.551 61.8043C206.506 61.7427 206.449 61.6912 206.383 61.6528C206.45 61.6891 206.509 61.7401 206.554 61.802C206.599 61.8639 206.63 61.9352 206.644 62.0105Z" fill="#E1E5F0"/>
<path d="M195.286 21.6336C195.238 21.6427 195.189 21.6427 195.141 21.6336C195.189 21.6427 195.238 21.6427 195.286 21.6336C195.896 21.3649 196.553 21.2171 197.22 21.1986C196.553 21.2171 195.896 21.3649 195.286 21.6336Z" fill="#E1E5F0"/>
<path d="M219.383 42.9966C219.383 43.0449 219.383 43.0836 219.383 43.1222C219.267 43.5572 219.131 44.0019 218.996 44.4465C218.996 44.5239 218.996 44.6012 218.928 44.6882C217.555 49.2121 214.721 51.4547 211.742 51.6384C209.951 51.7147 208.195 51.1375 206.799 50.0144C206.149 49.5462 205.558 49.0009 205.039 48.3905C204.266 47.331 203.762 46.1006 203.568 44.8042C203.288 44.8042 202.988 44.7269 202.669 44.6689C199.124 43.9438 195.634 42.9749 192.222 41.7689C189.842 44.4672 188.374 47.8468 188.027 51.4271C187.679 55.0074 188.471 58.606 190.288 61.7109C190.115 63.7784 190.092 65.8557 190.22 67.9264C190.22 68.4871 190.288 69.0574 190.346 69.6277C190.423 70.4107 190.481 71.2034 190.549 71.9864C191.097 78.3985 191.4 84.8428 191.458 91.3193C191.02 91.3914 190.577 91.4366 190.133 91.4547C187.85 91.4547 186.238 92.9562 185.297 95.9593H199.603C201.729 89.5853 203.502 83.0989 204.913 76.5296C204.822 76.5015 204.742 76.4478 204.681 76.375C204.585 76.3162 204.51 76.228 204.468 76.1235C204.426 76.019 204.419 75.9037 204.449 75.795C205.8 71.3583 206.16 66.6789 205.503 62.0879C205.48 61.9495 205.514 61.8079 205.595 61.6939C205.677 61.5798 205.8 61.5026 205.938 61.4789C206.021 61.4664 206.105 61.474 206.184 61.5009C206.263 61.5278 206.335 61.5733 206.393 61.6336C206.459 61.6719 206.516 61.7235 206.561 61.785C206.606 61.8466 206.637 61.9168 206.654 61.9912C206.649 62.0168 206.649 62.043 206.654 62.0685C206.731 62.5325 206.799 63.0352 206.847 63.4992C206.847 63.6732 206.847 63.8568 206.896 64.0405C206.896 64.3788 206.954 64.7075 206.973 65.0072C206.992 65.3068 206.973 65.4325 206.973 65.6452C206.973 65.8578 206.973 66.2831 206.973 66.6118C206.973 66.9405 206.973 67.0661 206.973 67.2981C206.921 68.8446 206.759 70.3854 206.489 71.909C206.238 73.3228 205.915 74.723 205.522 76.1043C205.501 76.1784 205.464 76.2474 205.416 76.3073L217.613 87.3368C216.413 87.4431 215.437 87.5494 214.779 87.6461C208.769 88.5161 206.354 91.2356 207.534 95.8046H231.715C233.039 95.9593 234.377 95.9593 235.701 95.8046H235.952H236.01C240.012 95.2642 243.691 93.3178 246.389 90.314C249.414 86.9501 250.979 82.524 250.741 78.0076C250.504 73.4912 248.483 69.2536 245.122 66.2251L244.928 66.0511L239.995 61.6046L219.383 42.9966Z" fill="#F2F6FB"/>
<path d="M202.078 38.0376L203.123 38.2986C203.403 30.9136 204.253 23.5612 205.667 16.3073C205.338 16.1913 205 16.0753 204.642 15.9787C196.033 13.504 190.278 18.1053 186.893 21.7012L176.253 19.0526C175.669 18.8997 175.065 18.8409 174.463 18.8786C174.514 18.9323 174.559 18.9906 174.599 19.0526C175.469 20.3576 171.6 22.8419 169.879 22.9192C169.776 22.934 169.672 22.934 169.569 22.9192C169.422 22.8931 169.281 22.8407 169.153 22.7645C169.066 22.9869 168.998 23.2189 168.931 23.4605C168.541 25.0204 168.787 26.671 169.614 28.0501C170.441 29.4292 171.781 30.4242 173.341 30.8167L183.623 33.417L191.361 35.3503L192.464 35.6306L202.078 38.0376ZM198.654 23.5379C198.565 23.8359 198.376 24.0943 198.119 24.2701C197.862 24.446 197.553 24.5287 197.242 24.5045H196.971C196.615 24.3831 196.314 24.1375 196.124 23.8127C195.934 23.4878 195.867 23.1055 195.936 22.7355C195.982 22.561 196.063 22.3973 196.172 22.254C196.282 22.1107 196.419 21.9906 196.576 21.9007C196.732 21.8107 196.905 21.7528 197.084 21.7302C197.264 21.7075 197.445 21.7207 197.619 21.7689C197.976 21.8903 198.277 22.1359 198.467 22.4607C198.657 22.7855 198.723 23.1679 198.654 23.5379ZM194.901 20.9086C196.836 20.1062 198.451 20.2899 199.738 21.4306C199.951 21.6167 200.149 21.8204 200.328 22.0395C200.363 22.073 200.392 22.1134 200.411 22.1583C200.431 22.2032 200.441 22.2516 200.441 22.3005C200.441 22.3495 200.431 22.3979 200.411 22.4428C200.392 22.4877 200.363 22.5281 200.328 22.5615C200.25 22.6204 200.154 22.648 200.057 22.6389C200.008 22.6354 199.96 22.6215 199.917 22.5982C199.873 22.5748 199.835 22.5426 199.805 22.5035C199.767 22.4859 199.734 22.4594 199.709 22.4262C199.573 22.2619 199.438 22.1265 199.302 21.9912C198.748 21.5122 198.042 21.245 197.31 21.2372C196.643 21.2558 195.986 21.4035 195.375 21.6722C195.327 21.6814 195.278 21.6814 195.23 21.6722C195.176 21.673 195.123 21.6611 195.074 21.6376C195.025 21.6142 194.983 21.5797 194.95 21.5369C194.877 21.4995 194.819 21.438 194.785 21.3629C194.738 21.2815 194.723 21.185 194.745 21.0932C194.766 21.0014 194.822 20.9215 194.901 20.8699V20.9086Z" fill="#F2F6FB"/>
<path d="M194.862 21.5273C194.895 21.5701 194.938 21.6046 194.986 21.628C195.035 21.6515 195.089 21.6634 195.143 21.6626C195.191 21.6718 195.24 21.6718 195.288 21.6626C195.898 21.3939 196.555 21.2462 197.222 21.2276C197.955 21.2354 198.661 21.5026 199.215 21.9816C199.35 22.1169 199.486 22.2523 199.621 22.4166C199.647 22.4498 199.68 22.4763 199.718 22.4939C199.748 22.533 199.786 22.5652 199.829 22.5886C199.872 22.6119 199.92 22.6258 199.969 22.6293C200.066 22.6384 200.163 22.6108 200.24 22.5519C200.276 22.5185 200.304 22.4781 200.324 22.4332C200.343 22.3883 200.353 22.3399 200.353 22.2909C200.353 22.242 200.343 22.1936 200.324 22.1487C200.304 22.1038 200.276 22.0634 200.24 22.0299C200.061 21.8108 199.863 21.6071 199.65 21.421C198.393 20.2803 196.748 20.0967 194.814 20.899C194.768 20.917 194.727 20.9439 194.692 20.9781C194.657 21.0123 194.63 21.053 194.611 21.098C194.592 21.143 194.582 21.1914 194.582 21.2402C194.582 21.289 194.592 21.3373 194.611 21.3823C194.64 21.4227 194.678 21.4564 194.721 21.4814C194.764 21.5064 194.812 21.522 194.862 21.5273Z" fill="#D8DEED"/>
<path d="M76.9321 165.877C75.1813 166.418 75.2877 166.36 75.1136 166.409C73.7277 166.704 72.3019 166.762 70.8964 166.583C70.5345 166.526 70.1866 166.401 69.8711 166.215V174.055C71.9206 172.433 74.2759 171.239 76.7966 170.546L76.9321 165.877Z" fill="#4D75F4"/>
<path d="M270.48 237.941V231.029H134.426V20.1643H69.8711V138.414C72.1697 137.528 74.6573 137.245 77.0965 137.593L77.996 137.738C78.4797 137.815 79.1277 137.912 79.9305 137.999C80.7527 138.105 81.4201 138.144 81.8167 138.192C86.7207 138.656 88.5875 138.095 90.9959 139.545L91.083 139.594C92.0033 140.12 92.7986 140.838 93.4141 141.701C95.8516 145.104 95.01 149.289 94.7779 150.536C94.5782 151.54 94.2533 152.514 93.8107 153.436H93.801C93.0426 154.827 92.1239 156.125 91.0636 157.303C90.1267 158.46 89.0981 159.539 87.9878 160.531L88.2586 168.816C91.2281 168.816 93.4915 169.405 97.3121 170.991C103.425 173.494 107.139 179.265 112.314 190.643C118.476 204.176 123.921 219.062 120.594 222.677L120.323 222.938C122.103 226.061 128.941 239.062 127.916 246.834C127.706 248.374 127.245 249.87 126.552 251.261C126.593 251.301 126.625 251.35 126.647 251.403C126.668 251.456 126.679 251.513 126.678 251.57H147.174C151.509 251.572 155.721 253.005 159.157 255.647C162.592 258.288 165.058 261.99 166.171 266.176L198.013 284.543C198.352 284.743 198.598 285.067 198.7 285.447C198.801 285.827 198.749 286.231 198.555 286.573C198.458 286.742 198.328 286.891 198.173 287.01C198.018 287.129 197.841 287.216 197.652 287.266C197.463 287.317 197.266 287.329 197.072 287.303C196.879 287.277 196.692 287.213 196.523 287.114L166.732 269.975L196.572 287.191L196.794 287.298C196.812 287.513 196.785 287.73 196.717 287.936C196.652 288.086 196.571 288.228 196.475 288.361C196.363 288.515 196.24 288.66 196.108 288.796C195.036 289.706 193.746 290.322 192.364 290.584C192.255 290.598 192.145 290.598 192.035 290.584C190.334 290.638 188.631 290.579 186.938 290.41C183.611 290.082 176.356 289.163 174.102 289.038C170.761 289.105 167.433 289.478 164.159 290.149C162.442 290.439 160.706 290.594 158.965 290.613L148.78 290.72C148.238 290.72 147.687 290.807 147.135 290.807H69.8711V290.961H270.48V237.941Z" fill="#4D75F4"/>
<path d="M6.15066 288.11C6.01998 288.106 5.88952 288.122 5.76376 288.158L5.70572 288.061C5.37826 288.138 5.0863 288.323 4.87731 288.586C4.66833 288.849 4.55462 289.175 4.55469 289.511C4.56954 289.898 4.73242 290.264 5.00966 290.534C5.28689 290.804 5.65728 290.957 6.04426 290.961H58.6242C58.8492 290.959 59.0707 290.906 59.2723 290.807C56.1365 290.616 53.0918 289.678 50.3929 288.071L6.15066 288.11Z" fill="#42E56D"/>
<path d="M196.477 287.095C196.646 287.193 196.833 287.258 197.026 287.284C197.22 287.31 197.417 287.297 197.606 287.247C197.795 287.197 197.972 287.11 198.127 286.991C198.282 286.871 198.411 286.723 198.509 286.553C198.703 286.212 198.755 285.807 198.653 285.428C198.552 285.048 198.306 284.723 197.967 284.523L166.125 266.157C166.452 267.397 166.656 268.666 166.734 269.946L196.477 287.095Z" fill="#42E56D"/>
<path d="M148.773 290.816L158.959 290.71C160.699 290.691 162.436 290.536 164.153 290.246C167.423 289.575 170.748 289.203 174.087 289.134C176.34 289.26 183.595 290.178 186.922 290.507C188.616 290.676 190.318 290.734 192.019 290.681C192.129 290.694 192.239 290.694 192.348 290.681C193.73 290.419 195.02 289.802 196.092 288.893C196.224 288.757 196.347 288.611 196.459 288.458C196.555 288.325 196.636 288.182 196.701 288.032C196.769 287.827 196.796 287.61 196.778 287.394L196.556 287.288L166.716 270.072C166.716 270.478 166.774 270.884 166.774 271.309C166.755 276.221 164.897 280.947 161.566 284.557C158.234 288.168 153.67 290.401 148.773 290.816Z" fill="#474961"/>
<path d="M6.15193 288.11H50.3942C47.8471 286.584 45.6778 284.504 44.0481 282.023C42.4184 279.542 41.3706 276.726 40.9828 273.784H40.9248L30.3527 271.309C28.5147 272.775 26.5311 274.048 24.4331 275.108C22.4212 276.075 15.6697 278.975 12.6229 280.328C11.0772 281.037 9.57524 281.837 8.12513 282.725C8.02912 282.781 7.94123 282.849 7.86397 282.928C6.79511 283.841 5.98462 285.017 5.51354 286.341C5.46182 286.524 5.4294 286.712 5.41682 286.901C5.39752 287.065 5.39752 287.231 5.41682 287.394C5.46533 287.626 5.56442 287.844 5.707 288.032L5.76503 288.129C5.89228 288.103 6.02273 288.097 6.15193 288.11Z" fill="#474961"/>
<path d="M147.129 290.903C147.68 290.903 148.231 290.903 148.773 290.816C153.687 290.407 158.267 288.167 161.606 284.542C164.946 280.916 166.8 276.169 166.803 271.242C166.803 270.816 166.803 270.41 166.744 270.004C166.432 265.023 164.229 260.349 160.585 256.936C156.942 253.523 152.132 251.628 147.138 251.638H126.632C126.632 251.704 126.619 251.769 126.594 251.829C126.569 251.889 126.531 251.944 126.485 251.99C126.438 252.036 126.382 252.072 126.321 252.096C126.26 252.121 126.195 252.132 126.129 252.131H111.301C111.196 252.101 111.104 252.038 111.038 251.95C110.972 251.863 110.937 251.757 110.937 251.648C110.937 251.538 110.972 251.432 111.038 251.345C111.104 251.258 111.196 251.194 111.301 251.164H126.129C126.203 251.165 126.275 251.183 126.341 251.217C126.406 251.25 126.463 251.298 126.507 251.358C127.2 249.966 127.661 248.471 127.87 246.93C128.896 239.197 122.067 226.157 120.278 223.035C118.034 225.329 114.458 227.243 109.551 228.777C96.4927 230.543 87.4005 231.106 82.2741 230.468C81.1334 230.282 80.0587 229.81 79.1498 229.096L77.0025 230.787L75.8031 231.754L54.688 250.12V250.227C54.6774 250.291 54.6543 250.352 54.6198 250.408C54.5854 250.463 54.5403 250.511 54.4873 250.549C54.4342 250.586 54.3742 250.613 54.3107 250.628C54.2472 250.642 54.1815 250.644 54.1173 250.633L49.31 254.818H49.4938C46.7958 256.612 44.5837 259.045 43.0547 261.901C41.5257 264.756 40.7272 267.945 40.7305 271.184C40.7313 272.043 40.7862 272.902 40.8949 273.755H40.9529C41.5356 278.291 43.685 282.48 47.0298 285.601C50.3747 288.721 54.705 290.576 59.2728 290.845C59.679 290.845 60.0853 290.903 60.4915 290.903H147.129Z" fill="#61B295"/>
<path opacity="0.18" d="M20.1641 268.931L30.3493 271.309L20.1641 268.931Z" fill="#444444"/>
<path d="M40.9224 273.774C40.8137 272.922 40.7588 272.063 40.7579 271.203C40.7547 267.964 41.5531 264.775 43.0822 261.92C44.6112 259.065 46.8232 256.632 49.5213 254.838H49.3375L54.1448 250.681C54.0805 250.671 54.0189 250.647 53.9637 250.613C53.9084 250.579 53.8605 250.534 53.8227 250.48C53.785 250.427 53.7581 250.367 53.7436 250.304C53.7292 250.241 53.7274 250.175 53.7385 250.111L56.0212 237.061C56.0256 236.992 56.0444 236.925 56.0765 236.863C56.1085 236.802 56.1531 236.748 56.2073 236.706C56.2616 236.663 56.3242 236.632 56.3912 236.614C56.4582 236.597 56.528 236.594 56.5962 236.606C56.6644 236.618 56.7294 236.643 56.7869 236.682C56.8445 236.72 56.8934 236.77 56.9304 236.828C56.9673 236.887 56.9916 236.952 57.0016 237.021C57.0117 237.089 57.0072 237.159 56.9885 237.225L54.6864 250.169L75.8016 231.802L77.001 230.836L79.1483 229.096C76.44 227.163 74.0831 223.177 72.0777 217.138C63.6045 215.34 52.8196 211.036 39.723 204.224C36.8212 202.938 34.3257 201.769 32.072 200.705C24.392 211.661 19.5718 233.249 17.6115 265.471C17.5642 266.25 17.7949 267.02 18.2624 267.645C18.73 268.27 19.4042 268.708 20.1651 268.883L30.3503 271.261L40.9224 273.774Z" fill="#61B295"/>
<path opacity="0.18" d="M40.9224 273.774C40.8137 272.922 40.7588 272.063 40.7579 271.203C40.7547 267.964 41.5531 264.775 43.0822 261.92C44.6112 259.065 46.8232 256.632 49.5213 254.838H49.3375L54.1448 250.681C54.0805 250.671 54.0189 250.647 53.9637 250.613C53.9084 250.579 53.8605 250.534 53.8227 250.48C53.785 250.427 53.7581 250.367 53.7436 250.304C53.7292 250.241 53.7274 250.175 53.7385 250.111L56.0212 237.061C56.0256 236.992 56.0444 236.925 56.0765 236.863C56.1085 236.802 56.1531 236.748 56.2073 236.706C56.2616 236.663 56.3242 236.632 56.3912 236.614C56.4582 236.597 56.528 236.594 56.5962 236.606C56.6644 236.618 56.7294 236.643 56.7869 236.682C56.8445 236.72 56.8934 236.77 56.9304 236.828C56.9673 236.887 56.9916 236.952 57.0016 237.021C57.0117 237.089 57.0072 237.159 56.9885 237.225L54.6864 250.169L75.8016 231.802L77.001 230.836L79.1483 229.096C76.44 227.163 74.0831 223.177 72.0777 217.138C63.6045 215.34 52.8196 211.036 39.723 204.224C36.8212 202.938 34.3257 201.769 32.072 200.705C24.392 211.661 19.5718 233.249 17.6115 265.471C17.5642 266.25 17.7949 267.02 18.2624 267.645C18.73 268.27 19.4042 268.708 20.1651 268.883L30.3503 271.261L40.9224 273.774Z" fill="#444444"/>
<path d="M126.126 251.077H111.298C111.193 251.107 111.101 251.171 111.035 251.258C110.969 251.345 110.934 251.451 110.934 251.561C110.934 251.67 110.969 251.776 111.035 251.863C111.101 251.951 111.193 252.014 111.298 252.044H126.126C126.192 252.045 126.257 252.034 126.318 252.009C126.379 251.985 126.435 251.949 126.482 251.903C126.528 251.857 126.566 251.802 126.591 251.742C126.616 251.682 126.629 251.617 126.629 251.551C126.63 251.494 126.62 251.437 126.598 251.384C126.577 251.33 126.544 251.282 126.504 251.242C126.457 251.188 126.399 251.145 126.334 251.116C126.269 251.088 126.198 251.075 126.126 251.077Z" fill="#482D1F"/>
<path d="M56.5442 236.655C56.48 236.644 56.4143 236.646 56.3508 236.66C56.2873 236.675 56.2273 236.701 56.1742 236.739C56.1212 236.777 56.0761 236.825 56.0417 236.88C56.0072 236.935 55.984 236.997 55.9735 237.061L53.6908 250.111C53.6797 250.175 53.6814 250.241 53.6959 250.304C53.7104 250.367 53.7373 250.427 53.775 250.48C53.8128 250.534 53.8607 250.579 53.916 250.613C53.9712 250.647 54.0328 250.671 54.097 250.681C54.1612 250.692 54.2269 250.69 54.2904 250.676C54.3539 250.662 54.4139 250.635 54.467 250.597C54.52 250.559 54.5651 250.511 54.5996 250.456C54.634 250.401 54.6572 250.339 54.6677 250.275V250.169L56.9311 237.225C56.9539 237.099 56.9262 236.968 56.8539 236.861C56.7816 236.755 56.6704 236.681 56.5442 236.655Z" fill="#482D1F"/>
<path d="M65.9936 182.697C65.9889 182.78 65.9889 182.864 65.9936 182.948C66.2451 185.5 66.5159 187.936 66.8061 190.285C66.9899 191.764 67.1737 193.185 67.3671 194.606L76.5367 196.781V196.626L98.1452 203.702H98.3C98.2573 203.628 98.234 203.545 98.2322 203.46C98.2335 203.395 98.2475 203.332 98.2735 203.272C98.2994 203.213 98.3368 203.159 98.3835 203.114C98.4303 203.07 98.4853 203.034 98.5457 203.011C98.606 202.987 98.6704 202.976 98.7352 202.977C99.8379 202.977 100.409 201.846 100.67 199.4C100.67 199.178 100.718 198.936 100.747 198.675C100.747 198.598 100.902 197.022 100.95 196.626C100.984 196.101 101.115 195.586 101.337 195.108C101.337 195.108 102.643 192.904 102.894 192.44C103.28 191.802 103.53 191.091 103.63 190.352C103.655 190.069 103.655 189.785 103.63 189.502C103.618 189.318 103.618 189.134 103.63 188.951C103.662 188.838 103.733 188.741 103.831 188.676C103.929 188.611 104.046 188.583 104.163 188.597C104.279 188.611 104.387 188.666 104.466 188.752C104.546 188.838 104.592 188.95 104.597 189.067C104.597 189.241 104.597 189.386 104.597 189.473C104.62 189.795 104.62 190.118 104.597 190.439C104.485 191.297 104.198 192.123 103.755 192.866C103.494 193.359 102.188 195.553 102.179 195.563C102.026 195.929 101.935 196.317 101.908 196.713C101.908 197.09 101.724 198.646 101.714 198.733C101.714 199.004 101.714 199.255 101.637 199.487C101.279 202.387 100.505 203.963 98.6675 203.924C95.9785 210.369 92.3642 214.631 87.8246 216.713C84.0136 218.453 78.7388 218.601 72.0003 217.158C74.0122 223.228 76.3691 227.214 79.0709 229.115C79.9905 229.791 81.0644 230.226 82.1952 230.381C87.3539 231.026 96.446 230.462 109.472 228.69C114.385 227.15 117.961 225.236 120.199 222.948L120.469 222.687C123.816 219.072 118.351 204.205 112.19 190.652C107.015 179.275 103.301 173.504 97.1876 171C93.3186 169.415 91.1036 168.796 88.1341 168.825L88.1921 170.671C84.466 171.799 80.5439 172.128 76.6818 171.638V170.555C74.1611 171.249 71.8058 172.442 69.7563 174.064C69.1476 174.565 68.5814 175.114 68.0636 175.708C67.7294 176.138 67.4286 176.594 67.164 177.071C66.6599 178.021 66.2672 179.027 65.9936 180.067C65.8146 180.695 65.7523 181.35 65.8099 182.001C65.8099 182.146 65.8099 182.291 65.8099 182.436C65.8622 182.529 65.9237 182.616 65.9936 182.697ZM76.0724 196.007L78.5293 186.496C78.5451 186.433 78.5731 186.374 78.6119 186.322C78.6506 186.269 78.6992 186.226 78.7549 186.192C78.8106 186.159 78.8723 186.137 78.9365 186.128C79.0007 186.119 79.0661 186.122 79.129 186.138C79.2568 186.172 79.366 186.255 79.433 186.369C79.4999 186.483 79.5193 186.619 79.4868 186.747L77.03 196.23C77.0135 196.293 76.9846 196.353 76.9451 196.405C76.9055 196.457 76.856 196.501 76.7995 196.535C76.7429 196.568 76.6803 196.59 76.6153 196.599C76.5503 196.608 76.4842 196.604 76.4206 196.587C76.3571 196.571 76.2975 196.542 76.2451 196.502C76.1928 196.463 76.1487 196.413 76.1155 196.357C76.0823 196.3 76.0605 196.238 76.0514 196.173C76.0424 196.108 76.0463 196.042 76.0628 195.978L76.0724 196.007Z" fill="#2AE0ED"/>
<path d="M28.5508 180.531L28.9377 180.928L28.5508 180.531Z" fill="#DB9E75"/>
<path d="M23 175.93L23.2893 176.142L23 175.93Z" fill="#DB9E75"/>
<path d="M27.0618 179.12L26.5781 178.704L27.0618 179.12Z" fill="#DB9E75"/>
<path d="M64.5352 145.268C64.5352 145.123 64.5352 144.978 64.5932 144.833C64.5642 144.997 64.5545 145.123 64.5352 145.268Z" fill="#DB9E75"/>
<path d="M24.6724 177.167L24.1211 176.742L24.6724 177.167Z" fill="#DB9E75"/>
<path d="M65.9961 182.697C66.2573 185.326 66.5378 187.83 66.8279 190.237C66.5378 187.888 66.2669 185.452 66.0154 182.9C66.0058 182.842 66.0058 182.774 65.9961 182.697Z" fill="#DB9E75"/>
<path d="M25.9111 178.163L25.3984 177.738L25.9111 178.163Z" fill="#DB9E75"/>
<path d="M28.029 180.038L27.5938 179.632L28.029 180.038Z" fill="#DB9E75"/>
<path d="M34.8591 174.48C32.2379 173.513 29.4425 172.46 27.1211 171.754C29.4425 172.46 32.2379 173.475 34.8591 174.48Z" fill="#DB9E75"/>
<path d="M75.1147 166.409C75.2888 166.36 75.1824 166.409 76.9331 165.877L76.7977 170.546V171.629C80.6598 172.119 84.5819 171.789 88.308 170.662L88.25 168.816L87.9792 160.531C89.0895 159.539 90.1181 158.46 91.055 157.303C92.1153 156.125 93.034 154.827 93.7924 153.436H93.6086C92.3681 153.503 91.1241 153.418 89.904 153.185C89.7953 153.485 89.6627 153.776 89.5074 154.055C89.1401 154.724 88.6238 155.299 87.9985 155.737C87.624 155.991 87.2216 156.202 86.7991 156.365C86.7201 156.389 86.6349 156.383 86.5604 156.347C86.4859 156.311 86.4276 156.249 86.3971 156.172C86.3667 156.095 86.3662 156.01 86.3959 155.933C86.4256 155.856 86.4832 155.793 86.5573 155.756C87.5547 155.423 88.3947 154.735 88.9174 153.823C89.4108 152.962 89.627 151.969 89.5364 150.981C89.4662 150.382 89.2747 149.803 88.9736 149.28C88.6724 148.757 88.2679 148.301 87.7847 147.939C87.3015 147.577 86.7497 147.318 86.1629 147.176C85.5761 147.034 84.9665 147.013 84.3713 147.114C83.7659 147.302 83.2149 147.634 82.7656 148.081C82.1919 148.728 81.7749 149.499 81.5469 150.333L81.4695 150.846C77.9294 149.531 74.8535 148.129 73.6348 147.636C71.0754 146.741 68.8581 145.072 67.2896 142.861L64.5135 145.703C64.5135 145.751 64.5135 145.79 64.5135 145.838L64.4362 148.4C64.8051 148.217 65.2144 148.131 65.6259 148.149C66.9801 148.226 68.3826 149.193 66.8446 149.502C66.0344 149.665 65.1963 149.622 64.4072 149.376L64.3008 151.764C64.285 152.362 64.3173 152.96 64.3975 153.552C64.7329 157.099 65.7824 160.542 67.483 163.673C68.0421 164.728 68.8652 165.621 69.8721 166.264C70.1876 166.45 70.5355 166.574 70.8974 166.631C72.3057 166.795 73.7315 166.72 75.1147 166.409ZM82.1273 163.953L76.8557 170.13L76.9815 165.819L82.1273 163.953ZM66.2159 153.552C65.6646 154.055 64.9101 152.421 65.3164 151.387C65.4808 150.952 65.7033 150.884 65.9741 150.913C66.1645 150.947 66.3368 151.048 66.4606 151.196C66.5845 151.345 66.6519 151.532 66.6512 151.725C66.6764 152.363 66.5258 152.995 66.2159 153.552ZM72.2032 153.852C71.6809 154.393 70.8394 152.76 71.236 151.716C71.3907 151.3 71.6229 151.213 71.884 151.223C72.0783 151.237 72.2603 151.323 72.3944 151.464C72.5285 151.606 72.6052 151.792 72.6095 151.986C72.6629 152.635 72.5215 153.284 72.2032 153.852ZM66.9607 155.35L67.6378 151.87L67.7442 149.937C67.7442 149.85 67.7788 149.766 67.8405 149.705C67.9022 149.643 67.9858 149.608 68.073 149.608C68.1603 149.608 68.2439 149.643 68.3056 149.705C68.3673 149.766 68.4019 149.85 68.4019 149.937L68.2955 151.87V151.919L67.6088 155.428C67.6069 155.444 67.6069 155.46 67.6088 155.476H67.7152C68.2568 155.544 68.5857 155.573 69.166 155.602C69.2093 155.604 69.2516 155.615 69.2905 155.634C69.3295 155.653 69.3643 155.679 69.3931 155.711C69.4219 155.744 69.4439 155.781 69.4581 155.822C69.4722 155.863 69.4782 155.906 69.4756 155.95C69.4706 156.038 69.4314 156.12 69.3663 156.18C69.3013 156.239 69.2155 156.271 69.1274 156.269C68.5373 156.269 68.1601 156.201 67.6281 156.124H67.4927C67.3267 156.079 67.182 155.976 67.0846 155.834C66.9872 155.693 66.9433 155.521 66.9607 155.35ZM70.4622 158.095C70.3364 158.453 69.7754 158.588 69.4949 158.646C69.2144 158.704 68.0924 159.004 67.7539 158.482C67.6032 158.206 67.4832 157.914 67.396 157.612C68.0368 157.702 68.6834 157.744 69.3305 157.738C69.9302 157.738 70.2977 157.631 70.4525 157.863C70.5009 157.931 70.4622 158.028 70.4622 158.095ZM70.8974 149.154C71.3424 148.823 71.8914 148.661 72.445 148.7C73.7992 148.777 75.2017 149.773 73.6638 150.063C72.7825 150.22 71.8761 150.16 71.0232 149.889C70.9488 149.866 70.8821 149.824 70.8307 149.766C70.7792 149.708 70.745 149.637 70.7319 149.56C70.7188 149.484 70.7274 149.405 70.7567 149.334C70.7859 149.262 70.8347 149.2 70.8974 149.154Z" fill="#DB9E75"/>
<path d="M81.8279 138.231C86.6642 138.685 88.6761 138.231 91.0459 139.603C88.6471 138.153 86.7706 138.714 81.8666 138.25C81.47 138.202 80.8026 138.163 79.9805 138.057C80.7736 138.115 81.441 138.153 81.8279 138.231Z" fill="#DB9E75"/>
<path d="M72.0762 217.158C78.8148 218.595 84.0895 218.447 87.9005 216.713C92.4144 214.644 96.0287 210.381 98.7435 203.924C98.6653 203.915 98.5904 203.887 98.5249 203.843C98.4594 203.8 98.405 203.741 98.3662 203.673H98.2115L76.603 196.597V196.752L67.4334 194.577L49.5005 190.498C48.127 190.066 46.8212 189.64 45.5831 189.222L45.4477 189.164C45.3219 189.115 35.3882 184.05 29.5363 181.556C29.43 181.44 29.3139 181.334 29.2172 181.218C28.102 180.712 26.9511 180.288 25.7737 179.951C25.3209 179.85 24.8472 179.904 24.4286 180.104C24.01 180.304 23.6708 180.639 23.4655 181.055C23.2602 181.471 23.2007 181.944 23.2966 182.397C23.3924 182.851 23.638 183.259 23.994 183.557C25.0938 184.469 26.1462 185.437 27.1472 186.457C27.242 186.389 27.3585 186.358 27.4745 186.371C27.5905 186.383 27.6979 186.438 27.7759 186.525C29.73 188.464 31.9593 190.106 34.392 191.397C34.4933 191.469 34.5643 191.576 34.5912 191.697C34.6182 191.819 34.5991 191.946 34.5378 192.054C34.4765 192.162 34.3772 192.244 34.2591 192.283C34.1411 192.322 34.0127 192.316 33.8987 192.266C31.3812 190.917 29.0768 189.204 27.0602 187.182C26.9717 187.081 26.9265 186.949 26.9344 186.815C21.6629 185.848 14.4568 184.63 11.7775 184.881C8.84999 185.191 7.85371 186.302 8.78873 188.216C12.8268 189.783 16.6595 191.835 20.2023 194.325C21.9047 195.614 25.864 197.734 32.0802 200.686C34.3339 201.749 36.9165 202.919 39.7312 204.205C52.8343 211.048 63.616 215.366 72.0762 217.158Z" fill="#DB9E75"/>
<path d="M65.9732 182.445C50.0586 175.357 40.6053 171.384 37.6133 170.526C40.6118 171.416 50.0651 175.389 65.9732 182.445Z" fill="#DB9E75"/>
<path opacity="0.2" d="M27.6138 179.632L27.0625 179.12L27.6138 179.632Z" fill="#8C2A00"/>
<path opacity="0.2" d="M25.3973 177.738L24.6719 177.167L25.3973 177.738Z" fill="#8C2A00"/>
<path opacity="0.2" d="M28.0312 180.038C28.2054 180.203 28.3795 180.367 28.5342 180.531C28.3988 180.367 28.2247 180.203 28.0312 180.038Z" fill="#8C2A00"/>
<path opacity="0.2" d="M26.5582 178.704C26.3551 178.521 26.1326 178.347 25.9102 178.163C26.0939 178.347 26.3551 178.521 26.5582 178.704Z" fill="#8C2A00"/>
<path opacity="0.2" d="M24.16 176.742L23.3281 176.114L24.16 176.742Z" fill="#8C2A00"/>
<path opacity="0.2" d="M28.9375 180.928L29.218 181.218C29.1406 181.121 28.9955 181.024 28.9375 180.928Z" fill="#8C2A00"/>
<path d="M66.8242 190.246C67.008 191.725 67.1918 193.146 67.3852 194.567C67.1918 193.175 67.008 191.725 66.8242 190.246Z" fill="#2AE0ED"/>
<path opacity="0.2" d="M66.8242 190.246C67.008 191.725 67.1918 193.146 67.3852 194.567C67.1918 193.175 67.008 191.725 66.8242 190.246Z" fill="#8C2A00"/>
<path d="M45.4403 189.163L45.5757 189.221C46.8138 189.64 48.1196 190.066 49.4931 190.497L67.3777 194.567C67.1842 193.175 67.0004 191.725 66.8166 190.246C66.5265 187.839 66.246 185.336 65.9848 182.706C65.98 182.635 65.98 182.564 65.9848 182.494C50.0702 175.405 40.6169 171.432 37.6249 170.575C37.4218 170.507 37.2477 170.468 37.1026 170.43C36.8384 170.37 36.5649 170.363 36.2978 170.408C36.0308 170.454 35.7754 170.552 35.5463 170.697C35.3172 170.841 35.1188 171.03 34.9627 171.251C34.8065 171.472 34.6955 171.722 34.6361 171.986C34.5515 172.358 34.5708 172.746 34.6919 173.107C34.8131 173.468 35.0313 173.79 35.3228 174.035C35.8258 174.441 36.2901 174.857 36.7447 175.253L34.8682 174.528C32.247 173.562 29.4516 172.508 27.1302 171.802L23 175.93L23.2902 176.143L24.122 176.771L24.6734 177.196L25.3988 177.767L25.9114 178.192C26.1339 178.376 26.3564 178.55 26.5595 178.733L27.0431 179.149L27.6138 179.661L28.0491 180.067C28.2232 180.232 28.3973 180.396 28.552 180.56L28.9389 180.957C29.0357 181.053 29.1421 181.15 29.2291 181.256C29.3258 181.372 29.4419 181.479 29.5483 181.595C35.3905 184.05 45.3242 189.115 45.4403 189.163Z" fill="#DB9E75"/>
<path opacity="0.2" d="M45.4403 189.163L45.5757 189.221C46.8138 189.64 48.1196 190.066 49.4931 190.497L67.3777 194.567C67.1842 193.175 67.0004 191.725 66.8166 190.246C66.5265 187.839 66.246 185.336 65.9848 182.706C65.98 182.635 65.98 182.564 65.9848 182.494C50.0702 175.405 40.6169 171.432 37.6249 170.575C37.4218 170.507 37.2477 170.468 37.1026 170.43C36.8384 170.37 36.5649 170.363 36.2978 170.408C36.0308 170.454 35.7754 170.552 35.5463 170.697C35.3172 170.841 35.1188 171.03 34.9627 171.251C34.8065 171.472 34.6955 171.722 34.6361 171.986C34.5515 172.358 34.5708 172.746 34.6919 173.107C34.8131 173.468 35.0313 173.79 35.3228 174.035C35.8258 174.441 36.2901 174.857 36.7447 175.253L34.8682 174.528C32.247 173.562 29.4516 172.508 27.1302 171.802L23 175.93L23.2902 176.143L24.122 176.771L24.6734 177.196L25.3988 177.767L25.9114 178.192C26.1339 178.376 26.3564 178.55 26.5595 178.733L27.0431 179.149L27.6138 179.661L28.0491 180.067C28.2232 180.232 28.3973 180.396 28.552 180.56L28.9389 180.957C29.0357 181.053 29.1421 181.15 29.2291 181.256C29.3258 181.372 29.4419 181.479 29.5483 181.595C35.3905 184.05 45.3242 189.115 45.4403 189.163Z" fill="#8C2A00"/>
<path d="M82.127 163.953L76.9812 165.819L76.8555 170.13L82.127 163.953Z" fill="#482D1F"/>
<path d="M66.8072 149.463C68.3451 149.154 66.9426 148.187 65.5884 148.11C65.0448 148.08 64.5077 148.241 64.0698 148.564C64.0137 148.616 63.9722 148.681 63.9495 148.754C63.9267 148.827 63.9235 148.905 63.9402 148.979C63.9568 149.053 63.9928 149.122 64.0444 149.178C64.096 149.234 64.1615 149.276 64.2343 149.299H64.3697C65.1555 149.557 65.9937 149.614 66.8072 149.463Z" fill="#482D1F"/>
<path d="M73.6061 147.598C74.8248 148.091 77.9007 149.531 81.4409 150.807L81.5182 150.295C81.7462 149.46 82.1632 148.69 82.737 148.042C83.1863 147.595 83.7372 147.264 84.3426 147.076C84.9378 146.975 85.5474 146.995 86.1342 147.137C86.721 147.279 87.2729 147.539 87.7561 147.9C88.2393 148.262 88.6438 148.718 88.9449 149.241C89.2461 149.764 89.4376 150.343 89.5078 150.942C89.5983 151.931 89.3821 152.923 88.8887 153.784C88.3661 154.696 87.5261 155.384 86.5286 155.718C86.4545 155.754 86.3969 155.817 86.3672 155.894C86.3375 155.971 86.338 156.057 86.3685 156.133C86.3989 156.21 86.4572 156.273 86.5317 156.308C86.6062 156.344 86.6914 156.351 86.7704 156.327C87.1929 156.163 87.5953 155.953 87.9698 155.698C88.5861 155.273 89.0985 154.715 89.4691 154.065C89.6244 153.786 89.757 153.495 89.8656 153.195C91.0857 153.428 92.3297 153.513 93.5702 153.446H93.754H93.8024C94.245 152.524 94.57 151.549 94.7696 150.546C95.0018 149.299 95.8433 145.113 93.4058 141.711C92.7903 140.848 91.995 140.129 91.0747 139.603L90.9877 139.555C88.6179 138.163 86.6253 138.637 81.7697 138.182C81.3828 138.134 80.7154 138.095 79.8932 137.989C79.1194 137.902 78.4714 137.805 77.9587 137.728L77.0592 137.583C74.62 137.235 72.1324 137.518 69.8338 138.405C68.6379 138.878 67.5707 139.626 66.7192 140.589L66.4871 140.85C66.1079 141.226 65.7824 141.652 65.5198 142.117C65.0407 142.959 64.7133 143.878 64.5526 144.833C64.5526 144.978 64.5526 145.123 64.4945 145.268C64.4365 145.413 64.4945 145.539 64.4945 145.664L67.2706 142.822C68.8365 145.032 71.0503 146.7 73.6061 147.598Z" fill="#482D1F"/>
<path d="M73.6644 150.063C75.2023 149.773 73.7998 148.777 72.4456 148.7C71.892 148.661 71.343 148.823 70.898 149.154C70.8353 149.2 70.7865 149.262 70.7573 149.334C70.728 149.405 70.7194 149.484 70.7325 149.56C70.7456 149.637 70.7798 149.708 70.8313 149.766C70.8827 149.824 70.9494 149.866 71.0238 149.889C71.8767 150.16 72.7831 150.22 73.6644 150.063Z" fill="#482D1F"/>
<path d="M65.9762 150.913C65.7054 150.913 65.4829 150.913 65.3185 151.387C64.9123 152.421 65.6667 154.055 66.2181 153.552C66.5279 152.995 66.6785 152.363 66.6533 151.725C66.6541 151.532 66.5866 151.344 66.4628 151.196C66.3389 151.047 66.1667 150.947 65.9762 150.913Z" fill="#482D1F"/>
<path d="M71.8756 151.223C71.6144 151.223 71.3823 151.3 71.2275 151.716C70.8406 152.759 71.6821 154.393 72.1948 153.852C72.5097 153.283 72.6478 152.634 72.5914 151.986C72.5873 151.793 72.512 151.608 72.3799 151.467C72.2477 151.326 72.0681 151.239 71.8756 151.223Z" fill="#482D1F"/>
<path d="M69.3486 157.738C68.7015 157.744 68.0549 157.702 67.4141 157.612C67.5013 157.914 67.6213 158.206 67.7719 158.482C68.1105 159.004 69.1841 158.724 69.513 158.646C69.8419 158.569 70.3158 158.453 70.4803 158.095C70.4803 158.028 70.4803 157.931 70.4803 157.863C70.3448 157.631 69.9483 157.738 69.3486 157.738Z" fill="#482D1F"/>
<path d="M67.6857 156.201C68.2467 156.278 68.5949 156.307 69.185 156.346C69.2732 156.348 69.3589 156.317 69.4239 156.257C69.489 156.197 69.5282 156.115 69.5332 156.027C69.5358 155.984 69.5299 155.94 69.5157 155.899C69.5015 155.859 69.4795 155.821 69.4507 155.789C69.4219 155.756 69.3871 155.73 69.3481 155.711C69.3092 155.692 69.2669 155.681 69.2236 155.679C68.6433 155.679 68.3144 155.621 67.7728 155.553H67.6664C67.6645 155.537 67.6645 155.521 67.6664 155.505L68.3531 151.996V151.947L68.4595 150.014C68.4595 149.927 68.4249 149.843 68.3632 149.782C68.3015 149.72 68.2179 149.686 68.1306 149.686C68.0434 149.686 67.9598 149.72 67.8981 149.782C67.8364 149.843 67.8018 149.927 67.8018 150.014L67.6954 151.947L67.0183 155.427C66.9866 155.612 67.0273 155.801 67.1318 155.956C67.2363 156.111 67.3966 156.219 67.5793 156.259L67.6857 156.201Z" fill="#482D1F"/>
<path d="M76.391 196.578C76.4539 196.594 76.5193 196.597 76.5835 196.588C76.6477 196.578 76.7094 196.556 76.7651 196.523C76.8208 196.49 76.8694 196.446 76.9081 196.394C76.9469 196.342 76.9749 196.283 76.9907 196.22L79.4476 186.708C79.48 186.58 79.4607 186.444 79.3937 186.33C79.3267 186.216 79.2175 186.133 79.0897 186.099C79.0268 186.083 78.9614 186.08 78.8972 186.089C78.833 186.099 78.7713 186.121 78.7156 186.154C78.6599 186.187 78.6113 186.231 78.5726 186.283C78.5339 186.335 78.5058 186.394 78.49 186.457L76.0332 195.969C76.0158 196.032 76.0112 196.099 76.0199 196.164C76.0286 196.229 76.0502 196.292 76.0836 196.349C76.1169 196.405 76.1613 196.455 76.2141 196.494C76.2669 196.534 76.3271 196.562 76.391 196.578Z" fill="#482D1F"/>
<path d="M101.764 199.497C101.764 199.265 101.764 199.014 101.841 198.743C101.841 198.656 101.996 197.1 102.035 196.723C102.062 196.327 102.153 195.939 102.306 195.572C102.306 195.572 103.621 193.368 103.882 192.875C104.326 192.133 104.612 191.307 104.724 190.449C104.747 190.127 104.747 189.804 104.724 189.483C104.724 189.396 104.724 189.251 104.724 189.077C104.719 188.959 104.673 188.848 104.593 188.762C104.514 188.675 104.406 188.62 104.29 188.606C104.173 188.592 104.056 188.62 103.958 188.685C103.86 188.75 103.789 188.848 103.757 188.961C103.745 189.144 103.745 189.328 103.757 189.512C103.782 189.795 103.782 190.079 103.757 190.362C103.658 191.101 103.407 191.812 103.022 192.45C102.77 192.914 101.484 195.089 101.464 195.118C101.242 195.596 101.111 196.11 101.077 196.636C101.077 197.032 100.884 198.569 100.874 198.685C100.874 198.946 100.826 199.188 100.797 199.41C100.497 201.856 99.9263 203.006 98.8624 202.987C98.7976 202.985 98.7332 202.997 98.6728 203.02C98.6125 203.044 98.5574 203.079 98.5107 203.124C98.464 203.169 98.4266 203.223 98.4006 203.282C98.3746 203.341 98.3606 203.405 98.3594 203.47C98.3629 203.592 98.4096 203.708 98.4911 203.798C98.5726 203.889 98.6837 203.947 98.8043 203.963C100.632 203.963 101.406 202.416 101.764 199.497Z" fill="#482D1F"/>
<path d="M27.0635 187.182C29.0811 189.215 31.3889 190.938 33.9117 192.295C34.0257 192.345 34.1541 192.351 34.2721 192.312C34.3902 192.272 34.4895 192.191 34.5508 192.083C34.6121 191.975 34.6312 191.847 34.6042 191.726C34.5773 191.605 34.5063 191.498 34.405 191.425C31.9691 190.12 29.7397 188.462 27.7889 186.505C27.7109 186.419 27.6035 186.364 27.4875 186.351C27.3715 186.339 27.255 186.369 27.1602 186.438H27.0925C27.0456 186.481 27.0078 186.533 26.9813 186.591C26.9547 186.649 26.9399 186.712 26.9378 186.776C26.9284 186.849 26.9348 186.922 26.9565 186.992C26.9782 187.063 27.0147 187.127 27.0635 187.182Z" fill="#482D1F"/>
<path d="M27.1298 171.754L33.2815 165.577C35.0348 163.792 36.0171 161.39 36.0171 158.888C36.0171 156.386 35.0348 153.984 33.2815 152.199C32.4064 151.322 31.3669 150.627 30.2225 150.152C29.0781 149.678 27.8513 149.434 26.6123 149.434C25.3733 149.434 24.1465 149.678 23.0021 150.152C21.8577 150.627 20.8181 151.322 19.943 152.199L18.0085 154.132L16.074 152.199C15.1989 151.322 14.1594 150.627 13.015 150.152C11.8706 149.678 10.6438 149.434 9.40481 149.434C8.16582 149.434 6.93901 149.678 5.7946 150.152C4.6502 150.627 3.61069 151.322 2.73558 152.199C0.982251 153.984 0 156.386 0 158.888C0 161.39 0.982251 163.792 2.73558 165.577L16.7414 179.642C16.9096 179.81 17.1104 179.941 17.3315 180.029C17.5483 180.122 17.7823 180.168 18.0182 180.164C18.2572 180.168 18.4944 180.122 18.7146 180.029C18.9315 179.939 19.1286 179.808 19.295 179.642L22.9996 175.93L27.1298 171.754Z" fill="#F84B6B"/>
<path d="M271.991 182.919L272.271 176.539H272.203C270.956 177.162 269.558 177.42 268.17 177.283C267.221 177.176 266.287 176.965 265.384 176.655L264.523 190.555C264.678 191.203 264.804 191.841 264.91 192.489C266.458 189.279 269.176 186.148 271.991 182.919Z" fill="#D8DEED"/>
<path d="M263.984 200.241L263.926 200.309L262.891 216.984L257.522 201.517C256.843 202.647 255.87 203.572 254.708 204.195C253.94 204.578 253.145 204.901 252.328 205.162L256.642 223.915H270.184L270.735 211.348C268.84 209.134 267.767 206.334 267.698 203.422C266.833 203.318 266.019 202.961 265.358 202.395C264.697 201.829 264.218 201.079 263.984 200.241Z" fill="#D8DEED"/>
<path d="M242.23 223.963C241.126 223.963 240.069 224.401 239.289 225.18C238.509 225.96 238.07 227.017 238.07 228.119V231.019H270.483V237.941H285.089V228.129C285.089 227.582 284.981 227.041 284.771 226.536C284.561 226.031 284.254 225.573 283.867 225.187C283.48 224.8 283.02 224.494 282.514 224.286C282.009 224.078 281.467 223.971 280.92 223.973H242.23V223.963Z" fill="#E1E5F0"/>
<path d="M270.48 290.478C274.613 289.595 278.317 287.323 280.975 284.04C283.633 280.758 285.084 276.663 285.086 272.44V271.251H270.48V290.478Z" fill="#E1E5F0"/>
<path d="M308.891 164.775C305.215 179.555 278.2 205.084 267.695 203.509C267.764 206.421 268.837 209.221 270.733 211.435C271.047 211.781 271.387 212.105 271.748 212.402C275.83 215.727 284.497 212.054 293.84 205.461C298.593 202.11 299.521 197.026 296.626 190.208L305.699 180.357C307.825 178.052 309.283 175.212 309.916 172.141C310.632 168.622 310.293 166.177 308.891 164.775Z" fill="#E1E5F0"/>
<path d="M257.521 201.517L257.628 201.334C240.478 197.119 226.076 166.264 223.87 141.459C223.309 141.285 222.739 141.14 222.158 140.995C220.942 140.703 219.68 140.654 218.445 140.849C217.209 141.045 216.024 141.482 214.958 142.136C213.892 142.789 212.965 143.646 212.23 144.658C211.496 145.67 210.968 146.817 210.677 148.033C210.436 149.012 210.357 150.024 210.445 151.029C210.864 156.133 211.925 160 213.627 162.629C214.916 164.687 216.65 166.429 218.703 167.728C220.755 169.026 223.073 169.847 225.486 170.13C222.984 180.699 223.77 188.538 227.846 193.649C233.514 200.744 242.596 208.487 252.327 205.249C253.144 204.988 253.939 204.665 254.707 204.282C255.881 203.636 256.854 202.679 257.521 201.517Z" fill="#E1E5F0"/>
<path d="M272.204 176.539C276.073 174.702 279.894 169.773 283.367 163.151C281.093 163.721 278.927 163.093 276.934 160.966C266.604 149.898 269.012 123.518 277.505 102.407C277.079 101.933 276.654 101.44 276.189 101.025C275.299 100.147 274.245 99.4533 273.086 98.9832C271.928 98.5131 270.688 98.2758 269.437 98.2848C268.187 98.2938 266.951 98.5489 265.799 99.0356C264.647 99.5222 263.603 100.231 262.725 101.121C261.972 101.894 261.351 102.785 260.888 103.76C259.589 106.351 258.857 109.188 258.74 112.083C258.643 117.161 260.069 124.028 263.015 132.682C253.659 137.342 249.242 142.932 249.764 149.454C250.48 158.443 255.374 173.262 265.385 176.655C266.288 176.965 267.222 177.176 268.171 177.283C269.559 177.42 270.957 177.162 272.204 176.539Z" fill="#E1E5F0"/>
<path d="M257.625 201.334L257.867 201.392C260.768 202.078 262.771 201.624 263.922 200.309L263.98 200.241C264.2 201.095 264.672 201.863 265.334 202.446C265.996 203.029 266.819 203.399 267.694 203.509C278.198 205.084 305.214 179.555 308.889 164.775C309.857 160.976 309.247 157.873 306.404 156.152C296.489 150.101 286.807 163.615 277.27 176.539C275.655 178.724 273.807 180.841 271.989 182.919C269.174 186.148 266.456 189.279 264.908 192.45C264.802 191.841 264.676 191.203 264.521 190.517C261.097 175.514 245.563 149.019 234.266 134.209C229.381 127.801 236.345 108.845 231.857 112.044C224.912 117.003 222.707 128.371 223.868 141.421C226.073 166.264 240.475 197.119 257.625 201.334Z" fill="#F2F6FB"/>
<path d="M270.48 271.251H285.086H288.065V237.941H285.086H270.48V271.251Z" fill="#F2F6FB"/>
<path d="M276.934 160.966C278.927 163.093 281.093 163.721 283.366 163.151C302.16 158.463 327.512 71.8123 305.352 72.3923C294.471 72.6823 284.131 85.9254 277.505 102.407C269.012 123.518 266.604 149.898 276.934 160.966Z" fill="#F2F6FB"/>
</svg>
