<svg width="332" height="210" viewBox="0 0 332 210" fill="none" xmlns="http://www.w3.org/2000/svg">
<path d="M165.997 210C257.675 210 331.994 194.967 331.994 176.424C331.994 157.88 257.675 142.848 165.997 142.848C74.3194 142.848 0 157.88 0 176.424C0 194.967 74.3194 210 165.997 210Z" fill="#FCFCFC"/>
<path d="M165.997 189.105C233.931 189.105 289.003 181.398 289.003 171.892C289.003 162.385 233.931 154.679 165.997 154.679C98.0635 154.679 42.9922 162.385 42.9922 171.892C42.9922 181.398 98.0635 189.105 165.997 189.105Z" fill="#F7F7F7"/>
<path d="M160.674 176.49C200.338 176.49 232.492 173.933 232.492 170.778C232.492 167.624 200.338 165.066 160.674 165.066C121.01 165.066 88.8555 167.624 88.8555 170.778C88.8555 173.933 121.01 176.49 160.674 176.49Z" fill="#E8E8E8"/>
<path d="M171.083 23.9487L130.269 63.979C129.468 64.7645 128.833 65.7016 128.398 66.7357C127.964 67.7699 127.739 68.8802 127.738 70.002V125.27C127.739 126.431 127.979 127.579 128.443 128.644C128.907 129.708 129.586 130.665 130.436 131.454L171.232 169.335C175.629 173.418 182.736 173.287 186.522 168.635C188.53 166.195 189.627 163.132 189.627 159.971V32.8636C189.63 30.185 188.843 27.5649 187.366 25.3318C183.711 19.8355 175.797 19.3147 171.083 23.9487Z" fill="#4D75F4"/>
<path d="M116.151 65.3979H101.453C98.8105 65.3979 96.668 67.5424 96.668 70.1877V122.851C96.668 125.496 98.8105 127.641 101.453 127.641H116.151C118.794 127.641 120.936 125.496 120.936 122.851V70.1877C120.936 67.5424 118.794 65.3979 116.151 65.3979Z" fill="#4D75F4"/>
<path d="M200.919 71.4927C200.409 71.4144 199.888 71.447 199.392 71.5883C198.896 71.7296 198.436 71.9763 198.044 72.3115C197.651 72.6468 197.336 73.0627 197.119 73.531C196.902 73.9993 196.788 74.5089 196.785 75.0252V118.019C196.788 118.535 196.902 119.045 197.119 119.513C197.336 119.982 197.651 120.397 198.044 120.733C198.436 121.068 198.896 121.315 199.392 121.456C199.888 121.597 200.409 121.63 200.919 121.551C206.845 120.573 212.232 117.519 216.119 112.935C220.005 108.351 222.139 102.534 222.139 96.5221C222.139 90.51 220.005 84.6932 216.119 80.1091C212.232 75.5249 206.845 72.4713 200.919 71.4927Z" fill="#4D75F4"/>
<path d="M237.183 61.584C254.174 61.584 267.947 47.798 267.947 30.792C267.947 13.7861 254.174 0 237.183 0C220.192 0 206.418 13.7861 206.418 30.792C206.418 47.798 220.192 61.584 237.183 61.584Z" fill="#DCFFE4"/>
<path d="M252.771 27.4751H240.472V15.1895C240.472 14.3098 240.123 13.4661 239.502 12.8441C238.88 12.222 238.037 11.8726 237.158 11.8726C236.28 11.8726 235.437 12.222 234.815 12.8441C234.194 13.4661 233.845 14.3098 233.845 15.1895V27.4751H221.594C221.146 27.4561 220.7 27.5279 220.281 27.6861C219.862 27.8444 219.479 28.0859 219.156 28.396C218.832 28.7062 218.575 29.0786 218.399 29.4909C218.223 29.9032 218.133 30.3468 218.133 30.795C218.133 31.2432 218.223 31.6869 218.399 32.0991C218.575 32.5114 218.832 32.8838 219.156 33.194C219.479 33.5041 219.862 33.7456 220.281 33.9039C220.7 34.0621 221.146 34.1339 221.594 34.1149H233.892V46.3946C233.892 47.2743 234.242 48.1179 234.863 48.74C235.484 49.362 236.327 49.7115 237.206 49.7115C238.085 49.7115 238.928 49.362 239.55 48.74C240.171 48.1179 240.52 47.2743 240.52 46.3946V34.1269H252.795C253.243 34.1459 253.689 34.0741 254.108 33.9158C254.527 33.7576 254.91 33.5161 255.233 33.206C255.556 32.8958 255.814 32.5234 255.99 32.1111C256.165 31.6988 256.256 31.2552 256.256 30.807C256.256 30.3587 256.165 29.9151 255.99 29.5029C255.814 29.0906 255.556 28.7182 255.233 28.408C254.91 28.0979 254.527 27.8564 254.108 27.6981C253.689 27.5399 253.243 27.4681 252.795 27.4871L252.771 27.4751Z" fill="#42E56D"/>
<path d="M256.09 101.608C264.584 101.608 271.47 94.7166 271.47 86.2153C271.47 77.714 264.584 70.8223 256.09 70.8223C247.597 70.8223 240.711 77.714 240.711 86.2153C240.711 94.7166 247.597 101.608 256.09 101.608Z" fill="#D2F8F9"/>
<path d="M256.091 85.2933C258.225 85.2933 259.955 83.5617 259.955 81.4256C259.955 79.2895 258.225 77.5579 256.091 77.5579C253.957 77.5579 252.227 79.2895 252.227 81.4256C252.227 83.5617 253.957 85.2933 256.091 85.2933Z" fill="#2AE0ED"/>
<path d="M264.517 91.7054C263.74 90.1061 262.543 88.7485 261.054 87.7779C259.59 86.8045 257.882 86.263 256.125 86.2152C254.49 86.1789 252.879 86.6177 251.489 87.4785C249.876 88.5117 248.571 89.9591 247.708 91.6695C247.668 91.7373 247.636 91.8097 247.612 91.8851C247.501 92.2134 247.517 92.5716 247.657 92.8887C247.797 93.2058 248.051 93.4587 248.369 93.5972C248.686 93.7358 249.044 93.75 249.372 93.6369C249.699 93.5238 249.972 93.2918 250.137 92.9867C251.548 90.3703 253.654 88.9573 256.065 89.0052C257.323 89.0633 258.542 89.4591 259.594 90.1512C260.647 90.8433 261.494 91.8062 262.047 92.9388C262.221 93.2406 262.503 93.4653 262.836 93.5678C263.169 93.6704 263.529 93.6432 263.842 93.4918C264.156 93.3404 264.401 93.076 264.529 92.7514C264.656 92.4268 264.656 92.066 264.529 91.7414L264.517 91.7054Z" fill="#2AE0ED"/>
<path d="M285.014 70.8163C291.453 70.8163 296.673 65.5919 296.673 59.1473C296.673 52.7027 291.453 47.4783 285.014 47.4783C278.575 47.4783 273.355 52.7027 273.355 59.1473C273.355 65.5919 278.575 70.8163 285.014 70.8163Z" fill="#FFF8E1"/>
<path d="M285.007 61.5003C285.377 61.5011 285.743 61.4289 286.085 61.2878C286.426 61.1468 286.737 60.9396 286.999 60.6782C287.26 60.4169 287.468 60.1064 287.61 59.7646C287.751 59.4228 287.824 59.0564 287.824 58.6863V54.9025C287.791 54.1778 287.48 53.4939 286.956 52.9929C286.431 52.4919 285.735 52.2124 285.01 52.2124C284.285 52.2124 283.588 52.4919 283.064 52.9929C282.54 53.4939 282.229 54.1778 282.195 54.9025V58.6744C282.194 59.0449 282.265 59.4121 282.406 59.7549C282.546 60.0977 282.753 60.4093 283.015 60.6719C283.276 60.9345 283.586 61.1428 283.928 61.285C284.27 61.4271 284.637 61.5003 285.007 61.5003Z" fill="#FBDA5E"/>
<path d="M290.247 59.7519C290.14 59.695 290.022 59.6601 289.901 59.6492C289.78 59.6383 289.658 59.6516 289.542 59.6884C289.427 59.7252 289.319 59.7847 289.227 59.8634C289.134 59.9422 289.058 60.0386 289.003 60.147C288.058 61.8953 286.646 62.8473 285.037 62.8173C284.196 62.7767 283.382 62.5116 282.678 62.0494C281.974 61.5872 281.407 60.9448 281.035 60.1889C280.928 59.969 280.738 59.8007 280.507 59.721C280.276 59.6412 280.023 59.6567 279.803 59.7639C279.583 59.871 279.415 60.0612 279.335 60.2925C279.256 60.5238 279.271 60.7773 279.378 60.9972C279.898 62.0672 280.701 62.9742 281.699 63.6196C282.413 64.092 283.215 64.4157 284.056 64.5716V65.2601C284.056 65.5126 284.156 65.7547 284.335 65.9332C284.513 66.1118 284.755 66.212 285.007 66.212C285.26 66.212 285.501 66.1118 285.68 65.9332C285.858 65.7547 285.958 65.5126 285.958 65.2601V64.6015C286.718 64.4885 287.447 64.2217 288.1 63.8172C289.175 63.1245 290.048 62.16 290.63 61.0212C290.654 60.9769 290.674 60.9309 290.69 60.8835C290.766 60.6732 290.763 60.4425 290.681 60.2344C290.6 60.0262 290.446 59.8547 290.247 59.7519Z" fill="#FBDA5E"/>
</svg>
