<svg width="615" height="268" viewBox="0 0 615 268" fill="none" xmlns="http://www.w3.org/2000/svg">
<path d="M611.611 65.3827C610.722 67.9784 609.621 70.4968 608.318 72.9124C572.877 138.616 527.255 188.9 472.719 222.371C422.822 253.092 365.119 268.828 306.504 267.699C244.872 266.497 183.722 247.227 129.655 211.978C75.8909 176.924 32.7893 128.438 5.03757 71.7687C-0.736968 59.9801 -1.58303 46.3848 2.6855 33.9736C6.95403 21.5624 15.9875 11.3519 27.7987 5.58842C39.6098 -0.175082 53.2311 -1.01953 65.6661 3.24085C78.101 7.50122 88.331 16.5174 94.1056 28.306C134.417 110.602 220.554 167.048 308.443 168.789C394.957 170.475 470.452 119.777 521.023 26.0268C526.917 15.0983 536.711 6.77976 548.462 2.72082C560.214 -1.33812 573.064 -0.840992 584.465 4.11362C595.866 9.06823 604.986 18.1185 610.015 29.4695C615.044 40.8206 615.615 53.6434 611.615 65.3952L611.611 65.3827Z" fill="#F0FDF6"/>
</svg>
