<svg width="301" height="279" viewBox="0 0 301 279" fill="none" xmlns="http://www.w3.org/2000/svg">
<g clip-path="url(#clip0)">
<path d="M166.362 0L33.1402 0C24.3508 0 15.9215 3.49271 9.70653 9.70978C3.49154 15.9268 0 24.359 0 33.1513L0 231.351C0 235.478 0.812624 239.565 2.39148 243.378C3.97033 247.191 6.28449 250.655 9.20182 253.573C12.1192 256.492 15.5825 258.807 19.3942 260.386C23.2059 261.965 27.2913 262.778 31.417 262.778H134.591C135.387 262.774 136.162 262.53 136.816 262.076C137.469 261.623 137.971 260.983 138.253 260.239C147.158 237.624 164.354 219.26 186.333 208.896C186.851 208.658 187.31 208.308 187.677 207.871C188.044 207.435 188.311 206.923 188.458 206.372C188.605 205.821 188.629 205.244 188.527 204.683C188.426 204.121 188.202 203.589 187.871 203.125C180.765 193.069 177.833 180.65 179.692 168.477C181.552 156.304 188.057 145.327 197.841 137.853C198.344 137.48 198.753 136.996 199.036 136.437C199.319 135.879 199.468 135.263 199.472 134.637V33.1513C199.472 24.3643 195.984 15.9368 189.776 9.72065C183.568 3.50447 175.146 0.00815871 166.362 0V0ZM87.6968 203.586C87.6968 206.305 86.6172 208.912 84.6956 210.834C82.774 212.756 80.1677 213.836 77.4501 213.836H53.5104C50.7928 213.836 48.1866 212.756 46.2649 210.834C44.3433 208.912 43.2637 206.305 43.2637 203.586V179.654C43.2637 176.935 44.3433 174.328 46.2649 172.406C48.1866 170.484 50.7928 169.404 53.5104 169.404H77.4347C78.7816 169.402 80.1157 169.665 81.3607 170.18C82.6056 170.694 83.737 171.449 84.6902 172.401C85.6433 173.353 86.3994 174.483 86.9153 175.728C87.4312 176.972 87.6968 178.307 87.6968 179.654V203.586ZM87.6968 142.532C87.6968 145.25 86.6172 147.858 84.6956 149.78C82.774 151.702 80.1677 152.782 77.4501 152.782H53.5104C50.7928 152.782 48.1866 151.702 46.2649 149.78C44.3433 147.858 43.2637 145.25 43.2637 142.532L43.2637 118.615C43.2637 115.895 44.3428 113.286 46.264 111.362C48.1852 109.437 50.7914 108.354 53.5104 108.35H77.4347C80.1564 108.35 82.7666 109.431 84.6911 111.356C86.6156 113.281 87.6968 115.892 87.6968 118.615V142.532ZM87.6968 81.5699C87.6968 84.2884 86.6172 86.8956 84.6956 88.8179C82.774 90.7401 80.1677 91.8201 77.4501 91.8201H53.5104C50.7928 91.8201 48.1866 90.7401 46.2649 88.8179C44.3433 86.8956 43.2637 84.2884 43.2637 81.5699V57.5607C43.2637 54.8422 44.3433 52.235 46.2649 50.3128C48.1866 48.3905 50.7928 47.3106 53.5104 47.3106H77.4347C78.7816 47.3085 80.1157 47.5722 81.3607 48.0864C82.6056 48.6006 83.737 49.3553 84.6902 50.3073C85.6433 51.2593 86.3994 52.39 86.9153 53.6346C87.4312 54.8792 87.6968 56.2133 87.6968 57.5607V81.5699ZM153.854 203.586C153.85 206.306 152.767 208.913 150.843 210.835C148.919 212.757 146.311 213.836 143.592 213.836H119.745C117.027 213.836 114.421 212.756 112.499 210.834C110.577 208.912 109.498 206.305 109.498 203.586V179.654C109.498 176.935 110.577 174.328 112.499 172.406C114.421 170.484 117.027 169.404 119.745 169.404H143.653C146.372 169.404 148.98 170.483 150.904 172.405C152.829 174.327 153.911 176.934 153.916 179.654L153.854 203.586ZM153.854 142.532C153.85 145.252 152.767 147.859 150.843 149.781C148.919 151.703 146.311 152.782 143.592 152.782H119.745C117.027 152.782 114.421 151.702 112.499 149.78C110.577 147.858 109.498 145.25 109.498 142.532V118.615C109.498 115.895 110.577 113.286 112.498 111.362C114.419 109.437 117.026 108.354 119.745 108.35H143.653C146.364 108.366 148.959 109.454 150.87 111.378C152.781 113.301 153.854 115.903 153.854 118.615V142.532ZM153.854 81.5699C153.85 84.2899 152.767 86.897 150.843 88.8188C148.919 90.7406 146.311 91.8201 143.592 91.8201H119.745C117.027 91.8201 114.421 90.7401 112.499 88.8179C110.577 86.8956 109.498 84.2884 109.498 81.5699V57.5607C109.498 54.8422 110.577 52.235 112.499 50.3128C114.421 48.3905 117.027 47.3106 119.745 47.3106L143.653 47.3106C146.362 47.3268 148.954 48.4134 150.865 50.3335C152.775 52.2536 153.85 54.8514 153.854 57.5607V81.5699Z" fill="#DFF4EA"/>
<path d="M228.285 208.588C246.461 208.588 261.195 193.849 261.195 175.667C261.195 157.486 246.461 142.747 228.285 142.747C210.11 142.747 195.376 157.486 195.376 175.667C195.376 193.849 210.11 208.588 228.285 208.588Z" fill="#DFF4EA"/>
<path d="M156.128 263.595C156.345 262.976 156.607 262.374 156.913 261.794C165.359 246.188 176.19 234.23 189.222 226.304C201.072 219.001 214.77 215.262 228.685 215.53C243.643 215.94 258.183 220.553 270.641 228.843C283.265 237.141 293.413 248.696 300.012 262.287C301.143 265.057 301.178 268.153 300.111 270.948C299.044 273.743 296.955 276.027 294.267 277.339C291.578 278.65 288.492 278.89 285.634 278.01C282.775 277.129 280.358 275.195 278.873 272.598C269.334 253.006 248.902 239.555 228.101 239.108C207.561 238.678 189.637 250.713 177.606 272.968C176.21 275.582 173.88 277.574 171.081 278.547C168.283 279.52 165.22 279.403 162.504 278.22C159.788 277.036 157.617 274.872 156.424 272.159C155.231 269.445 155.103 266.382 156.066 263.579L156.128 263.595Z" fill="#DFF4EA"/>
</g>
<defs>
<clipPath id="clip0">
<rect width="301" height="279" fill="white"/>
</clipPath>
</defs>
</svg>
