<svg width="24" height="23" viewBox="0 0 24 23" fill="none" xmlns="http://www.w3.org/2000/svg">
<path d="M10.653 0.0821066C5.12175 0.675232 0.672741 5.06436 0.0715229 10.4025C-0.529695 15.9779 2.71688 20.9601 7.64687 22.8581C8.0076 22.9767 8.36833 22.7395 8.36833 22.265V20.367C8.36833 20.367 7.88736 20.4856 7.28614 20.4856C5.60273 20.4856 4.88127 19.0621 4.76102 18.2317C4.64078 17.7572 4.40029 17.4014 4.03956 17.0455C3.67883 16.9269 3.55859 16.9269 3.55859 16.8082C3.55859 16.571 3.91932 16.571 4.03956 16.571C4.76102 16.571 5.36224 17.4014 5.60273 17.7572C6.20395 18.7062 6.92541 18.9435 7.28614 18.9435C7.76711 18.9435 8.12784 18.8249 8.36833 18.7062C8.48857 17.8759 8.84931 17.0455 9.57077 16.571C6.80516 15.9779 4.76102 14.4357 4.76102 11.826C4.76102 10.5211 5.36224 9.21623 6.20395 8.26723C6.0837 8.02998 5.96346 7.43686 5.96346 6.60648C5.96346 6.13198 5.96346 5.42023 6.32419 4.70848C6.32419 4.70848 8.0076 4.70848 9.69101 6.25061C10.2922 6.01336 11.1339 5.89473 11.9756 5.89473C12.8173 5.89473 13.659 6.01336 14.3805 6.25061C15.9437 4.70848 17.7473 4.70848 17.7473 4.70848C17.9878 5.42023 17.9878 6.13198 17.9878 6.60648C17.9878 7.55548 17.8676 8.02998 17.7473 8.26723C18.589 9.21623 19.1903 10.4025 19.1903 11.826C19.1903 14.4357 17.1461 15.9779 14.3805 16.571C15.102 17.1641 15.5829 18.2317 15.5829 19.2994V22.3836C15.5829 22.7395 15.9437 23.0954 16.4247 22.9767C20.8737 21.1974 24 16.9269 24 11.9446C24 4.82711 17.8676 -0.748268 10.653 0.0821066Z" fill="#767E9F"/>
</svg>
