<svg width="136" height="118" viewBox="0 0 136 118" fill="none" xmlns="http://www.w3.org/2000/svg">
<circle cx="77" cy="59" r="59" fill="#FFF5E3"/>
<circle cx="20" cy="97" r="6" fill="#F6DA5E"/>
<circle cx="37" cy="97" r="6" fill="#F6DA5E"/>
<circle cx="54" cy="97" r="6" fill="#F6DA5E"/>
<path d="M16.8 37.3785C16.8635 37.1935 16.9426 37.0141 17.0365 36.8424C19.5717 32.1718 22.8512 28.5928 26.7276 26.2209C30.2934 24.0376 34.4152 22.921 38.6012 23.0044C43.0997 23.1273 47.4726 24.508 51.2191 26.9884C55.0312 29.4647 58.0997 32.92 60.1001 36.9889C60.4447 37.8192 60.4582 38.7489 60.1377 39.5887C59.8172 40.4284 59.1869 41.115 58.3752 41.5084C57.5636 41.9018 56.6317 41.9725 55.7695 41.7061C54.9073 41.4396 54.1797 40.856 53.7349 40.0743C50.8663 34.2121 44.726 30.1856 38.45 30.0468C32.2748 29.9156 26.8788 33.5178 23.2621 40.1862C22.8277 40.9393 22.1295 41.5066 21.3011 41.7797C20.4726 42.0527 19.5721 42.0123 18.7717 41.6662C17.9713 41.3201 17.3273 40.6925 16.9628 39.9036C16.5983 39.1147 16.539 38.2198 16.7961 37.39L16.8 37.3785Z" fill="#4D75F4"/>
<path fill-rule="evenodd" clip-rule="evenodd" d="M19.234 46.627H57.766C63.9704 46.627 69 51.631 69 57.8038V74.8275C69 81.0003 63.9704 86.0044 57.766 86.0044H19.234C13.0296 86.0044 8 81.0003 8 74.8275V57.8038C8 51.631 13.0296 46.627 19.234 46.627ZM38.5 55.563H38.5039C41.9572 55.563 44.7566 58.3483 44.7566 61.784V70.8512C44.7566 74.2869 41.9572 77.0721 38.5039 77.0721H38.5C35.0467 77.0721 32.2473 74.2869 32.2473 70.8512V61.784C32.2473 58.3483 35.0467 55.563 38.5 55.563Z" fill="#4D75F4"/>
</svg>
