<svg width="51" height="14" viewBox="0 0 51 14" fill="none" xmlns="http://www.w3.org/2000/svg">
<rect opacity="0.1" x="19" width="14" height="14" rx="3" fill="#4D75F4"/>
<path d="M26.3245 3.583C24.385 3.583 23.017 4.9555 23.017 6.85C23.017 8.7445 24.385 10.117 26.3245 10.117C27.4765 10.117 28.426 9.604 28.984 8.785L27.958 8.047C27.58 8.596 27.013 8.911 26.3155 8.911C25.204 8.911 24.331 8.1145 24.3265 6.85C24.3265 5.626 25.1725 4.789 26.3155 4.789C27.0175 4.789 27.589 5.113 27.9445 5.6575L29.0245 4.996C28.5115 4.114 27.4855 3.583 26.3245 3.583Z" fill="#4D75F4"/>
<rect opacity="0.25" width="14" height="14" rx="3" fill="#F3CE88"/>
<path d="M7.3233 7.696C8.8173 7.696 9.6183 6.913 9.6183 5.7025C9.6183 4.483 8.8173 3.7 7.3143 3.7H4.7448V10H6.0003V7.696H7.3233ZM7.2918 4.8565C7.9758 4.8565 8.3313 5.14 8.3313 5.7025C8.3313 6.2695 7.9758 6.5485 7.2918 6.5485H6.0003V4.8565H7.2918Z" fill="#D1B072"/>
<rect opacity="0.1" x="38" width="13" height="14" rx="3" fill="#F84B6B"/>
<path d="M47.0391 4.2625C46.2471 3.79 45.5136 3.592 44.6316 3.592C43.2906 3.592 42.1206 4.276 42.1206 5.59C42.1206 6.7285 42.9306 7.219 44.0421 7.3945L44.4426 7.4575C45.3201 7.597 45.7791 7.759 45.7791 8.1955C45.7791 8.6815 45.2391 8.956 44.5416 8.956C43.7316 8.956 42.9891 8.641 42.5346 8.2765L41.8821 9.289C42.5571 9.8335 43.5831 10.1125 44.5371 10.1125C45.8916 10.1125 47.1156 9.451 47.1156 8.0605C47.1156 6.9625 46.2336 6.481 45.1086 6.2965L44.7531 6.238C43.9971 6.112 43.4526 5.9725 43.4526 5.509C43.4526 5.032 43.9521 4.753 44.6586 4.753C45.3471 4.753 45.9501 4.9825 46.4451 5.2885L47.0391 4.2625Z" fill="#F84B6B"/>
</svg>
