<svg width="18" height="15" viewBox="0 0 18 15" fill="none" xmlns="http://www.w3.org/2000/svg">
<path d="M8.75406 14.3746V14.3746L8.74828 14.3746C8.69893 14.3749 8.65 14.3654 8.60431 14.3468C8.55891 14.3282 8.5176 14.3009 8.48269 14.2665C8.48247 14.2663 8.48225 14.2661 8.48203 14.2658L1.68656 7.46163C1.68631 7.46138 1.68606 7.46113 1.68581 7.46088C0.926116 6.69285 0.5 5.65615 0.5 4.57584C0.5 3.49572 0.925959 2.45921 1.6854 1.69122C2.45103 0.928362 3.48781 0.5 4.56867 0.5C5.65 0.5 6.68722 0.928738 7.45295 1.69222C7.45301 1.69228 7.45306 1.69234 7.45312 1.69239L8.39762 2.63689L8.75117 2.99044L9.10472 2.63689L10.0492 1.69239C10.0494 1.69224 10.0495 1.6921 10.0497 1.69195C10.8154 0.928635 11.8525 0.5 12.9337 0.5C14.0145 0.5 15.0513 0.928359 15.8169 1.69121C16.5764 2.4592 17.0023 3.49572 17.0023 4.57584C17.0023 5.65613 16.5762 6.6928 15.8166 7.46083C15.8163 7.46109 15.816 7.46136 15.8158 7.46163L9.02031 14.2658C9.02009 14.2661 9.01987 14.2663 9.01965 14.2665C8.98475 14.3009 8.94343 14.3282 8.89803 14.3468C8.85234 14.3654 8.80341 14.3749 8.75406 14.3746Z" stroke="#8990AC"/>
</svg>
