<svg width="21" height="21" viewBox="0 0 21 21" fill="none" xmlns="http://www.w3.org/2000/svg">
<circle cx="10.2329" cy="10.2329" r="10.2329" fill="#767E9F"/>
<path d="M4.94489 13.6568C4.96079 13.6125 4.9804 13.5696 5.00353 13.5285C5.6219 12.4031 6.41724 11.5415 7.36914 10.9683C8.23912 10.4419 9.24525 10.1718 10.2675 10.1903C11.3427 10.2111 12.4096 10.5411 13.3526 11.1451C14.2844 11.7393 15.0351 12.5691 15.5255 13.5469C15.6262 13.7489 15.6409 13.9817 15.5664 14.1943C15.4919 14.4069 15.3343 14.5817 15.1282 14.6804C14.9222 14.7791 14.6846 14.7935 14.4677 14.7204C14.2508 14.6474 14.0724 14.493 13.9717 14.291C13.2696 12.8816 11.7668 11.9146 10.2337 11.8863C8.72448 11.8574 7.40632 12.7259 6.52511 14.3318C6.4241 14.5221 6.25316 14.6678 6.04681 14.7393C5.84046 14.8109 5.61409 14.803 5.41344 14.7173C5.21279 14.6316 5.05282 14.4744 4.96585 14.2775C4.87887 14.0807 4.87138 13.8588 4.94489 13.6568Z" fill="white"/>
<path d="M10.2665 9.7148C11.7148 9.7148 12.8889 8.56407 12.8889 7.14457C12.8889 5.72507 11.7148 4.57434 10.2665 4.57434C8.81815 4.57434 7.64404 5.72507 7.64404 7.14457C7.64404 8.56407 8.81815 9.7148 10.2665 9.7148Z" fill="white"/>
</svg>
