<svg width="23" height="14" viewBox="0 0 23 14" fill="none" xmlns="http://www.w3.org/2000/svg">
<path d="M15.6319 1.28623H20.9267V2.5611H15.6319V1.28623ZM6.67399 0C11.0495 0 11.199 2.4042 11.199 3.46532C11.199 5.37004 9.9094 6.08478 9.26922 6.38417C10.1409 6.63202 11.8545 7.46803 11.8545 9.93514C11.8545 13.8825 7.49588 14 6.86183 14H0V0H6.67399ZM6.27072 5.65579C6.82273 5.65579 8.17516 5.49055 8.17516 3.98982C8.17516 2.23518 6.30905 2.38449 6.03304 2.38449H3.11657V5.65579H6.27072ZM6.44322 11.6147C6.75066 11.6147 8.74481 11.6147 8.74481 9.76385C8.74481 7.85307 7.17694 7.75984 6.50609 7.75984H3.11734V11.6147H6.44322ZM18.4871 11.6587C19.7621 11.6587 20.449 10.7272 20.538 10.4377H22.8257C22.4577 11.5632 21.5661 13.5793 18.4004 13.5793C17.2259 13.5793 13.5558 13.0867 13.5558 8.6671C13.5558 7.1785 14.3976 3.71999 18.4004 3.71999C21.9809 3.71999 23.1271 6.7207 22.989 9.27952H16.1633C16.1633 10.0185 16.348 11.6587 18.4871 11.6587ZM19.792 6.18028C19.4838 5.84224 18.9601 5.65957 18.3222 5.65957C17.9075 5.65957 17.564 5.72855 17.2887 5.86952C17.0196 6.00823 16.7996 6.18104 16.6309 6.38493C16.463 6.59185 16.3488 6.81014 16.2829 7.04358C16.2162 7.27097 16.1763 7.47788 16.164 7.65979H20.3908C20.3287 7.00493 20.1017 6.5206 19.792 6.18028Z" fill="#767E9F"/>
</svg>
