<svg width="20" height="20" viewBox="0 0 20 20" fill="none" xmlns="http://www.w3.org/2000/svg">
<rect width="20" height="20" rx="3" fill="white"/>
<path d="M7.64128 5H12.3587C12.5743 5 12.7877 5.04245 12.9868 5.12493C13.1859 5.20742 13.3669 5.32831 13.5193 5.48072C13.6717 5.63313 13.7926 5.81406 13.8751 6.01319C13.9575 6.21232 14 6.42574 14 6.64128C14.0002 6.68606 13.9915 6.73044 13.9744 6.77185C13.9574 6.81327 13.9323 6.8509 13.9006 6.8826C13.869 6.91429 13.8314 6.93942 13.79 6.95654C13.7486 6.97366 13.7043 6.98244 13.6595 6.98236H6.3405C6.29574 6.98236 6.25141 6.97354 6.21006 6.95639C6.16871 6.93924 6.13115 6.91411 6.09952 6.88243C6.0679 6.85075 6.04283 6.81314 6.02575 6.77176C6.00867 6.73038 5.99992 6.68604 6 6.64128C6 6.20598 6.17292 5.78852 6.48072 5.48072C6.78852 5.17292 7.20599 5 7.64128 5V5Z" fill="#E1486A"/>
<path d="M6.78906 7.78577V12.5213C6.78906 12.9697 6.9672 13.3998 7.2843 13.7169C7.60139 14.034 8.03146 14.2121 8.4799 14.2121H11.5234C11.9718 14.2121 12.4019 14.034 12.719 13.7169C13.0361 13.3998 13.2142 12.9697 13.2142 12.5213V7.78577H6.78906ZM9.44484 12.5044C9.44469 12.616 9.40031 12.7231 9.32141 12.8021C9.24252 12.8811 9.13554 12.9256 9.02388 12.9259H8.87462C8.76297 12.9256 8.65599 12.8811 8.57709 12.8021C8.4982 12.7231 8.45382 12.616 8.45366 12.5044V9.48943C8.45382 9.37778 8.4982 9.27074 8.57709 9.19173C8.65599 9.11273 8.76297 9.0682 8.87462 9.06789H9.02388C9.13554 9.0682 9.24252 9.11273 9.32141 9.19173C9.40031 9.27074 9.44469 9.37778 9.44484 9.48943V12.5044ZM11.5473 12.5044C11.547 12.6161 11.5025 12.7231 11.4235 12.8021C11.3445 12.8811 11.2375 12.9256 11.1258 12.9259H10.9771C10.8654 12.9256 10.7583 12.8811 10.6794 12.8021C10.6004 12.7231 10.5559 12.6161 10.5556 12.5044V9.48943C10.5559 9.37773 10.6004 9.27068 10.6794 9.1917C10.7583 9.11271 10.8654 9.0682 10.9771 9.06789H11.1258C11.2375 9.0682 11.3445 9.11271 11.4235 9.1917C11.5025 9.27068 11.547 9.37773 11.5473 9.48943V12.5044Z" fill="#E1486A"/>
</svg>
