<svg width="12" height="14" viewBox="0 0 12 14" fill="none" xmlns="http://www.w3.org/2000/svg">
<path d="M2.46192 0H9.53808C9.86138 0 10.1815 0.0636794 10.4802 0.187402C10.7789 0.311125 11.0503 0.492469 11.2789 0.721079C11.5075 0.94969 11.6889 1.22109 11.8126 1.51978C11.9363 1.81848 12 2.13861 12 2.46192C12.0002 2.5291 11.9872 2.59566 11.9616 2.65778C11.936 2.7199 11.8984 2.77635 11.851 2.8239C11.8035 2.87144 11.7471 2.90913 11.685 2.93482C11.623 2.9605 11.5564 2.97366 11.4892 2.97354H0.510751C0.443604 2.97354 0.377117 2.9603 0.315093 2.93458C0.253069 2.90886 0.196725 2.87116 0.149286 2.82364C0.101847 2.77612 0.0642441 2.71971 0.038628 2.65764C0.0130119 2.59557 -0.000114228 2.52906 7.48845e-07 2.46192C7.48845e-07 1.80898 0.259381 1.18278 0.72108 0.721079C1.18278 0.25938 1.80898 0 2.46192 0V0Z" fill="#E1486A"/>
<path d="M1.18359 4.17871V11.282C1.18359 11.9546 1.45081 12.5997 1.92645 13.0754C2.40209 13.551 3.04719 13.8182 3.71985 13.8182H8.28512C8.95777 13.8182 9.60288 13.551 10.0785 13.0754C10.5542 12.5997 10.8214 11.9546 10.8214 11.282V4.17871H1.18359ZM5.16727 11.2566C5.16704 11.4241 5.10046 11.5847 4.98212 11.7032C4.86378 11.8217 4.7033 11.8885 4.53583 11.8889H4.31194C4.14446 11.8885 3.98399 11.8217 3.86564 11.7032C3.7473 11.5847 3.68073 11.4241 3.6805 11.2566V6.73421C3.68073 6.56673 3.7473 6.40617 3.86564 6.28766C3.98399 6.16915 4.14446 6.10236 4.31194 6.10189H4.53583C4.7033 6.10236 4.86378 6.16915 4.98212 6.28766C5.10046 6.40617 5.16704 6.56673 5.16727 6.73421V11.2566ZM8.32097 11.2566C8.32051 11.4242 8.25374 11.5847 8.13526 11.7032C8.01678 11.8217 7.85622 11.8885 7.68866 11.8889H7.46564C7.29808 11.8885 7.13752 11.8217 7.01904 11.7032C6.90055 11.5847 6.83379 11.4242 6.83333 11.2566V6.73421C6.83379 6.56665 6.90055 6.40609 7.01904 6.2876C7.13752 6.16912 7.29808 6.10235 7.46564 6.10189H7.68866C7.85622 6.10235 8.01678 6.16912 8.13526 6.2876C8.25374 6.40609 8.32051 6.56665 8.32097 6.73421V11.2566Z" fill="#E1486A"/>
</svg>
