<svg width="13" height="11" viewBox="0 0 13 11" fill="none" xmlns="http://www.w3.org/2000/svg">
<path d="M4.75001 10.2143C4.63889 10.2139 4.52902 10.1896 4.42725 10.1429C4.32547 10.0963 4.23396 10.0282 4.15839 9.9429L0.219678 5.55827C0.072444 5.39407 -0.00642895 5.17539 0.000410417 4.95034C0.00724979 4.72529 0.0992413 4.51229 0.256148 4.35822C0.413055 4.20414 0.622024 4.1216 0.837084 4.12876C1.05214 4.13592 1.25568 4.23218 1.40291 4.39638L4.74191 8.1195L11.5577 0.317064C11.6268 0.226931 11.7129 0.152546 11.8105 0.0984796C11.9082 0.0444127 12.0153 0.0118048 12.1254 0.00265871C12.2356 -0.0064874 12.3463 0.00802145 12.4509 0.0452939C12.5554 0.0825664 12.6516 0.141815 12.7335 0.219402C12.8154 0.296989 12.8813 0.391276 12.9271 0.496471C12.9729 0.601666 12.9976 0.715549 12.9998 0.831124C13.002 0.9467 12.9817 1.06153 12.9399 1.16856C12.8982 1.27558 12.836 1.37255 12.7571 1.45351L5.34973 9.93442C5.27488 10.0212 5.18369 10.0909 5.08187 10.1391C4.98006 10.1872 4.86984 10.2128 4.75811 10.2143H4.75001Z" fill="#61B395"/>
</svg>
