<svg width="15" height="16" viewBox="0 0 15 16" fill="none" xmlns="http://www.w3.org/2000/svg">
<path d="M0.896657 1.79419L13.4555 1.79419C13.9509 1.79419 14.3525 1.39256 14.3525 0.897131C14.3525 0.401699 13.9509 7.18832e-05 13.4555 7.18832e-05L0.896657 7.18832e-05C0.401225 7.18832e-05 -0.000401497 0.401699 -0.000401497 0.897131C-0.000401497 1.39256 0.401225 1.79419 0.896657 1.79419Z" fill="#4D75F4"/>
<path d="M14.3525 2.69118V0.897059C14.3525 0.401627 13.9509 0 13.4555 0C12.96 0 12.5584 0.401627 12.5584 0.897059V2.69118C12.5584 3.18661 12.96 3.58824 13.4555 3.58824C13.9509 3.58824 14.3525 3.18661 14.3525 2.69118Z" fill="#4D75F4"/>
<path d="M1.79395 2.69118L1.79395 0.897059C1.79395 0.401627 1.39232 0 0.896887 0C0.401455 0 -0.000172257 0.401627 -0.000172257 0.897059L-0.000172257 2.69118C-0.000172257 3.18661 0.401455 3.58824 0.896887 3.58824C1.39232 3.58824 1.79395 3.18661 1.79395 2.69118Z" fill="#4D75F4"/>
<path d="M3.58847 8.9706C3.4492 8.9706 3.31185 8.93817 3.18729 8.87589C3.06273 8.81361 2.95438 8.72318 2.87082 8.61177C2.80014 8.51753 2.74871 8.41029 2.71947 8.29617C2.69024 8.18205 2.68376 8.06329 2.70042 7.94667C2.71708 7.83005 2.75655 7.71786 2.81657 7.61649C2.87659 7.51512 2.95599 7.42657 3.05023 7.35589L6.63846 4.66471C6.7921 4.55245 6.97745 4.49194 7.16773 4.49194C7.35801 4.49194 7.54336 4.55245 7.69699 4.66471L11.2852 7.19442C11.4786 7.33161 11.6098 7.53979 11.6502 7.77345C11.6905 8.00711 11.6367 8.24723 11.5005 8.44133C11.4325 8.53835 11.346 8.62094 11.2459 8.68434C11.1459 8.74774 11.0342 8.79068 10.9174 8.8107C10.8007 8.83072 10.6811 8.82741 10.5656 8.80096C10.4502 8.77452 10.3411 8.72546 10.2446 8.65663L7.1767 6.49471L4.1267 8.79118C3.97142 8.90764 3.78256 8.9706 3.58847 8.9706Z" fill="#4D75F4"/>
<path d="M7.17636 15.2499C6.93844 15.2499 6.71027 15.1554 6.54204 14.9871C6.37381 14.8189 6.2793 14.5907 6.2793 14.3528V7.17636C6.2793 6.93844 6.37381 6.71027 6.54204 6.54204C6.71027 6.37381 6.93844 6.2793 7.17636 6.2793C7.41427 6.2793 7.64244 6.37381 7.81067 6.54204C7.9789 6.71027 8.07341 6.93844 8.07341 7.17636V14.3528C8.07341 14.5907 7.9789 14.8189 7.81067 14.9871C7.64244 15.1554 7.41427 15.2499 7.17636 15.2499Z" fill="#4D75F4"/>
</svg>
