<svg width="11" height="9" viewBox="0 0 11 9" fill="none" xmlns="http://www.w3.org/2000/svg">
<path d="M4.16916 8.23204C4.08387 8.23177 3.99955 8.21396 3.92143 8.17972C3.84332 8.14547 3.77308 8.09553 3.71508 8.033L0.692045 4.81713C0.57904 4.6967 0.518503 4.53632 0.523753 4.37125C0.529002 4.20619 0.599607 4.04997 0.720036 3.93697C0.840465 3.82396 1.00085 3.76343 1.16591 3.76868C1.33098 3.77393 1.48719 3.84453 1.6002 3.96496L4.16294 6.69564L9.39416 0.973026C9.44724 0.906919 9.51329 0.852362 9.58823 0.812707C9.66316 0.773053 9.74542 0.749137 9.82994 0.742429C9.91446 0.73572 9.99946 0.746362 10.0797 0.773699C10.16 0.801036 10.2338 0.844492 10.2966 0.901397C10.3595 0.958302 10.41 1.02746 10.4452 1.10461C10.4803 1.18176 10.4994 1.26529 10.5011 1.35006C10.5027 1.43483 10.4871 1.51905 10.4551 1.59754C10.423 1.67604 10.3753 1.74716 10.3148 1.80654L4.62946 8.02678C4.57201 8.09044 4.50201 8.14154 4.42387 8.17687C4.34573 8.21219 4.26113 8.23098 4.17538 8.23204H4.16916Z" fill="white"/>
</svg>
