<svg width="64" height="50" viewBox="0 0 64 50" fill="none" xmlns="http://www.w3.org/2000/svg">
<rect width="64" height="50" rx="5" fill="#EFF1F9"/>
<path d="M21.024 32.0404C20.992 31.7748 20.992 31.5063 21.024 31.2407C21.2143 29.6782 21.8066 28.3302 22.6049 27.0902C25.7625 22.184 29.7511 18.1202 34.8348 15.1984C34.9701 15.1205 35.1095 15.0499 35.2524 14.9868C39.1088 13.2822 39.9795 13.6246 42.6286 17.2907C43.2422 18.1429 43.0547 19.0165 42.1783 19.6699C40.8794 20.6199 39.532 21.5017 38.1415 22.3119C37.1827 22.8801 36.3191 22.5065 35.5407 21.9752C35.1751 21.7249 34.735 21.607 34.2932 21.6411C33.8514 21.6752 33.4346 21.8592 33.1118 22.1627C31.67 23.5178 30.2525 24.8956 28.957 26.3942C28.4457 26.9751 28.2724 27.495 28.761 28.1385C29.8803 29.6185 29.457 30.8373 28.538 32.3997C27.7752 33.6923 27.7085 33.8202 26.6787 35.1724C26.1673 35.8414 25.4955 36.2278 24.754 35.8542C23.2256 35.0801 21.943 33.9792 21.1291 32.4296C21.0713 32.3071 21.0357 32.1753 21.024 32.0404Z" fill="#162359"/>
</svg>
