<svg width="64" height="50" viewBox="0 0 64 50" fill="none" xmlns="http://www.w3.org/2000/svg">
<rect width="64" height="50" rx="5" fill="#F7F8FC"/>
<g clip-path="url(#clip0)">
<path d="M32.9402 23.7572L45.2434 17.8395C45.2672 17.8279 45.2883 17.8114 45.3054 17.7911C45.3226 17.7708 45.3354 17.7472 45.343 17.7217C45.3506 17.6963 45.3528 17.6695 45.3496 17.6431C45.3464 17.6167 45.3378 17.5912 45.3243 17.5683C44.8789 16.7878 44.2365 16.1393 43.462 15.6883C42.6875 15.2374 41.8085 14.9999 40.9135 15H24.0876C23.1922 14.9996 22.3126 15.2368 21.5377 15.6878C20.7627 16.1388 20.1199 16.7875 19.6741 17.5683C19.6608 17.5913 19.6524 17.6167 19.6493 17.6431C19.6462 17.6694 19.6485 17.6961 19.6561 17.7216C19.6637 17.747 19.6764 17.7706 19.6934 17.7909C19.7104 17.8111 19.7314 17.8277 19.755 17.8395L32.0596 23.7572C32.197 23.8235 32.3475 23.8579 32.4999 23.8579C32.6523 23.8579 32.8027 23.8235 32.9402 23.7572Z" fill="#CDD1DE"/>
<path d="M33.0011 26.2672C32.8441 26.3404 32.6732 26.3783 32.5001 26.3783C32.3271 26.3783 32.1562 26.3404 31.9992 26.2672L19.0918 20.0579C19.0823 20.0515 19.0711 20.048 19.0596 20.0479C19.0481 20.0477 19.0368 20.0509 19.0271 20.0571C19.0174 20.0633 19.0097 20.0721 19.0049 20.0826C19.0001 20.0931 18.9985 20.1048 19.0001 20.1162V29.8796C19.0001 30.5514 19.1318 31.2167 19.3875 31.8373C19.6432 32.458 20.0179 33.0219 20.4904 33.4969C20.9628 33.9719 21.5237 34.3486 22.141 34.6056C22.7582 34.8626 23.4198 34.9947 24.0878 34.9945H40.9138C42.2628 34.9945 43.5565 34.4557 44.5104 33.4964C45.4643 32.5372 46.0001 31.2362 46.0001 29.8796V20.3169C45.9999 20.285 45.9917 20.2536 45.9763 20.2257C45.9609 20.1977 45.9388 20.1741 45.9119 20.157C45.8851 20.1398 45.8545 20.1297 45.8228 20.1276C45.791 20.1255 45.7593 20.1313 45.7305 20.1447L33.0011 26.2672Z" fill="#CDD1DE"/>
</g>
<defs>
<clipPath id="clip0">
<rect width="27" height="20" fill="white" transform="translate(19 15)"/>
</clipPath>
</defs>
</svg>
