<svg width="64" height="50" viewBox="0 0 64 50" fill="none" xmlns="http://www.w3.org/2000/svg">
<rect width="64" height="50" rx="5" fill="#F0FDF6"/>
<path d="M43.3321 13.6487C40.6004 10.9274 36.9687 9.28758 33.1132 9.0344C29.2576 8.78122 25.4411 9.932 22.3742 12.2724C19.3074 14.6129 17.1992 17.9835 16.4423 21.7566C15.6853 25.5297 16.3313 29.4481 18.2598 32.7823L16 41L24.4455 38.7951C26.7801 40.064 29.3972 40.7292 32.0569 40.7298C35.2089 40.7325 38.2908 39.804 40.9126 38.0617C43.5345 36.3195 45.5783 33.8419 46.7854 30.9425C47.9926 28.043 48.3088 24.8522 47.6941 21.7737C47.0794 18.6953 45.5613 15.8676 43.3321 13.6487ZM32.0642 38.0462C29.6935 38.0475 27.3662 37.413 25.3268 36.2093L24.8424 35.9247L19.8239 37.232L21.1623 32.3688L20.8473 31.8702C19.2865 29.3941 18.5964 26.4716 18.8853 23.5623C19.1743 20.653 20.4259 17.9218 22.4435 15.7981C24.4612 13.6744 27.1303 12.2786 30.0314 11.8301C32.9325 11.3816 35.901 11.9059 38.4702 13.3205C41.0395 14.7351 43.0638 16.9599 44.2249 19.645C45.3861 22.3301 45.6182 25.3234 44.8847 28.1542C44.1513 30.985 42.494 33.4928 40.1733 35.2834C37.8526 37.074 35.0001 38.0459 32.0642 38.0462ZM39.3261 28.1748C38.9291 27.9771 36.9716 27.0179 36.6074 26.8855C36.2432 26.7532 35.9774 26.6879 35.7115 27.085C35.4457 27.4821 34.6827 28.3742 34.4515 28.6389C34.2202 28.9037 33.9871 28.9363 33.5883 28.7369C32.4136 28.2712 31.3297 27.6048 30.3853 26.7677C29.5163 25.9673 28.7708 25.0434 28.1729 24.026C27.9416 23.6289 28.1492 23.4149 28.355 23.2173C28.5608 23.0196 28.7538 22.7549 28.9523 22.5228C29.1159 22.3224 29.2496 22.0995 29.3492 21.861C29.4023 21.752 29.4271 21.6315 29.4213 21.5105C29.4156 21.3895 29.3795 21.2718 29.3164 21.1683C29.2181 20.9688 28.4205 19.0196 28.0891 18.2253C27.7577 17.4311 27.4391 17.5581 27.1932 17.5454C26.9474 17.5327 26.6961 17.5309 26.4321 17.5309C26.2302 17.5359 26.0316 17.5827 25.8489 17.6682C25.6661 17.7537 25.5032 17.8761 25.3705 18.0277C25.0063 18.4248 23.9775 19.3822 23.9775 21.3333C23.9775 23.2844 25.4033 25.1665 25.6017 25.4313C25.8002 25.696 28.4078 29.6979 32.4011 31.4151C33.142 31.733 33.8994 32.0114 34.67 32.2492C35.482 32.4954 36.3406 32.5494 37.1774 32.4069C37.9422 32.2927 39.5318 31.4477 39.8651 30.5229C40.1983 29.5982 40.1965 28.804 40.0963 28.6389C39.9962 28.4739 39.7249 28.3742 39.3261 28.1748Z" fill="#61B395"/>
</svg>
