<svg width="20" height="20" viewBox="0 0 20 20" fill="none" xmlns="http://www.w3.org/2000/svg">
<rect width="20" height="20" rx="3" fill="white"/>
<path d="M7.64128 5H12.3587C12.5743 5 12.7877 5.04245 12.9868 5.12493C13.1859 5.20742 13.3669 5.32831 13.5193 5.48072C13.6717 5.63313 13.7926 5.81406 13.8751 6.01319C13.9575 6.21232 14 6.42574 14 6.64128C14.0002 6.68606 13.9915 6.73044 13.9744 6.77185C13.9574 6.81327 13.9323 6.8509 13.9006 6.8826C13.869 6.91429 13.8314 6.93942 13.79 6.95654C13.7486 6.97366 13.7043 6.98244 13.6595 6.98236H6.3405C6.29574 6.98236 6.25141 6.97354 6.21006 6.95639C6.16871 6.93924 6.13115 6.91411 6.09952 6.88243C6.0679 6.85075 6.04283 6.81314 6.02575 6.77176C6.00867 6.73038 5.99992 6.68604 6 6.64128C6 6.20598 6.17292 5.78852 6.48072 5.48072C6.78852 5.17292 7.20599 5 7.64128 5V5Z" fill="#E1486A"/>
<path d="M6.79004 7.78583V12.5213C6.79004 12.9698 6.96818 13.3998 7.28527 13.7169C7.60237 14.034 8.03244 14.2122 8.48088 14.2122H11.5244C11.9728 14.2122 12.4029 14.034 12.72 13.7169C13.0371 13.3998 13.2152 12.9698 13.2152 12.5213V7.78583H6.79004ZM9.44582 12.5044C9.44567 12.6161 9.40129 12.7231 9.32239 12.8021C9.24349 12.8811 9.13651 12.9257 9.02486 12.926H8.8756C8.76395 12.9257 8.65697 12.8811 8.57807 12.8021C8.49918 12.7231 8.45479 12.6161 8.45464 12.5044V9.48949C8.45479 9.37784 8.49918 9.2708 8.57807 9.19179C8.65697 9.11279 8.76395 9.06826 8.8756 9.06795H9.02486C9.13651 9.06826 9.24349 9.11279 9.32239 9.19179C9.40129 9.2708 9.44567 9.37784 9.44582 9.48949V12.5044ZM11.5483 12.5044C11.548 12.6161 11.5035 12.7232 11.4245 12.8022C11.3455 12.8812 11.2385 12.9257 11.1267 12.926H10.9781C10.8664 12.9257 10.7593 12.8812 10.6803 12.8022C10.6013 12.7232 10.5568 12.6161 10.5565 12.5044V9.48949C10.5568 9.37779 10.6013 9.27074 10.6803 9.19176C10.7593 9.11277 10.8664 9.06826 10.9781 9.06795H11.1267C11.2385 9.06826 11.3455 9.11277 11.4245 9.19176C11.5035 9.27074 11.548 9.37779 11.5483 9.48949V12.5044Z" fill="#E1486A"/>
</svg>
