<svg width="15" height="16" viewBox="0 0 15 16" fill="none" xmlns="http://www.w3.org/2000/svg">
<path d="M0.897145 1.79413L13.456 1.79413C13.9514 1.79413 14.353 1.3925 14.353 0.89707C14.353 0.401638 13.9514 1.0848e-05 13.456 1.0848e-05L0.897145 1.0848e-05C0.401713 1.0848e-05 8.67844e-05 0.401638 8.67844e-05 0.89707C8.67844e-05 1.3925 0.401713 1.79413 0.897145 1.79413Z" fill="#4D75F4"/>
<path d="M14.353 2.69118V0.897059C14.353 0.401627 13.9514 0 13.456 0C12.9605 0 12.5589 0.401627 12.5589 0.897059V2.69118C12.5589 3.18661 12.9605 3.58824 13.456 3.58824C13.9514 3.58824 14.353 3.18661 14.353 2.69118Z" fill="#4D75F4"/>
<path d="M1.79443 2.69118L1.79443 0.897059C1.79443 0.401627 1.39281 0 0.897375 0C0.401943 0 0.000316024 0.401627 0.000316024 0.897059L0.000316024 2.69118C0.000316024 3.18661 0.401943 3.58824 0.897375 3.58824C1.39281 3.58824 1.79443 3.18661 1.79443 2.69118Z" fill="#4D75F4"/>
<path d="M3.58847 8.97047C3.4492 8.97047 3.31185 8.93805 3.18729 8.87577C3.06273 8.81349 2.95438 8.72306 2.87082 8.61165C2.80014 8.51741 2.74871 8.41017 2.71947 8.29605C2.69024 8.18193 2.68376 8.06317 2.70042 7.94655C2.71708 7.82993 2.75655 7.71774 2.81657 7.61637C2.87659 7.515 2.95599 7.42645 3.05023 7.35577L6.63846 4.66459C6.7921 4.55233 6.97745 4.49182 7.16773 4.49182C7.35801 4.49182 7.54336 4.55233 7.69699 4.66459L11.2852 7.1943C11.4786 7.33149 11.6098 7.53967 11.6502 7.77333C11.6905 8.00698 11.6367 8.24711 11.5005 8.44121C11.4325 8.53823 11.346 8.62082 11.2459 8.68422C11.1459 8.74762 11.0342 8.79056 10.9174 8.81058C10.8007 8.8306 10.6811 8.82729 10.5656 8.80084C10.4502 8.7744 10.3411 8.72534 10.2446 8.6565L7.1767 6.49459L4.1267 8.79106C3.97142 8.90752 3.78256 8.97047 3.58847 8.97047Z" fill="#4D75F4"/>
<path d="M7.17636 15.2499C6.93844 15.2499 6.71027 15.1554 6.54204 14.9872C6.37381 14.819 6.2793 14.5908 6.2793 14.3529V7.17642C6.2793 6.9385 6.37381 6.71033 6.54204 6.5421C6.71027 6.37387 6.93844 6.27936 7.17636 6.27936C7.41427 6.27936 7.64244 6.37387 7.81067 6.5421C7.9789 6.71033 8.07341 6.9385 8.07341 7.17642V14.3529C8.07341 14.5908 7.9789 14.819 7.81067 14.9872C7.64244 15.1554 7.41427 15.2499 7.17636 15.2499Z" fill="#4D75F4"/>
</svg>
