<svg width="19" height="23" viewBox="0 0 19 23" fill="none" xmlns="http://www.w3.org/2000/svg">
<path d="M10.8965 0.455234L4.92188 6.31086C4.8043 6.42534 4.71087 6.56224 4.64713 6.71346C4.58339 6.86468 4.55063 7.02715 4.55078 7.19125V15.276C4.55091 15.4459 4.58609 15.6139 4.65413 15.7696C4.72217 15.9253 4.82159 16.0652 4.94619 16.1807L10.917 21.7203C11.5568 22.3179 12.6023 22.2987 13.1564 21.6179C13.4468 21.2616 13.605 20.8158 13.6042 20.3562V1.7643C13.6048 1.37259 13.49 0.989383 13.2741 0.662535C12.743 -0.141078 11.585 -0.217856 10.8965 0.455234Z" fill="#4D75F4"/>
<path d="M2.85103 6.52319H0.701242C0.313957 6.52319 0 6.83715 0 7.22444V14.9266C0 15.3139 0.313957 15.6278 0.701242 15.6278H2.85103C3.23832 15.6278 3.55228 15.3139 3.55228 14.9266V7.22444C3.55228 6.83715 3.23832 6.52319 2.85103 6.52319Z" fill="#4D75F4"/>
<path d="M15.2654 7.41405C15.1911 7.40205 15.115 7.40627 15.0425 7.42643C14.9699 7.44658 14.9026 7.48219 14.8451 7.53081C14.7876 7.57944 14.7413 7.63992 14.7094 7.70811C14.6775 7.77631 14.6607 7.8506 14.6602 7.9259V14.214C14.6607 14.2893 14.6775 14.3636 14.7094 14.4318C14.7413 14.5 14.7876 14.5605 14.8451 14.6091C14.9026 14.6578 14.9699 14.6934 15.0425 14.7135C15.115 14.7337 15.1911 14.7379 15.2654 14.7259C16.1327 14.5822 16.9207 14.1353 17.4892 13.4649C18.0578 12.7944 18.3698 11.9439 18.3698 11.0649C18.3698 10.1858 18.0578 9.33529 17.4892 8.66483C16.9207 7.99436 16.1327 7.54749 15.2654 7.40381V7.41405Z" fill="#4D75F4"/>
</svg>
