<svg width="19" height="18" viewBox="0 0 19 18" fill="none" xmlns="http://www.w3.org/2000/svg">
<path d="M10.1512 6.55496L6.55137 10.1548C6.46701 10.2385 6.40006 10.338 6.35437 10.4477C6.30868 10.5574 6.28516 10.675 6.28516 10.7938C6.28516 10.9126 6.30868 11.0303 6.35437 11.1399C6.40006 11.2496 6.46701 11.3491 6.55137 11.4328C6.63503 11.5171 6.73457 11.5841 6.84424 11.6298C6.95391 11.6755 7.07154 11.699 7.19034 11.699C7.30915 11.699 7.42678 11.6755 7.53645 11.6298C7.64612 11.5841 7.74566 11.5171 7.82932 11.4328L11.4292 7.83291C11.5987 7.66345 11.6939 7.4336 11.6939 7.19393C11.6939 6.95427 11.5987 6.72442 11.4292 6.55496C11.2597 6.38549 11.0299 6.29028 10.7902 6.29028C10.5506 6.29028 10.3207 6.38549 10.1512 6.55496Z" fill="#767E9F"/>
<path d="M9.24424 13.8537L8.09228 14.9967C7.44559 15.663 6.57623 16.0681 5.65003 16.1344C4.72382 16.2008 3.80558 15.924 3.07045 15.3567C2.68191 15.0365 2.36485 14.6384 2.13974 14.188C1.91463 13.7377 1.78649 13.2452 1.76359 12.7422C1.74069 12.2393 1.82355 11.7371 2.0068 11.2682C2.19005 10.7993 2.46962 10.374 2.82746 10.0198L4.10542 8.73289C4.18977 8.64922 4.25672 8.54969 4.30241 8.44002C4.3481 8.33035 4.37163 8.21272 4.37163 8.09391C4.37163 7.9751 4.3481 7.85747 4.30241 7.7478C4.25672 7.63813 4.18977 7.53859 4.10542 7.45493C4.02175 7.37058 3.92222 7.30363 3.81255 7.25793C3.70288 7.21224 3.58525 7.18872 3.46644 7.18872C3.34763 7.18872 3.23 7.21224 3.12033 7.25793C3.01066 7.30363 2.91113 7.37058 2.82746 7.45493L1.6845 8.60689C0.721675 9.53926 0.12988 10.7893 0.0189865 12.125C-0.0919068 13.4607 0.285636 14.7913 1.08152 15.8696C1.5539 16.4825 2.15126 16.9877 2.83393 17.3519C3.5166 17.7161 4.26895 17.9309 5.04101 17.982C5.81306 18.033 6.58715 17.9193 7.31185 17.6482C8.03654 17.3771 8.69526 16.9549 9.24424 16.4096L10.5222 15.1317C10.6917 14.9622 10.7869 14.7324 10.7869 14.4927C10.7869 14.253 10.6917 14.0232 10.5222 13.8537C10.3527 13.6842 10.1229 13.589 9.88322 13.589C9.64356 13.589 9.41371 13.6842 9.24424 13.8537Z" fill="#767E9F"/>
<path d="M15.8843 1.09228C14.7985 0.288129 13.457 -0.0932573 12.1106 0.0193625C10.7641 0.131982 9.50467 0.730906 8.56752 1.70426L7.59556 2.69423C7.48446 2.77499 7.39157 2.87818 7.32288 2.99712C7.2542 3.11606 7.21125 3.24809 7.19683 3.38468C7.18241 3.52127 7.19683 3.65936 7.23916 3.79002C7.28149 3.92068 7.35078 4.041 7.44256 4.14318C7.52622 4.22753 7.62576 4.29449 7.73543 4.34018C7.8451 4.38587 7.96273 4.40939 8.08154 4.40939C8.20035 4.40939 8.31798 4.38587 8.42765 4.34018C8.53732 4.29449 8.63685 4.22753 8.72052 4.14318L9.89048 2.96422C10.5336 2.29493 11.4019 1.88771 12.3277 1.82122C13.2536 1.75474 14.1712 2.0337 14.9033 2.60423C15.2947 2.92444 15.6143 3.32354 15.8412 3.77551C16.0681 4.22748 16.1972 4.72219 16.2202 5.2274C16.2431 5.73261 16.1593 6.23698 15.9743 6.70764C15.7892 7.17831 15.5071 7.6047 15.1463 7.95905L13.8683 9.24601C13.784 9.32967 13.717 9.42921 13.6713 9.53888C13.6257 9.64855 13.6021 9.76618 13.6021 9.88499C13.6021 10.0038 13.6257 10.1214 13.6713 10.2311C13.717 10.3408 13.784 10.4403 13.8683 10.524C13.952 10.6083 14.0515 10.6753 14.1612 10.721C14.2709 10.7667 14.3885 10.7902 14.5073 10.7902C14.6261 10.7902 14.7438 10.7667 14.8534 10.721C14.9631 10.6753 15.0626 10.6083 15.1463 10.524L16.4243 9.24601C16.968 8.69712 17.3889 8.03897 17.6591 7.31516C17.9293 6.59135 18.0426 5.81838 17.9915 5.04747C17.9405 4.27656 17.7262 3.5253 17.3629 2.84343C16.9996 2.16157 16.4956 1.56468 15.8843 1.09228Z" fill="#767E9F"/>
</svg>
