<svg width="50" height="50" viewBox="0 0 50 50" fill="none" xmlns="http://www.w3.org/2000/svg">
<circle cx="25" cy="25" r="24" fill="#EFF1F9" stroke="white" stroke-width="2"/>
<path fill-rule="evenodd" clip-rule="evenodd" d="M27.9229 12H15.9727C15.1843 12 14.4282 12.313 13.8707 12.8701C13.3132 13.4271 13 14.1827 13 14.9705V32.7304C13 33.1002 13.0729 33.4664 13.2145 33.808C13.3561 34.1497 13.5637 34.4601 13.8254 34.7216C14.0871 34.9831 14.3978 35.1906 14.7397 35.3321C15.0816 35.4736 15.4481 35.5464 15.8181 35.5464H25.073C25.1443 35.5461 25.2139 35.5242 25.2725 35.4835C25.3311 35.4429 25.3761 35.3855 25.4015 35.3189C26.2002 33.2924 27.7427 31.647 29.7142 30.7183C29.7607 30.6969 29.8019 30.6656 29.8348 30.6265C29.8678 30.5874 29.8917 30.5415 29.9049 30.4921C29.9181 30.4427 29.9202 30.391 29.9111 30.3407C29.902 30.2904 29.8819 30.2428 29.8522 30.2011C29.2148 29.3001 28.9518 28.1873 29.1186 27.0965C29.2854 26.0057 29.8689 25.0221 30.7465 24.3524C30.7916 24.319 30.8283 24.2756 30.8537 24.2256C30.8791 24.1756 30.8925 24.1203 30.8928 24.0642V14.9705C30.8928 14.1832 30.58 13.428 30.0231 12.871C29.4662 12.314 28.7108 12.0007 27.9229 12ZM20.8665 30.2425C20.8665 30.4861 20.7697 30.7197 20.5973 30.892C20.4249 31.0642 20.1911 31.161 19.9474 31.161H17.7999C17.5562 31.161 17.3224 31.0642 17.15 30.892C16.9776 30.7197 16.8808 30.4861 16.8808 30.2425V28.098C16.8808 27.8544 16.9776 27.6208 17.15 27.4486C17.3224 27.2763 17.5562 27.1796 17.7999 27.1796H19.946C20.0668 27.1794 20.1865 27.203 20.2981 27.2491C20.4098 27.2952 20.5113 27.3628 20.5968 27.4481C20.6823 27.5334 20.7501 27.6347 20.7964 27.7462C20.8427 27.8577 20.8665 27.9773 20.8665 28.098V30.2425ZM20.8665 24.7717C20.8665 25.0153 20.7697 25.2489 20.5973 25.4211C20.4249 25.5934 20.1911 25.6901 19.9474 25.6901H17.7999C17.5562 25.6901 17.3224 25.5934 17.15 25.4211C16.9776 25.2489 16.8808 25.0153 16.8808 24.7717V22.6286C16.8808 22.3849 16.9776 22.1511 17.1499 21.9786C17.3223 21.8062 17.556 21.7091 17.7999 21.7087H19.946C20.1901 21.7087 20.4242 21.8056 20.5969 21.9782C20.7695 22.1507 20.8665 22.3846 20.8665 22.6286V24.7717ZM20.8665 19.3091C20.8665 19.5527 20.7697 19.7863 20.5973 19.9586C20.4249 20.1308 20.1911 20.2276 19.9474 20.2276H17.7999C17.5562 20.2276 17.3224 20.1308 17.15 19.9586C16.9776 19.7863 16.8808 19.5527 16.8808 19.3091V17.1578C16.8808 16.9142 16.9776 16.6806 17.15 16.5083C17.3224 16.3361 17.5562 16.2393 17.7999 16.2393H19.946C20.0668 16.2391 20.1865 16.2627 20.2981 16.3088C20.4098 16.3549 20.5113 16.4225 20.5968 16.5078C20.6823 16.5931 20.7501 16.6944 20.7964 16.806C20.8427 16.9175 20.8665 17.037 20.8665 17.1578V19.3091ZM26.8009 30.2425C26.8005 30.4862 26.7033 30.7198 26.5308 30.892C26.3582 31.0642 26.1242 31.161 25.8803 31.161H23.7412C23.4974 31.161 23.2637 31.0642 23.0913 30.892C22.9189 30.7197 22.8221 30.4861 22.8221 30.2425V28.098C22.8221 27.8544 22.9189 27.6208 23.0913 27.4486C23.2637 27.2763 23.4974 27.1796 23.7412 27.1796H25.8859C26.1298 27.1796 26.3637 27.2763 26.5363 27.4485C26.7089 27.6207 26.806 27.8543 26.8064 28.098L26.8009 30.2425ZM26.8009 24.7717C26.8005 25.0154 26.7033 25.249 26.5308 25.4212C26.3582 25.5934 26.1242 25.6901 25.8803 25.6901H23.7412C23.4974 25.6901 23.2637 25.5934 23.0913 25.4211C22.9189 25.2489 22.8221 25.0153 22.8221 24.7717V22.6286C22.8221 22.3849 22.9189 22.1511 23.0912 21.9786C23.2635 21.8062 23.4973 21.7091 23.7412 21.7087H25.8859C26.129 21.7102 26.3618 21.8077 26.5332 21.9801C26.7046 22.1524 26.8009 22.3856 26.8009 22.6286V24.7717ZM26.8009 19.3091C26.8005 19.5529 26.7033 19.7865 26.5308 19.9587C26.3582 20.1309 26.1242 20.2276 25.8803 20.2276H23.7412C23.4974 20.2276 23.2637 20.1308 23.0913 19.9586C22.9189 19.7863 22.8221 19.5527 22.8221 19.3091V17.1578C22.8221 16.9142 22.9189 16.6806 23.0913 16.5083C23.2637 16.3361 23.4974 16.2393 23.7412 16.2393H25.8859C26.1288 16.2408 26.3613 16.3381 26.5327 16.5102C26.7041 16.6822 26.8005 16.915 26.8009 17.1578V19.3091ZM33.4774 30.6907C35.1077 30.6907 36.4294 29.37 36.4294 27.7409C36.4294 26.1117 35.1077 24.791 33.4774 24.791C31.847 24.791 30.5254 26.1117 30.5254 27.7409C30.5254 29.37 31.847 30.6907 33.4774 30.6907ZM27.0752 35.4582C27.0478 35.5102 27.0243 35.5641 27.0048 35.6196L26.9993 35.6182C26.9129 35.8693 26.9244 36.1438 27.0314 36.3869C27.1384 36.63 27.3331 36.8239 27.5768 36.93C27.8204 37.0361 28.0951 37.0466 28.3462 36.9594C28.5972 36.8722 28.8062 36.6937 28.9314 36.4594C30.0107 34.4653 31.6185 33.3868 33.4609 33.4254C35.3267 33.4654 37.1595 34.6707 38.0152 36.4263C38.1484 36.659 38.3652 36.8323 38.6216 36.9112C38.878 36.9901 39.1549 36.9686 39.396 36.8511C39.6371 36.7336 39.8246 36.5289 39.9203 36.2784C40.016 36.028 40.0128 35.7505 39.9114 35.5023C39.3194 34.2845 38.4091 33.2491 37.2768 32.5056C36.1593 31.7628 34.855 31.3494 33.5133 31.3127C32.2651 31.2886 31.0363 31.6237 29.9734 32.278C28.8045 32.9883 27.8329 34.0598 27.0752 35.4582Z" fill="#CDD1DE"/>
</svg>
