<svg width="46" height="46" viewBox="0 0 46 46" fill="none" xmlns="http://www.w3.org/2000/svg">
<rect x="1.25" y="1.25" width="43.5" height="43.5" rx="2.75" stroke="white" stroke-width="2.5"/>
<path d="M23 9C20.2311 9 17.5243 9.82109 15.222 11.3594C12.9197 12.8978 11.1253 15.0843 10.0657 17.6424C9.00607 20.2006 8.72882 23.0155 9.26901 25.7313C9.80921 28.447 11.1426 30.9416 13.1005 32.8995C15.0584 34.8574 17.553 36.1908 20.2687 36.731C22.9845 37.2712 25.7994 36.9939 28.3576 35.9343C30.9157 34.8747 33.1022 33.0803 34.6406 30.778C36.1789 28.4757 37 25.7689 37 23C37 21.1615 36.6379 19.341 35.9343 17.6424C35.2307 15.9439 34.1995 14.4005 32.8995 13.1005C31.5995 11.8005 30.0561 10.7693 28.3576 10.0657C26.659 9.36212 24.8385 9 23 9ZM23 34.2C20.7849 34.2 18.6194 33.5431 16.7776 32.3125C14.9358 31.0818 13.5003 29.3326 12.6526 27.286C11.8049 25.2395 11.5831 22.9876 12.0152 20.815C12.4474 18.6424 13.5141 16.6467 15.0804 15.0804C16.6468 13.5141 18.6424 12.4474 20.815 12.0152C22.9876 11.5831 25.2395 11.8048 27.2861 12.6525C29.3326 13.5002 31.0818 14.9358 32.3125 16.7776C33.5431 18.6194 34.2 20.7848 34.2 23C34.2 25.9704 33.02 28.8192 30.9196 30.9196C28.8192 33.02 25.9704 34.2 23 34.2Z" fill="white"/>
<path d="M26.75 21.75H24.25V19.25C24.25 18.9185 24.1183 18.6005 23.8839 18.3661C23.6495 18.1317 23.3315 18 23 18C22.6685 18 22.3505 18.1317 22.1161 18.3661C21.8817 18.6005 21.75 18.9185 21.75 19.25V21.75H19.25C18.9185 21.75 18.6005 21.8817 18.3661 22.1161C18.1317 22.3505 18 22.6685 18 23C18 23.3315 18.1317 23.6495 18.3661 23.8839C18.6005 24.1183 18.9185 24.25 19.25 24.25H21.75V26.75C21.75 27.0815 21.8817 27.3995 22.1161 27.6339C22.3505 27.8683 22.6685 28 23 28C23.3315 28 23.6495 27.8683 23.8839 27.6339C24.1183 27.3995 24.25 27.0815 24.25 26.75V24.25H26.75C27.0815 24.25 27.3995 24.1183 27.6339 23.8839C27.8683 23.6495 28 23.3315 28 23C28 22.6685 27.8683 22.3505 27.6339 22.1161C27.3995 21.8817 27.0815 21.75 26.75 21.75Z" fill="white"/>
</svg>
