<svg width="18" height="16" viewBox="0 0 18 16" fill="none" xmlns="http://www.w3.org/2000/svg">
<path d="M1.86932 11.9822L15.8695 12.7985C16.0119 12.8058 16.1544 12.7839 16.288 12.7341C16.4217 12.6843 16.5437 12.6077 16.6467 12.509C16.7496 12.4103 16.8313 12.2916 16.8867 12.1602C16.9421 12.0288 16.9701 11.8874 16.9688 11.7448V11.1659H0.917969C0.966699 11.3867 1.08582 11.5857 1.25739 11.7329C1.42897 11.8801 1.64372 11.9676 1.86932 11.9822Z" fill="#767E9F"/>
<path d="M3.00126 13.3766L14.8416 15.0625C15.4222 15.1485 15.9383 14.6591 15.9409 14.0303V13.5469L2.23828 12.7615C2.30071 12.9217 2.40399 13.0628 2.53784 13.1707C2.6717 13.2786 2.83146 13.3496 3.00126 13.3766Z" fill="#767E9F"/>
<path d="M16.9454 0H1.05457C0.774883 0 0.506648 0.111107 0.308877 0.308877C0.111107 0.506648 0 0.774883 0 1.05457L0 9.38536C0 9.66505 0.111107 9.93328 0.308877 10.1311C0.506648 10.3288 0.774883 10.4399 1.05457 10.4399H16.9454C17.2251 10.4399 17.4934 10.3288 17.6911 10.1311C17.8889 9.93328 18 9.66505 18 9.38536V1.05457C18 0.774883 17.8889 0.506648 17.6911 0.308877C17.4934 0.111107 17.2251 0 16.9454 0V0ZM3.34092 6.4513C3.10398 6.4513 2.87236 6.38111 2.67528 6.24958C2.47821 6.11805 2.32452 5.93108 2.23361 5.71228C2.1427 5.49347 2.11866 5.25264 2.16451 5.02018C2.21036 4.78773 2.32405 4.57406 2.49123 4.40617C2.65841 4.23827 2.87158 4.12366 3.10384 4.07681C3.3361 4.02996 3.57703 4.05298 3.79622 4.14294C4.01541 4.2329 4.20304 4.38579 4.33541 4.5823C4.46779 4.77881 4.53898 5.01013 4.54 5.24706C4.54068 5.40496 4.51016 5.56144 4.45021 5.70752C4.39025 5.85359 4.30204 5.98639 4.19063 6.09828C4.07921 6.21017 3.9468 6.29896 3.80098 6.35954C3.65516 6.42012 3.49882 6.45131 3.34092 6.4513ZM9.03183 7.75103C8.5371 7.75154 8.05333 7.60533 7.6417 7.3309C7.23006 7.05647 6.90905 6.66614 6.71926 6.20926C6.52946 5.75239 6.47941 5.2495 6.57542 4.76418C6.67144 4.27886 6.90921 3.83291 7.25868 3.48272C7.60814 3.13254 8.0536 2.89384 8.53872 2.79683C9.02384 2.69981 9.52684 2.74883 9.9841 2.93768C10.4414 3.12653 10.8324 3.44673 11.1076 3.8578C11.3829 4.26887 11.5301 4.75233 11.5306 5.24706C11.5311 5.57558 11.4668 5.90097 11.3414 6.20463C11.2161 6.50829 11.0321 6.78428 10.8001 7.01682C10.568 7.24935 10.2924 7.43388 9.989 7.55986C9.6856 7.68584 9.36035 7.7508 9.03183 7.75103ZM14.6599 6.64915C14.4228 6.64898 14.1911 6.57851 13.994 6.44664C13.7969 6.31478 13.6434 6.12745 13.5528 5.90834C13.4621 5.68922 13.4385 5.44815 13.4849 5.21561C13.5312 4.98306 13.6455 4.76949 13.8132 4.60188C13.981 4.43427 14.1946 4.32015 14.4272 4.27396C14.6598 4.22776 14.9008 4.25156 15.1199 4.34234C15.3389 4.43312 15.5261 4.58681 15.6579 4.78398C15.7896 4.98115 15.8599 5.21294 15.8599 5.45006C15.8599 5.6076 15.8288 5.76359 15.7685 5.90913C15.7082 6.05467 15.6198 6.18689 15.5084 6.29825C15.3969 6.4096 15.2647 6.49791 15.1191 6.55812C14.9735 6.61833 14.8175 6.64926 14.6599 6.64915Z" fill="#767E9F"/>
</svg>
