<svg width="16" height="13" viewBox="0 0 16 13" fill="none" xmlns="http://www.w3.org/2000/svg">
<path fill-rule="evenodd" clip-rule="evenodd" d="M0 1.5C0 0.671573 0.671573 0 1.5 0H14.5C15.3284 0 16 0.671573 16 1.5C16 2.32843 15.3284 3 14.5 3H1.5C0.671573 3 0 2.32843 0 1.5ZM0 6.5C0 5.67157 0.671573 5 1.5 5H14.5C15.3284 5 16 5.67157 16 6.5C16 7.32843 15.3284 8 14.5 8H1.5C0.671573 8 0 7.32843 0 6.5ZM1.5 10C0.671573 10 0 10.6716 0 11.5C0 12.3284 0.671573 13 1.5 13H9.5C10.3284 13 11 12.3284 11 11.5C11 10.6716 10.3284 10 9.5 10H1.5Z" fill="#767E9F"/>
</svg>
