<svg width="9" height="5" viewBox="0 0 9 5" fill="none" xmlns="http://www.w3.org/2000/svg">
<path d="M4.50706 0.00168856C4.657 0.0013629 4.80231 0.0594574 4.91777 0.165889L8.76817 3.73547C8.89922 3.85665 8.98164 4.03079 8.99728 4.21956C9.01293 4.40834 8.96052 4.5963 8.8516 4.7421C8.74267 4.88789 8.58614 4.97957 8.41645 4.99698C8.24676 5.01438 8.07781 4.95608 7.94675 4.83491L4.50706 1.63656L1.06736 4.72068C1.00172 4.77998 0.926194 4.82427 0.845118 4.85099C0.764041 4.87771 0.679017 4.88635 0.594932 4.87639C0.510846 4.86644 0.429357 4.8381 0.355148 4.793C0.28094 4.7479 0.215477 4.68693 0.162519 4.61359C0.103749 4.54018 0.0592385 4.45407 0.0317774 4.36063C0.00431639 4.2672 -0.00550358 4.16847 0.00293072 4.07061C0.011365 3.97276 0.0378724 3.8779 0.0807935 3.79198C0.123715 3.70605 0.182125 3.63092 0.252363 3.57127L4.10277 0.123054C4.22154 0.0334459 4.36389 -0.0092849 4.50706 0.00168856Z" fill="#4D75F4"/>
</svg>
