<svg width="16" height="16" viewBox="0 0 16 16" fill="none" xmlns="http://www.w3.org/2000/svg">
<path d="M7.99814 7.32195C9.99915 7.32195 11.6213 5.68288 11.6213 3.66098C11.6213 1.63908 9.99915 0 7.99814 0C5.99714 0 4.375 1.63908 4.375 3.66098C4.375 5.68288 5.99714 7.32195 7.99814 7.32195Z" fill="#767E9F"/>
<path d="M0.058241 13.4396C0.0821042 13.3709 0.111155 13.3042 0.145138 13.24C1.07356 11.5042 2.26725 10.1742 3.69328 9.29251C4.99814 8.4813 6.50638 8.06645 8.03812 8.09744C9.68425 8.14363 11.2845 8.65602 12.6565 9.57625C14.051 10.4967 15.1738 11.7803 15.9064 13.2918C16.0287 13.5992 16.0312 13.9421 15.9135 14.2514C15.7959 14.5607 15.5667 14.8135 15.272 14.959C14.9774 15.1046 14.6392 15.132 14.3253 15.0358C14.0115 14.9396 13.7453 14.727 13.5803 14.4406C12.5302 12.2631 10.2819 10.7667 7.98507 10.7177C5.72484 10.6696 3.7509 12.0117 2.42641 14.4877C2.2679 14.7696 2.01173 14.9821 1.7073 15.0843C1.40288 15.1865 1.07178 15.1712 0.777862 15.0413C0.483949 14.9114 0.24805 14.6762 0.11567 14.3809C-0.0167094 14.0857 -0.0361904 13.7513 0.0609851 13.4424L0.058241 13.4396Z" fill="#767E9F"/>
</svg>
