<svg width="18" height="18" viewBox="0 0 18 18" fill="none" xmlns="http://www.w3.org/2000/svg">
<path d="M0.0196121 14.7585C-0.00653736 14.5412 -0.00653736 14.3215 0.0196121 14.1042C0.175323 12.826 0.659885 11.7233 1.31294 10.7088C3.89611 6.6952 7.15907 3.37066 11.3179 0.980387C11.4287 0.916685 11.5427 0.85889 11.6596 0.807246C14.8145 -0.587179 15.5268 -0.307132 17.6939 2.69204C18.1959 3.38926 18.0425 4.1039 17.3256 4.63843C16.2629 5.41558 15.1606 6.137 14.0231 6.79979C13.2388 7.26459 12.5322 6.95898 11.8955 6.52439C11.5964 6.31957 11.2363 6.22312 10.8749 6.25102C10.5135 6.27892 10.1725 6.42949 9.90841 6.67777C8.72896 7.78634 7.56926 8.9135 6.5095 10.1394C6.09117 10.6147 5.9494 11.04 6.34914 11.5664C7.26481 12.7772 6.91853 13.7742 6.1667 15.0525C5.5427 16.1099 5.48808 16.2145 4.64562 17.3207C4.22729 17.868 3.67765 18.1841 3.07108 17.8785C1.82074 17.2452 0.771439 16.3446 0.105602 15.0769C0.0583541 14.9766 0.0292408 14.8688 0.0196121 14.7585Z" fill="#767E9F"/>
</svg>
