<svg width="22" height="16" viewBox="0 0 22 16" fill="none" xmlns="http://www.w3.org/2000/svg">
<path d="M11.2179 7.00766L21.1185 2.27223C21.1376 2.2629 21.1546 2.24972 21.1684 2.2335C21.1822 2.21727 21.1924 2.19837 21.1986 2.17798C21.2047 2.15759 21.2065 2.13615 21.2039 2.11502C21.2013 2.09389 21.1944 2.07352 21.1836 2.05521C20.8251 1.4306 20.3082 0.911655 19.6849 0.550795C19.0617 0.189934 18.3543 -6.17118e-05 17.6342 4.38714e-07H4.09411C3.37361 -0.000333105 2.66579 0.189528 2.04218 0.550397C1.41857 0.911266 0.90126 1.43035 0.542538 2.05521C0.531855 2.07356 0.525055 2.09392 0.522559 2.11502C0.520063 2.13611 0.521925 2.15749 0.528029 2.17784C0.534132 2.19818 0.544348 2.21706 0.558043 2.23329C0.571737 2.24953 0.58862 2.26278 0.607645 2.27223L10.5093 7.00766C10.6199 7.0607 10.741 7.08823 10.8636 7.08823C10.9862 7.08823 11.1073 7.0607 11.2179 7.00766Z" fill="#767E9F"/>
<path d="M11.2672 9.01611C11.1409 9.07469 11.0034 9.10504 10.8641 9.10504C10.7249 9.10504 10.5873 9.07469 10.461 9.01611L0.074301 4.04737C0.0666183 4.04223 0.0576081 4.03943 0.0483643 4.03931C0.0391205 4.03919 0.0300407 4.04176 0.0222272 4.0467C0.0144138 4.05164 0.00820272 4.05874 0.00434819 4.06714C0.000493667 4.07555 -0.000838568 4.08489 0.000513235 4.09403V11.9069C0.000513216 12.4444 0.106419 12.9768 0.312182 13.4734C0.517945 13.9701 0.819533 14.4214 1.19972 14.8015C1.57991 15.1815 2.03126 15.483 2.52797 15.6886C3.02469 15.8943 3.55705 16 4.09465 15.9999H17.6347C18.7202 15.9999 19.7613 15.5687 20.5289 14.8011C21.2965 14.0335 21.7277 12.9924 21.7277 11.9069V4.25463C21.7275 4.22906 21.721 4.20395 21.7086 4.18159C21.6962 4.15922 21.6783 4.14033 21.6568 4.12662C21.6352 4.11291 21.6105 4.10484 21.585 4.10312C21.5595 4.10141 21.5339 4.10612 21.5107 4.11682L11.2672 9.01611Z" fill="#767E9F"/>
</svg>
