<svg width="20" height="20" viewBox="0 0 20 20" fill="none" xmlns="http://www.w3.org/2000/svg">
<path d="M17.0826 2.90541C15.3753 1.20466 13.1054 0.179736 10.6957 0.0215005C8.28603 -0.136735 5.90069 0.582498 3.9839 2.04527C2.0671 3.50805 0.74949 5.61467 0.276415 7.97286C-0.196659 10.331 0.207045 12.7801 1.41236 14.8639L0 20L5.27841 18.6219C6.73756 19.415 8.37324 19.8308 10.0356 19.8311C12.0056 19.8328 13.9318 19.2525 15.5704 18.1636C17.209 17.0747 18.4864 15.5262 19.2409 13.714C19.9954 11.9019 20.193 9.90762 19.8088 7.98358C19.4246 6.05955 18.4758 4.29227 17.0826 2.90541ZM10.0401 18.1539C8.55844 18.1547 7.10388 17.7581 5.82924 17.0058L5.52651 16.8279L2.38997 17.645L3.22646 14.6055L3.02957 14.2939C2.05408 12.7463 1.62273 10.9198 1.80332 9.10146C1.98391 7.28315 2.7662 5.57615 4.02721 4.24883C5.28822 2.9215 6.95645 2.04911 8.76963 1.76881C10.5828 1.4885 12.4381 1.81618 14.0439 2.70032C15.6497 3.58445 16.9149 4.97492 17.6406 6.65313C18.3663 8.33133 18.5113 10.2021 18.053 11.9714C17.5946 13.7406 16.5587 15.308 15.1083 16.4271C13.6578 17.5463 11.875 18.1537 10.0401 18.1539ZM14.5788 11.9842C14.3307 11.8607 13.1073 11.2612 12.8796 11.1784C12.652 11.0957 12.4859 11.0549 12.3197 11.3031C12.1535 11.5513 11.6767 12.1089 11.5322 12.2743C11.3876 12.4398 11.2419 12.4602 10.9927 12.3355C10.2585 12.0445 9.58105 11.628 8.99083 11.1048C8.44767 10.6045 7.98172 10.0271 7.60806 9.39125C7.46352 9.14305 7.59327 9.00933 7.72187 8.8858C7.85047 8.76227 7.97111 8.59681 8.09516 8.45175C8.19746 8.3265 8.28102 8.18717 8.34326 8.0381C8.37642 7.96997 8.39192 7.89466 8.38834 7.81904C8.38476 7.74342 8.36222 7.6699 8.32277 7.60518C8.26132 7.48052 7.76284 6.26223 7.55571 5.76584C7.34858 5.26946 7.14941 5.34879 6.99577 5.34086C6.84213 5.33292 6.68508 5.33179 6.52006 5.33179C6.39389 5.33493 6.26975 5.36416 6.15553 5.41761C6.04131 5.47107 5.9395 5.54759 5.85656 5.64231C5.62894 5.8905 4.98593 6.48888 4.98593 7.70831C4.98593 8.92773 5.87704 10.1041 6.00109 10.2695C6.12514 10.435 7.75487 12.9362 10.2507 14.0094C10.7137 14.2081 11.1871 14.3821 11.6687 14.5307C12.1763 14.6846 12.7129 14.7184 13.2359 14.6293C13.7139 14.5579 14.7074 14.0298 14.9157 13.4518C15.1239 12.8739 15.1228 12.3775 15.0602 12.2743C14.9976 12.1712 14.828 12.1089 14.5788 11.9842Z" fill="#767E9F"/>
</svg>
