<svg width="23" height="12" viewBox="0 0 23 12" fill="none" xmlns="http://www.w3.org/2000/svg">
<path d="M19.3036 0.172258C15.3201 1.14743 4.71877 5.57387 4.71877 5.57387C4.67976 5.58797 4.63756 5.59073 4.59705 5.58183C4.55654 5.57294 4.51938 5.55276 4.48987 5.52362L2.92568 3.97339C2.62486 3.67459 2.23397 3.48323 1.81347 3.4289C1.39297 3.37457 0.966284 3.4603 0.599402 3.67284L0.108093 3.95757C0.0584115 3.98637 0.022182 4.03369 0.00735395 4.08917C-0.00747415 4.14464 0.000310328 4.20373 0.0289993 4.25348L2.26222 8.11695C2.81122 9.03165 3.87201 9.09585 5.00909 8.83996C6.82638 8.42961 11.9879 6.50624 11.9879 6.50624C11.9982 6.50262 12.0093 6.50203 12.0199 6.50454C12.0305 6.50705 12.0401 6.51256 12.0477 6.52041C12.0552 6.52826 12.0604 6.53811 12.0625 6.5488C12.0646 6.55949 12.0636 6.57055 12.0596 6.58068L10.4777 10.433C10.4355 10.5377 10.436 10.6549 10.4792 10.7592C10.5223 10.8636 10.6046 10.9469 10.7085 10.9913C11.128 11.165 11.5947 11.1877 12.0291 11.0557C12.4635 10.9237 12.8386 10.6451 13.0906 10.2674L16.7652 4.74572C16.7652 4.74572 20.6891 3.47929 21.909 2.85492C22.3957 2.60647 22.8191 2.17844 22.967 1.6527C23.0014 1.52925 23.009 1.39985 22.9893 1.27322C22.9695 1.14659 22.9229 1.02565 22.8526 0.918527C22.2607 0.0252369 20.8306 -0.200877 19.3036 0.172258Z" fill="#767E9F"/>
<path d="M6.61885 1.94583L8.60549 3.10338C8.62839 3.11667 8.65395 3.12473 8.68033 3.12698C8.70672 3.12923 8.73327 3.12563 8.7581 3.11641L12.3182 1.80811C12.3302 1.80403 12.3405 1.79632 12.3479 1.78606C12.3552 1.7758 12.3591 1.7635 12.3591 1.75089C12.3591 1.73828 12.3552 1.72598 12.3479 1.71572C12.3405 1.70546 12.3302 1.69774 12.3182 1.69366L8.79345 0.483999C8.36561 0.337387 7.90023 0.343274 7.47623 0.500662C7.05224 0.658049 6.69573 0.957247 6.46718 1.34751C6.43735 1.39662 6.4176 1.45118 6.40908 1.508C6.40056 1.56483 6.40344 1.62278 6.41756 1.67847C6.43168 1.73417 6.45675 1.7865 6.49131 1.8324C6.52587 1.8783 6.56923 1.91686 6.61885 1.94583Z" fill="#767E9F"/>
</svg>
