<svg width="243" height="298" viewBox="0 0 243 298" fill="none" xmlns="http://www.w3.org/2000/svg">
<path d="M121.324 0C137.123 0 152.275 6.25548 163.447 17.3903C174.618 28.5251 180.894 43.6272 180.894 59.3742V139.08C180.894 154.827 174.618 169.929 163.447 181.064C152.275 192.199 137.123 198.454 121.324 198.454C105.525 198.454 90.3728 192.199 79.2012 181.064C68.0296 169.929 61.7534 154.827 61.7534 139.08L61.7534 59.3421C61.762 43.6007 68.0419 28.5068 79.2126 17.379C90.3833 6.25107 105.53 -2.2997e-06 121.324 0Z" fill="#DDE5FD"/>
<path d="M241.505 185.314C241.15 186.332 240.714 187.319 240.2 188.267C226.209 214.167 208.209 233.985 186.684 247.176C166.984 259.292 144.203 265.503 121.06 265.068C96.1811 264.412 71.9895 256.794 51.2494 243.084C30.1713 229.409 13.1891 210.315 2.09571 187.818C0.929625 185.513 0.234181 183.001 0.0497054 180.427C-0.13477 177.852 0.195395 175.267 1.02105 172.821C1.84671 170.375 3.15142 168.116 4.85953 166.176C6.56764 164.237 8.64515 162.654 10.9716 161.521C13.298 160.387 15.827 159.726 18.412 159.574C20.9969 159.422 23.5864 159.784 26.0302 160.637C28.4739 161.491 30.7234 162.819 32.6481 164.546C34.5727 166.272 36.1343 168.363 37.2423 170.695C53.1653 203.143 87.1527 225.384 121.848 226.058C156.013 226.732 185.83 206.801 205.762 169.797C207.924 165.209 211.794 161.641 216.551 159.851C221.308 158.061 226.578 158.189 231.242 160.209C235.906 162.228 239.597 165.98 241.531 170.667C243.465 175.355 243.49 180.609 241.601 185.314H241.505Z" fill="#DDE5FD"/>
<path d="M121.318 237.948C126.657 237.948 131.778 240.061 135.554 243.822C139.331 247.584 141.455 252.686 141.459 258.007V277.504C141.455 282.827 139.332 287.931 135.555 291.695C131.779 295.459 126.659 297.575 121.318 297.579C115.976 297.579 110.853 295.464 107.076 291.699C103.299 287.935 101.177 282.829 101.177 277.504V258.007C101.181 252.686 103.305 247.584 107.082 243.822C110.858 240.061 115.979 237.948 121.318 237.948Z" fill="#DDE5FD"/>
</svg>
