<svg width="278" height="278" viewBox="0 0 278 278" fill="none" xmlns="http://www.w3.org/2000/svg">
<path d="M243.25 34.75H231.667V11.5826C231.667 5.19002 226.477 0 220.083 0L208.5 0C202.105 0 196.917 5.19002 196.917 11.5826V34.75L81.0826 34.75V11.5826C81.0826 5.19002 75.8947 0 69.5 0L57.9174 0C51.5226 0 46.3326 5.19002 46.3326 11.5826V34.75H34.75C15.5913 34.75 0 50.3413 0 69.5L0 243.25C0 262.409 15.5913 278 34.75 278H243.25C262.409 278 278 262.409 278 243.25V69.5C278 50.3413 262.409 34.75 243.25 34.75ZM254.833 243.25C254.833 249.632 249.632 254.833 243.25 254.833H34.75C28.368 254.833 23.1674 249.632 23.1674 243.25L23.1674 116.297H254.833V243.25Z" fill="#FDEEC2"/>
</svg>
