<svg width="63" height="63" viewBox="0 0 63 63" fill="none" xmlns="http://www.w3.org/2000/svg">
<circle cx="31.5" cy="31.5" r="31.5" fill="#EDF1FE"/>
<circle cx="53.5" cy="10.5" r="7.5" fill="#61B395"/>
<path d="M53.53 6.875C51.855 6.875 50.515 8.235 50.515 10.5C50.515 12.765 51.855 14.125 53.53 14.125C55.2 14.125 56.55 12.765 56.55 10.5C56.55 8.235 55.2 6.875 53.53 6.875ZM53.53 8.17C54.43 8.17 55.14 8.97 55.14 10.5C55.14 12.03 54.43 12.83 53.53 12.83C52.635 12.83 51.92 12.03 51.92 10.5C51.92 8.97 52.635 8.17 53.53 8.17Z" fill="white"/>
<rect x="16" y="21" width="32" height="5" rx="2.5" fill="#4D75F4"/>
<rect x="16" y="29" width="32" height="5" rx="2.5" fill="#4D75F4"/>
<rect x="16" y="37" width="19" height="5" rx="2.5" fill="#4D75F4"/>
</svg>
