<svg width="63" height="63" viewBox="0 0 63 63" fill="none" xmlns="http://www.w3.org/2000/svg">
<circle cx="31.5" cy="31.5" r="31.5" fill="#EDF1FE"/>
<path d="M32.3805 15C34.253 15 36.0488 15.7414 37.3728 17.0611C38.6969 18.3808 39.4407 20.1706 39.4407 22.0369V31.4836C39.4407 33.3499 38.6969 35.1398 37.3728 36.4594C36.0488 37.7791 34.253 38.5205 32.3805 38.5205C30.508 38.5205 28.7122 37.7791 27.3882 36.4594C26.0642 35.1398 25.3203 33.3499 25.3203 31.4836V22.0331C25.3213 20.1675 26.0656 18.3786 27.3895 17.0597C28.7135 15.7409 30.5087 15 32.3805 15Z" fill="#4D75F4"/>
<path d="M46.6228 36.9628C46.5807 37.0834 46.529 37.2004 46.4682 37.3127C44.81 40.3824 42.6767 42.7312 40.1255 44.2945C37.7907 45.7305 35.0908 46.4666 32.3478 46.4151C29.3992 46.3374 26.5321 45.4345 24.074 43.8095C21.5759 42.1888 19.5632 39.9258 18.2484 37.2595C18.1102 36.9864 18.0278 36.6886 18.0059 36.3835C17.984 36.0784 18.0232 35.772 18.121 35.4821C18.2189 35.1922 18.3735 34.9245 18.5759 34.6946C18.7784 34.4647 19.0246 34.2771 19.3003 34.1428C19.5761 34.0085 19.8758 33.9301 20.1822 33.9121C20.4885 33.8941 20.7954 33.9369 21.0851 34.0381C21.3747 34.1392 21.6413 34.2967 21.8694 34.5013C22.0975 34.706 22.2826 34.9537 22.4139 35.2302C24.3011 39.0758 28.3292 41.7118 32.4413 41.7916C36.4904 41.8715 40.0243 39.5094 42.3866 35.1237C42.6428 34.5799 43.1015 34.1571 43.6653 33.945C44.2291 33.7328 44.8537 33.748 45.4065 33.9873C45.9592 34.2267 46.3967 34.6713 46.6259 35.2268C46.8551 35.7824 46.8581 36.4051 46.6342 36.9628H46.6228Z" fill="#4D75F4"/>
<path d="M32.3764 43.2009C33.0091 43.2009 33.616 43.4513 34.0636 43.8971C34.5113 44.3429 34.763 44.9476 34.7635 45.5783V47.8891C34.763 48.5199 34.5113 49.1248 34.0638 49.5709C33.6162 50.017 33.0093 50.2678 32.3764 50.2683C31.7433 50.2683 31.1361 50.0176 30.6884 49.5714C30.2408 49.1252 29.9893 48.5201 29.9893 47.8891V45.5783C29.9898 44.9476 30.2415 44.3429 30.6891 43.8971C31.1367 43.4513 31.7436 43.2009 32.3764 43.2009Z" fill="#4D75F4"/>
<circle cx="53.5" cy="10.5" r="7.5" fill="#61B395"/>
<path d="M53.53 6.875C51.855 6.875 50.515 8.235 50.515 10.5C50.515 12.765 51.855 14.125 53.53 14.125C55.2 14.125 56.55 12.765 56.55 10.5C56.55 8.235 55.2 6.875 53.53 6.875ZM53.53 8.17C54.43 8.17 55.14 8.97 55.14 10.5C55.14 12.03 54.43 12.83 53.53 12.83C52.635 12.83 51.92 12.03 51.92 10.5C51.92 8.97 52.635 8.17 53.53 8.17Z" fill="white"/>
</svg>
