<svg width="34" height="34" viewBox="0 0 34 34" fill="none" xmlns="http://www.w3.org/2000/svg">
<circle cx="17" cy="17" r="17" fill="#EFF1F9"/>
<path d="M9.02749 22.7657C9.05168 22.6984 9.08151 22.6331 9.11669 22.5706C10.0573 20.8588 11.2671 19.5483 12.715 18.6764C14.0383 17.8756 15.5687 17.4648 17.1237 17.4931C18.7591 17.5247 20.3819 18.0266 21.8163 18.9453C23.2336 19.8491 24.3756 21.1114 25.1215 22.5987C25.2746 22.9059 25.297 23.2601 25.1836 23.5834C25.0703 23.9067 24.8306 24.1727 24.5172 24.3228C24.2038 24.4729 23.8423 24.4948 23.5124 24.3837C23.1825 24.2726 22.9112 24.0377 22.758 23.7305C21.69 21.5867 19.4042 20.1157 17.0723 20.0728C14.7766 20.0287 12.7715 21.3498 11.4311 23.7926C11.2775 24.0821 11.0175 24.3036 10.7036 24.4124C10.3897 24.5213 10.0454 24.5093 9.7402 24.3789C9.435 24.2485 9.19167 24.0095 9.05937 23.71C8.92708 23.4106 8.91568 23.0731 9.02749 22.7657Z" fill="#162359"/>
<path d="M17.1216 16.7695C19.3247 16.7695 21.1106 15.0191 21.1106 12.86C21.1106 10.7008 19.3247 8.95044 17.1216 8.95044C14.9186 8.95044 13.1327 10.7008 13.1327 12.86C13.1327 15.0191 14.9186 16.7695 17.1216 16.7695Z" fill="#162359"/>
</svg>
