<svg width="10" height="5" viewBox="0 0 10 5" fill="none" xmlns="http://www.w3.org/2000/svg">
<path d="M4.6675 4.6675C4.51173 4.66781 4.36078 4.61356 4.24084 4.51417L0.240835 1.18084C0.10469 1.06768 0.0190742 0.905068 0.002821 0.728784C-0.0134322 0.5525 0.0410091 0.376979 0.154168 0.240835C0.267327 0.10469 0.429935 0.0190742 0.606219 0.00282101C0.782503 -0.0134321 0.958024 0.0410088 1.09417 0.154168L4.6675 3.14084L8.24084 0.260835C8.30903 0.205458 8.38749 0.164103 8.47172 0.139149C8.55594 0.114194 8.64427 0.106132 8.73162 0.115425C8.81898 0.124717 8.90363 0.151182 8.98072 0.193298C9.05781 0.235414 9.12582 0.29235 9.18084 0.360835C9.24189 0.429382 9.28813 0.5098 9.31666 0.597049C9.34519 0.684298 9.35539 0.776499 9.34663 0.867874C9.33786 0.95925 9.31033 1.04783 9.26574 1.12807C9.22115 1.20831 9.16047 1.27847 9.0875 1.33417L5.0875 4.55417C4.96411 4.63785 4.81624 4.67775 4.6675 4.6675Z" fill="#4D75F4"/>
</svg>
