<svg width="163" height="36" xmlns="http://www.w3.org/2000/svg" viewBox="0 0 425.43 77.46"><defs><style>.cls-1{fill:#4d75f4;}.cls-2{fill:#3fa8ef;}.cls-3{fill:#42e56d;}.cls-4{fill:#2ae0ed;}.cls-5{fill:none;}.cls-6{fill:#162359;}</style></defs><g id="Layer_2" data-name="Layer 2"><g id="Layer_1-2" data-name="Layer 1"><path class="cls-1" d="M63.86,55.39a4.78,4.78,0,0,0-9.08-2.08h0a25.19,25.19,0,0,1-45.69,0h0A4.77,4.77,0,0,0,.46,57.44h0a1.3,1.3,0,0,1,.08.17.16.16,0,0,1,0,.07,34.74,34.74,0,0,0,62.82-.25h0A4.8,4.8,0,0,0,63.86,55.39Z"/><path class="cls-2" d="M31.93,61.18A18.49,18.49,0,0,0,50.42,42.69h-37A18.49,18.49,0,0,0,31.93,61.18Z"/><path class="cls-3" d="M31.93,0A18.49,18.49,0,0,0,13.44,18.49h37A18.49,18.49,0,0,0,31.93,0Z"/><path class="cls-4" d="M31.93,39.84H50.42A18.49,18.49,0,0,0,31.93,21.35H13.44A18.49,18.49,0,0,0,31.93,39.84Z"/><path class="cls-5" d="M204.64,43.82a4.47,4.47,0,0,0,2,4,10,10,0,0,0,5.7,1.39,10.41,10.41,0,0,0,6.4-2,6.55,6.55,0,0,0,2.7-5.49V38.73h-8.57C207.33,38.73,204.64,40.39,204.64,43.82Z"/><path class="cls-5" d="M181.73,27.18a10.63,10.63,0,0,0-7.09-2.46,12.2,12.2,0,0,0-7.57,2.57,8.23,8.23,0,0,0-3.33,6.7h20.84A8.69,8.69,0,0,0,181.73,27.18Z"/><path class="cls-5" d="M323.73,25.41a10.49,10.49,0,0,0-8,3.34,12.14,12.14,0,0,0-3,8.33,12.17,12.17,0,0,0,3,8.34,11.17,11.17,0,0,0,16-.11,12.29,12.29,0,0,0,2.93-8.24,12.18,12.18,0,0,0-2.93-8.22A10.49,10.49,0,0,0,323.73,25.41Z"/><path class="cls-5" d="M132.9,25.41a10.51,10.51,0,0,0-8,3.34,12.19,12.19,0,0,0-3,8.33,12.22,12.22,0,0,0,3,8.34,11.17,11.17,0,0,0,16-.11,12.29,12.29,0,0,0,2.93-8.24A12.18,12.18,0,0,0,141,28.85,10.46,10.46,0,0,0,132.9,25.41Z"/><path class="cls-5" d="M414.36,27.18a10.63,10.63,0,0,0-7.09-2.46,12.2,12.2,0,0,0-7.57,2.57,8.27,8.27,0,0,0-3.34,6.7h20.85A8.69,8.69,0,0,0,414.36,27.18Z"/><path class="cls-6" d="M105.71,36.41a21.73,21.73,0,0,0-3.56-2,36.07,36.07,0,0,0-3.4-1.26c-1.16-.38-2.5-.75-4-1.12a18,18,0,0,1-3.48-1.17,2.56,2.56,0,0,1-1.69-2.46,3.1,3.1,0,0,1,1.64-2.86,8.8,8.8,0,0,1,4.42-1,17.39,17.39,0,0,1,9.71,2.95l.2.13,3.12-6.16-.15-.1a22,22,0,0,0-12.24-3.8,16.82,16.82,0,0,0-10.55,3.15,10.16,10.16,0,0,0-4.09,8.42c0,5,3.95,8.55,11.73,10.66.28.08.56.17.83.27,4.8,1.46,7.24,3.08,7.24,4.82A3.55,3.55,0,0,1,100,47.87a6.36,6.36,0,0,1-4,1.18c-4,0-8.16-1.63-12.42-4.84l-.18-.14-4,6.42.14.11a25.47,25.47,0,0,0,7.76,4.14,26.49,26.49,0,0,0,8.46,1.47,15.19,15.19,0,0,0,10-3.21,10.68,10.68,0,0,0,3.91-8.63C109.56,40.79,108.26,38.1,105.71,36.41Z"/><path class="cls-6" d="M133.86,17.62a14,14,0,0,0-11.41,5.14V18.58h-8.23V70.91h8.23V51.38a14,14,0,0,0,11.41,5.14c10.55,0,18.5-8.36,18.5-19.45S144.41,17.62,133.86,17.62ZM141,45.31a11.17,11.17,0,0,1-16,.11,12.22,12.22,0,0,1-3-8.34,12.19,12.19,0,0,1,3-8.33,11.16,11.16,0,0,1,16,.1,12.18,12.18,0,0,1,2.93,8.22A12.29,12.29,0,0,1,141,45.31Z"/><path class="cls-6" d="M187.43,22.24a19.33,19.33,0,0,0-13-4.62,19,19,0,0,0-13.28,5.21c-3.74,3.46-5.64,8.19-5.64,14.06s1.86,10.6,5.54,14.09a18.87,18.87,0,0,0,13.42,5.25c6.44,0,11.74-2.11,15.76-6.27l.13-.14-4.75-5.21-.15.18c-2.37,2.87-5.88,4.33-10.44,4.33a12.84,12.84,0,0,1-7.68-2.44,8.27,8.27,0,0,1-3.59-6.14h29V35C192.79,29.59,191,25.3,187.43,22.24ZM163.74,34a8.23,8.23,0,0,1,3.33-6.7,12.2,12.2,0,0,1,7.57-2.57,10.63,10.63,0,0,1,7.09,2.46A8.69,8.69,0,0,1,184.58,34Z"/><path class="cls-6" d="M225.44,21a16.91,16.91,0,0,0-10.84-3.36A24.36,24.36,0,0,0,199.14,23l-.16.13,3.72,5.2.17-.11c3.66-2.47,7.24-3.73,10.63-3.73,5.39,0,8,2.35,8,7.18v1.19h-9.89c-4.63,0-8.34.92-11.06,2.75A9.46,9.46,0,0,0,196.42,44a11.24,11.24,0,0,0,3.87,8.91A14.44,14.44,0,0,0,210,56.24a15.53,15.53,0,0,0,12.13-5.15v4.59h7.53V31.55C229.66,26.77,228.24,23.21,225.44,21Zm-4,20.68a6.55,6.55,0,0,1-2.7,5.49,10.41,10.41,0,0,1-6.4,2,10,10,0,0,1-5.7-1.39,4.47,4.47,0,0,1-2-4c0-3.43,2.69-5.09,8.23-5.09h8.57Z"/><polygon class="cls-6" points="270.76 18.79 260.44 18.79 248.38 32.68 244.53 32.68 244.53 0.4 236.3 0.4 236.3 55.56 244.53 55.56 244.53 40.14 248.34 40.14 260.51 55.56 270.89 55.56 255.36 36.11 270.76 18.79"/><path class="cls-6" d="M296.53,36.41a21.24,21.24,0,0,0-3.55-2c-1.09-.47-2.24-.89-3.4-1.26s-2.5-.75-4-1.12a17.59,17.59,0,0,1-3.48-1.17,2.56,2.56,0,0,1-1.69-2.46A3.07,3.07,0,0,1,282,25.57a8.81,8.81,0,0,1,4.43-1,17.4,17.4,0,0,1,9.71,3l.19.13,3.13-6.16-.17-.12a22,22,0,0,0-12.24-3.79c-4.29,0-7.85,1.05-10.55,3.14a10.22,10.22,0,0,0-4.09,8.43c0,5,3.95,8.55,11.73,10.66a7.37,7.37,0,0,1,.83.27c4.8,1.46,7.24,3.08,7.24,4.82a3.55,3.55,0,0,1-1.46,2.94,6.36,6.36,0,0,1-4,1.18c-4,0-8.15-1.63-12.42-4.84l-.18-.14-4,6.42.15.11a25.52,25.52,0,0,0,7.77,4.14,26.49,26.49,0,0,0,8.46,1.47,15.19,15.19,0,0,0,10-3.21,10.71,10.71,0,0,0,3.91-8.63C300.39,40.79,299.09,38.1,296.53,36.41Z"/><path class="cls-6" d="M324.69,17.62a14,14,0,0,0-11.41,5.14V18.58H305V70.91h8.23V51.38a14,14,0,0,0,11.41,5.14c10.55,0,18.5-8.36,18.5-19.45S335.23,17.62,324.69,17.62Zm7.1,27.69a11.17,11.17,0,0,1-16,.11,12.17,12.17,0,0,1-3-8.34,12.14,12.14,0,0,1,3-8.33,11.16,11.16,0,0,1,16,.1,12.18,12.18,0,0,1,2.93,8.22A12.29,12.29,0,0,1,331.79,45.31Z"/><path class="cls-6" d="M352.05.68h-.12a5.64,5.64,0,0,0-5.66,5.73,5.54,5.54,0,0,0,5.66,5.66,5.63,5.63,0,0,0,5.73-5.66A5.66,5.66,0,0,0,352.05.68Z"/><rect class="cls-6" x="347.87" y="18.9" width="8.2" height="36.66"/><path class="cls-6" d="M388.21,18.88A15.92,15.92,0,0,0,382,17.83c-4.55,0-8.17,1.68-10.5,4.86v-3.9h-8.11V55.56h8.19V35.35c0-5.89,3.37-9.7,8.59-9.7a14.12,14.12,0,0,1,6,1.32l.12.06,2-8.12Z"/><path class="cls-6" d="M418.09,44.79c-2.37,2.87-5.88,4.33-10.43,4.33A12.81,12.81,0,0,1,400,46.68a8.28,8.28,0,0,1-3.6-6.14h29.05V35c0-5.38-1.8-9.67-5.37-12.74a19.26,19.26,0,0,0-13-4.62,19,19,0,0,0-13.28,5.21c-3.74,3.46-5.64,8.19-5.64,14.06S390,47.48,393.68,51a18.87,18.87,0,0,0,13.42,5.25c6.44,0,11.74-2.11,15.76-6.27l.13-.14-4.75-5.21ZM399.7,27.29a12.2,12.2,0,0,1,7.57-2.57,10.63,10.63,0,0,1,7.09,2.46A8.69,8.69,0,0,1,417.21,34H396.36A8.27,8.27,0,0,1,399.7,27.29Z"/></g></g></svg>