<svg width="28" height="8" viewBox="0 0 28 8" fill="none" xmlns="http://www.w3.org/2000/svg">
<path d="M13.8042 7.0435C15.4851 7.0435 16.8477 5.68089 16.8477 4.00002C16.8477 2.31915 15.4851 0.956543 13.8042 0.956543C12.1234 0.956543 10.7607 2.31915 10.7607 4.00002C10.7607 5.68089 12.1234 7.0435 13.8042 7.0435Z" fill="#767E9F"/>
<path d="M24.4566 7.0435C26.1374 7.0435 27.5 5.68089 27.5 4.00002C27.5 2.31915 26.1374 0.956543 24.4566 0.956543C22.7757 0.956543 21.4131 2.31915 21.4131 4.00002C21.4131 5.68089 22.7757 7.0435 24.4566 7.0435Z" fill="#767E9F"/>
<path d="M3.15212 7.0435C4.83299 7.0435 6.1956 5.68089 6.1956 4.00002C6.1956 2.31915 4.83299 0.956543 3.15212 0.956543C1.47125 0.956543 0.108643 2.31915 0.108643 4.00002C0.108643 5.68089 1.47125 7.0435 3.15212 7.0435Z" fill="#767E9F"/>
</svg>
