<svg width="17" height="17" viewBox="0 0 17 17" fill="none" xmlns="http://www.w3.org/2000/svg">
<path d="M8.90129 0.00948061C7.18786 -0.0715013 5.49001 0.367821 4.0309 1.26971C2.57179 2.1716 1.41969 3.49385 0.726023 5.06268C0.0323526 6.63151 -0.170428 8.3735 0.144333 10.0597C0.459093 11.7459 1.27666 13.2975 2.4896 14.5104C3.70253 15.7233 5.25406 16.5409 6.94028 16.8557C8.6265 17.1704 10.3685 16.9676 11.9373 16.274C13.5062 15.5803 14.8284 14.4282 15.7303 12.9691C16.6322 11.51 17.0715 9.81214 16.9905 8.09871C16.8885 5.98623 16.0035 3.98743 14.5081 2.49194C13.0126 0.996454 11.0138 0.111462 8.90129 0.00948061ZM14.9703 7.71631H12.4301C12.4033 7.71636 12.3775 7.70616 12.3579 7.6878C12.3384 7.66944 12.3266 7.64432 12.325 7.61756C12.2284 6.12263 11.9405 4.7359 11.4846 3.62547C11.333 3.24459 11.1466 2.8785 10.9278 2.53185C10.9151 2.51323 10.9088 2.49103 10.9097 2.46854C10.9106 2.44604 10.9187 2.42443 10.9329 2.4069C10.947 2.38936 10.9664 2.37683 10.9882 2.37114C11.0099 2.36546 11.033 2.36692 11.0539 2.37532C12.12 2.82158 13.0515 3.53784 13.7566 4.45355C14.4618 5.36926 14.9163 6.45284 15.0754 7.5976C15.0773 7.6125 15.0761 7.62764 15.0717 7.64201C15.0673 7.65637 15.0598 7.66963 15.0499 7.68088C15.0399 7.69213 15.0277 7.70112 15.0139 7.70723C15.0002 7.71334 14.9853 7.71644 14.9703 7.71631ZM8.68908 14.5533C8.17956 14.5533 7.02606 12.7989 6.89369 9.39404C6.89369 9.36618 6.90476 9.33945 6.92446 9.31975C6.94416 9.30005 6.97088 9.28898 6.99874 9.28898H10.3794C10.4073 9.28898 10.434 9.30005 10.4537 9.31975C10.4734 9.33945 10.4845 9.36618 10.4845 9.39404C10.3521 12.7989 9.19859 14.5533 8.68908 14.5533ZM7.02501 7.71631C7.01047 7.71636 6.99609 7.71339 6.98276 7.70759C6.96944 7.70179 6.95746 7.6933 6.94759 7.68263C6.93771 7.67197 6.93016 7.65937 6.9254 7.64564C6.92064 7.63191 6.91879 7.61734 6.91995 7.60285C7.13847 4.51739 8.20477 2.94156 8.68908 2.94156C9.17338 2.94156 10.2397 4.51739 10.4582 7.60285C10.4594 7.61734 10.4575 7.63191 10.4528 7.64564C10.448 7.65937 10.4404 7.67197 10.4306 7.68263C10.4207 7.6933 10.4087 7.70179 10.3954 7.70759C10.3821 7.71339 10.3677 7.71636 10.3531 7.71631H7.02501ZM6.56277 2.35851C5.69711 3.5824 5.18865 5.55008 5.05313 7.61861C5.05126 7.64518 5.03937 7.67005 5.01987 7.68819C5.00037 7.70632 4.9747 7.71638 4.94807 7.71631H2.0349C2.01987 7.71644 2.005 7.71334 1.99127 7.70723C1.97754 7.70112 1.96529 7.69213 1.95533 7.68088C1.94538 7.66963 1.93795 7.65637 1.93355 7.64201C1.92915 7.62764 1.92789 7.6125 1.92984 7.5976C2.10174 6.36426 2.61621 5.20389 3.41478 4.24839C4.21334 3.2929 5.26396 2.58062 6.4472 2.19252C6.4682 2.18624 6.49063 2.18667 6.51136 2.19377C6.53209 2.20087 6.55009 2.21427 6.56282 2.2321C6.57556 2.24993 6.5824 2.2713 6.58239 2.29321C6.58238 2.31513 6.57552 2.33649 6.56277 2.35431V2.35851ZM2.0349 9.29214H4.92391C4.95177 9.29214 4.97849 9.3032 4.99819 9.3229C5.01789 9.34261 5.02896 9.36933 5.02896 9.39719C5.08989 11.0781 5.3893 12.6476 5.88831 13.8746C5.9692 14.0721 6.07111 14.2949 6.19507 14.5323C6.20554 14.5513 6.20987 14.573 6.20747 14.5946C6.20508 14.6162 6.19606 14.6364 6.18167 14.6527C6.16729 14.6689 6.14823 14.6803 6.12711 14.6852C6.106 14.6902 6.08387 14.6885 6.06375 14.6804C4.96925 14.2455 4.00982 13.5278 3.28352 12.6007C2.55722 11.6736 2.09008 10.5703 1.92984 9.40349C1.92772 9.38852 1.92886 9.37326 1.93319 9.35876C1.93751 9.34427 1.94491 9.33087 1.95489 9.3195C1.96486 9.30813 1.97717 9.29905 1.99098 9.29288C2.00479 9.2867 2.01977 9.28358 2.0349 9.28373V9.29214ZM11.2944 14.319C11.9248 13.0037 12.283 11.2178 12.3502 9.39299C12.3502 9.36513 12.3613 9.3384 12.381 9.3187C12.4007 9.299 12.4274 9.28793 12.4553 9.28793H14.9714C14.9865 9.28778 15.0015 9.2909 15.0153 9.29708C15.0291 9.30325 15.0414 9.31233 15.0514 9.32371C15.0613 9.33508 15.0688 9.34847 15.0731 9.36296C15.0774 9.37746 15.0785 9.39272 15.0764 9.4077C14.9269 10.4812 14.5171 11.5019 13.8828 12.3808C13.2486 13.2597 12.409 13.9701 11.4373 14.4503C11.4177 14.4606 11.3952 14.4644 11.3733 14.4612C11.3513 14.458 11.331 14.4479 11.3151 14.4324C11.2992 14.4169 11.2887 14.3967 11.285 14.3749C11.2813 14.353 11.2846 14.3305 11.2944 14.3106V14.319Z" fill="#767E9F"/>
</svg>
