<svg width="22" height="21" viewBox="0 0 22 21" fill="none" xmlns="http://www.w3.org/2000/svg">
<path d="M6.16173 0C2.76391 0 0 2.67625 0 5.96413V14.4819C0 17.769 2.76647 20.4427 6.16516 20.4427H14.9701C18.3679 20.4427 21.1318 17.7665 21.1318 14.4786V5.9608C21.1318 2.67378 18.3653 0 14.9666 0H6.16173ZM16.7294 3.40712C17.2154 3.40712 17.6098 3.78872 17.6098 4.2589C17.6098 4.72908 17.2154 5.11068 16.7294 5.11068C16.2433 5.11068 15.8489 4.72908 15.8489 4.2589C15.8489 3.78872 16.2433 3.40712 16.7294 3.40712ZM10.5659 5.11068C13.4795 5.11068 15.8489 7.40282 15.8489 10.2214C15.8489 13.0399 13.4795 15.332 10.5659 15.332C7.65236 15.332 5.28295 13.0399 5.28295 10.2214C5.28295 7.40282 7.65236 5.11068 10.5659 5.11068ZM10.5659 6.81424C9.63182 6.81424 8.736 7.17321 8.0755 7.81217C7.415 8.45113 7.04394 9.31774 7.04394 10.2214C7.04394 11.125 7.415 11.9916 8.0755 12.6306C8.736 13.2695 9.63182 13.6285 10.5659 13.6285C11.5 13.6285 12.3958 13.2695 13.0563 12.6306C13.7168 11.9916 14.0879 11.125 14.0879 10.2214C14.0879 9.31774 13.7168 8.45113 13.0563 7.81217C12.3958 7.17321 11.5 6.81424 10.5659 6.81424Z" fill="#4D75F4"/>
</svg>
