<svg width="20" height="21" viewBox="0 0 20 21" fill="none" xmlns="http://www.w3.org/2000/svg">
<path d="M18.151 0H2.01395C1.02332 0 0.220947 0.831647 0.220947 1.85843V18.5843C0.220947 19.6111 1.02332 20.4427 2.01395 20.4427H18.151C19.1416 20.4427 19.944 19.6111 19.944 18.5843V1.85843C19.944 0.831647 19.1416 0 18.151 0ZM6.45522 16.7259H3.81054V7.90576H6.45522V16.7259ZM5.10598 6.64482C4.25341 6.64482 3.564 5.92839 3.564 5.04657C3.564 4.16474 4.25431 3.44925 5.10598 3.44925C5.95586 3.44925 6.64707 4.16567 6.64707 5.04657C6.64707 5.92839 5.95586 6.64482 5.10598 6.64482ZM16.3616 16.7259H13.7187V12.4366C13.7187 11.4135 13.7007 10.0978 12.3443 10.0978C10.9682 10.0978 10.7566 11.2119 10.7566 12.3623V16.7259H8.11374V7.90576H10.6508V9.11095H10.6867C11.0399 8.41776 11.9024 7.68647 13.1888 7.68647C15.8667 7.68647 16.3616 9.5133 16.3616 11.8884V16.7259Z" fill="#4D75F4"/>
</svg>
