<svg width="12" height="18" viewBox="0 0 12 18" fill="none" xmlns="http://www.w3.org/2000/svg">
<path d="M11.0463 9.15221C11.5379 8.36726 11.8403 7.47887 11.9299 6.55706C12.0194 5.63526 11.8936 4.70526 11.5624 3.84038C11.2311 2.97551 10.7034 2.19942 10.021 1.5733C9.33857 0.947189 8.52001 0.48817 7.62987 0.232444C6.73973 -0.0232834 5.80235 -0.0687266 4.89165 0.0996974C3.98095 0.268121 3.12183 0.645807 2.38203 1.20297C1.64223 1.76014 1.04198 2.48155 0.628603 3.31032C0.215231 4.1391 4.27961e-05 5.05257 5.84688e-06 5.97871C-0.00156842 7.10148 0.314789 8.20174 0.912474 9.15221L0.767411 8.90148C0.685929 8.76234 0.644698 8.60331 0.648315 8.44211C0.647408 8.5993 0.688525 8.75387 0.767411 8.88984L0.912474 9.14056L2.98993 12.7385L5.21155 16.589C5.28953 16.7236 5.40151 16.8353 5.53627 16.913C5.67104 16.9906 5.82386 17.0315 5.97941 17.0315C6.13495 17.0315 6.28777 16.9906 6.42254 16.913C6.5573 16.8353 6.66929 16.7236 6.74726 16.589L8.96888 12.7385L11.0463 9.14056L11.1914 8.88984C11.2703 8.75387 11.3114 8.5993 11.3105 8.44211C11.3142 8.60308 11.2736 8.76198 11.1932 8.90148L11.0463 9.15221ZM5.97896 8.5433C5.47173 8.5433 4.97589 8.39289 4.55415 8.11109C4.13241 7.82929 3.8037 7.42875 3.60959 6.96014C3.41548 6.49152 3.3647 5.97587 3.46365 5.47839C3.56261 4.98091 3.80686 4.52394 4.16552 4.16528C4.52419 3.80662 4.98115 3.56236 5.47863 3.46341C5.97611 3.36445 6.49177 3.41524 6.96038 3.60935C7.429 3.80346 7.82953 4.13216 8.11133 4.55391C8.39313 4.97565 8.54354 5.47149 8.54354 5.97871C8.54366 6.31553 8.4774 6.64907 8.34856 6.96028C8.21972 7.27148 8.03082 7.55424 7.79265 7.79241C7.55449 8.03058 7.27172 8.21948 6.96052 8.34832C6.64932 8.47716 6.31578 8.54341 5.97896 8.5433Z" fill="#767E9F"/>
</svg>
