<svg width="19" height="20" viewBox="0 0 19 20" fill="none" xmlns="http://www.w3.org/2000/svg">
<path fill-rule="evenodd" clip-rule="evenodd" d="M16.0768 5.84604C17.6912 5.84604 18.9999 4.53736 18.9999 2.92302C18.9999 1.30868 17.6912 0 16.0768 0C14.4625 0 13.1538 1.30868 13.1538 2.92302C13.1538 3.10165 13.1698 3.27654 13.2005 3.44632L4.89919 8.23909C4.37889 7.76144 3.685 7.46988 2.92302 7.46988C1.30868 7.46988 0 8.77856 0 10.3929C0 12.0072 1.30868 13.3159 2.92302 13.3159C3.60427 13.3159 4.23109 13.0829 4.72809 12.6921L13.2008 16.3639C13.1699 16.5341 13.1538 16.7094 13.1538 16.8885C13.1538 18.5029 14.4625 19.8116 16.0768 19.8116C17.6912 19.8116 18.9999 18.5029 18.9999 16.8885C18.9999 15.2742 17.6912 13.9655 16.0768 13.9655C15.2263 13.9655 14.4607 14.3288 13.9265 14.9086L5.68955 11.339C5.79099 11.0422 5.84604 10.724 5.84604 10.3929C5.84604 10.1276 5.8107 9.87054 5.74446 9.6262L13.9261 4.90253C14.4603 5.48261 15.2261 5.84604 16.0768 5.84604Z" fill="#767E9F"/>
</svg>
