<svg width="25" height="25" viewBox="0 0 25 25" fill="none" xmlns="http://www.w3.org/2000/svg">
<path d="M7.28963 0C3.26984 0 0 3.20773 0 7.14854V17.3579C0 21.2977 3.27287 24.5024 7.2937 24.5024H17.7104C21.7302 24.5024 25 21.2947 25 17.3539V7.14455C25 3.20476 21.7271 0 17.7063 0H7.28963ZM19.7917 4.08374C20.3667 4.08374 20.8333 4.54112 20.8333 5.10468C20.8333 5.66823 20.3667 6.12561 19.7917 6.12561C19.2167 6.12561 18.75 5.66823 18.75 5.10468C18.75 4.54112 19.2167 4.08374 19.7917 4.08374ZM12.5 6.12561C15.9469 6.12561 18.75 8.87295 18.75 12.2512C18.75 15.6295 15.9469 18.3768 12.5 18.3768C9.05312 18.3768 6.25 15.6295 6.25 12.2512C6.25 8.87295 9.05312 6.12561 12.5 6.12561ZM12.5 8.16748C11.3949 8.16748 10.3351 8.59773 9.55372 9.36358C8.77232 10.1294 8.33333 11.1681 8.33333 12.2512C8.33333 13.3343 8.77232 14.373 9.55372 15.1389C10.3351 15.9047 11.3949 16.335 12.5 16.335C13.6051 16.335 14.6649 15.9047 15.4463 15.1389C16.2277 14.373 16.6667 13.3343 16.6667 12.2512C16.6667 11.1681 16.2277 10.1294 15.4463 9.36358C14.6649 8.59773 13.6051 8.16748 12.5 8.16748Z" fill="#4D75F4"/>
</svg>
