<svg width="53" height="71" viewBox="0 0 53 71" fill="none" xmlns="http://www.w3.org/2000/svg">
<g clip-path="url(#clip0)">
<path d="M22.8643 14.0675C25.8445 14.0675 28.7025 15.2643 30.8098 17.3946C32.917 19.5249 34.1009 22.4143 34.1009 25.427V40.6764C34.1009 43.6891 32.917 46.5784 30.8098 48.7087C28.7025 50.8391 25.8445 52.0359 22.8643 52.0359C19.8842 52.0359 17.0262 50.8391 14.9189 48.7087C12.8117 46.5784 11.6278 43.6891 11.6278 40.6764V25.4208C11.6294 22.4092 12.814 19.5214 14.9211 17.3924C17.0281 15.2634 19.8853 14.0675 22.8643 14.0675Z" fill="#42E56D"/>
<path d="M45.5346 49.5213C45.4676 49.7159 45.3854 49.9048 45.2886 50.0862C42.6495 55.0414 39.2542 58.833 35.1939 61.3567C31.4781 63.6747 27.181 64.863 22.8155 64.7799C18.1228 64.6544 13.5596 63.1968 9.64749 60.5738C5.67162 57.9574 2.46833 54.3044 0.375834 50.0002C0.155881 49.5593 0.0247024 49.0787 -0.0100945 48.5862C-0.0448913 48.0936 0.0173863 47.599 0.173127 47.131C0.328867 46.663 0.57497 46.2309 0.897164 45.8598C1.21936 45.4887 1.61123 45.1859 2.05005 44.9691C2.48887 44.7523 2.96591 44.6257 3.45351 44.5966C3.9411 44.5676 4.42954 44.6368 4.8905 44.8C5.35145 44.9633 5.77576 45.2175 6.1388 45.5478C6.50185 45.8782 6.7964 46.2781 7.00539 46.7244C10.0089 52.9322 16.4198 57.1874 22.9643 57.3163C29.4086 57.4453 35.0329 53.6322 38.7926 46.5524C39.2003 45.6747 39.9303 44.9922 40.8277 44.6497C41.725 44.3072 42.7191 44.3317 43.5988 44.7181C44.4786 45.1044 45.1747 45.8222 45.5396 46.719C45.9044 47.6158 45.9091 48.621 45.5528 49.5213H45.5346Z" fill="#42E56D"/>
<path d="M22.8641 59.5913C23.8712 59.5913 24.8371 59.9955 25.5495 60.7151C26.2618 61.4347 26.6625 62.4109 26.6633 63.429V67.1592C26.6625 68.1776 26.2619 69.154 25.5496 69.8741C24.8373 70.5942 23.8715 70.9991 22.8641 70.9999C21.8565 70.9999 20.8902 70.5953 20.1777 69.875C19.4652 69.1547 19.0649 68.1778 19.0649 67.1592V63.429C19.0657 62.4109 19.4664 61.4347 20.1788 60.7151C20.8912 59.9955 21.857 59.5913 22.8641 59.5913Z" fill="#42E56D"/>
<path d="M25.3209 2.48374C25.3209 1.11201 24.221 0 22.8641 0C21.5072 0 20.4072 1.11201 20.4072 2.48374V8.07446C20.4072 9.44619 21.5072 10.5582 22.8641 10.5582C24.221 10.5582 25.3209 9.44619 25.3209 8.07446V2.48374Z" fill="#42E56D"/>
<path d="M44.055 15.4241C45.1628 14.6321 45.4257 13.0821 44.6422 11.9621C43.8587 10.8422 42.3255 10.5764 41.2177 11.3685L36.7026 14.5967C35.5948 15.3888 35.3319 16.9388 36.1154 18.0587C36.8989 19.1787 38.4321 19.4445 39.5399 18.6524L44.055 15.4241Z" fill="#42E56D"/>
<path d="M4.51068 11.3655C3.40286 10.5735 1.86965 10.8392 1.08614 11.9592C0.302637 13.0791 0.56554 14.6291 1.67335 15.4212L6.18843 18.6494C7.29624 19.4415 8.82946 19.1757 9.61296 18.0558C10.3965 16.9359 10.1336 15.3859 9.02575 14.5938L4.51068 11.3655Z" fill="#42E56D"/>
</g>
<defs>
<clipPath id="clip0">
<rect width="53" height="71" fill="white"/>
</clipPath>
</defs>
</svg>
