<svg width="389" height="451" viewBox="0 0 389 451" fill="none" xmlns="http://www.w3.org/2000/svg">
<circle cx="194.5" cy="194.5" r="194.5" fill="#F4F8FF"/>
<path d="M30.2145 450.999C29.5398 450.999 29 450.532 29 449.972V449.598C29 449.038 29.5668 448.571 30.2145 448.571H57.8784C58.5531 448.571 59.0929 449.038 59.0929 449.598V449.972C59.0929 450.532 58.5261 450.999 57.8784 450.999H30.2145ZM104.435 448.571H150.316C150.987 448.571 151.531 449.114 151.531 449.785C151.531 450.456 150.987 450.999 150.316 450.999H104.435C103.764 450.999 103.22 450.456 103.22 449.785C103.22 449.114 103.764 448.571 104.435 448.571Z" fill="#8990AC"/>
<path d="M150.461 448.58C150.414 448.574 150.366 448.571 150.317 448.571H104.436C104.359 448.571 104.284 448.578 104.211 448.592L106.379 431.301H126.675C128.626 432.69 130.237 433.877 131.506 434.863C131.88 435.153 132.248 435.444 132.611 435.737C134.403 437.182 136.373 438.391 138.472 439.336C140.558 440.275 142.644 441.249 144.73 442.257C146.026 442.877 147.267 443.552 148.509 444.334C149.103 444.874 150.155 445.954 150.479 447.249C150.533 447.465 150.533 447.681 150.56 447.869C150.56 448.123 150.523 448.36 150.461 448.58ZM58.3228 448.642C58.1857 448.596 58.0362 448.571 57.8794 448.571H30.5627C31.6562 446.201 34.0955 440.449 37.8805 431.315H59.2821L58.3228 448.642Z" fill="#162359"/>
<path d="M88.0812 345.473L67.1506 420.591C66.1751 424.092 62.9858 426.514 59.3509 426.514H42.2699C37.7982 426.514 34.1732 422.889 34.1732 418.418C34.1732 417.731 34.2606 417.047 34.4335 416.382L56.9431 329.78C60.2322 311.786 62.9977 300.111 65.2394 294.754C68.7777 286.3 75.7514 282.08 78.7733 281.866C93.0217 280.857 100.37 281.28 100.819 283.137C104.678 284.271 114.563 300.264 122.977 339.403C128.177 363.589 130.98 390.158 131.386 419.111C131.449 423.581 127.875 427.256 123.404 427.319C123.365 427.32 123.326 427.32 123.287 427.32L107.395 427.313C103.114 427.311 99.5746 423.978 99.3167 419.705L95.6916 359.655L88.0812 345.473Z" fill="#FBDA5E"/>
<path d="M136.669 240.809L137.999 259.835C138.072 260.876 137.287 261.778 136.246 261.851L129.246 262.341C128.206 262.413 127.303 261.629 127.23 260.588L125.611 237.437C125.601 237.294 125.607 237.154 125.628 237.018L125.479 236.967L118.05 235.731C115.454 235.299 113.466 233.188 113.191 230.572L113.191 230.565C112.915 227.944 114.401 225.455 116.838 224.453L124.334 221.373L140.664 210.321C140.942 210.133 141.265 210.023 141.6 210.001C142.641 209.932 143.54 210.721 143.608 211.762L145.53 241.083C145.546 241.333 145.513 241.583 145.432 241.82C145.093 242.807 144.018 243.332 143.031 242.993L136.669 240.809Z" fill="#162359"/>
<path opacity="0.176986" d="M134.47 234.974L127.47 235.463C126.429 235.536 125.645 236.439 125.717 237.479L127.336 260.63C127.409 261.671 128.312 262.456 129.353 262.383L136.353 261.893C137.394 261.821 138.179 260.918 138.106 259.877L136.487 236.726C136.414 235.686 135.511 234.901 134.47 234.974Z" fill="#444444"/>
<path d="M144.726 210.646C144.643 209.457 143.611 208.56 142.422 208.643C141.232 208.726 140.335 209.758 140.419 210.947L142.584 241.905C142.667 243.094 143.699 243.991 144.888 243.908C146.078 243.825 146.975 242.793 146.891 241.604L144.726 210.646Z" fill="#8990AC"/>
<path d="M97.2213 239.58C101.57 241.499 104.714 245.144 105.885 249.265C106.289 250.668 106.365 252.179 106.213 253.636L104.546 272.607C104.521 272.904 104.495 273.174 104.495 273.471C104.47 274.874 104.192 276.601 103.106 278.031C101.539 280.136 99.1141 283.104 89.0086 282.996C79.6104 282.889 77.362 279.92 75.8461 277.869C74.7598 276.412 74.5324 274.415 74.5071 273.066C74.5071 272.769 74.4819 272.499 74.4566 272.202L73.7358 262.936C73.0491 263.5 72.4102 263.934 71.8292 264.191C69.6097 265.175 68.117 263.221 67.3513 258.33C64.9117 255.185 57.6998 250.602 69.4712 241.648C73.8832 238.293 77.9835 238.191 81.112 239.601C83.1308 238.764 85.4306 238.264 87.9123 238.165L87.9625 237.447C88.0145 236.703 88.6594 236.143 89.4028 236.195L96.1337 236.665C96.8772 236.717 97.4377 237.362 97.3857 238.106L97.3104 239.182C97.3006 239.322 97.2698 239.456 97.2213 239.58Z" fill="#F84B6B"/>
<path d="M37.8796 431.314L39.6744 426.106L59.6992 426.514L59.2812 431.314H37.8796ZM121.068 330.859C113.087 297.75 104.332 284.048 100.802 283.123C100.799 283.106 100.795 283.088 100.791 283.071C103.308 281.283 106.301 278.754 109.77 275.483C118.226 289.4 122.754 303.006 123.352 316.302C123.698 323.978 122.936 328.83 121.068 330.859ZM123.534 244.701C123.688 244.627 123.854 244.572 124.03 244.541L135.991 242.432C137.019 242.251 137.998 242.937 138.18 243.965L138.32 244.762C138.404 245.236 138.303 245.7 138.069 246.08C138.4 246.356 138.639 246.745 138.719 247.203L138.86 248C138.981 248.686 138.715 249.351 138.219 249.771C138.877 249.972 139.401 250.527 139.529 251.251L139.67 252.048C139.851 253.075 139.165 254.055 138.137 254.236L128.408 255.951C113.06 273.158 102.408 283.05 96.4539 285.626C91.0581 287.961 82.8777 280.753 71.9129 264.003C75.2493 262.337 80.3782 255.267 85.4775 251.083C85.5416 251.031 85.6034 250.977 85.6631 250.921L96.1289 264.334C114.389 251.222 123.519 244.667 123.519 244.667L123.534 244.701ZM96.972 234.017L96.8065 236.989C92.0614 236.845 89.4244 236.623 88.8956 236.323L89.0544 231.386L88.8957 229.504L89.0326 227.979L91.2249 228.209L91.3349 227.956C91.3061 227.931 91.3042 227.904 91.3042 227.904C91.2046 227.641 90.9472 227.442 90.7318 227.458C90.2378 227.357 89.492 227.138 88.8295 226.563C87.9058 225.735 87.2945 224.344 87.6274 222.914C87.9371 221.539 88.0388 219.368 89.333 219.304C90.0619 219.28 91.2196 219.256 91.3042 219.304C91.3887 219.352 93.1689 220.524 93.0968 219.88C93.0487 219.451 92.7983 217.16 92.3456 213.008C92.3154 212.577 92.6122 212.177 93.0411 212.12C93.82 212.039 94.5663 211.878 95.3339 211.635C96.161 211.469 96.7476 211.347 96.9342 211.307C98.2403 211.026 100.615 210.942 102.775 211.656C103.694 212.025 104.599 212.584 105.386 213.394C105.59 213.596 105.797 213.852 106.004 214.109C106.064 214.186 106.123 214.263 106.185 214.366C106.787 215.244 107.157 216.273 107.232 217.35L107.65 222.163C107.657 222.649 107.691 223.134 107.644 223.624C107.256 229.684 105.159 234.131 102.945 234.584C102.68 234.656 101.235 234.893 99.4857 234.636C99.3204 234.594 99.4587 234.638 97.0906 234.046C97.0507 234.036 97.0112 234.027 96.972 234.017ZM106.279 432.849L106.866 427.32L125.009 427.11L126.768 431.534L106.279 432.849Z" fill="#DCB780"/>
<path opacity="0.176986" d="M88.0078 345.299L100.741 283.283C100.743 283.224 100.739 283.166 100.729 283.109C104.505 283.962 114.501 299.883 122.998 339.405C128.211 363.65 131.009 390.23 131.394 419.145C131.451 423.486 127.978 427.052 123.636 427.11C123.602 427.11 123.567 427.11 123.532 427.11C121.138 427.11 115.792 427.151 107.494 427.233C103.182 427.275 99.5926 423.93 99.3327 419.625L95.7125 359.657L88.0078 345.299Z" fill="#D87604"/>
<path opacity="0.2" d="M121.069 330.86C113.089 297.75 104.333 284.049 100.803 283.124C100.8 283.106 100.797 283.089 100.793 283.072C103.31 281.284 106.303 278.754 109.772 275.484C118.228 289.401 122.755 303.007 123.353 316.302C123.699 323.978 122.937 328.831 121.069 330.86Z" fill="#8C2A00"/>
<path d="M96.8351 236.655L94.0388 233.185L97.0608 234.038L96.8351 236.655Z" fill="#482D1F"/>
<path d="M93.9413 222.322L93.6317 221.737C93.6317 221.737 93.1406 220.905 92.155 220.352C92.0705 220.304 91.4537 219.995 90.7249 220.019C89.4307 220.083 88.2155 221.277 87.9058 222.651C87.546 224.083 88.1573 225.474 89.0791 226.275C90.0028 227.103 91.2549 227.196 91.6106 227.252L91.6183 227.251C92.1591 228.372 92.2105 229.57 91.7723 230.846C91.393 231.951 90.3376 232.995 89.0854 233.841L86.7026 233.681L88.9681 230.701C88.1066 230.007 86.7888 228.889 86.0038 227.951C85.3838 227.209 83.4 225.536 82.62 222.506C82.5368 222.146 82.3742 221.484 82.2858 220.651C80.7742 221.483 78.9507 221.81 77.0957 221.45C72.9988 220.653 70.3001 216.806 71.068 212.856C71.836 208.906 75.7797 206.349 79.8766 207.145C83.0305 207.758 85.3557 210.179 85.9088 213.064C87.6276 212.21 89.3091 212.434 92.9464 211.938C93.2676 211.888 93.8023 211.797 94.4985 211.694C94.7928 211.646 95.0332 211.603 95.2736 211.559C96.1007 211.393 96.6874 211.27 96.874 211.23C98.18 210.95 100.555 210.865 102.715 211.579C103.634 211.948 104.539 212.507 105.326 213.318C105.529 213.52 106.386 214.451 106.594 214.707C106.849 215.581 105.927 215.924 105.293 216.13C103.307 216.756 100.521 215.412 99.4255 215.218C97.6608 217.451 95.9211 219.656 94.1833 221.887C94.1058 222.022 94.025 222.167 93.9413 222.322ZM108.252 221.06C107.719 221.196 106.889 221.348 106.15 221.17C104.919 220.883 106.07 220.147 107.175 220.09C107.714 220.061 108.131 220.283 108.385 220.486C108.609 220.636 108.519 220.992 108.252 221.06ZM103.06 221.463C102.538 221.636 101.72 221.845 100.914 221.7C99.6689 221.526 100.762 220.685 101.86 220.55C102.423 220.481 102.854 220.673 103.122 220.858C103.386 221.015 103.321 221.377 103.06 221.463Z" fill="#482D1F"/>
<path d="M106.4 223.251C106.399 222.926 106.644 222.634 106.967 222.605C107.182 222.587 107.379 222.678 107.491 223.02C107.808 223.859 107.112 225.193 106.695 224.769C106.425 224.468 106.386 223.713 106.4 223.251ZM101.59 223.699C101.588 223.374 101.834 223.082 102.156 223.053C102.371 223.035 102.569 223.126 102.68 223.468C102.998 224.307 102.302 225.641 101.885 225.217C101.615 224.916 101.576 224.161 101.59 223.699ZM104.016 228.904C103.824 228.86 103.359 228.749 103.263 228.457C103.26 228.403 103.229 228.323 103.253 228.268C103.351 228.074 103.68 228.165 104.166 228.166C105.03 228.148 105.727 228.03 105.727 228.03C105.727 228.03 105.566 228.579 105.44 228.748C105.193 229.193 104.317 228.969 104.016 228.904ZM105.065 223.654L105.064 223.637L105.06 223.619L105.065 223.654ZM105.643 226.48C105.71 226.784 105.49 227.095 105.185 227.162C105.151 227.169 105.121 227.175 105.089 227.181C104.9 227.216 104.723 227.237 104.394 227.267C104.344 227.272 104.151 227.289 104.148 227.289C104.041 227.299 103.954 227.307 103.863 227.316C103.715 227.33 103.583 227.221 103.569 227.073C103.555 226.925 103.663 226.793 103.812 226.778C103.904 226.77 103.992 226.761 104.099 226.752C104.102 226.751 104.295 226.734 104.345 226.729C104.659 226.701 104.823 226.681 104.992 226.65C105.019 226.645 105.045 226.64 105.072 226.634C105.093 226.63 105.116 226.597 105.115 226.592L104.531 223.727L104.527 223.692L104.416 222.103C104.406 221.955 104.518 221.826 104.667 221.815C104.816 221.805 104.945 221.917 104.955 222.066L105.064 223.637L105.643 226.48Z" fill="#482D1F"/>
<path d="M85.9978 251.155C85.8192 247.824 84.9655 244.638 83.438 241.602C83.3376 241.402 83.0942 241.322 82.8945 241.422C82.6947 241.523 82.6142 241.766 82.7147 241.966C84.1922 244.903 85.0167 247.979 85.1893 251.199C85.2013 251.422 85.392 251.593 85.6153 251.581C85.8385 251.569 86.0098 251.379 85.9978 251.155Z" fill="#482D1F"/>
</svg>
