<svg width="27" height="23" viewBox="0 0 27 23" fill="none" xmlns="http://www.w3.org/2000/svg">
<path d="M27 3.49268C26.0062 3.92639 24.9387 4.21826 23.8183 4.3499C24.9626 3.67637 25.8401 2.60996 26.2534 1.33842C25.1838 1.96194 23.9979 2.41504 22.7352 2.65996C21.7248 1.60171 20.2856 0.94043 18.6926 0.94043C15.6334 0.94043 13.1537 3.37839 13.1537 6.38374C13.1537 6.81031 13.2035 7.22667 13.297 7.62364C8.69367 7.39709 4.61267 5.22956 1.87954 1.93541C1.40395 2.73956 1.13084 3.67433 1.13084 4.6734C1.13084 6.56131 2.108 8.22777 3.59398 9.20337C2.6864 9.17479 1.83178 8.92987 1.08515 8.5227C1.08515 8.54617 1.08515 8.5676 1.08515 8.59107C1.08515 11.229 2.99377 13.4292 5.52856 13.9283C5.06438 14.0528 4.57425 14.1191 4.06854 14.1191C3.71236 14.1191 3.36449 14.0844 3.027 14.0221C3.73209 16.1846 5.77778 17.7592 8.20145 17.8031C6.30633 19.2634 3.91796 20.1339 1.32191 20.1339C0.87539 20.1339 0.43406 20.1084 0 20.0573C2.45171 21.6013 5.36241 22.5024 8.49117 22.5024C18.6802 22.5024 24.2503 14.2079 24.2503 7.01441C24.2503 6.77867 24.2451 6.54396 24.2347 6.31027C25.3178 5.54184 26.2575 4.58359 27 3.49268Z" fill="#4D75F4"/>
</svg>
