<svg width="79" height="53" viewBox="0 0 79 53" fill="none" xmlns="http://www.w3.org/2000/svg">
<g clip-path="url(#clip0)">
<path d="M57.6624 32.0405C62.9965 32.0405 67.3206 27.7278 67.3206 22.4079C67.3206 17.088 62.9965 12.7754 57.6624 12.7754C52.3284 12.7754 48.0042 17.088 48.0042 22.4079C48.0042 27.7278 52.3284 32.0405 57.6624 32.0405Z" fill="#42E56D"/>
<path d="M28.3661 25.6139C35.458 25.6139 41.2072 19.88 41.2072 12.807C41.2072 5.73387 35.458 0 28.3661 0C21.2742 0 15.525 5.73387 15.525 12.807C15.525 19.88 21.2742 25.6139 28.3661 25.6139Z" fill="#42E56D"/>
<path d="M0.218748 47.0068C0.303311 46.7646 0.406048 46.529 0.526086 46.3022C3.81496 40.2387 8.04704 35.5845 13.0987 32.5017C17.7235 29.6648 23.0689 28.2142 28.4974 28.3231C34.3319 28.4849 40.0033 30.2796 44.864 33.5023C49.8068 36.7238 53.7856 41.2167 56.3804 46.5065C56.8955 47.596 56.9597 48.8441 56.5588 49.9804C56.1579 51.1167 55.3244 52.0498 54.2387 52.5775C53.153 53.1052 51.9025 53.1852 50.7582 52.8C49.6138 52.4148 48.6676 51.5955 48.1246 50.5195C44.4048 42.8987 36.4387 37.6632 28.2995 37.4835C20.2911 37.3144 13.2965 41.9968 8.60166 50.671C8.04984 51.6726 7.14251 52.4323 6.05783 52.8009C4.97316 53.1694 3.78952 53.1202 2.73934 52.663C1.68916 52.2057 0.848329 51.3734 0.381958 50.3295C-0.0844141 49.2856 -0.142628 48.1055 0.218748 47.0209V47.0068Z" fill="#42E56D"/>
<path d="M42.9348 39.6926C43.6728 39.073 44.4479 38.4989 45.2557 37.9732C48.9126 35.5555 53.1776 34.2125 57.5634 34.0977C61.6465 34.0142 65.6676 35.1039 69.1469 37.2369C72.948 39.5587 76.1273 43.0572 78.6037 47.6269C78.6945 47.7941 78.7713 47.9685 78.8333 48.1483C79.0953 48.9618 79.0452 49.8434 78.6927 50.6222C78.3402 51.401 77.7104 52.0215 76.9253 52.3637C76.1403 52.7058 75.2558 52.7452 74.4434 52.4741C73.6309 52.203 72.9482 51.6408 72.5276 50.8964C68.995 44.3714 63.7349 40.8517 57.7082 40.9785C54.3942 41.088 51.1885 42.1824 48.5022 44.1213C46.8607 42.3953 44.987 40.9049 42.9348 39.6926Z" fill="#42E56D"/>
</g>
<defs>
<clipPath id="clip0">
<rect width="79" height="53" fill="white"/>
</clipPath>
</defs>
</svg>
