<svg width="55" height="53" viewBox="0 0 55 53" fill="none" xmlns="http://www.w3.org/2000/svg">
<path d="M27.4579 25.6095C34.3246 25.6095 39.8912 19.8766 39.8912 12.8047C39.8912 5.73287 34.3246 0 27.4579 0C20.5912 0 15.0247 5.73287 15.0247 12.8047C15.0247 19.8766 20.5912 25.6095 27.4579 25.6095Z" fill="#42E56D"/>
<path d="M0.199861 47.0069C0.281751 46.7666 0.381444 46.5331 0.498059 46.3086C3.68407 40.2376 7.78036 35.5857 12.6739 32.5017C17.1517 29.6644 22.3274 28.2135 27.5838 28.3219C33.2327 28.4834 38.724 30.2755 43.4322 33.4942C48.2176 36.7134 52.0706 41.2031 54.5848 46.4896C55.0044 47.5651 55.0132 48.7643 54.6093 49.8461C54.2055 50.9279 53.4189 51.8122 52.4079 52.3212C51.3968 52.8301 50.2361 52.9261 49.1591 52.5897C48.0822 52.2533 47.1688 51.5095 46.6026 50.5079C42.9991 42.8916 35.2836 37.6579 27.4018 37.4866C19.6455 37.3185 12.8717 42.0123 8.32653 50.6727C7.78259 51.6584 6.90349 52.4017 5.85882 52.7592C4.81415 53.1168 3.67793 53.0632 2.66933 52.6089C1.66073 52.1547 0.851213 51.3318 0.396936 50.2991C-0.0573405 49.2664 -0.124192 48.097 0.209278 47.0166L0.199861 47.0069Z" fill="#42E56D"/>
</svg>
