<svg width="123" height="123" viewBox="0 0 123 123" fill="none" xmlns="http://www.w3.org/2000/svg">
<g filter="url(#filter0_d)">
<rect x="15" y="5" width="93" height="93" rx="5" fill="#EFF1F9"/>
<rect x="16" y="6" width="91" height="91" rx="4" stroke="white" stroke-width="2"/>
</g>
<path d="M68.1876 28H45.6151C44.1259 28 42.6977 28.5884 41.6446 29.6357C40.5916 30.683 40 32.1035 40 33.5846V66.9731C40 67.6683 40.1377 68.3568 40.4052 68.9991C40.6727 69.6414 41.0648 70.2251 41.5591 70.7167C42.0534 71.2083 42.6402 71.5983 43.2861 71.8643C43.9319 72.1304 44.6241 72.2673 45.3231 72.2673H62.8045C62.9393 72.2667 63.0707 72.2254 63.1814 72.1491C63.2922 72.0727 63.3771 71.9648 63.425 71.8395C64.9337 68.0298 67.8474 64.9363 71.5713 63.1904C71.6591 63.1502 71.7369 63.0913 71.7991 63.0178C71.8614 62.9443 71.9065 62.858 71.9314 62.7652C71.9563 62.6723 71.9603 62.5752 71.9431 62.4806C71.9259 62.386 71.888 62.2964 71.832 62.2181C70.6279 60.5243 70.1312 58.432 70.4462 56.3814C70.7613 54.3308 71.8635 52.4816 73.5212 51.2226C73.6064 51.1598 73.6757 51.0781 73.7237 50.9841C73.7716 50.89 73.7969 50.7862 73.7975 50.6807V33.5846C73.7975 32.1044 73.2067 30.6847 72.1548 29.6375C71.1028 28.5904 69.676 28.0014 68.1876 28V28ZM54.8589 62.2959C54.8589 62.7538 54.676 63.193 54.3504 63.5169C54.0248 63.8407 53.5832 64.0226 53.1228 64.0226H49.0666C48.6061 64.0226 48.1645 63.8407 47.8389 63.5169C47.5133 63.193 47.3304 62.7538 47.3304 62.2959V58.2643C47.3304 57.8063 47.5133 57.3671 47.8389 57.0433C48.1645 56.7195 48.6061 56.5376 49.0666 56.5376H53.1202C53.3484 56.5372 53.5744 56.5816 53.7854 56.6683C53.9963 56.7549 54.188 56.882 54.3495 57.0424C54.511 57.2028 54.6391 57.3932 54.7265 57.6029C54.8139 57.8126 54.8589 58.0373 54.8589 58.2643V62.2959ZM54.8589 52.0108C54.8589 52.4687 54.676 52.9079 54.3504 53.2317C54.0248 53.5556 53.5832 53.7375 53.1228 53.7375H49.0666C48.6061 53.7375 48.1645 53.5556 47.8389 53.2317C47.5133 52.9079 47.3304 52.4687 47.3304 52.0108V47.9817C47.3304 47.5235 47.5132 47.0841 47.8387 46.7598C48.1643 46.4356 48.6059 46.2531 49.0666 46.2524H53.1202C53.5813 46.2524 54.0236 46.4346 54.3497 46.7589C54.6757 47.0832 54.8589 47.5231 54.8589 47.9817V52.0108ZM54.8589 41.7412C54.8589 42.1991 54.676 42.6383 54.3504 42.9621C54.0248 43.286 53.5832 43.4679 53.1228 43.4679H49.0666C48.6061 43.4679 48.1645 43.286 47.8389 42.9621C47.5133 42.6383 47.3304 42.1991 47.3304 41.7412V37.6966C47.3304 37.2386 47.5133 36.7994 47.8389 36.4756C48.1645 36.1518 48.6061 35.9699 49.0666 35.9699H53.1202C53.3484 35.9695 53.5744 36.014 53.7854 36.1006C53.9963 36.1872 54.188 36.3143 54.3495 36.4747C54.511 36.6351 54.6391 36.8256 54.7265 37.0352C54.8139 37.2449 54.8589 37.4696 54.8589 37.6966V41.7412ZM66.0683 62.2959C66.0676 62.7541 65.8841 63.1933 65.5581 63.517C65.2321 63.8408 64.7902 64.0226 64.3295 64.0226H60.2889C59.8285 64.0226 59.3869 63.8407 59.0613 63.5169C58.7357 63.193 58.5528 62.7538 58.5528 62.2959V58.2643C58.5528 57.8063 58.7357 57.3671 59.0613 57.0433C59.3869 56.7195 59.8285 56.5376 60.2889 56.5376H64.34C64.8007 56.5376 65.2425 56.7194 65.5685 57.0432C65.8945 57.3669 66.078 57.8061 66.0787 58.2643L66.0683 62.2959ZM66.0683 52.0108C66.0676 52.4689 65.8841 52.9081 65.5581 53.2319C65.2321 53.5556 64.7902 53.7375 64.3295 53.7375H60.2889C59.8285 53.7375 59.3869 53.5556 59.0613 53.2317C58.7357 52.9079 58.5528 52.4687 58.5528 52.0108V47.9817C58.5528 47.5235 58.7356 47.0841 59.0611 46.7598C59.3867 46.4356 59.8283 46.2531 60.2889 46.2524H64.34C64.7993 46.2552 65.2389 46.4386 65.5627 46.7626C65.8865 47.0866 66.0683 47.5249 66.0683 47.9817V52.0108ZM66.0683 41.7412C66.0676 42.1994 65.8841 42.6386 65.5581 42.9623C65.2321 43.2861 64.7902 43.4679 64.3295 43.4679H60.2889C59.8285 43.4679 59.3869 43.286 59.0613 42.9621C58.7357 42.6383 58.5528 42.1991 58.5528 41.7412V37.6966C58.5528 37.2386 58.7357 36.7994 59.0613 36.4756C59.3869 36.1518 59.8285 35.9699 60.2889 35.9699H64.34C64.7988 35.9726 65.238 36.1557 65.5618 36.4791C65.8855 36.8026 66.0676 37.2402 66.0683 37.6966V41.7412Z" fill="#CDD1DE"/>
<path d="M78.6814 63.1386C81.7609 63.1386 84.2574 60.6557 84.2574 57.5928C84.2574 54.53 81.7609 52.0471 78.6814 52.0471C75.6018 52.0471 73.1053 54.53 73.1053 57.5928C73.1053 60.6557 75.6018 63.1386 78.6814 63.1386Z" fill="#CDD1DE"/>
<path d="M66.4531 72.4046C66.4898 72.3004 66.5343 72.199 66.5861 72.1013C68.0172 69.4723 69.8524 67.4578 72.0604 66.1226C74.0682 64.8925 76.3892 64.2625 78.7469 64.3077C81.2812 64.3767 83.7448 65.1539 85.8557 66.5504C87.9946 67.9482 89.714 69.8947 90.8322 72.1842C91.0237 72.6509 91.0297 73.1724 90.8489 73.6433C90.6681 74.1141 90.3141 74.499 89.8587 74.7199C89.4032 74.9408 88.8803 74.9812 88.396 74.8329C87.9116 74.6846 87.5021 74.3588 87.2504 73.9213C85.6342 70.6209 82.1723 68.3549 78.6479 68.2797C75.1677 68.2071 72.1308 70.2346 70.0922 73.9836C69.8556 74.4239 69.4609 74.7595 68.9868 74.9235C68.5126 75.0874 67.9937 75.0677 67.5334 74.8683C67.0732 74.6688 66.7054 74.3043 66.5032 73.8473C66.3011 73.3902 66.2795 72.8742 66.4427 72.402L66.4531 72.4046Z" fill="#CDD1DE"/>
<defs>
<filter id="filter0_d" x="0" y="0" width="123" height="123" filterUnits="userSpaceOnUse" color-interpolation-filters="sRGB">
<feFlood flood-opacity="0" result="BackgroundImageFix"/>
<feColorMatrix in="SourceAlpha" type="matrix" values="0 0 0 0 0 0 0 0 0 0 0 0 0 0 0 0 0 0 127 0"/>
<feOffset dy="10"/>
<feGaussianBlur stdDeviation="7.5"/>
<feColorMatrix type="matrix" values="0 0 0 0 0.0862745 0 0 0 0 0.137255 0 0 0 0 0.34902 0 0 0 0.1 0"/>
<feBlend mode="normal" in2="BackgroundImageFix" result="effect1_dropShadow"/>
<feBlend mode="normal" in="SourceGraphic" in2="effect1_dropShadow" result="shape"/>
</filter>
</defs>
</svg>
