<svg width="93" height="93" viewBox="0 0 93 93" fill="none" xmlns="http://www.w3.org/2000/svg">
<circle cx="46.5" cy="46.5" r="45.5" fill="#EFF1F9" stroke-width="0"/>
<path fill-rule="evenodd" clip-rule="evenodd" d="M52.8526 23H31.3492C29.9305 23 28.5699 23.5632 27.5667 24.5656C26.5636 25.568 26 26.9276 26 28.3453V60.3028C26 60.9682 26.1312 61.6272 26.386 62.242C26.6409 62.8568 27.0144 63.4154 27.4853 63.8859C27.9562 64.3565 28.5152 64.7297 29.1304 64.9844C29.7457 65.239 30.4051 65.3701 31.071 65.3701H47.7245C47.8528 65.3695 47.978 65.33 48.0835 65.2569C48.189 65.1838 48.2699 65.0805 48.3155 64.9606C49.7528 61.3142 52.5285 58.3533 56.076 56.6822C56.1596 56.6437 56.2337 56.5873 56.293 56.517C56.3523 56.4466 56.3954 56.3641 56.4191 56.2752C56.4428 56.1863 56.4466 56.0933 56.4302 56.0028C56.4139 55.9123 56.3777 55.8265 56.3244 55.7516C55.1773 54.1303 54.7041 52.1278 55.0042 50.165C55.3043 48.2023 56.3544 46.4323 57.9336 45.2273C58.0147 45.1672 58.0808 45.0891 58.1264 44.999C58.1721 44.909 58.1962 44.8096 58.1968 44.7087V28.3453C58.1968 26.9285 57.6339 25.5696 56.6318 24.5673C55.6297 23.5651 54.2704 23.0013 52.8526 23ZM40.1552 55.826C40.1552 56.2644 39.9809 56.6847 39.6707 56.9947C39.3606 57.3046 38.9399 57.4788 38.5013 57.4788H34.6371C34.1985 57.4788 33.7778 57.3046 33.4676 56.9947C33.1575 56.6847 32.9832 56.2644 32.9832 55.826V51.9672C32.9832 51.5289 33.1575 51.1085 33.4676 50.7986C33.7778 50.4886 34.1985 50.3145 34.6371 50.3145H38.4988C38.7162 50.3142 38.9315 50.3567 39.1325 50.4396C39.3334 50.5225 39.516 50.6442 39.6699 50.7977C39.8237 50.9512 39.9458 51.1335 40.029 51.3342C40.1123 51.5349 40.1552 51.75 40.1552 51.9672V55.826ZM40.1552 45.9817C40.1552 46.42 39.9809 46.8404 39.6707 47.1503C39.3606 47.4603 38.9399 47.6344 38.5013 47.6344H34.6371C34.1985 47.6344 33.7778 47.4603 33.4676 47.1503C33.1575 46.8404 32.9832 46.42 32.9832 45.9817V42.1254C32.9832 41.6868 33.1574 41.2662 33.4675 40.9558C33.7776 40.6455 34.1983 40.4708 34.6371 40.4702H38.4988C38.9381 40.4702 39.3594 40.6445 39.67 40.955C39.9807 41.2654 40.1552 41.6864 40.1552 42.1254V45.9817ZM40.1552 36.1523C40.1552 36.5906 39.9809 37.011 39.6707 37.3209C39.3606 37.6308 38.9399 37.805 38.5013 37.805H34.6371C34.1985 37.805 33.7778 37.6308 33.4676 37.3209C33.1575 37.011 32.9832 36.5906 32.9832 36.1523V32.281C32.9832 31.8427 33.1575 31.4223 33.4676 31.1124C33.7778 30.8024 34.1985 30.6283 34.6371 30.6283H38.4988C38.7162 30.628 38.9315 30.6705 39.1325 30.7534C39.3334 30.8363 39.516 30.958 39.6699 31.1115C39.8237 31.265 39.9458 31.4473 40.029 31.648C40.1123 31.8487 40.1552 32.0638 40.1552 32.281V36.1523ZM50.8336 55.826C50.833 56.2646 50.6582 56.685 50.3476 56.9948C50.037 57.3047 49.6161 57.4788 49.1772 57.4788H45.328C44.8894 57.4788 44.4687 57.3046 44.1585 56.9947C43.8483 56.6847 43.6741 56.2644 43.6741 55.826V51.9672C43.6741 51.5289 43.8483 51.1085 44.1585 50.7986C44.4687 50.4886 44.8894 50.3145 45.328 50.3145H49.1872C49.626 50.3145 50.047 50.4885 50.3575 50.7984C50.6681 51.1083 50.8429 51.5287 50.8436 51.9672L50.8336 55.826ZM50.8336 45.9817C50.833 46.4203 50.6582 46.8406 50.3476 47.1505C50.037 47.4604 49.6161 47.6344 49.1772 47.6344H45.328C44.8894 47.6344 44.4687 47.4603 44.1585 47.1503C43.8483 46.8404 43.6741 46.42 43.6741 45.9817V42.1254C43.6741 41.6868 43.8483 41.2662 44.1584 40.9558C44.4685 40.6455 44.8891 40.4708 45.328 40.4702H49.1872C49.6247 40.4728 50.0435 40.6483 50.352 40.9585C50.6605 41.2686 50.8336 41.6881 50.8336 42.1254V45.9817ZM50.8336 36.1523C50.833 36.5908 50.6582 37.0112 50.3476 37.321C50.037 37.6309 49.6161 37.805 49.1772 37.805H45.328C44.8894 37.805 44.4687 37.6308 44.1585 37.3209C43.8483 37.011 43.6741 36.5906 43.6741 36.1523V32.281C43.6741 31.8427 43.8483 31.4223 44.1585 31.1124C44.4687 30.8024 44.8894 30.6283 45.328 30.6283H49.1872C49.6243 30.6309 50.0427 30.8061 50.3511 31.1157C50.6595 31.4253 50.833 31.8442 50.8336 32.281V36.1523ZM62.8476 56.6326C65.7813 56.6326 68.1595 54.2561 68.1595 51.3245C68.1595 48.393 65.7813 46.0165 62.8476 46.0165C59.9139 46.0165 57.5357 48.393 57.5357 51.3245C57.5357 54.2561 59.9139 56.6326 62.8476 56.6326ZM51.3264 65.2114C51.2771 65.3049 51.2348 65.402 51.1998 65.5018L51.1898 65.4993C51.0344 65.9512 51.055 66.4451 51.2475 66.8826C51.4401 67.32 51.7905 67.6689 52.229 67.8598C52.6674 68.0507 53.1617 68.0696 53.6134 67.9127C54.0652 67.7557 54.4412 67.4345 54.6666 67.013C56.6086 63.4247 59.5017 61.4841 62.817 61.5536C66.1745 61.6256 69.4724 63.7944 71.0121 66.9535C71.2519 67.3721 71.642 67.6841 72.1034 67.826C72.5648 67.9679 73.0629 67.9292 73.4968 67.7178C73.9307 67.5064 74.2679 67.138 74.4401 66.6873C74.6124 66.2367 74.6067 65.7374 74.4242 65.2908C73.3589 63.0994 71.721 61.2363 69.6835 59.8984C67.6725 58.5618 65.3256 57.8179 62.9113 57.7519C60.6653 57.7086 58.4542 58.3115 56.5415 59.4889C54.4381 60.7669 52.6898 62.6951 51.3264 65.2114Z" fill="#CDD1DE"/>
</svg>
