<svg width="136" height="118" viewBox="0 0 136 118" fill="none" xmlns="http://www.w3.org/2000/svg">
<circle cx="77" cy="59" r="59" fill="#F0FDF6"/>
<g clip-path="url(#clip0)">
<path d="M39.7551 66.958L74.8421 50.0926C74.9099 50.0594 74.9702 50.0124 75.019 49.9547C75.0679 49.8969 75.1043 49.8296 75.126 49.757C75.1477 49.6843 75.1541 49.608 75.145 49.5327C75.1358 49.4575 75.1113 49.3849 75.0728 49.3197C73.8025 47.0951 71.9705 45.2469 69.7618 43.9617C67.5532 42.6765 65.0461 41.9998 62.494 42H14.5088C11.9554 41.9988 9.44696 42.675 7.23691 43.9603C5.02686 45.2455 3.19356 47.0943 1.92227 49.3197C1.88441 49.3851 1.86031 49.4576 1.85147 49.5327C1.84262 49.6078 1.84922 49.684 1.87085 49.7564C1.89248 49.8289 1.92868 49.8961 1.97722 49.9539C2.02575 50.0118 2.08558 50.059 2.153 50.0926L37.2439 66.958C37.6358 67.1469 38.0649 67.245 38.4995 67.245C38.9341 67.245 39.3632 67.1469 39.7551 66.958Z" fill="#4D75F4"/>
<path d="M39.929 74.1115C39.4813 74.3202 38.9938 74.4282 38.5004 74.4282C38.0069 74.4282 37.5194 74.3202 37.0717 74.1115L0.261853 56.4152C0.234626 56.3969 0.202695 56.3869 0.169935 56.3865C0.137176 56.3861 0.104997 56.3952 0.0773071 56.4128C0.0496166 56.4304 0.0276051 56.4557 0.0139449 56.4856C0.000284681 56.5155 -0.00443668 56.5488 0.000354029 56.5814V84.407C0.000353962 86.3217 0.375678 88.2176 1.10489 89.9865C1.8341 91.7554 2.90291 93.3625 4.25028 94.7162C5.59765 96.0699 7.19718 97.1436 8.95751 97.876C10.7178 98.6084 12.6045 98.985 14.5097 98.9845H62.4948C66.3419 98.9845 70.0315 97.4487 72.7518 94.7149C75.4721 91.9811 77.0003 88.2732 77.0003 84.407V57.1534C76.9997 57.0623 76.9763 56.9729 76.9323 56.8932C76.8884 56.8136 76.8253 56.7463 76.7488 56.6974C76.6723 56.6486 76.5849 56.6199 76.4944 56.6138C76.404 56.6077 76.3135 56.6244 76.2312 56.6625L39.929 74.1115Z" fill="#4D75F4"/>
</g>
<circle cx="6" cy="25" r="6" fill="#162359"/>
<circle cx="23" cy="25" r="6" fill="#A1A8C1"/>
<circle cx="40" cy="25" r="6" fill="#CDD1DE"/>
<defs>
<clipPath id="clip0">
<rect width="77" height="57" fill="white" transform="translate(0 42)"/>
</clipPath>
</defs>
</svg>
