<svg width="18" height="18" viewBox="0 0 18 18" fill="none" xmlns="http://www.w3.org/2000/svg">
<circle cx="9" cy="9" r="9" fill="#767E9F"/>
<path d="M4.34906 12.0113C4.36305 11.9724 4.3803 11.9347 4.40064 11.8985C4.9445 10.9087 5.64402 10.1509 6.48123 9.6468C7.24639 9.18378 8.13129 8.94627 9.03039 8.96258C9.97606 8.98086 10.9143 9.27106 11.7437 9.80228C12.5633 10.3249 13.2236 11.0547 13.6549 11.9147C13.7434 12.0924 13.7563 12.2972 13.6908 12.4841C13.6253 12.6711 13.4867 12.8248 13.3054 12.9116C13.1242 12.9984 12.9153 13.0111 12.7245 12.9469C12.5337 12.8826 12.3768 12.7468 12.2883 12.5692C11.6707 11.3296 10.3491 10.4791 9.00069 10.4542C7.67326 10.4287 6.51393 11.1926 5.73888 12.6051C5.65005 12.7724 5.4997 12.9005 5.31821 12.9635C5.13673 13.0264 4.93764 13.0195 4.76116 12.9441C4.58469 12.8687 4.44399 12.7305 4.36749 12.5573C4.291 12.3842 4.28441 12.189 4.34906 12.0113Z" fill="white"/>
<path d="M9.02962 8.5443C10.3035 8.5443 11.3361 7.53222 11.3361 6.28375C11.3361 5.03528 10.3035 4.02319 9.02962 4.02319C7.75579 4.02319 6.72314 5.03528 6.72314 6.28375C6.72314 7.53222 7.75579 8.5443 9.02962 8.5443Z" fill="white"/>
</svg>
