<svg width="27" height="27" viewBox="0 0 27 27" fill="none" xmlns="http://www.w3.org/2000/svg">
<circle cx="13.4483" cy="13.4483" r="13.4483" fill="#767E9F"/>
<path d="M6.4988 17.9479C6.5197 17.8897 6.54548 17.8333 6.57587 17.7793C7.38854 16.3003 8.4338 15.168 9.68481 14.4147C10.8281 13.7228 12.1504 13.3679 13.4939 13.3923C14.907 13.4196 16.309 13.8532 17.5483 14.647C18.773 15.4279 19.7596 16.5185 20.404 17.8036C20.5364 18.069 20.5557 18.375 20.4578 18.6544C20.3599 18.9337 20.1527 19.1635 19.8819 19.2932C19.6111 19.4229 19.2989 19.4418 19.0139 19.3458C18.7288 19.2499 18.4944 19.0469 18.362 18.7815C17.4393 16.9292 15.4644 15.6583 13.4495 15.6212C11.466 15.5831 9.73366 16.7245 8.57555 18.8351C8.44281 19.0852 8.21815 19.2766 7.94697 19.3706C7.67578 19.4647 7.37828 19.4543 7.11459 19.3417C6.85089 19.229 6.64065 19.0225 6.52635 18.7638C6.41204 18.505 6.4022 18.2135 6.4988 17.9479Z" fill="white"/>
<path d="M13.4924 12.7674C15.3958 12.7674 16.9388 11.2551 16.9388 9.38957C16.9388 7.52403 15.3958 6.01172 13.4924 6.01172C11.5889 6.01172 10.0459 7.52403 10.0459 9.38957C10.0459 11.2551 11.5889 12.7674 13.4924 12.7674Z" fill="white"/>
</svg>