<svg width="26" height="21" viewBox="0 0 26 21" fill="none" xmlns="http://www.w3.org/2000/svg">
<path d="M25.9819 2.41977C25.0486 2.83096 24.046 3.10767 22.9937 3.23248C24.0685 2.59392 24.8926 1.58286 25.2807 0.377333C24.2762 0.968488 23.1624 1.39807 21.9765 1.63027C21.0275 0.626953 19.6758 0 18.1797 0C15.3066 0 12.9776 2.31141 12.9776 5.16075C12.9776 5.56518 13.0244 5.95992 13.1122 6.33629C8.7888 6.1215 4.95596 4.06649 2.38903 0.943332C1.94235 1.70574 1.68586 2.59199 1.68586 3.53919C1.68586 5.3291 2.60359 6.90906 3.99921 7.83401C3.14682 7.80692 2.34417 7.57471 1.64294 7.18867C1.64294 7.21093 1.64294 7.23124 1.64294 7.2535C1.64294 9.75454 3.4355 11.8405 5.81615 12.3136C5.3802 12.4317 4.91987 12.4946 4.44491 12.4946C4.11039 12.4946 3.78368 12.4617 3.46671 12.4026C4.12892 14.4528 6.05022 15.9457 8.32652 15.9873C6.54664 17.3718 4.3035 18.1971 1.86531 18.1971C1.44594 18.1971 1.03144 18.1729 0.623779 18.1246C2.92641 19.5884 5.66011 20.4427 8.59862 20.4427C18.168 20.4427 23.3994 12.5787 23.3994 5.75868C23.3994 5.53518 23.3945 5.31265 23.3848 5.09109C24.402 4.36255 25.2846 3.45405 25.9819 2.41977Z" fill="#4D75F4"/>
</svg>
