<svg width="22" height="22" viewBox="0 0 22 22" fill="none" xmlns="http://www.w3.org/2000/svg">
<g clip-path="url(#clip0)">
<path d="M11.5161 0.012269C9.29876 -0.0925311 7.10155 0.476004 5.21329 1.64315C3.32503 2.8103 1.83408 4.52145 0.936386 6.5517C0.0386942 8.58195 -0.223727 10.8363 0.18361 13.0185C0.590947 15.2006 1.64898 17.2085 3.21866 18.7782C4.78834 20.3479 6.7962 21.4059 8.97837 21.8132C11.1605 22.2206 13.4149 21.9581 15.4451 21.0605C17.4754 20.1628 19.1865 18.6718 20.3537 16.7835C21.5208 14.8953 22.0894 12.6981 21.9846 10.4807C21.8526 7.74689 20.7073 5.16021 18.772 3.22487C16.8366 1.28953 14.2499 0.144245 11.5161 0.012269ZM19.3702 9.98582H16.0828C16.0481 9.98588 16.0147 9.97268 15.9895 9.94893C15.9642 9.92517 15.949 9.89265 15.9469 9.85802C15.8218 7.92341 15.4493 6.12882 14.8592 4.69179C14.6631 4.19888 14.4219 3.72512 14.1387 3.27651C14.1223 3.25242 14.1141 3.22369 14.1153 3.19458C14.1165 3.16547 14.127 3.1375 14.1452 3.11481C14.1635 3.09212 14.1886 3.0759 14.2168 3.06854C14.245 3.06118 14.2748 3.06308 14.3018 3.07394C15.6815 3.65146 16.887 4.57838 17.7996 5.76342C18.7121 6.94845 19.3003 8.35074 19.5061 9.83219C19.5087 9.85147 19.507 9.87107 19.5013 9.88966C19.4956 9.90825 19.486 9.92541 19.4732 9.93997C19.4603 9.95453 19.4444 9.96616 19.4266 9.97407C19.4089 9.98198 19.3896 9.98598 19.3702 9.98582ZM11.2415 18.8337C10.5821 18.8337 9.08938 16.5633 8.91808 12.157C8.91808 12.1209 8.9324 12.0864 8.9579 12.0609C8.98339 12.0354 9.01797 12.021 9.05403 12.021H13.429C13.4651 12.021 13.4997 12.0354 13.5251 12.0609C13.5506 12.0864 13.565 12.1209 13.565 12.157C13.3937 16.5633 11.9009 18.8337 11.2415 18.8337ZM9.08802 9.98582C9.06921 9.98588 9.0506 9.98204 9.03335 9.97453C9.0161 9.96703 9.0006 9.95603 8.98782 9.94223C8.97505 9.92843 8.96527 9.91213 8.95912 9.89436C8.95296 9.87659 8.95056 9.85774 8.95206 9.83899C9.23485 5.84604 10.6148 3.80673 11.2415 3.80673C11.8683 3.80673 13.2482 5.84604 13.531 9.83899C13.5325 9.85774 13.5301 9.87659 13.5239 9.89436C13.5178 9.91213 13.508 9.92843 13.4952 9.94223C13.4824 9.95603 13.4669 9.96703 13.4497 9.97453C13.4324 9.98204 13.4138 9.98588 13.395 9.98582H9.08802ZM8.48982 3.05219C7.36956 4.63605 6.71155 7.18246 6.53617 9.85938C6.53376 9.89377 6.51837 9.92595 6.49313 9.94942C6.4679 9.97289 6.43468 9.9859 6.40022 9.98582H2.63022C2.61078 9.98598 2.59153 9.98198 2.57377 9.97407C2.556 9.96616 2.54014 9.95453 2.52726 9.93997C2.51437 9.92541 2.50476 9.90825 2.49907 9.88966C2.49338 9.87107 2.49174 9.85147 2.49427 9.83219C2.71672 8.2361 3.38251 6.73444 4.41595 5.49792C5.44939 4.2614 6.80902 3.33963 8.34027 2.83738C8.36744 2.82925 8.39647 2.82981 8.4233 2.839C8.45013 2.84818 8.47341 2.86553 8.4899 2.8886C8.50638 2.91168 8.51523 2.93933 8.51522 2.96769C8.51521 2.99605 8.50633 3.02369 8.48982 3.04675V3.05219ZM2.63022 12.0251H6.36895C6.405 12.0251 6.43958 12.0394 6.46508 12.0649C6.49058 12.0904 6.5049 12.125 6.5049 12.1611C6.58375 14.3363 6.97122 16.3675 7.617 17.9554C7.72168 18.211 7.85356 18.4992 8.01398 18.8065C8.02753 18.8311 8.03314 18.8592 8.03003 18.8871C8.02693 18.915 8.01527 18.9413 7.99665 18.9623C7.97803 18.9833 7.95336 18.998 7.92604 19.0044C7.89871 19.0109 7.87007 19.0087 7.84404 18.9982C6.42762 18.4354 5.18601 17.5066 4.24609 16.3068C3.30617 15.107 2.70164 13.6792 2.49427 12.1692C2.49153 12.1499 2.49301 12.1301 2.4986 12.1113C2.50419 12.0926 2.51377 12.0753 2.52668 12.0605C2.53959 12.0458 2.55552 12.0341 2.57339 12.0261C2.59126 12.0181 2.61065 12.0141 2.63022 12.0142V12.0251ZM14.6132 18.5305C15.4289 16.8284 15.8925 14.5172 15.9795 12.1556C15.9795 12.1196 15.9938 12.085 16.0193 12.0595C16.0448 12.034 16.0794 12.0197 16.1155 12.0197H19.3715C19.3911 12.0195 19.4105 12.0235 19.4284 12.0315C19.4462 12.0395 19.4622 12.0513 19.4751 12.066C19.488 12.0807 19.4976 12.098 19.5032 12.1168C19.5088 12.1355 19.5102 12.1553 19.5075 12.1747C19.314 13.5639 18.7837 14.8848 17.9629 16.0222C17.142 17.1596 16.0556 18.079 14.7981 18.7004C14.7726 18.7138 14.7436 18.7187 14.7152 18.7145C14.6868 18.7104 14.6604 18.6973 14.6399 18.6772C14.6194 18.6571 14.6057 18.6311 14.6009 18.6028C14.5961 18.5745 14.6004 18.5453 14.6132 18.5196V18.5305Z" fill="#4D75F4"/>
</g>
<defs>
<clipPath id="clip0">
<rect width="22" height="22" fill="white"/>
</clipPath>
</defs>
</svg>
