<svg height="130" xmlns="http://www.w3.org/2000/svg" viewBox="0 0 63.86 77.46">
    <defs>
        <style>
            @keyframes show-logo {
                0% {
                    transform: rotate(0);
                }

                100% {
                    transform: rotate(360deg);
                }
            }
            .cls-4{
                transform-origin: 50% 40%;
                animation: show-logo 1000ms ease-in-out infinite;
                transition: 300ms;
            }

        </style>
    </defs>
    <g id="Layer_2" data-name="Layer 2">
        <g id="Layer_1-2" data-name="Layer 1">
            <path class="cls-1" fill="#4d75f4" d="M63.86,55.39a4.78,4.78,0,0,0-9.08-2.08h0a25.19,25.19,0,0,1-45.69,0h0A4.77,4.77,0,0,0,.46,57.44h0a1.3,1.3,0,0,1,.08.17.16.16,0,0,1,0,.07,34.74,34.74,0,0,0,62.82-.25h0A4.8,4.8,0,0,0,63.86,55.39Z"/>
            <path class="cls-2" fill="#3fa8ef" d="M31.93,61.18A18.49,18.49,0,0,0,50.42,42.69h-37A18.49,18.49,0,0,0,31.93,61.18Z"/>
            <path class="cls-3" fill="#42e56d" d="M31.93,0A18.49,18.49,0,0,0,13.44,18.49h37A18.49,18.49,0,0,0,31.93,0Z"/>
            <path class="cls-4" fill="#2ae0ed" d="M31.93,39.84H50.42A18.49,18.49,0,0,0,31.93,21.35H13.44A18.49,18.49,0,0,0,31.93,39.84Z"/>
        </g>
    </g>
</svg>