<svg width="131" height="118" viewBox="0 0 131 118" fill="none" xmlns="http://www.w3.org/2000/svg">
<circle cx="72" cy="59" r="59" fill="#F0FDF6"/>
<path d="M8.79951 47.3785C8.86302 47.1935 8.94212 47.0141 9.03598 46.8424C11.5712 42.1718 14.8507 38.5928 18.7271 36.2209C22.2929 34.0376 26.4147 32.921 30.6007 33.0044C35.0993 33.1273 39.4721 34.508 43.2186 36.9884C47.0307 39.4647 50.0992 42.92 52.0996 46.9889C52.4442 47.8192 52.4577 48.7489 52.1372 49.5887C51.8167 50.4284 51.1864 51.115 50.3748 51.5084C49.5631 51.9018 48.6312 51.9725 47.769 51.7061C46.9068 51.4396 46.1792 50.856 45.7344 50.0743C42.8659 44.2121 36.7255 40.1856 30.4496 40.0468C24.2743 39.9156 18.8783 43.5178 15.2616 50.1862C14.8272 50.9393 14.129 51.5066 13.3006 51.7797C12.4722 52.0527 11.5716 52.0123 10.7712 51.6662C9.97086 51.3201 9.32683 50.6925 8.96234 49.9036C8.59786 49.1147 8.5385 48.2198 8.79564 47.39L8.79951 47.3785Z" fill="#4D75F4"/>
<path fill-rule="evenodd" clip-rule="evenodd" d="M11.234 56.627H49.766C55.9704 56.627 61 61.631 61 67.8038V84.8275C61 91.0003 55.9704 96.0044 49.766 96.0044H11.234C5.02963 96.0044 0 91.0003 0 84.8275V67.8038C0 61.631 5.02963 56.627 11.234 56.627ZM30.5 65.563H30.5039C33.9572 65.563 36.7566 68.3483 36.7566 71.784V80.8512C36.7566 84.2869 33.9572 87.0721 30.5039 87.0721H30.5C27.0467 87.0721 24.2473 84.2869 24.2473 80.8512V71.784C24.2473 68.3483 27.0467 65.563 30.5 65.563Z" fill="#4D75F4"/>
<path fill-rule="evenodd" clip-rule="evenodd" d="M53.2711 95.8523C52.403 95.832 51.5409 95.4906 50.8784 94.8281L40.0251 83.9749C38.6583 82.608 38.6583 80.3919 40.0251 79.0251C41.392 77.6583 43.608 77.6583 44.9749 79.0251L53.3778 87.428L68.7807 72.0251C70.1476 70.6583 72.3636 70.6583 73.7305 72.0251C75.0973 73.392 75.0973 75.608 73.7305 76.9749L55.8758 94.8296C55.1594 95.546 54.2096 95.8869 53.2711 95.8523Z" fill="#42E56D"/>
</svg>
