<svg width="435" height="276" viewBox="0 0 435 276" fill="none" xmlns="http://www.w3.org/2000/svg">
<path d="M217.5 275.813C337.622 275.813 435 256.975 435 233.737C435 210.499 337.622 191.66 217.5 191.66C97.3781 191.66 0 210.499 0 233.737C0 256.975 97.3781 275.813 217.5 275.813Z" fill="#FCFCFC"/>
<path d="M217.5 249.628C306.511 249.628 378.669 239.97 378.669 228.056C378.669 216.142 306.511 206.484 217.5 206.484C128.489 206.484 56.3315 216.142 56.3315 228.056C56.3315 239.97 128.489 249.628 217.5 249.628Z" fill="#F7F7F7"/>
<path d="M266.211 134.08C266.251 133.974 266.298 133.869 266.35 133.768C267.669 131.232 269.655 129.086 272.103 127.552C274.22 126.275 276.669 125.62 279.156 125.666C281.828 125.735 284.427 126.538 286.656 127.984C288.922 129.428 290.747 131.444 291.938 133.819C292.183 134.309 292.219 134.875 292.038 135.391C291.856 135.907 291.473 136.332 290.972 136.571C290.471 136.811 289.893 136.846 289.365 136.669C288.838 136.491 288.404 136.116 288.159 135.626C287.319 133.943 286.031 132.513 284.432 131.484C282.833 130.456 280.98 129.867 279.069 129.779C275.4 129.711 272.196 131.819 270.054 135.722C269.808 136.185 269.392 136.539 268.89 136.712C268.388 136.886 267.837 136.867 267.349 136.658C266.86 136.45 266.471 136.067 266.26 135.589C266.049 135.11 266.031 134.571 266.211 134.08Z" fill="#FFDCE4"/>
<path d="M210.527 233.816C262.499 233.816 304.631 230.611 304.631 226.658C304.631 222.704 262.499 219.499 210.527 219.499C158.555 219.499 116.423 222.704 116.423 226.658C116.423 230.611 158.555 233.816 210.527 233.816Z" fill="#EFEFEF"/>
<path d="M262.709 13.9022C262.669 14.0099 262.621 14.1144 262.564 14.2147C261.234 16.7757 259.23 18.943 256.759 20.4926C254.615 21.7898 252.133 22.4528 249.613 22.4015C246.924 22.3256 244.31 21.5148 242.067 20.0608C239.779 18.6026 237.936 16.5671 236.732 14.1692C236.515 13.6783 236.499 13.1244 236.689 12.6226C236.878 12.1208 237.258 11.7098 237.749 11.475C238.24 11.2402 238.805 11.1996 239.326 11.3617C239.847 11.5238 240.283 11.8762 240.546 12.3455C241.397 14.043 242.698 15.4858 244.314 16.5232C245.929 17.5605 247.799 18.1544 249.729 18.2427C253.433 18.3166 256.695 16.1861 258.837 12.2489C259.083 11.7786 259.502 11.4177 260.01 11.2396C260.518 11.0616 261.076 11.0798 261.57 11.2907C262.065 11.5016 262.459 11.8892 262.672 12.3745C262.884 12.8597 262.9 13.4061 262.715 13.9022H262.709Z" fill="#E1EAFF"/>
<path d="M210.528 151.976C230.001 151.976 245.787 136.526 245.787 117.468C245.787 98.409 230.001 82.959 210.528 82.959C191.055 82.959 175.269 98.409 175.269 117.468C175.269 136.526 191.055 151.976 210.528 151.976Z" fill="#42E56D"/>
<path d="M133.227 210.506C133.459 209.859 133.74 209.23 134.069 208.625C143.107 192.263 154.723 179.73 168.597 171.418C181.295 163.771 195.974 159.862 210.88 160.158C226.554 160.482 242.094 165.311 255.822 174.117C269.394 182.788 280.32 194.885 287.448 209.131C288.607 212.025 288.61 215.24 287.456 218.136C286.302 221.032 284.075 223.396 281.22 224.758C278.365 226.119 275.09 226.378 272.049 225.483C269.007 224.587 266.422 222.603 264.808 219.926C254.592 199.393 232.713 185.269 210.364 184.826C188.369 184.377 169.148 196.99 156.267 220.363C154.725 223.019 152.233 225.022 149.271 225.986C146.309 226.95 143.088 226.806 140.228 225.583C137.368 224.36 135.071 222.144 133.782 219.362C132.493 216.58 132.301 213.429 133.245 210.517L133.227 210.506Z" fill="#4D75F4"/>
<path d="M354.462 60.8472C354.461 69.104 351.109 77.0221 345.143 82.8605C339.178 88.6989 331.088 91.9796 322.651 91.9811H279.915C271.479 91.9796 263.388 88.6989 257.423 82.8605C251.458 77.0221 248.106 69.104 248.104 60.8472C248.104 52.59 251.456 44.671 257.421 38.8323C263.387 32.9935 271.478 29.7134 279.915 29.7134H322.651C326.829 29.7134 330.965 30.5187 334.825 32.0833C338.684 33.6479 342.191 35.9412 345.145 38.8323C348.099 41.7233 350.442 45.1555 352.041 48.9328C353.64 52.7102 354.462 56.7587 354.462 60.8472Z" fill="#DCFFE4"/>
<path d="M253.513 94.7256C253.244 94.8522 252.943 94.8984 252.647 94.8584C252.351 94.8184 252.073 94.6939 251.849 94.5006C251.625 94.3073 251.464 94.0537 251.386 93.7714C251.309 93.4891 251.318 93.1906 251.412 92.9133L253.235 86.0275L255.058 79.1473C255.4 77.8406 257.002 77.2157 257.96 78.0111L262.888 82.2664L267.817 86.5217C268.751 87.3285 268.316 88.959 267.039 89.459L260.288 92.0838L253.513 94.7256Z" fill="#DCFFE4"/>
<path d="M162.747 120.722C162.983 120.9 163.16 121.142 163.258 121.418C163.355 121.694 163.368 121.991 163.294 122.274C163.221 122.557 163.064 122.812 162.844 123.009C162.624 123.206 162.35 123.335 162.056 123.381L154.991 124.927L147.898 126.478C146.557 126.767 145.256 125.66 145.576 124.478L147.201 118.228L148.826 111.979C149.134 110.797 150.812 110.433 151.851 111.32L157.319 116.007L162.747 120.722Z" fill="#D2F8F9"/>
<path d="M326.976 57.467C329.194 57.467 330.993 55.7068 330.993 53.5355C330.993 51.3642 329.194 49.604 326.976 49.604H275.364C273.145 49.604 271.347 51.3642 271.347 53.5355C271.347 55.7068 273.145 57.467 275.364 57.467H326.976Z" fill="#42E56D"/>
<path d="M308.94 72.0849C311.158 72.0849 312.957 70.3247 312.957 68.1534C312.957 65.9821 311.158 64.2219 308.94 64.2219H275.352C273.133 64.2219 271.335 65.9821 271.335 68.1534C271.335 70.3247 273.133 72.0849 275.352 72.0849H308.94Z" fill="#42E56D"/>
<path d="M118.44 146.573C137.445 146.573 152.852 131.495 152.852 112.894C152.852 94.2937 137.445 79.2151 118.44 79.2151C99.435 79.2151 84.0283 94.2937 84.0283 112.894C84.0283 131.495 99.435 146.573 118.44 146.573Z" fill="#D2F8F9"/>
<path d="M132.848 110.15C135.066 110.15 136.865 108.39 136.865 106.218C136.865 104.047 135.066 102.287 132.848 102.287H103.898C101.68 102.287 99.8814 104.047 99.8814 106.218C99.8814 108.39 101.68 110.15 103.898 110.15H132.848Z" fill="#2AE0ED"/>
<path d="M121.672 124.768C123.891 124.768 125.689 123.008 125.689 120.837C125.689 118.665 123.891 116.905 121.672 116.905H103.903C101.685 116.905 99.8864 118.665 99.8864 120.837C99.8864 123.008 101.685 124.768 103.903 124.768H121.672Z" fill="#2AE0ED"/>
<path d="M227.298 63.3193C228.693 63.3193 229.823 62.2128 229.823 60.8479C229.823 59.4829 228.693 58.3765 227.298 58.3765C225.904 58.3765 224.773 59.4829 224.773 60.8479C224.773 62.2128 225.904 63.3193 227.298 63.3193Z" fill="#D2F8F9"/>
<path d="M184.79 0H88.6597C70.5395 0 55.8501 14.3766 55.8501 32.1111C55.8501 49.8455 70.5395 64.2221 88.6597 64.2221H184.79C202.91 64.2221 217.599 49.8455 217.599 32.1111C217.599 14.3766 202.91 0 184.79 0Z" fill="#FFF8E1"/>
<path d="M204.572 70.4945C204.938 70.759 205.376 70.9122 205.831 70.9351C206.286 70.9579 206.738 70.8493 207.13 70.6229C207.522 70.3964 207.838 70.0621 208.037 69.6614C208.237 69.2608 208.312 68.8116 208.252 68.3697L207.55 57.5751L206.847 46.7805C206.714 44.7295 204.526 43.3717 202.865 44.2921L194.245 49.2689L185.619 54.2458C183.982 55.1889 184.15 57.7512 185.921 58.8591L195.243 64.6938L204.572 70.4945Z" fill="#FFF8E1"/>
<path d="M184.468 28.1508C186.687 28.1508 188.485 26.3907 188.485 24.2193C188.485 22.048 186.687 20.2878 184.468 20.2878L88.0423 20.2878C85.8237 20.2878 84.0252 22.048 84.0252 24.2193C84.0252 26.3907 85.8237 28.1508 88.0423 28.1508L184.468 28.1508Z" fill="#FBDA5E"/>
<path d="M165.586 42.7749C167.804 42.7749 169.603 41.0147 169.603 38.8434C169.603 36.6721 167.804 34.9119 165.586 34.9119L88.0429 34.9119C85.8244 34.9119 84.0259 36.6721 84.0259 38.8434C84.0259 41.0147 85.8244 42.7749 88.0429 42.7749L165.586 42.7749Z" fill="#FBDA5E"/>
</svg>
