<svg width="20" height="24" viewBox="0 0 20 24" fill="none" xmlns="http://www.w3.org/2000/svg">
<path d="M14.8451 5.38763C14.8451 2.86139 12.7556 0.813477 10.178 0.813477C7.60046 0.813477 5.51093 2.86139 5.51093 5.38763V11.532C5.51093 14.0582 7.60046 16.1062 10.178 16.1062C12.7556 16.1062 14.8451 14.0582 14.8451 11.532V5.38763Z" fill="#162359"/>
<path d="M19.6002 15.0987C19.5728 15.1772 19.5386 15.2534 19.4981 15.3262C18.4016 17.3229 16.9904 18.8509 15.3023 19.8681C13.7583 20.8017 11.9726 21.2798 10.1587 21.2454C8.2515 21.209 6.35912 20.6232 4.68592 19.5522C3.03313 18.4981 1.70145 17.0261 0.831497 15.2916C0.65291 14.9334 0.626826 14.5204 0.758985 14.1433C0.891144 13.7662 1.17072 13.4561 1.53621 13.281C1.90169 13.106 2.32316 13.0805 2.70788 13.21C3.09259 13.3395 3.40906 13.6135 3.58764 13.9717C4.83546 16.4727 7.50105 18.1877 10.2205 18.2401C12.8977 18.2915 15.2359 16.7508 16.7986 13.9021C16.9776 13.5643 17.2807 13.3058 17.6467 13.1787C18.0128 13.0515 18.4144 13.0654 18.7704 13.2173C19.1265 13.3693 19.4104 13.648 19.5647 13.9973C19.7191 14.3465 19.7325 14.7402 19.6021 15.0987H19.6002Z" fill="#162359"/>
<path d="M11.7568 20.7033C11.7568 19.8486 11.0499 19.1558 10.1779 19.1558C9.30584 19.1558 8.59894 19.8486 8.59894 20.7033V22.2053C8.59894 23.06 9.30584 23.7528 10.1779 23.7528C11.0499 23.7528 11.7568 23.06 11.7568 22.2053V20.7033Z" fill="#162359"/>
</svg>
