<svg width="24" height="23" viewBox="0 0 24 23" fill="none" xmlns="http://www.w3.org/2000/svg">
<path d="M0.792799 20.3476C0.826795 20.253 0.868725 20.1613 0.918159 20.0734C2.24003 17.6677 3.94022 15.8259 5.97508 14.6006C7.83481 13.4752 9.9856 12.8979 12.1709 12.9376C14.4693 12.982 16.7499 13.6874 18.7657 14.9785C20.7577 16.2487 22.3625 18.0226 23.4107 20.1129C23.6259 20.5446 23.6574 21.0423 23.4981 21.4967C23.3388 21.9511 23.0019 22.3249 22.5615 22.5358C22.121 22.7468 21.6131 22.7776 21.1495 22.6215C20.6858 22.4654 20.3045 22.1352 20.0893 21.7035C18.5883 18.6907 15.3759 16.6234 12.0987 16.5631C8.87235 16.5011 6.05455 18.3577 4.1708 21.7907C3.95488 22.1975 3.58946 22.5089 3.14835 22.6618C2.70725 22.8148 2.22335 22.7979 1.79442 22.6147C1.3655 22.4315 1.02353 22.0955 0.837606 21.6747C0.651683 21.2539 0.635669 20.7796 0.792799 20.3476Z" fill="#4D75F4"/>
<path d="M12.168 11.9208C15.2641 11.9208 17.774 9.46089 17.774 6.42646C17.774 3.39202 15.2641 0.932129 12.168 0.932129C9.07194 0.932129 6.56207 3.39202 6.56207 6.42646C6.56207 9.46089 9.07194 11.9208 12.168 11.9208Z" fill="#4D75F4"/>
</svg>
