<svg width="19" height="18" viewBox="0 0 19 18" fill="none" xmlns="http://www.w3.org/2000/svg">
<g clip-path="url(#clip0)">
<path d="M16.4494 2.25H15.669V0.749954C15.669 0.336044 15.3193 0 14.8885 0H14.1081C13.6773 0 13.3277 0.336044 13.3277 0.749954V2.25H5.52344V0.749954C5.52344 0.336044 5.1739 0 4.74306 0H3.96269C3.53185 0 3.18218 0.336044 3.18218 0.749954V2.25H2.40181C1.111 2.25 0.0605469 3.25951 0.0605469 4.5V15.75C0.0605469 16.9905 1.111 18 2.40181 18H16.4494C17.7402 18 18.7906 16.9905 18.7906 15.75V4.5C18.7906 3.25951 17.7402 2.25 16.4494 2.25ZM17.2297 15.75C17.2297 16.1632 16.8793 16.5 16.4494 16.5H2.40181C1.97182 16.5 1.62143 16.1632 1.62143 15.75V7.53003H17.2297V15.75Z" fill="#767E9F"/>
</g>
<defs>
<clipPath id="clip0">
<rect width="18.7301" height="18" fill="white" transform="translate(0.0605469)"/>
</clipPath>
</defs>
</svg>
