<svg width="8" height="7" viewBox="0 0 8 7" fill="none" xmlns="http://www.w3.org/2000/svg">
<path fill-rule="evenodd" clip-rule="evenodd" d="M0.205158 0.205158C0.478701 -0.0683862 0.922204 -0.0683858 1.19575 0.205158L3.50075 2.51016L5.80574 0.205158C6.07929 -0.0683858 6.52279 -0.0683862 6.79633 0.205158C7.06988 0.478702 7.06988 0.922204 6.79633 1.19575L4.49133 3.50075L6.79484 5.80425C7.06838 6.0778 7.06838 6.5213 6.79484 6.79484C6.5213 7.06839 6.07779 7.06839 5.80425 6.79484L3.50075 4.49134L1.19724 6.79484C0.923697 7.06839 0.480194 7.06839 0.206651 6.79484C-0.066893 6.5213 -0.0668929 6.0778 0.206651 5.80425L2.51016 3.50075L0.205158 1.19575C-0.0683859 0.922204 -0.068386 0.478702 0.205158 0.205158Z" fill="#4D75F4"/>
</svg>
