<svg width="446" height="248" viewBox="0 0 446 248" fill="none" xmlns="http://www.w3.org/2000/svg">
<path d="M565.499 62.1136C564.666 64.5089 563.638 66.8322 562.425 69.0603C529.411 129.631 487.015 175.938 436.438 206.658C389.913 234.926 336.706 249.19 282.562 247.922C225.579 246.571 169.097 228.521 119.256 195.733C69.6766 163.123 30.0246 118.145 4.57659 65.6608C-0.719338 54.7405 -1.44983 42.1688 2.54582 30.7112C6.54147 19.2536 14.9359 9.84875 25.8826 4.56557C36.8292 -0.717603 49.4313 -1.44634 60.9165 2.53969C72.4017 6.52572 81.8292 14.9 87.1252 25.8203C124.075 102.041 203.501 154.533 284.763 156.475C364.754 158.368 434.76 111.804 481.888 25.366C487.382 15.2889 496.472 7.6396 507.354 3.93506C518.237 0.230514 530.118 0.741313 540.641 5.36615C551.163 9.99098 559.56 18.3921 564.164 28.9033C568.769 39.4146 569.245 51.2682 565.499 62.1136Z" fill="#4567FA"/>
</svg>
