<svg width="17" height="17" viewBox="0 0 17 17" fill="none" xmlns="http://www.w3.org/2000/svg">
<path d="M8.5 0C6.81886 0 5.17547 0.498516 3.77766 1.43251C2.37984 2.3665 1.29037 3.69402 0.647028 5.24719C0.00368291 6.80036 -0.164645 8.50943 0.163329 10.1583C0.491303 11.8071 1.30085 13.3217 2.4896 14.5104C3.67834 15.6991 5.1929 16.5087 6.84174 16.8367C8.49057 17.1646 10.1996 16.9963 11.7528 16.353C13.306 15.7096 14.6335 14.6202 15.5675 13.2223C16.5015 11.8245 17 10.1811 17 8.5C17 7.38376 16.7801 6.27846 16.353 5.24719C15.9258 4.21592 15.2997 3.27889 14.5104 2.48959C13.7211 1.70029 12.7841 1.07419 11.7528 0.647024C10.7215 0.219859 9.61624 0 8.5 0ZM11.05 9.35H5.95C5.72457 9.35 5.50837 9.26044 5.34896 9.10104C5.18956 8.94163 5.1 8.72543 5.1 8.5C5.1 8.27456 5.18956 8.05836 5.34896 7.89896C5.50837 7.73955 5.72457 7.65 5.95 7.65H11.05C11.2754 7.65 11.4916 7.73955 11.651 7.89896C11.8104 8.05836 11.9 8.27456 11.9 8.5C11.9 8.72543 11.8104 8.94163 11.651 9.10104C11.4916 9.26044 11.2754 9.35 11.05 9.35Z" fill="#4D75F4"/>
</svg>
