<svg width="14" height="12" viewBox="0 0 14 12" fill="none" xmlns="http://www.w3.org/2000/svg">
<path d="M0.875 6.85653H11.2525L8.07625 10.5933C8.00271 10.68 7.94732 10.78 7.91323 10.8876C7.87915 10.9953 7.86704 11.1084 7.87761 11.2206C7.89894 11.4473 8.01131 11.6563 8.19 11.8018C8.36869 11.9473 8.59906 12.0173 8.83043 11.9964C9.06181 11.9755 9.27523 11.8654 9.42375 11.6904L13.7987 6.54799C13.8282 6.50708 13.8545 6.46411 13.8775 6.41943C13.8775 6.37657 13.9213 6.35086 13.9388 6.30801C13.9784 6.20974 13.9992 6.10513 14 5.99946C13.9992 5.8938 13.9784 5.78919 13.9388 5.69092C13.9388 5.64807 13.895 5.62236 13.8775 5.5795C13.8545 5.53481 13.8282 5.49184 13.7987 5.45094L9.42375 0.308546C9.34148 0.211798 9.23846 0.133993 9.12201 0.0806654C9.00556 0.0273379 8.87855 -0.000202843 8.75 1.6373e-06C8.54555 -0.000389625 8.34742 0.0693545 8.19 0.197127C8.1014 0.269077 8.02816 0.357441 7.97448 0.457158C7.92079 0.556875 7.88772 0.665986 7.87716 0.778242C7.86659 0.890498 7.87874 1.00369 7.9129 1.11134C7.94706 1.21899 8.00257 1.31898 8.07625 1.40559L11.2525 5.1424H0.875C0.642936 5.1424 0.420376 5.2327 0.256282 5.39343C0.0921874 5.55416 0 5.77216 0 5.99946C0 6.22677 0.0921874 6.44477 0.256282 6.6055C0.420376 6.76623 0.642936 6.85653 0.875 6.85653Z" fill="#4D75F4"/>
</svg>
