<svg width="22" height="24" viewBox="0 0 22 24" fill="none" xmlns="http://www.w3.org/2000/svg">
<path d="M20 0.97998H2C0.895 0.97998 0 1.89705 0 3.0293V21.4731C0 22.6054 0.895 23.5225 2 23.5225H20C21.105 23.5225 22 22.6054 22 21.4731V3.0293C22 1.89705 21.105 0.97998 20 0.97998ZM6.954 19.4238H4.004V9.69777H6.954V19.4238ZM5.449 8.30731C4.498 8.30731 3.729 7.5173 3.729 6.5449C3.729 5.5725 4.499 4.78351 5.449 4.78351C6.397 4.78351 7.168 5.57352 7.168 6.5449C7.168 7.5173 6.397 8.30731 5.449 8.30731ZM18.004 19.4238H15.056V14.694C15.056 13.5659 15.036 12.1149 13.523 12.1149C11.988 12.1149 11.752 13.3435 11.752 14.612V19.4238H8.804V9.69777H11.634V11.0268H11.674C12.068 10.2624 13.03 9.45595 14.465 9.45595C17.452 9.45595 18.004 11.4704 18.004 14.0895V19.4238Z" fill="#4D75F4"/>
</svg>
