<svg width="22" height="37" viewBox="0 0 22 37" fill="none" xmlns="http://www.w3.org/2000/svg">
<path d="M16.3014 7.45441C18.3283 7.45441 19.9714 5.78601 19.9714 3.72794C19.9714 1.66986 18.3283 0.00146484 16.3014 0.00146484C14.2746 0.00146484 12.6315 1.66986 12.6315 3.72794C12.6315 5.78601 14.2746 7.45441 16.3014 7.45441Z" fill="#4D75F4"/>
<path d="M7.7719 25.3505C7.67196 25.3154 7.57494 25.2722 7.48177 25.2214C4.95562 23.8356 3.02088 22.0535 1.73793 19.9251C0.558037 17.9774 -0.0451541 15.7261 0.000318726 13.4399C0.0503964 11.0363 0.795203 8.65204 2.15445 6.54545C3.49303 4.46371 5.36054 2.78775 7.55966 1.69466C8.00877 1.50465 8.5124 1.49606 8.96754 1.67063C9.42268 1.8452 9.79493 2.18975 10.0082 2.6338C10.2214 3.07784 10.2595 3.58784 10.1146 4.05945C9.96977 4.53107 9.65293 4.92867 9.22892 5.17093C6.05972 6.73836 3.88253 10.0944 3.81179 13.5222C3.74184 16.896 5.68851 19.8428 9.29648 21.8202C9.70725 22.0563 10.0173 22.4386 10.1666 22.8932C10.3159 23.3479 10.2939 23.8426 10.1049 24.2817C9.91588 24.7209 9.57325 25.0733 9.14322 25.2709C8.71319 25.4684 8.22631 25.4971 7.77667 25.3513L7.7719 25.3505Z" fill="#4D75F4"/>
<path d="M5.6997 36.9981C7.72658 36.9981 9.36968 35.3297 9.36968 33.2716C9.36968 31.2136 7.72658 29.5452 5.6997 29.5452C3.67283 29.5452 2.02972 31.2136 2.02972 33.2716C2.02972 35.3297 3.67283 36.9981 5.6997 36.9981Z" fill="#42E56D"/>
<path d="M12.9899 35.396C12.6333 35.2719 12.3211 35.0432 12.0927 34.7388C11.8643 34.4344 11.73 34.068 11.7069 33.6861C11.6837 33.3041 11.7727 32.9238 11.9626 32.5932C12.1526 32.2627 12.4348 31.9968 12.7737 31.8293C15.9429 30.2619 18.12 26.9059 18.1908 23.478C18.2607 20.1043 16.3141 17.1567 12.7061 15.1792C12.4696 15.0682 12.2581 14.9092 12.0844 14.712C11.9108 14.5148 11.7788 14.2835 11.6966 14.0325C11.6143 13.7815 11.5836 13.5161 11.6062 13.2526C11.6289 12.989 11.7044 12.733 11.8283 12.5003C11.9521 12.2676 12.1215 12.063 12.3262 11.8993C12.5308 11.7356 12.7663 11.6162 13.0181 11.5485C13.27 11.4807 13.5328 11.4661 13.7904 11.5054C14.048 11.5448 14.295 11.6373 14.516 11.7772C17.043 13.163 18.9753 14.9452 20.2607 17.0743C21.4399 19.0222 22.0421 21.2736 21.9951 23.5595C21.9458 25.9631 21.2002 28.3466 19.841 30.4532C18.5026 32.5355 16.6351 34.212 14.4358 35.3056C13.9845 35.5284 13.4647 35.5609 12.9899 35.396Z" fill="#42E56D"/>
</svg>
