<svg width="17" height="18" viewBox="0 0 17 18" fill="none" xmlns="http://www.w3.org/2000/svg">
<path d="M16.8122 8.42348V8.42167C16.8122 7.28438 15.7589 6.36243 14.4595 6.36243L2.68371 6.36243C1.38436 6.36243 0.331032 7.28438 0.331032 8.42167V8.42348C0.331032 9.56077 1.38436 10.4827 2.68371 10.4827H14.4595C15.7589 10.4827 16.8122 9.56077 16.8122 8.42348Z" fill="#42E56D"/>
<path d="M8.56993 17.6934H8.57174C9.70903 17.6934 10.631 16.5742 10.631 15.1936L10.631 2.68185C10.631 1.30129 9.70903 0.182123 8.57174 0.182123H8.56993C7.43264 0.182123 6.51069 1.30129 6.51069 2.68185L6.51069 15.1936C6.51069 16.5742 7.43264 17.6934 8.56993 17.6934Z" fill="#42E56D"/>
</svg>
