<svg width="14" height="14" viewBox="0 0 14 14" fill="none" xmlns="http://www.w3.org/2000/svg">
<path d="M13.4248 8.12085C13.2293 8.05987 13.0176 8.0787 12.8359 8.17325C12.6542 8.2678 12.5172 8.4304 12.4548 8.62559C12.0882 9.74726 11.3735 10.7226 10.4147 11.4098C9.45587 12.0969 8.30296 12.4599 7.1237 12.4461C5.66508 12.4627 4.25942 11.8998 3.21495 10.8808C2.17048 9.86183 1.57245 8.46996 1.552 7.01041C1.57245 5.55086 2.17048 4.15899 3.21495 3.14001C4.25942 2.12103 5.66508 1.55812 7.1237 1.57471C8.44102 1.57153 9.7178 2.03039 10.7321 2.87152L9.04818 2.59197C8.94726 2.57535 8.84405 2.57886 8.74449 2.6023C8.64493 2.62573 8.55098 2.66863 8.46805 2.72853C8.38511 2.78843 8.31483 2.86414 8.26124 2.95131C8.20765 3.03849 8.17181 3.1354 8.15578 3.23648C8.13917 3.33747 8.14268 3.44075 8.1661 3.54038C8.18952 3.64001 8.23239 3.73402 8.29225 3.81701C8.35211 3.9 8.42777 3.97033 8.51488 4.02396C8.602 4.07758 8.69885 4.11345 8.79986 4.12949L12.0901 4.67306H12.222C12.312 4.67296 12.4013 4.65719 12.4859 4.62647C12.5143 4.61567 12.5406 4.5999 12.5635 4.57988C12.6191 4.55917 12.6714 4.53039 12.7187 4.49446L12.7885 4.40904C12.7885 4.37021 12.8583 4.33915 12.8894 4.29256C12.9204 4.24597 12.8894 4.21491 12.9282 4.18385C12.9496 4.13862 12.9678 4.09191 12.9825 4.04407L13.5645 0.93796C13.5839 0.835985 13.583 0.731193 13.5619 0.629565C13.5408 0.527938 13.4998 0.431466 13.4415 0.345659C13.3831 0.259851 13.3084 0.186388 13.2217 0.129463C13.135 0.0725385 13.0379 0.0332674 12.9359 0.0138921C12.834 -0.00548319 12.7293 -0.00458328 12.6278 0.0165405C12.5262 0.0376643 12.4298 0.0785982 12.344 0.137005C12.1709 0.254963 12.0516 0.436932 12.0125 0.64288L11.803 1.76885C10.504 0.642291 8.84268 0.0219919 7.1237 0.0216574C5.25348 0.0050919 3.45308 0.731634 2.11756 2.04186C0.782034 3.35208 0.0204794 5.13897 0 7.01041C0.0204794 8.88186 0.782034 10.6687 2.11756 11.979C3.45308 13.2892 5.25348 14.0157 7.1237 13.9992C8.63934 14.0225 10.1224 13.5582 11.3546 12.6747C12.5867 11.7912 13.5028 10.5352 13.968 9.09151C13.9975 8.99209 14.0067 8.88778 13.9952 8.78473C13.9837 8.68167 13.9517 8.58197 13.9011 8.4915C13.8504 8.40103 13.7822 8.32162 13.7004 8.25796C13.6186 8.1943 13.5249 8.14768 13.4248 8.12085Z" fill="#4D75F4"/>
</svg>
