<svg width="11" height="12" viewBox="0 0 11 12" fill="none" xmlns="http://www.w3.org/2000/svg">
<path d="M10.7967 5.42953V5.42823C10.7967 4.61045 10.1067 3.94751 9.25546 3.94751L1.54123 3.94751C0.690034 3.94751 4.76837e-06 4.61045 4.76837e-06 5.42823V5.42953C4.76837e-06 6.2473 0.690034 6.91024 1.54123 6.91024H9.25546C10.1067 6.91024 10.7967 6.2473 10.7967 5.42953Z" fill="#8990AC"/>
<path d="M5.39704 11.1427H5.39837C6.2328 11.1427 6.90924 10.4394 6.90924 9.57173L6.90924 1.70861C6.90924 0.84099 6.2328 0.13764 5.39837 0.13764H5.39704C4.56261 0.13764 3.88617 0.84099 3.88617 1.70861L3.88617 9.57173C3.88617 10.4394 4.56261 11.1427 5.39704 11.1427Z" fill="#8990AC"/>
</svg>
