<svg width="50" height="50" viewBox="0 0 50 50" fill="none" xmlns="http://www.w3.org/2000/svg">
<circle cx="25" cy="25" r="25" fill="white"/>
<path d="M24.9864 13C26.2867 13 27.5338 13.5149 28.4533 14.4313C29.3728 15.3477 29.8893 16.5907 29.8893 17.8868V24.4469C29.8893 25.743 29.3728 26.9859 28.4533 27.9024C27.5338 28.8188 26.2867 29.3337 24.9864 29.3337C23.6861 29.3337 22.439 28.8188 21.5195 27.9024C20.6001 26.9859 20.0835 25.743 20.0835 24.4469V17.8841C20.0842 16.5885 20.6011 15.3462 21.5205 14.4304C22.4399 13.5145 23.6865 13 24.9864 13Z" fill="#4D75F4"/>
<path d="M34.8769 28.2518C34.8477 28.3355 34.8118 28.4168 34.7696 28.4948C33.6181 30.6265 32.1366 32.2576 30.3649 33.3433C28.7436 34.3405 26.8686 34.8517 24.9637 34.8159C22.9161 34.7619 20.9251 34.1349 19.2181 33.0065C17.4832 31.881 16.0855 30.3094 15.1725 28.4578C15.0765 28.2682 15.0193 28.0614 15.0041 27.8495C14.9889 27.6376 15.0161 27.4249 15.084 27.2235C15.152 27.0222 15.2594 26.8363 15.4 26.6767C15.5405 26.517 15.7115 26.3868 15.903 26.2935C16.0945 26.2002 16.3026 26.1457 16.5154 26.1333C16.7281 26.1208 16.9413 26.1505 17.1424 26.2208C17.3435 26.291 17.5287 26.4003 17.6871 26.5425C17.8455 26.6846 17.974 26.8566 18.0652 27.0486C19.3757 29.7191 22.1731 31.5497 25.0287 31.6052C27.8406 31.6606 30.2947 30.0203 31.9352 26.9746C32.1131 26.597 32.4316 26.3034 32.8231 26.1561C33.2147 26.0087 33.6484 26.0193 34.0323 26.1855C34.4161 26.3517 34.7199 26.6605 34.8791 27.0463C35.0383 27.4321 35.0404 27.8645 34.8849 28.2518H34.8769Z" fill="#4D75F4"/>
<path d="M24.9836 32.584C25.4231 32.584 25.8445 32.7579 26.1554 33.0675C26.4662 33.377 26.641 33.7969 26.6414 34.2349V35.8396C26.641 36.2777 26.4662 36.6978 26.1554 37.0076C25.8446 37.3173 25.4232 37.4915 24.9836 37.4919C24.544 37.4919 24.1223 37.3178 23.8115 37.008C23.5006 36.6981 23.3259 36.2778 23.3259 35.8396V34.2349C23.3263 33.7969 23.5011 33.377 23.8119 33.0675C24.1228 32.7579 24.5442 32.584 24.9836 32.584Z" fill="#4D75F4"/>
</svg>
