<svg width="50" height="50" viewBox="0 0 50 50" fill="none" xmlns="http://www.w3.org/2000/svg">
<circle cx="25" cy="25" r="25" fill="#F1FCF6"/>
<path d="M24.7371 25.8257C27.4224 25.8257 29.5992 23.6262 29.5992 20.9129C29.5992 18.1996 27.4224 16 24.7371 16C22.0518 16 19.875 18.1996 19.875 20.9129C19.875 23.6262 22.0518 25.8257 24.7371 25.8257Z" fill="#42E56D"/>
<path d="M14.0782 34.0354C14.1102 33.9432 14.1492 33.8537 14.1948 33.7675C15.4407 31.4382 17.0426 29.6534 18.9562 28.4702C20.7073 27.3815 22.7313 26.8248 24.7868 26.8664C26.9958 26.9284 29.1432 27.616 30.9844 28.8509C32.8558 30.0861 34.3625 31.8087 35.3457 33.837C35.5098 34.2496 35.5132 34.7097 35.3553 35.1248C35.1974 35.5398 34.8898 35.8791 34.4944 36.0744C34.099 36.2697 33.6451 36.3065 33.224 36.1774C32.8028 36.0484 32.4456 35.763 32.2242 35.3787C30.815 32.4565 27.7979 30.4484 24.7156 30.3827C21.6825 30.3182 19.0335 32.1191 17.2561 35.4419C17.0434 35.8201 16.6996 36.1053 16.2911 36.2425C15.8826 36.3797 15.4383 36.3591 15.0439 36.1848C14.6494 36.0105 14.3329 35.6948 14.1552 35.2986C13.9776 34.9024 13.9514 34.4537 14.0818 34.0391L14.0782 34.0354Z" fill="#42E56D"/>
</svg>
