<svg width="50" height="50" viewBox="0 0 50 50" fill="none" xmlns="http://www.w3.org/2000/svg">
<circle cx="25" cy="25" r="25" fill="#FFEFF2"/>
<g clip-path="url(#clip0)">
<path d="M28.9229 13H16.9727C16.1843 13 15.4282 13.313 14.8707 13.8701C14.3132 14.4271 14 15.1827 14 15.9705L14 33.7304C14 34.1002 14.0729 34.4664 14.2145 34.808C14.3561 35.1497 14.5637 35.4601 14.8254 35.7216C15.0871 35.9831 15.3978 36.1906 15.7397 36.3321C16.0816 36.4736 16.4481 36.5464 16.8181 36.5464H26.073C26.1443 36.5461 26.2139 36.5242 26.2725 36.4835C26.3311 36.4429 26.3761 36.3855 26.4015 36.3189C27.2002 34.2924 28.7427 32.647 30.7142 31.7183C30.7607 31.6969 30.8019 31.6656 30.8348 31.6265C30.8678 31.5874 30.8917 31.5415 30.9049 31.4921C30.9181 31.4427 30.9202 31.391 30.9111 31.3407C30.902 31.2904 30.8819 31.2428 30.8522 31.2011C30.2148 30.3001 29.9518 29.1873 30.1186 28.0965C30.2854 27.0057 30.8689 26.0221 31.7465 25.3524C31.7916 25.319 31.8283 25.2756 31.8537 25.2256C31.8791 25.1756 31.8925 25.1203 31.8928 25.0642V15.9705C31.8928 15.1832 31.58 14.428 31.0231 13.871C30.4662 13.314 29.7108 13.0007 28.9229 13V13ZM21.8665 31.2425C21.8665 31.4861 21.7697 31.7197 21.5973 31.892C21.4249 32.0642 21.1911 32.161 20.9474 32.161H18.7999C18.5562 32.161 18.3224 32.0642 18.15 31.892C17.9776 31.7197 17.8808 31.4861 17.8808 31.2425V29.098C17.8808 28.8544 17.9776 28.6208 18.15 28.4486C18.3224 28.2763 18.5562 28.1796 18.7999 28.1796H20.946C21.0668 28.1794 21.1865 28.203 21.2981 28.2491C21.4098 28.2952 21.5113 28.3628 21.5968 28.4481C21.6823 28.5334 21.7501 28.6347 21.7964 28.7462C21.8427 28.8577 21.8665 28.9773 21.8665 29.098V31.2425ZM21.8665 25.7717C21.8665 26.0153 21.7697 26.2489 21.5973 26.4211C21.4249 26.5934 21.1911 26.6901 20.9474 26.6901H18.7999C18.5562 26.6901 18.3224 26.5934 18.15 26.4211C17.9776 26.2489 17.8808 26.0153 17.8808 25.7717V23.6286C17.8808 23.3849 17.9776 23.1511 18.1499 22.9786C18.3223 22.8062 18.556 22.7091 18.7999 22.7087H20.946C21.1901 22.7087 21.4242 22.8056 21.5969 22.9782C21.7695 23.1507 21.8665 23.3846 21.8665 23.6286V25.7717ZM21.8665 20.3091C21.8665 20.5527 21.7697 20.7863 21.5973 20.9586C21.4249 21.1308 21.1911 21.2276 20.9474 21.2276H18.7999C18.5562 21.2276 18.3224 21.1308 18.15 20.9586C17.9776 20.7863 17.8808 20.5527 17.8808 20.3091V18.1578C17.8808 17.9142 17.9776 17.6806 18.15 17.5083C18.3224 17.3361 18.5562 17.2393 18.7999 17.2393H20.946C21.0668 17.2391 21.1865 17.2627 21.2981 17.3088C21.4098 17.3549 21.5113 17.4225 21.5968 17.5078C21.6823 17.5931 21.7501 17.6944 21.7964 17.806C21.8427 17.9175 21.8665 18.037 21.8665 18.1578V20.3091ZM27.8009 31.2425C27.8005 31.4862 27.7033 31.7198 27.5308 31.892C27.3582 32.0642 27.1242 32.161 26.8803 32.161H24.7412C24.4974 32.161 24.2637 32.0642 24.0913 31.892C23.9189 31.7197 23.8221 31.4861 23.8221 31.2425V29.098C23.8221 28.8544 23.9189 28.6208 24.0913 28.4486C24.2637 28.2763 24.4974 28.1796 24.7412 28.1796H26.8859C27.1298 28.1796 27.3637 28.2763 27.5363 28.4485C27.7089 28.6207 27.806 28.8543 27.8064 29.098L27.8009 31.2425ZM27.8009 25.7717C27.8005 26.0154 27.7033 26.249 27.5308 26.4212C27.3582 26.5934 27.1242 26.6901 26.8803 26.6901H24.7412C24.4974 26.6901 24.2637 26.5934 24.0913 26.4211C23.9189 26.2489 23.8221 26.0153 23.8221 25.7717V23.6286C23.8221 23.3849 23.9189 23.1511 24.0912 22.9786C24.2635 22.8062 24.4973 22.7091 24.7412 22.7087H26.8859C27.129 22.7102 27.3618 22.8077 27.5332 22.9801C27.7046 23.1524 27.8009 23.3856 27.8009 23.6286V25.7717ZM27.8009 20.3091C27.8005 20.5529 27.7033 20.7865 27.5308 20.9587C27.3582 21.1309 27.1242 21.2276 26.8803 21.2276H24.7412C24.4974 21.2276 24.2637 21.1308 24.0913 20.9586C23.9189 20.7863 23.8221 20.5527 23.8221 20.3091V18.1578C23.8221 17.9142 23.9189 17.6806 24.0913 17.5083C24.2637 17.3361 24.4974 17.2393 24.7412 17.2393H26.8859C27.1288 17.2408 27.3613 17.3381 27.5327 17.5102C27.7041 17.6822 27.8005 17.915 27.8009 18.1578V20.3091Z" fill="#F84B6B"/>
<path d="M34.4774 31.6907C36.1077 31.6907 37.4294 30.37 37.4294 28.7409C37.4294 27.1117 36.1077 25.791 34.4774 25.791C32.847 25.791 31.5254 27.1117 31.5254 28.7409C31.5254 30.37 32.847 31.6907 34.4774 31.6907Z" fill="#F84B6B"/>
<path d="M28.0048 36.6196C28.0243 36.5642 28.0478 36.5102 28.0752 36.4583C28.8329 35.0599 29.8045 33.9883 30.9734 33.2781C32.0363 32.6238 33.2651 32.2887 34.5133 32.3127C35.855 32.3494 37.1593 32.7629 38.2768 33.5056C39.4091 34.2492 40.3194 35.2845 40.9114 36.5024C41.0128 36.7506 41.016 37.028 40.9203 37.2785C40.8246 37.5289 40.6371 37.7336 40.396 37.8511C40.1549 37.9686 39.878 37.9901 39.6216 37.9113C39.3652 37.8324 39.1484 37.659 39.0152 37.4264C38.1595 35.6708 36.3267 34.4655 34.4609 34.4255C32.6185 34.3869 31.0107 35.4653 29.9314 37.4595C29.8062 37.6937 29.5972 37.8722 29.3462 37.9594C29.0951 38.0466 28.8204 38.0362 28.5768 37.9301C28.3331 37.824 28.1384 37.6301 28.0314 37.387C27.9244 37.1439 27.9129 36.8694 27.9993 36.6182L28.0048 36.6196Z" fill="#F84B6B"/>
</g>
<defs>
<clipPath id="clip0">
<rect width="27" height="25" fill="white" transform="translate(14 13)"/>
</clipPath>
</defs>
</svg>
