<svg width="50" height="50" viewBox="0 0 50 50" fill="none" xmlns="http://www.w3.org/2000/svg">
<circle cx="25" cy="25" r="25" fill="white"/>
<path d="M24.9864 13C26.2867 13 27.5338 13.5149 28.4533 14.4313C29.3728 15.3477 29.8893 16.5907 29.8893 17.8868V24.4469C29.8893 25.743 29.3728 26.9859 28.4533 27.9024C27.5338 28.8188 26.2867 29.3337 24.9864 29.3337C23.6861 29.3337 22.439 28.8188 21.5195 27.9024C20.6001 26.9859 20.0835 25.743 20.0835 24.4469V17.8841C20.0842 16.5885 20.6011 15.3462 21.5205 14.4304C22.4399 13.5145 23.6865 13 24.9864 13Z" fill="#4D75F4"/>
<path d="M34.8769 28.2519C34.8477 28.3357 34.8118 28.4169 34.7696 28.4949C33.6181 30.6266 32.1366 32.2577 30.3649 33.3434C28.7436 34.3406 26.8686 34.8518 24.9637 34.816C22.9161 34.762 20.9251 34.135 19.2181 33.0066C17.4832 31.8811 16.0855 30.3096 15.1725 28.458C15.0765 28.2683 15.0193 28.0615 15.0041 27.8496C14.9889 27.6378 15.0161 27.425 15.084 27.2236C15.152 27.0223 15.2594 26.8364 15.4 26.6768C15.5405 26.5171 15.7115 26.3869 15.903 26.2936C16.0945 26.2003 16.3026 26.1459 16.5154 26.1334C16.7281 26.1209 16.9413 26.1506 17.1424 26.2209C17.3435 26.2911 17.5287 26.4005 17.6871 26.5426C17.8455 26.6847 17.974 26.8567 18.0652 27.0487C19.3757 29.7193 22.1731 31.5498 25.0287 31.6053C27.8406 31.6608 30.2947 30.0204 31.9352 26.9748C32.1131 26.5972 32.4316 26.3035 32.8231 26.1562C33.2147 26.0089 33.6484 26.0194 34.0323 26.1856C34.4161 26.3518 34.7199 26.6606 34.8791 27.0464C35.0383 27.4322 35.0404 27.8646 34.8849 28.2519H34.8769Z" fill="#4D75F4"/>
<path d="M24.9834 32.584C25.4228 32.584 25.8443 32.7579 26.1551 33.0675C26.466 33.377 26.6408 33.7969 26.6411 34.2349V35.8396C26.6408 36.2777 26.466 36.6978 26.1552 37.0076C25.8444 37.3173 25.4229 37.4915 24.9834 37.4919C24.5437 37.4919 24.1221 37.3178 23.8112 37.008C23.5003 36.6981 23.3257 36.2778 23.3257 35.8396V34.2349C23.326 33.7969 23.5008 33.377 23.8117 33.0675C24.1225 32.7579 24.544 32.584 24.9834 32.584Z" fill="#4D75F4"/>
</svg>
