<svg width="10" height="12" viewBox="0 0 10 12" fill="none" xmlns="http://www.w3.org/2000/svg">
<path d="M4.99781 8.6412e-08C5.64825 0.000681399 6.2718 0.253067 6.73148 0.701707C7.19116 1.15035 7.44936 1.75854 7.44936 2.39268V5.60605C7.44936 6.24062 7.19079 6.84921 6.73055 7.29792C6.2703 7.74664 5.64607 7.99872 4.99518 7.99872C4.34486 7.99821 3.72133 7.74608 3.26155 7.2977C2.80177 6.84932 2.54332 6.24135 2.54297 5.60733V2.39396C2.5428 2.07959 2.60617 1.76826 2.72947 1.47778C2.85277 1.1873 3.03357 0.92335 3.26155 0.701025C3.48953 0.4787 3.76021 0.302356 4.05813 0.18207C4.35605 0.0617842 4.67536 -8.43997e-05 4.99781 8.6412e-08Z" fill="#162359"/>
<path d="M9.95437 7.47301C9.93975 7.51403 9.92167 7.5538 9.90032 7.5919C9.32352 8.63625 8.58193 9.43574 7.69399 9.9698C6.88264 10.4578 5.94442 10.7079 4.99129 10.6902C3.96439 10.6642 2.9658 10.3566 2.10994 9.8027C1.24075 9.25126 0.540428 8.48123 0.082914 7.57391C-0.0110569 7.38642 -0.0247831 7.17021 0.0447549 6.97285C0.114293 6.77549 0.261399 6.61315 0.453712 6.52153C0.646024 6.42992 0.86779 6.41653 1.07022 6.48433C1.27266 6.55212 1.43917 6.69554 1.53314 6.88304C2.19234 8.19152 3.59115 9.08869 5.02161 9.11633C6.42965 9.14332 7.65839 8.33741 8.48107 6.84705C8.5754 6.67082 8.73476 6.53603 8.92702 6.46985C9.11927 6.40367 9.33011 6.41103 9.51702 6.49044C9.70393 6.56986 9.853 6.71541 9.93416 6.89776C10.0153 7.08011 10.0225 7.28568 9.95437 7.47301Z" fill="#162359"/>
<path d="M4.99758 9.59509C5.21775 9.59526 5.42884 9.68065 5.58447 9.8325C5.74009 9.98434 5.82751 10.1902 5.82751 10.4049V11.1902C5.82751 11.4049 5.74009 11.6107 5.58447 11.7626C5.42884 11.9144 5.21775 11.9998 4.99758 12C4.77729 12 4.56603 11.9147 4.41027 11.7628C4.2545 11.6109 4.16699 11.405 4.16699 11.1902V10.4049C4.16699 10.1901 4.2545 9.98413 4.41027 9.83227C4.56603 9.68041 4.77729 9.59509 4.99758 9.59509Z" fill="#162359"/>
</svg>
