<svg width="14" height="16" viewBox="0 0 14 16" fill="none" xmlns="http://www.w3.org/2000/svg">
<path d="M2.69408 0H10.4375C10.7913 0 11.1416 0.0696843 11.4685 0.205074C11.7953 0.340464 12.0923 0.538908 12.3425 0.789076C12.5927 1.03924 12.7911 1.33624 12.9265 1.6631C13.0619 1.98996 13.1316 2.34028 13.1316 2.69408C13.1318 2.76759 13.1176 2.84043 13.0896 2.90841C13.0616 2.97638 13.0204 3.03816 12.9685 3.09019C12.9166 3.14221 12.8549 3.18346 12.7869 3.21157C12.719 3.23967 12.6462 3.25407 12.5727 3.25395H0.558914C0.485436 3.25395 0.412679 3.23946 0.344806 3.21131C0.276933 3.18316 0.215276 3.14191 0.163364 3.08991C0.111452 3.0379 0.0703022 2.97618 0.0422705 2.90826C0.0142389 2.84033 -0.000124999 2.76755 8.19461e-07 2.69408C8.19461e-07 1.97956 0.28384 1.29431 0.789077 0.789076C1.29431 0.283839 1.97956 0 2.69408 0V0Z" fill="#767E9F"/>
<path d="M1.29688 4.57275V12.3459C1.29688 13.0819 1.58928 13.7879 2.10978 14.3084C2.63027 14.8289 3.33621 15.1213 4.0723 15.1213H9.06806C9.80415 15.1213 10.5101 14.8289 11.0306 14.3084C11.5511 13.7879 11.8435 13.0819 11.8435 12.3459V4.57275H1.29688ZM5.65621 12.3181C5.65595 12.5014 5.5831 12.6771 5.4536 12.8068C5.3241 12.9364 5.14849 13.0095 4.96522 13.01H4.72022C4.53695 13.0095 4.36134 12.9364 4.23184 12.8068C4.10234 12.6771 4.02949 12.5014 4.02923 12.3181V7.36923C4.02949 7.18596 4.10234 7.01026 4.23184 6.88057C4.36134 6.75089 4.53695 6.6778 4.72022 6.67729H4.96522C5.14849 6.6778 5.3241 6.75089 5.4536 6.88057C5.5831 7.01026 5.65595 7.18596 5.65621 7.36923V12.3181ZM9.1073 12.3181C9.1068 12.5015 9.03373 12.6772 8.90408 12.8068C8.77442 12.9365 8.59872 13.0095 8.41536 13.01H8.17131C7.98796 13.0095 7.81225 12.9365 7.6826 12.8068C7.55294 12.6772 7.47988 12.5015 7.47937 12.3181V7.36923C7.47988 7.18587 7.55294 7.01017 7.6826 6.88051C7.81225 6.75086 7.98796 6.6778 8.17131 6.67729H8.41536C8.59872 6.6778 8.77442 6.75086 8.90408 6.88051C9.03373 7.01017 9.1068 7.18587 9.1073 7.36923V12.3181Z" fill="#767E9F"/>
</svg>
