<svg width="18" height="15" viewBox="0 0 18 15" fill="none" xmlns="http://www.w3.org/2000/svg">
<path d="M6.57694 14.1429C6.42307 14.1423 6.27095 14.1087 6.13003 14.0441C5.98911 13.9794 5.8624 13.8851 5.75777 13.7671L0.30417 7.69606C0.100307 7.46871 -0.00890163 7.16593 0.000568269 6.85431C0.0100382 6.5427 0.137411 6.24779 0.354667 6.03446C0.571922 5.82112 0.861263 5.70684 1.15904 5.71675C1.45681 5.72666 1.73863 5.85995 1.9425 6.0873L6.56572 11.2424L16.0029 0.439011C16.0987 0.314212 16.2178 0.211218 16.353 0.136356C16.4882 0.0614946 16.6366 0.0163451 16.7891 0.00368129C16.9415 -0.00898256 17.0949 0.0111066 17.2397 0.0627147C17.3845 0.114323 17.5176 0.19636 17.631 0.303788C17.7444 0.411216 17.8356 0.541767 17.899 0.687422C17.9624 0.833076 17.9967 0.99076 17.9998 1.15079C18.0028 1.31082 17.9746 1.46981 17.9168 1.618C17.859 1.76619 17.7729 1.90046 17.6637 2.01255L7.40732 13.7553C7.30368 13.8755 7.17741 13.972 7.03644 14.0387C6.89547 14.1054 6.74285 14.1408 6.58816 14.1429H6.57694Z" fill="#4D75F4"/>
</svg>
