<svg width="13" height="13" viewBox="0 0 13 13" fill="none" xmlns="http://www.w3.org/2000/svg">
<path fill-rule="evenodd" clip-rule="evenodd" d="M6.50066 0C5.98782 0 5.57209 0.415736 5.57209 0.928572V5.57137H0.928572C0.415736 5.57137 0 5.9871 0 6.49994C0 7.01277 0.415736 7.42851 0.928572 7.42851H5.57209V12.0714C5.57209 12.5843 5.98782 13 6.50066 13C7.0135 13 7.42923 12.5843 7.42923 12.0714V7.42851H12.0714C12.5843 7.42851 13 7.01277 13 6.49994C13 5.9871 12.5843 5.57137 12.0714 5.57137H7.42923V0.928572C7.42923 0.415736 7.0135 0 6.50066 0Z" fill="#4D75F4"/>
</svg>
