<svg width="19" height="18" viewBox="0 0 19 18" fill="none" xmlns="http://www.w3.org/2000/svg">
<path d="M10.1532 6.55502L6.55332 10.1549C6.46897 10.2386 6.40201 10.3381 6.35632 10.4478C6.31063 10.5574 6.28711 10.6751 6.28711 10.7939C6.28711 10.9127 6.31063 11.0303 6.35632 11.14C6.40201 11.2497 6.46897 11.3492 6.55332 11.4329C6.63698 11.5172 6.73652 11.5842 6.84619 11.6298C6.95586 11.6755 7.07349 11.6991 7.1923 11.6991C7.3111 11.6991 7.42874 11.6755 7.5384 11.6298C7.64807 11.5842 7.74761 11.5172 7.83128 11.4329L11.4312 7.83297C11.6006 7.66351 11.6958 7.43366 11.6958 7.194C11.6958 6.95433 11.6006 6.72449 11.4312 6.55502C11.2617 6.38555 11.0318 6.29034 10.7922 6.29034C10.5525 6.29034 10.3227 6.38555 10.1532 6.55502Z" fill="#CDD1DE"/>
<path d="M9.24424 13.8538L8.09228 14.9967C7.44559 15.6631 6.57623 16.0681 5.65003 16.1345C4.72382 16.2009 3.80558 15.924 3.07045 15.3567C2.68191 15.0366 2.36485 14.6384 2.13974 14.1881C1.91463 13.7378 1.78649 13.2452 1.76359 12.7423C1.74069 12.2393 1.82355 11.7372 2.0068 11.2683C2.19005 10.7993 2.46962 10.3741 2.82746 10.0199L4.10542 8.73295C4.18977 8.64928 4.25672 8.54975 4.30241 8.44008C4.3481 8.33041 4.37163 8.21278 4.37163 8.09397C4.37163 7.97516 4.3481 7.85753 4.30241 7.74786C4.25672 7.63819 4.18977 7.53866 4.10542 7.45499C4.02175 7.37064 3.92222 7.30369 3.81255 7.258C3.70288 7.21231 3.58525 7.18878 3.46644 7.18878C3.34763 7.18878 3.23 7.21231 3.12033 7.258C3.01066 7.30369 2.91113 7.37064 2.82746 7.45499L1.6845 8.60695C0.721675 9.53933 0.12988 10.7894 0.0189865 12.1251C-0.0919068 13.4608 0.285636 14.7913 1.08152 15.8697C1.5539 16.4825 2.15126 16.9878 2.83393 17.352C3.5166 17.7162 4.26895 17.931 5.04101 17.982C5.81306 18.0331 6.58715 17.9193 7.31185 17.6482C8.03654 17.3771 8.69526 16.9549 9.24424 16.4097L10.5222 15.1317C10.6917 14.9623 10.7869 14.7324 10.7869 14.4928C10.7869 14.2531 10.6917 14.0232 10.5222 13.8538C10.3527 13.6843 10.1229 13.5891 9.88322 13.5891C9.64356 13.5891 9.41371 13.6843 9.24424 13.8538Z" fill="#CDD1DE"/>
<path d="M15.8862 1.09228C14.8004 0.288129 13.459 -0.0932573 12.1125 0.0193625C10.766 0.131982 9.50662 0.730906 8.56948 1.70426L7.59751 2.69423C7.48642 2.77499 7.39352 2.87818 7.32483 2.99712C7.25615 3.11606 7.2132 3.24809 7.19878 3.38468C7.18436 3.52127 7.19878 3.65936 7.24111 3.79002C7.28344 3.92068 7.35274 4.041 7.44451 4.14318C7.52818 4.22753 7.62772 4.29449 7.73738 4.34018C7.84705 4.38587 7.96469 4.40939 8.08349 4.40939C8.2023 4.40939 8.31993 4.38587 8.4296 4.34018C8.53927 4.29449 8.63881 4.22753 8.72247 4.14318L9.89243 2.96422C10.5355 2.29493 11.4039 1.88771 12.3297 1.82122C13.2555 1.75474 14.1731 2.0337 14.9053 2.60423C15.2967 2.92444 15.6163 3.32354 15.8432 3.77551C16.0701 4.22748 16.1992 4.72219 16.2221 5.2274C16.245 5.73261 16.1613 6.23698 15.9762 6.70764C15.7912 7.17831 15.5091 7.6047 15.1483 7.95905L13.8703 9.24601C13.7859 9.32967 13.719 9.42921 13.6733 9.53888C13.6276 9.64855 13.6041 9.76618 13.6041 9.88499C13.6041 10.0038 13.6276 10.1214 13.6733 10.2311C13.719 10.3408 13.7859 10.4403 13.8703 10.524C13.954 10.6083 14.0535 10.6753 14.1632 10.721C14.2728 10.7667 14.3905 10.7902 14.5093 10.7902C14.6281 10.7902 14.7457 10.7667 14.8554 10.721C14.9651 10.6753 15.0646 10.6083 15.1483 10.524L16.4262 9.24601C16.9699 8.69712 17.3908 8.03897 17.661 7.31516C17.9312 6.59135 18.0445 5.81838 17.9935 5.04747C17.9424 4.27656 17.7282 3.5253 17.3649 2.84343C17.0016 2.16157 16.4976 1.56468 15.8862 1.09228Z" fill="#CDD1DE"/>
</svg>
