<svg width="13" height="18" viewBox="0 0 13 18" fill="none" xmlns="http://www.w3.org/2000/svg">
<path d="M12.0081 9.67109C12.5424 8.84165 12.8712 7.90289 12.9686 6.92882C13.0659 5.95475 12.9292 4.97202 12.569 4.05812C12.2089 3.14421 11.6353 2.32412 10.8935 1.6625C10.1516 1.00089 9.2618 0.515848 8.29417 0.245622C7.32653 -0.0246035 6.30754 -0.0726231 5.31755 0.10535C4.32756 0.283323 3.39364 0.682421 2.58942 1.27118C1.78521 1.85993 1.1327 2.62224 0.683333 3.49801C0.23397 4.37377 4.65222e-05 5.33903 6.35594e-06 6.31768C-0.00170497 7.5041 0.342196 8.66675 0.991919 9.67109L0.834226 9.40615C0.74565 9.25913 0.700829 9.09108 0.704761 8.92074C0.703775 9.08684 0.748472 9.25018 0.834226 9.39385L0.991919 9.65879L3.25025 13.4607L5.6653 17.5295C5.75006 17.6717 5.87179 17.7898 6.01829 17.8719C6.16479 17.9539 6.33091 17.9971 6.50001 17.9971C6.6691 17.9971 6.83522 17.9539 6.98172 17.8719C7.12822 17.7898 7.24995 17.6717 7.33471 17.5295L9.74976 13.4607L12.0081 9.65879L12.1658 9.39385C12.2515 9.25018 12.2962 9.08684 12.2953 8.92074C12.2993 9.09084 12.2552 9.25875 12.1677 9.40615L12.0081 9.67109ZM6.49952 9.02766C5.94813 9.02766 5.40912 8.86872 4.95066 8.57095C4.4922 8.27317 4.13487 7.84993 3.92386 7.35475C3.71286 6.85956 3.65765 6.31467 3.76522 5.78899C3.87279 5.2633 4.13831 4.78043 4.5282 4.40143C4.91809 4.02243 5.41484 3.76433 5.95563 3.65977C6.49643 3.5552 7.05697 3.60887 7.56639 3.81398C8.07581 4.01909 8.51121 4.36644 8.81755 4.81209C9.12388 5.25775 9.28739 5.7817 9.28739 6.31768C9.28752 6.67359 9.21549 7.02605 9.07544 7.35489C8.93538 7.68374 8.73003 7.98253 8.47113 8.2342C8.21222 8.48587 7.90484 8.68549 7.56654 8.82163C7.22824 8.95778 6.86566 9.02779 6.49952 9.02766Z" fill="#CDD1DE"/>
</svg>
