<svg width="13" height="7" viewBox="0 0 13 7" fill="none" xmlns="http://www.w3.org/2000/svg">
<path d="M6.4898 6.99764C6.27322 6.99809 6.06333 6.91676 5.89656 6.76775L0.334863 1.77034C0.145564 1.60069 0.0265212 1.3569 0.00392239 1.09261C-0.0186764 0.828322 0.0570201 0.565176 0.214359 0.361065C0.371698 0.156954 0.597792 0.0285965 0.842901 0.00422933C1.08801 -0.0201378 1.33206 0.0614814 1.52136 0.231132L6.4898 4.70882L11.4583 0.39105C11.5531 0.308027 11.6622 0.246028 11.7793 0.208615C11.8964 0.171203 12.0192 0.159115 12.1407 0.173047C12.2621 0.186979 12.3798 0.226656 12.487 0.289797C12.5942 0.352938 12.6888 0.438299 12.7653 0.540973C12.8501 0.643741 12.9144 0.764305 12.9541 0.895111C12.9938 1.02592 13.008 1.16415 12.9958 1.30114C12.9836 1.43813 12.9453 1.57093 12.8833 1.69123C12.8213 1.81152 12.7369 1.91672 12.6355 2.00022L7.07378 6.82772C6.90222 6.95317 6.69661 7.013 6.4898 6.99764Z" fill="#A1A8C1"/>
</svg>
