<svg width="18" height="15" viewBox="0 0 18 15" fill="red" xmlns="http://www.w3.org/2000/svg">
<path d="M8.75551 14.1246V14.1245L8.74683 14.1246C8.73038 14.1247 8.71407 14.1215 8.69884 14.1153C8.68394 14.1092 8.67034 14.1003 8.65881 14.0891C8.65857 14.0888 8.65833 14.0886 8.65808 14.0883L1.86425 7.28577C1.86387 7.28539 1.86349 7.285 1.86311 7.28461C1.14998 6.56343 0.75 5.5901 0.75 4.57584C0.75 3.56185 1.14976 2.58879 1.86251 1.86766C2.58123 1.1519 3.55427 0.75 4.56867 0.75C5.58371 0.75 6.55734 1.15241 7.27619 1.86902C7.27632 1.86915 7.27646 1.86928 7.27659 1.86942L8.22084 2.81367L8.75117 3.344L9.2815 2.81367L10.2257 1.86942C10.2258 1.86935 10.2259 1.86928 10.226 1.86921C10.9448 1.15248 11.9185 0.75 12.9337 0.75C13.9481 0.75 14.9211 1.1519 15.6398 1.86766C16.3526 2.58879 16.7523 3.56185 16.7523 4.57584C16.7523 5.59012 16.3524 6.56345 15.6392 7.28464C15.6388 7.28502 15.6385 7.28539 15.6381 7.28577L8.84426 14.0883C8.84401 14.0886 8.84377 14.0888 8.84353 14.0891C8.832 14.1003 8.81841 14.1092 8.80349 14.1153C8.78826 14.1215 8.77196 14.1247 8.75551 14.1246Z" stroke="red" stroke-width="1.5"/>
</svg>
