<svg width="11" height="16" viewBox="0 0 11 16" fill="none" xmlns="http://www.w3.org/2000/svg">
<path d="M9.74677 8.07547C10.1805 7.38288 10.4474 6.599 10.5264 5.78564C10.6054 4.97229 10.4944 4.1517 10.2021 3.38857C9.90979 2.62545 9.44421 1.94066 8.84206 1.38821C8.23991 0.835755 7.51765 0.430739 6.73224 0.205097C5.94682 -0.0205442 5.11972 -0.0606411 4.31617 0.0879683C3.51261 0.236578 2.75456 0.56983 2.10179 1.06145C1.44902 1.55306 0.91939 2.1896 0.55465 2.92087C0.18991 3.65215 3.77613e-05 4.45815 5.15901e-06 5.27533C-0.0013839 6.26601 0.277755 7.23683 0.805124 8.07547L0.677127 7.85425C0.605232 7.73148 0.568851 7.59115 0.572043 7.44892C0.571242 7.58762 0.607522 7.72401 0.677127 7.84397L0.805124 8.0652L2.63817 11.2399L4.59843 14.6373C4.66723 14.7561 4.76604 14.8547 4.88495 14.9232C5.00386 14.9917 5.1387 15.0278 5.27595 15.0278C5.4132 15.0278 5.54803 14.9917 5.66694 14.9232C5.78586 14.8547 5.88466 14.7561 5.95346 14.6373L7.91372 11.2399L9.74677 8.0652L9.87477 7.84397C9.94437 7.72401 9.98065 7.58762 9.97985 7.44892C9.98311 7.59096 9.94731 7.73116 9.87634 7.85425L9.74677 8.07547ZM5.27555 7.5382C4.828 7.5382 4.3905 7.40549 4.01837 7.15684C3.64624 6.90819 3.35621 6.55478 3.18493 6.1413C3.01366 5.72781 2.96885 5.27283 3.05616 4.83387C3.14348 4.39492 3.35899 3.99171 3.67546 3.67525C3.99193 3.35878 4.39513 3.14326 4.83409 3.05595C5.27304 2.96864 5.72803 3.01345 6.14151 3.18472C6.555 3.35599 6.90841 3.64603 7.15706 4.01815C7.4057 4.39028 7.53842 4.82778 7.53842 5.27533C7.53852 5.57253 7.48006 5.86683 7.36638 6.14142C7.2527 6.41601 7.08602 6.66551 6.87587 6.87566C6.66572 7.0858 6.41623 7.25248 6.14164 7.36616C5.86704 7.47985 5.57274 7.53831 5.27555 7.5382Z" fill="#767E9F"/>
</svg>
