<svg width="94" height="93" viewBox="0 0 94 93" fill="none" xmlns="http://www.w3.org/2000/svg">
<ellipse cx="46.9997" cy="46.5" rx="46.6824" ry="46.5" fill="#EFF1F9"/>
<path d="M47.8017 47.4909C53.1492 47.4909 57.4843 43.1277 57.4843 37.7455C57.4843 32.3632 53.1492 28 47.8017 28C42.4542 28 38.1191 32.3632 38.1191 37.7455C38.1191 43.1277 42.4542 47.4909 47.8017 47.4909Z" fill="#CDD1DE"/>
<path d="M26.5756 63.7762C26.6393 63.5933 26.717 63.4156 26.8078 63.2447C29.2889 58.6242 32.479 55.0837 36.2899 52.7366C39.777 50.5771 43.8077 49.4728 47.9012 49.5553C52.3003 49.6783 56.5767 51.0423 60.2433 53.4919C63.97 55.942 66.9706 59.359 68.9285 63.3825C69.2553 64.201 69.2621 65.1137 68.9476 65.937C68.6331 66.7604 68.0206 67.4334 67.2332 67.8208C66.4458 68.2081 65.5419 68.2812 64.7032 68.0251C63.8645 67.7691 63.1532 67.2031 62.7122 66.4407C59.906 60.6441 53.8975 56.6608 47.7594 56.5304C41.7191 56.4025 36.4439 59.9749 32.9043 66.5662C32.4807 67.3164 31.7961 67.8821 30.9826 68.1542C30.169 68.4263 29.2842 68.3856 28.4987 68.0398C27.7132 67.6941 27.0828 67.0678 26.729 66.2818C26.3753 65.4959 26.3232 64.6059 26.5829 63.7835L26.5756 63.7762Z" fill="#CDD1DE"/>
</svg>
