<svg width="21" height="10" viewBox="0 0 21 10" fill="none" xmlns="http://www.w3.org/2000/svg">
<path d="M17.0326 0.151992C13.5177 1.01244 4.16362 4.91812 4.16362 4.91812C4.1292 4.93056 4.09197 4.93299 4.05622 4.92515C4.02048 4.9173 3.98769 4.89949 3.96165 4.87378L2.58148 3.50593C2.31605 3.24229 1.97115 3.07344 1.60012 3.0255C1.22909 2.97756 0.852604 3.05321 0.528884 3.24074L0.0953758 3.49198C0.0515396 3.51738 0.0195724 3.55914 0.00648877 3.60809C-0.00659484 3.65704 0.000273819 3.70918 0.0255876 3.75307L1.99608 7.16202C2.48049 7.9691 3.41648 8.02575 4.41979 7.79996C6.02327 7.43789 10.5776 5.7408 10.5776 5.7408C10.5866 5.7376 10.5964 5.73708 10.6058 5.7393C10.6151 5.74151 10.6237 5.74638 10.6303 5.7533C10.637 5.76023 10.6415 5.76892 10.6434 5.77835C10.6452 5.78778 10.6443 5.79755 10.6408 5.80648L9.24503 9.20558C9.2078 9.29801 9.20827 9.40135 9.24633 9.49344C9.28439 9.58552 9.35702 9.65903 9.44865 9.69821C9.81878 9.85143 10.2306 9.87152 10.6139 9.75503C10.9972 9.63855 11.3282 9.39271 11.5505 9.05944L14.7928 4.1874C14.7928 4.1874 18.2551 3.06996 19.3315 2.51905C19.7609 2.29983 20.1345 1.92215 20.265 1.45826C20.2954 1.34933 20.3021 1.23516 20.2847 1.12343C20.2672 1.01169 20.2261 0.904981 20.164 0.810465C19.6418 0.0222678 18.3799 -0.177244 17.0326 0.151992Z" fill="#767E9F"/>
<path d="M5.8397 1.71684L7.59262 2.73822C7.61283 2.74994 7.63538 2.75705 7.65866 2.75904C7.68194 2.76102 7.70537 2.75784 7.72727 2.74971L10.8686 1.59533C10.8791 1.59173 10.8882 1.58492 10.8947 1.57587C10.9012 1.56682 10.9047 1.55597 10.9047 1.54484C10.9047 1.53371 10.9012 1.52286 10.8947 1.5138C10.8882 1.50475 10.8791 1.49795 10.8686 1.49434L7.75847 0.426993C7.38096 0.29763 6.97033 0.302825 6.59622 0.441696C6.2221 0.580567 5.90754 0.844565 5.70587 1.18892C5.67955 1.23225 5.66213 1.28039 5.65461 1.33053C5.64709 1.38066 5.64964 1.4318 5.6621 1.48094C5.67455 1.53009 5.69668 1.57626 5.72717 1.61676C5.75766 1.65726 5.79592 1.69129 5.8397 1.71684Z" fill="#767E9F"/>
</svg>
