<svg width="18" height="18" viewBox="0 0 18 18" fill="none" xmlns="http://www.w3.org/2000/svg">
<circle cx="9" cy="9" r="9" fill="#767E9F"/>
<path d="M4.34881 12.0113C4.3628 11.9724 4.38005 11.9347 4.40039 11.8985C4.94426 10.9087 5.64377 10.1509 6.48099 9.6468C7.24614 9.18378 8.13105 8.94627 9.03015 8.96258C9.97581 8.98086 10.9141 9.27106 11.7435 9.80228C12.563 10.3249 13.2233 11.0547 13.6546 11.9147C13.7432 12.0924 13.7561 12.2972 13.6906 12.4841C13.625 12.6711 13.4864 12.8248 13.3052 12.9116C13.124 12.9984 12.915 13.0111 12.7243 12.9469C12.5335 12.8826 12.3766 12.7468 12.288 12.5692C11.6705 11.3296 10.3488 10.4791 9.00045 10.4542C7.67302 10.4287 6.51368 11.1926 5.73864 12.6051C5.64981 12.7724 5.49946 12.9005 5.31797 12.9635C5.13648 13.0264 4.93739 13.0195 4.76092 12.9441C4.58444 12.8687 4.44374 12.7305 4.36725 12.5573C4.29075 12.3842 4.28417 12.189 4.34881 12.0113Z" fill="white"/>
<path d="M9.02913 8.5443C10.303 8.5443 11.3356 7.53222 11.3356 6.28375C11.3356 5.03528 10.303 4.02319 9.02913 4.02319C7.7553 4.02319 6.72266 5.03528 6.72266 6.28375C6.72266 7.53222 7.7553 8.5443 9.02913 8.5443Z" fill="white"/>
</svg>
