<svg width="15" height="15" viewBox="0 0 15 15" fill="none" xmlns="http://www.w3.org/2000/svg">
<path fill-rule="evenodd" clip-rule="evenodd" d="M11.8809 4.32024C13.0739 4.32024 14.0411 3.35312 14.0411 2.16012C14.0411 0.967119 13.0739 0 11.8809 0C10.6879 0 9.72081 0.967119 9.72081 2.16012C9.72081 2.29209 9.73265 2.4213 9.75531 2.54673L3.62043 6.08871C3.23593 5.73578 2.72318 5.52035 2.16012 5.52035C0.967119 5.52035 0 6.48747 0 7.68047C0 8.87347 0.967119 9.84059 2.16012 9.84059C2.6636 9.84059 3.12685 9.66834 3.49415 9.37955L9.75551 12.093C9.73272 12.2188 9.72081 12.3484 9.72081 12.4807C9.72081 13.6737 10.6879 14.6408 11.8809 14.6408C13.0739 14.6408 14.0411 13.6737 14.0411 12.4807C14.0411 11.2877 13.0739 10.3206 11.8809 10.3206C11.2524 10.3206 10.6866 10.589 10.2918 11.0175L4.20462 8.37953C4.27957 8.16027 4.32024 7.92512 4.32024 7.68047C4.32024 7.48436 4.29411 7.29436 4.24514 7.11375L10.2915 3.62291C10.6862 4.05163 11.2522 4.32024 11.8809 4.32024Z" fill="#767E9F"/>
</svg>
