<svg width="15" height="15" viewBox="0 0 15 15" fill="none" xmlns="http://www.w3.org/2000/svg">
<path d="M7.85408 0.00836524C6.34223 -0.0630894 4.84413 0.324548 3.55668 1.12033C2.26923 1.91611 1.25267 3.0828 0.640608 4.46707C0.0285464 5.85133 -0.150377 7.38838 0.127352 8.87622C0.405082 10.3641 1.12647 11.7331 2.1967 12.8033C3.26694 13.8735 4.63593 14.5949 6.12378 14.8726C7.61161 15.1504 9.14867 14.9715 10.5329 14.3594C11.9172 13.7473 13.0839 12.7308 13.8797 11.4433C14.6755 10.1559 15.0631 8.65777 14.9916 7.14592C14.9017 5.28197 14.1208 3.51832 12.8012 2.19877C11.4817 0.879224 9.71803 0.0983487 7.85408 0.00836524ZM13.2091 6.80851H10.9677C10.9441 6.80855 10.9213 6.79955 10.9041 6.78336C10.8868 6.76716 10.8764 6.74498 10.875 6.72138C10.7897 5.40232 10.5358 4.17874 10.1335 3.19895C9.99972 2.86287 9.83526 2.53985 9.64217 2.23399C9.63101 2.21756 9.62541 2.19797 9.62622 2.17812C9.62702 2.15827 9.63418 2.13921 9.64664 2.12373C9.6591 2.10826 9.67621 2.0972 9.69543 2.09218C9.71465 2.08717 9.73498 2.08846 9.75341 2.09587C10.6941 2.48963 11.516 3.12162 12.1382 3.9296C12.7604 4.73758 13.1614 5.69369 13.3018 6.70376C13.3035 6.71691 13.3024 6.73027 13.2985 6.74295C13.2946 6.75562 13.2881 6.76732 13.2793 6.77725C13.2705 6.78718 13.2597 6.7951 13.2476 6.8005C13.2355 6.80589 13.2224 6.80862 13.2091 6.80851ZM7.66683 12.8411C7.21726 12.8411 6.19946 11.2931 6.08267 8.28886C6.08267 8.26427 6.09243 8.2407 6.10982 8.22331C6.1272 8.20593 6.15078 8.19616 6.17536 8.19616H9.1583C9.18289 8.19616 9.20647 8.20593 9.22385 8.22331C9.24123 8.2407 9.251 8.26427 9.251 8.28886C9.1342 11.2931 8.11641 12.8411 7.66683 12.8411ZM6.19854 6.80851C6.18571 6.80855 6.17302 6.80593 6.16126 6.80082C6.1495 6.7957 6.13893 6.7882 6.13022 6.77879C6.12151 6.76938 6.11485 6.75827 6.11065 6.74615C6.10645 6.73404 6.10481 6.72118 6.10584 6.7084C6.29865 3.98593 7.23951 2.5955 7.66683 2.5955C8.09416 2.5955 9.03502 3.98593 9.22783 6.7084C9.22885 6.72118 9.22721 6.73404 9.22302 6.74615C9.21882 6.75827 9.21216 6.76938 9.20344 6.77879C9.19473 6.7882 9.18416 6.7957 9.1724 6.80082C9.16065 6.80593 9.14795 6.80855 9.13513 6.80851H6.19854ZM5.79068 2.08104C5.02686 3.16094 4.57822 4.89713 4.45864 6.7223C4.457 6.74575 4.44651 6.76769 4.4293 6.78369C4.41209 6.7997 4.38944 6.80857 4.36594 6.80851H1.7955C1.78224 6.80862 1.76911 6.80589 1.757 6.8005C1.74489 6.7951 1.73408 6.78718 1.72529 6.77725C1.71651 6.76732 1.70995 6.75562 1.70607 6.74295C1.70219 6.73027 1.70108 6.71691 1.7028 6.70376C1.85447 5.61552 2.30842 4.59166 3.01304 3.74858C3.71766 2.9055 4.64467 2.27702 5.68871 1.93458C5.70723 1.92903 5.72703 1.92942 5.74532 1.93568C5.76361 1.94194 5.77949 1.95377 5.79073 1.9695C5.80196 1.98523 5.808 2.00409 5.80799 2.02342C5.80798 2.04276 5.80193 2.06161 5.79068 2.07733V2.08104ZM1.7955 8.19894H4.34462C4.36921 8.19894 4.39279 8.20871 4.41017 8.22609C4.42755 8.24348 4.43732 8.26705 4.43732 8.29164C4.49108 9.77477 4.75527 11.1596 5.19557 12.2423C5.26694 12.4166 5.35686 12.6131 5.46624 12.8226C5.47548 12.8394 5.4793 12.8586 5.47718 12.8776C5.47507 12.8966 5.46711 12.9145 5.45442 12.9288C5.44172 12.9431 5.42491 12.9532 5.40628 12.9576C5.38765 12.962 5.36812 12.9605 5.35037 12.9533C4.38463 12.5696 3.53808 11.9363 2.89722 11.1183C2.25637 10.3002 1.84419 9.32672 1.7028 8.2972C1.70093 8.28399 1.70194 8.27052 1.70575 8.25773C1.70957 8.24494 1.7161 8.23312 1.7249 8.22309C1.7337 8.21306 1.74456 8.20504 1.75675 8.1996C1.76893 8.19415 1.78215 8.1914 1.7955 8.19153V8.19894ZM9.96568 12.6344C10.5219 11.4739 10.8379 9.89805 10.8973 8.28793C10.8973 8.26335 10.907 8.23977 10.9244 8.22239C10.9418 8.205 10.9654 8.19524 10.99 8.19524H13.21C13.2234 8.1951 13.2366 8.19786 13.2488 8.2033C13.261 8.20875 13.2718 8.21677 13.2806 8.2268C13.2894 8.23683 13.296 8.24865 13.2998 8.26144C13.3036 8.27423 13.3046 8.28769 13.3027 8.30091C13.1708 9.24812 12.8092 10.1487 12.2496 10.9242C11.6899 11.6997 10.9491 12.3266 10.0917 12.7503C10.0744 12.7594 10.0546 12.7627 10.0353 12.7599C10.0159 12.7571 9.99792 12.7481 9.98392 12.7345C9.96992 12.7208 9.96062 12.703 9.95734 12.6837C9.95407 12.6644 9.95699 12.6446 9.96568 12.627V12.6344Z" fill="#767E9F"/>
</svg>
