<svg width="200" height="165" viewBox="0 0 200 165" fill="none" xmlns="http://www.w3.org/2000/svg">
<path d="M100 165C98.6841 165.007 97.3797 164.762 96.1614 164.279C94.9432 163.796 93.8352 163.085 92.9009 162.185L15.2113 86.6713C5.46625 77.1124 0 64.2071 0 50.7585C0 37.31 5.46625 24.4047 15.2113 14.8458C25.0326 5.33876 38.3366 0 52.2064 0C66.0762 0 79.3801 5.33876 89.2014 14.8458L100 25.3285L110.799 14.8458C120.62 5.33876 133.924 0 147.794 0C161.663 0 174.967 5.33876 184.789 14.8458C194.534 24.4047 200 37.31 200 50.7585C200 64.2071 194.534 77.1124 184.789 86.6713L107.099 162.185C106.165 163.085 105.057 163.796 103.839 164.279C102.62 164.762 101.316 165.007 100 165Z" fill="#F8DEE4"/>
</svg>
