<svg width="19" height="17" viewBox="0 0 19 17" fill="none" xmlns="http://www.w3.org/2000/svg">
<path d="M10.1402 0H2.01998C1.48425 0 0.97046 0.212664 0.59164 0.591209C0.212819 0.969754 0 1.48317 0 2.01852L0 14.0865C0 14.3378 0.0495317 14.5866 0.145767 14.8188C0.242003 15.051 0.383057 15.2619 0.560877 15.4396C0.738697 15.6173 0.949799 15.7582 1.18213 15.8544C1.41446 15.9506 1.66348 16.0001 1.91495 16.0001H8.20373C8.2522 15.9998 8.29947 15.9849 8.33931 15.9573C8.37914 15.9297 8.40969 15.8907 8.42692 15.8454C8.96968 14.4684 10.0178 13.3503 11.3575 12.7193C11.3891 12.7048 11.417 12.6835 11.4394 12.6569C11.4618 12.6303 11.4781 12.5992 11.487 12.5656C11.496 12.532 11.4974 12.4969 11.4913 12.4627C11.4851 12.4286 11.4714 12.3962 11.4513 12.3679C11.0181 11.7556 10.8394 10.9994 10.9528 10.2582C11.0661 9.51705 11.4626 8.84866 12.059 8.39361C12.0896 8.37092 12.1145 8.3414 12.1318 8.30741C12.149 8.27342 12.1581 8.23587 12.1584 8.19776V2.01852C12.1584 1.4835 11.9458 0.970363 11.5674 0.591872C11.189 0.21338 10.6757 0.000496768 10.1402 0V0ZM5.34536 12.396C5.34536 12.5615 5.27956 12.7202 5.16243 12.8373C5.0453 12.9543 4.88644 13.0201 4.7208 13.0201H3.26161C3.09596 13.0201 2.9371 12.9543 2.81998 12.8373C2.70285 12.7202 2.63705 12.5615 2.63705 12.396V10.9388C2.63705 10.7733 2.70285 10.6145 2.81998 10.4975C2.9371 10.3804 3.09596 10.3147 3.26161 10.3147H4.71986C4.80196 10.3145 4.88328 10.3306 4.95916 10.3619C5.03504 10.3932 5.10401 10.4392 5.1621 10.4971C5.2202 10.5551 5.26629 10.6239 5.29773 10.6997C5.32918 10.7755 5.34536 10.8567 5.34536 10.9388V12.396ZM5.34536 8.67849C5.34536 8.84402 5.27956 9.00276 5.16243 9.1198C5.0453 9.23685 4.88644 9.3026 4.7208 9.3026H3.26161C3.09596 9.3026 2.9371 9.23685 2.81998 9.1198C2.70285 9.00276 2.63705 8.84402 2.63705 8.67849V7.22224C2.63705 7.05663 2.70282 6.89779 2.81992 6.78059C2.93702 6.6634 3.09588 6.59744 3.26161 6.59719H4.71986C4.88576 6.59719 5.04485 6.66304 5.16216 6.78026C5.27946 6.89748 5.34536 7.05646 5.34536 7.22224V8.67849ZM5.34536 4.96663C5.34536 5.13216 5.27956 5.2909 5.16243 5.40795C5.0453 5.52499 4.88644 5.59074 4.7208 5.59074H3.26161C3.09596 5.59074 2.9371 5.52499 2.81998 5.40795C2.70285 5.2909 2.63705 5.13216 2.63705 4.96663V3.50476C2.63705 3.33923 2.70285 3.18049 2.81998 3.06345C2.9371 2.9464 3.09596 2.88065 3.26161 2.88065H4.71986C4.80196 2.88052 4.88328 2.89658 4.95916 2.92789C5.03504 2.9592 5.10401 3.00515 5.1621 3.06311C5.2202 3.12108 5.26629 3.18992 5.29773 3.2657C5.32918 3.34149 5.34536 3.42272 5.34536 3.50476V4.96663ZM9.37783 12.396C9.37758 12.5616 9.31157 12.7203 9.19429 12.8373C9.07702 12.9544 8.91806 13.0201 8.75233 13.0201H7.29877C7.13312 13.0201 6.97426 12.9543 6.85713 12.8373C6.74 12.7202 6.6742 12.5615 6.6742 12.396V10.9388C6.6742 10.7733 6.74 10.6145 6.85713 10.4975C6.97426 10.3804 7.13312 10.3147 7.29877 10.3147H8.75608C8.92181 10.3147 9.08077 10.3804 9.19805 10.4974C9.31532 10.6144 9.38133 10.7732 9.38158 10.9388L9.37783 12.396ZM9.37783 8.67849C9.37758 8.8441 9.31157 9.00284 9.19429 9.11986C9.07702 9.23688 8.91806 9.3026 8.75233 9.3026H7.29877C7.13312 9.3026 6.97426 9.23685 6.85713 9.1198C6.74 9.00276 6.6742 8.84402 6.6742 8.67849V7.22224C6.6742 7.05663 6.73997 6.89779 6.85708 6.78059C6.97418 6.6634 7.13303 6.59744 7.29877 6.59719H8.75608C8.92132 6.59818 9.07946 6.66447 9.19595 6.78158C9.31245 6.89869 9.37783 7.05711 9.37783 7.22224V8.67849ZM9.37783 4.96663C9.37758 5.13224 9.31157 5.29099 9.19429 5.408C9.07702 5.52502 8.91806 5.59074 8.75233 5.59074H7.29877C7.13312 5.59074 6.97426 5.52499 6.85713 5.40795C6.74 5.2909 6.6742 5.13216 6.6742 4.96663V3.50476C6.6742 3.33923 6.74 3.18049 6.85713 3.06345C6.97426 2.9464 7.13312 2.88065 7.29877 2.88065H8.75608C8.92116 2.88164 9.07916 2.9478 9.19562 3.06471C9.31209 3.18162 9.37759 3.33979 9.37783 3.50476V4.96663Z" fill="#162359"/>
<path d="M13.9146 12.7008C15.0224 12.7008 15.9205 11.8034 15.9205 10.6964C15.9205 9.58932 15.0224 8.69189 13.9146 8.69189C12.8068 8.69189 11.9087 9.58932 11.9087 10.6964C11.9087 11.8034 12.8068 12.7008 13.9146 12.7008Z" fill="#162359"/>
<path d="M9.51689 16.0499C9.5301 16.0123 9.54608 15.9756 9.56471 15.9403C10.0796 14.9901 10.7398 14.262 11.5341 13.7794C12.2563 13.3347 13.0913 13.107 13.9395 13.1234C14.8512 13.1483 15.7374 13.4292 16.4968 13.934C17.2662 14.4392 17.8848 15.1428 18.287 15.9703C18.3559 16.139 18.3581 16.3275 18.2931 16.4977C18.228 16.6678 18.1007 16.8069 17.9368 16.8868C17.773 16.9666 17.5849 16.9812 17.4106 16.9276C17.2364 16.874 17.0891 16.7563 16.9985 16.5982C16.4171 15.4052 15.1717 14.5862 13.9038 14.559C12.6519 14.5328 11.5594 15.2656 10.826 16.6206C10.7409 16.7798 10.5989 16.9011 10.4283 16.9604C10.2578 17.0196 10.0711 17.0125 9.90553 16.9404C9.73996 16.8683 9.60764 16.7366 9.53492 16.5714C9.46221 16.4062 9.45443 16.2197 9.51313 16.049L9.51689 16.0499Z" fill="#162359"/>
</svg>
