<svg width="14" height="18" viewBox="0 0 14 18" fill="none" xmlns="http://www.w3.org/2000/svg">
<path d="M6.9899 0C7.90014 0 8.77309 0.360398 9.41672 1.00191C10.0604 1.64342 10.4219 2.5135 10.4219 3.42074V8.01285C10.4219 8.92008 10.0604 9.79016 9.41672 10.4317C8.77309 11.0732 7.90014 11.4336 6.9899 11.4336C6.07967 11.4336 5.20672 11.0732 4.56308 10.4317C3.91945 9.79016 3.55786 8.92008 3.55786 8.01285V3.41889C3.55835 2.51197 3.92016 1.64237 4.56374 1.00126C5.20732 0.360144 6.07999 -1.32493e-07 6.9899 0Z" fill="#162359"/>
<path d="M13.9138 10.6768C13.8934 10.7354 13.8683 10.7923 13.8387 10.8469C13.0326 12.3391 11.9956 13.4809 10.7554 14.2408C9.62049 14.9389 8.30802 15.2967 6.97462 15.2717C5.5413 15.2339 4.14754 14.795 2.95264 14.0051C1.73827 13.2172 0.759865 12.1171 0.12074 10.821C0.0535587 10.6883 0.0134919 10.5435 0.00286369 10.3952C-0.00776453 10.2469 0.0112573 10.0979 0.058826 9.95701C0.106395 9.81607 0.181564 9.68595 0.279973 9.5742C0.378383 9.46244 0.498074 9.37127 0.632107 9.30598C0.766139 9.24068 0.911844 9.20256 1.06077 9.19382C1.2097 9.18508 1.35889 9.2059 1.49968 9.25507C1.64047 9.30424 1.77007 9.38078 1.88096 9.48025C1.99185 9.57973 2.08181 9.70016 2.14565 9.83455C3.06302 11.7039 5.02114 12.9853 7.02007 13.0242C8.9884 13.063 10.7063 11.9147 11.8546 9.78278C11.9791 9.51847 12.2021 9.31293 12.4762 9.20979C12.7503 9.10666 13.0539 9.11404 13.3226 9.23039C13.5913 9.34673 13.8039 9.56287 13.9154 9.83293C14.0268 10.103 14.0282 10.4057 13.9194 10.6768H13.9138Z" fill="#162359"/>
<path d="M6.98975 13.709C7.29735 13.709 7.59236 13.8307 7.80995 14.0474C8.02754 14.2641 8.14991 14.5581 8.15015 14.8646V15.9879C8.14991 16.2946 8.02757 16.5886 7.81001 16.8055C7.59244 17.0223 7.29743 17.1443 6.98975 17.1445C6.68199 17.1445 6.38684 17.0227 6.16922 16.8058C5.9516 16.5889 5.82935 16.2947 5.82935 15.9879V14.8646C5.82959 14.5581 5.95196 14.2641 6.16955 14.0474C6.38714 13.8307 6.68215 13.709 6.98975 13.709Z" fill="#162359"/>
</svg>
