<svg width="24" height="24" viewBox="0 0 24 24" fill="none" xmlns="http://www.w3.org/2000/svg">
<path fill-rule="evenodd" clip-rule="evenodd" d="M12 0C5.37258 0 0 5.37258 0 12C0 18.6274 5.37258 24 12 24C18.6274 24 24 18.6274 24 12C24 5.37258 18.6274 0 12 0ZM9.98351 2.52264C10.634 2.38493 11.3085 2.31248 12 2.31248C14.24 2.31248 16.3024 3.07271 17.9433 4.34923C16.4994 5.59077 14.8844 6.63785 13.1382 7.44972C12.1878 5.73887 11.1334 4.09373 9.98351 2.52264ZM7.69416 3.3196C5.28787 4.51552 3.44937 6.68254 2.69145 9.30787C3.24943 9.35406 3.81246 9.37838 4.38023 9.37838C6.68417 9.37838 8.89996 9.0038 10.9709 8.31229C9.98904 6.57242 8.89349 4.90493 7.69416 3.3196ZM2.32071 11.5969C2.31524 11.7306 2.31248 11.865 2.31248 12C2.31248 14.3275 3.13328 16.4633 4.50121 18.1337C6.52237 15.2781 9.42625 13.0894 12.8173 11.9685C12.5775 11.4336 12.3274 10.9043 12.0674 10.3808C9.66254 11.229 7.07539 11.6909 4.38023 11.6909C3.68474 11.6909 2.99798 11.6582 2.32071 11.5969ZM6.19229 19.7543C7.81056 20.9683 9.82129 21.6875 12 21.6875C13.3243 21.6875 14.5866 21.4218 15.7363 20.9407C15.241 18.59 14.5606 16.308 13.7107 14.1103C10.6109 15.092 7.97057 17.1078 6.19229 19.7543ZM17.8386 19.7311C19.6991 18.3238 21.0357 16.2605 21.5042 13.8853C20.3856 13.6015 19.215 13.4494 18.0082 13.4494C17.3224 13.4494 16.648 13.4979 15.9882 13.5917C16.7394 15.577 17.3597 17.6269 17.8386 19.7311ZM21.6772 11.5486C21.5809 9.44913 20.8163 7.52401 19.5913 5.981C17.9797 7.38918 16.1709 8.57815 14.2118 9.50042C14.5187 10.1237 14.8121 10.7548 15.0917 11.3934C16.0383 11.2249 17.0129 11.1369 18.0082 11.1369C19.2693 11.1369 20.4971 11.28 21.6772 11.5486Z" fill="#767E9F"/>
</svg>
