<svg width="20" height="21" viewBox="0 0 20 21" fill="none" xmlns="http://www.w3.org/2000/svg">
<path d="M17.93 0H1.793C0.802368 0 0 0.831647 0 1.85843V18.5843C0 19.6111 0.802368 20.4427 1.793 20.4427H17.93C18.9207 20.4427 19.723 19.6111 19.723 18.5843V1.85843C19.723 0.831647 18.9207 0 17.93 0ZM6.23427 16.7259H3.58959V7.90576H6.23427V16.7259ZM4.88503 6.64482C4.03246 6.64482 3.34305 5.92839 3.34305 5.04657C3.34305 4.16474 4.03336 3.44925 4.88503 3.44925C5.73492 3.44925 6.42612 4.16567 6.42612 5.04657C6.42612 5.92839 5.73492 6.64482 4.88503 6.64482ZM16.1406 16.7259H13.4977V12.4366C13.4977 11.4135 13.4798 10.0978 12.1234 10.0978C10.7473 10.0978 10.5357 11.2119 10.5357 12.3623V16.7259H7.89279V7.90576H10.4299V9.11095H10.4658C10.819 8.41776 11.6814 7.68647 12.9679 7.68647C15.6457 7.68647 16.1406 9.5133 16.1406 11.8884V16.7259Z" fill="#767E9F"/>
</svg>
