<svg width="26" height="21" viewBox="0 0 26 21" fill="none" xmlns="http://www.w3.org/2000/svg">
<path d="M25.3582 2.41977C24.4248 2.83096 23.4222 3.10767 22.3699 3.23248C23.4447 2.59392 24.2688 1.58286 24.6569 0.377333C23.6524 0.968488 22.5386 1.39807 21.3527 1.63027C20.4038 0.626953 19.052 0 17.556 0C14.6828 0 12.3538 2.31141 12.3538 5.16075C12.3538 5.56518 12.4006 5.95992 12.4884 6.33629C8.16502 6.1215 4.33218 4.06649 1.76525 0.943332C1.31857 1.70574 1.06208 2.59199 1.06208 3.53919C1.06208 5.3291 1.97981 6.90906 3.37543 7.83401C2.52304 7.80692 1.72039 7.57471 1.01916 7.18867C1.01916 7.21093 1.01916 7.23124 1.01916 7.2535C1.01916 9.75454 2.81172 11.8405 5.19237 12.3136C4.75642 12.4317 4.29609 12.4946 3.82113 12.4946C3.48661 12.4946 3.1599 12.4617 2.84293 12.4026C3.50514 14.4528 5.42644 15.9457 7.70274 15.9873C5.92286 17.3718 3.67972 18.1971 1.24153 18.1971C0.822158 18.1971 0.407666 18.1729 0 18.1246C2.30263 19.5884 5.03633 20.4427 7.97484 20.4427C17.5443 20.4427 22.7756 12.5787 22.7756 5.75868C22.7756 5.53518 22.7708 5.31265 22.761 5.09109C23.7782 4.36255 24.6608 3.45405 25.3582 2.41977Z" fill="#767E9F"/>
</svg>
