<svg width="22" height="22" viewBox="0 0 22 22" fill="none" xmlns="http://www.w3.org/2000/svg">
<path d="M11.5193 0.012269C9.30194 -0.0925311 7.10473 0.476004 5.21647 1.64315C3.3282 2.8103 1.83725 4.52145 0.939559 6.5517C0.0418681 8.58195 -0.220554 10.8363 0.186784 13.0185C0.594121 15.2006 1.65216 17.2085 3.22183 18.7782C4.79151 20.3479 6.79938 21.4059 8.98154 21.8132C11.1637 22.2206 13.4181 21.9581 15.4483 21.0605C17.4786 20.1628 19.1897 18.6718 20.3569 16.7835C21.524 14.8953 22.0925 12.6981 21.9877 10.4807C21.8558 7.74689 20.7105 5.16021 18.7751 3.22487C16.8398 1.28953 14.2531 0.144245 11.5193 0.012269ZM19.3734 9.98582H16.086C16.0513 9.98588 16.0179 9.97268 15.9926 9.94893C15.9674 9.92517 15.9521 9.89265 15.95 9.85802C15.825 7.92341 15.4525 6.12882 14.8624 4.69179C14.6663 4.19888 14.4251 3.72512 14.1419 3.27651C14.1255 3.25242 14.1173 3.22369 14.1185 3.19458C14.1196 3.16547 14.1301 3.1375 14.1484 3.11481C14.1667 3.09212 14.1918 3.0759 14.22 3.06854C14.2482 3.06118 14.278 3.06308 14.305 3.07394C15.6847 3.65146 16.8902 4.57838 17.8027 5.76342C18.7153 6.94845 19.3035 8.35074 19.5093 9.83219C19.5118 9.85147 19.5102 9.87107 19.5045 9.88966C19.4988 9.90825 19.4892 9.92541 19.4763 9.93997C19.4634 9.95453 19.4476 9.96616 19.4298 9.97407C19.4121 9.98198 19.3928 9.98598 19.3734 9.98582ZM11.2447 18.8337C10.5853 18.8337 9.09255 16.5633 8.92125 12.157C8.92125 12.1209 8.93557 12.0864 8.96107 12.0609C8.98657 12.0354 9.02115 12.021 9.0572 12.021H13.4322C13.4682 12.021 13.5028 12.0354 13.5283 12.0609C13.5538 12.0864 13.5681 12.1209 13.5681 12.157C13.3968 16.5633 11.9041 18.8337 11.2447 18.8337ZM9.09119 9.98582C9.07238 9.98588 9.05377 9.98204 9.03652 9.97453C9.01928 9.96703 9.00378 9.95603 8.991 9.94223C8.97822 9.92843 8.96844 9.91213 8.96229 9.89436C8.95613 9.87659 8.95373 9.85774 8.95524 9.83899C9.23802 5.84604 10.618 3.80673 11.2447 3.80673C11.8714 3.80673 13.2514 5.84604 13.5342 9.83899C13.5357 9.85774 13.5333 9.87659 13.5271 9.89436C13.5209 9.91213 13.5112 9.92843 13.4984 9.94223C13.4856 9.95603 13.4701 9.96703 13.4529 9.97453C13.4356 9.98204 13.417 9.98588 13.3982 9.98582H9.09119ZM8.493 3.05219C7.37274 4.63605 6.71472 7.18246 6.53934 9.85938C6.53693 9.89377 6.52155 9.92595 6.49631 9.94942C6.47107 9.97289 6.43786 9.9859 6.40339 9.98582H2.6334C2.61395 9.98598 2.5947 9.98198 2.57694 9.97407C2.55918 9.96616 2.54332 9.95453 2.53043 9.93997C2.51755 9.92541 2.50793 9.90825 2.50224 9.88966C2.49655 9.87107 2.49492 9.85147 2.49744 9.83219C2.7199 8.2361 3.38569 6.73444 4.41913 5.49792C5.45257 4.2614 6.81219 3.33963 8.34345 2.83738C8.37061 2.82925 8.39964 2.82981 8.42647 2.839C8.4533 2.84818 8.47659 2.86553 8.49307 2.8886C8.50955 2.91168 8.51841 2.93933 8.51839 2.96769C8.51838 2.99605 8.5095 3.02369 8.493 3.04675V3.05219ZM2.6334 12.0251H6.37212C6.40818 12.0251 6.44276 12.0394 6.46825 12.0649C6.49375 12.0904 6.50807 12.125 6.50807 12.1611C6.58693 14.3363 6.97439 16.3675 7.62017 17.9554C7.72486 18.211 7.85673 18.4992 8.01716 18.8065C8.03071 18.8311 8.03631 18.8592 8.03321 18.8871C8.0301 18.915 8.01844 18.9413 7.99982 18.9623C7.9812 18.9833 7.95653 18.998 7.92921 19.0044C7.90189 19.0109 7.87325 19.0087 7.84722 18.9982C6.4308 18.4354 5.18919 17.5066 4.24927 16.3068C3.30934 15.107 2.70481 13.6792 2.49744 12.1692C2.4947 12.1499 2.49618 12.1301 2.50177 12.1113C2.50737 12.0926 2.51694 12.0753 2.52985 12.0605C2.54276 12.0458 2.5587 12.0341 2.57657 12.0261C2.59444 12.0181 2.61382 12.0141 2.6334 12.0142V12.0251ZM14.6163 18.5305C15.4321 16.8284 15.8957 14.5172 15.9827 12.1556C15.9827 12.1196 15.997 12.085 16.0225 12.0595C16.048 12.034 16.0826 12.0197 16.1186 12.0197H19.3747C19.3943 12.0195 19.4137 12.0235 19.4315 12.0315C19.4494 12.0395 19.4654 12.0513 19.4783 12.066C19.4912 12.0807 19.5007 12.098 19.5063 12.1168C19.5119 12.1355 19.5134 12.1553 19.5107 12.1747C19.3171 13.5639 18.7869 14.8848 17.966 16.0222C17.1452 17.1596 16.0587 18.079 14.8012 18.7004C14.7758 18.7138 14.7468 18.7187 14.7184 18.7145C14.69 18.7104 14.6636 18.6973 14.6431 18.6772C14.6226 18.6571 14.6089 18.6311 14.6041 18.6028C14.5993 18.5745 14.6036 18.5453 14.6163 18.5196V18.5305Z" fill="#767E9F"/>
</svg>
